<?xml version="1.0" encoding="UTF-8"?>
<svg width="94px" height="94px" viewBox="0 0 94 94" version="1.1" xmlns="http://www.w3.org/2000/svg" xmlns:xlink="http://www.w3.org/1999/xlink">
    <!-- Generator: Sketch 61 (89581) - https://sketch.com -->
    <title>Group</title>
    <desc>Created with Sketch.</desc>
    <defs>
        <polygon id="path-1" points="0 0.123 93.9257 0.123 93.9257 94 0 94"></polygon>
    </defs>
    <g id="Page-1" stroke="none" stroke-width="1" fill="none" fill-rule="evenodd">
        <g id="Group" transform="translate(0.000000, -1.000000)">
            <g id="Group-12">
                <path d="M2.9096,31.6621 L25.5806,39.0291 C28.9266,30.9941 36.4656,25.5141 45.1236,24.8301 L45.1236,1.0021 C26.2686,1.7421 9.4716,13.9411 2.9096,31.6621" id="Fill-7" fill="#00594C"></path>
                <g id="Group-11" transform="translate(0.000000, 0.877500)">
                    <mask id="mask-2" fill="white">
                        <use xlink:href="#path-1"></use>
                    </mask>
                    <g id="Clip-10"></g>
                    <path d="M1.7607,34.2861 C0.5927,38.4211 -0.0003,42.7051 -0.0003,47.0351 C-0.0003,72.9321 21.0657,94.0001 46.9637,94.0001 C72.8567,94.0001 93.9257,72.9321 93.9257,47.0351 C93.9257,21.9731 73.7587,1.1021 48.8007,0.1221 L48.8007,23.9531 C60.8157,24.8971 70.1207,34.8901 70.1207,47.0351 C70.1207,59.8051 59.7327,70.1961 46.9637,70.1961 C34.1907,70.1961 23.8017,59.8051 23.8017,47.0351 C23.8017,45.2281 24.0177,43.4231 24.4397,41.6541 L1.7607,34.2861 Z" id="Fill-9" fill="#71C8AF" mask="url(#mask-2)"></path>
                </g>
            </g>
            <circle id="Oval" fill="#FFFFFF" cx="47.5" cy="47.5" r="32.5"></circle>
            <path d="M28.88,57 L36.44,42.432 L36.44,40.2 L24.632,40.2 L24.632,42.792 L33.08,42.792 L25.544,57 L28.88,57 Z M45.236,57.24 C48.908,57.24 51.644,55.368 51.644,52.368 L51.644,52.32 C51.644,50.328 50.468,49.128 48.62,48.288 C50.036,47.544 51.068,46.416 51.068,44.544 L51.068,44.496 C51.068,41.904 48.596,39.96 45.236,39.96 C41.876,39.96 39.404,41.928 39.404,44.496 L39.404,44.544 C39.404,46.416 40.436,47.544 41.852,48.288 C39.956,49.08 38.828,50.352 38.828,52.368 L38.828,52.416 C38.828,55.32 41.564,57.24 45.236,57.24 Z M45.236,47.304 C43.508,47.304 42.236,46.272 42.236,44.808 L42.236,44.76 C42.236,43.488 43.436,42.432 45.236,42.432 C47.036,42.432 48.236,43.488 48.236,44.784 L48.236,44.832 C48.236,46.272 46.964,47.304 45.236,47.304 Z M45.236,54.768 C43.028,54.768 41.732,53.616 41.732,52.248 L41.732,52.2 C41.732,50.664 43.244,49.656 45.236,49.656 C47.228,49.656 48.764,50.664 48.764,52.2 L48.764,52.248 C48.764,53.64 47.444,54.768 45.236,54.768 Z M58.184,48.6 C60.584,48.6 62.168,46.632 62.168,44.304 L62.168,44.256 C62.168,41.952 60.608,40.008 58.232,40.008 C55.856,40.008 54.248,41.952 54.248,44.304 L54.248,44.352 C54.248,46.656 55.832,48.6 58.184,48.6 Z M58.328,57 L63.992,49.152 L70.616,40.2 L68.24,40.2 L62.552,48.072 L55.952,57 L58.328,57 Z M58.232,46.752 C57.152,46.752 56.384,45.672 56.384,44.304 L56.384,44.256 C56.384,42.96 57.056,41.856 58.184,41.856 C59.264,41.856 60.032,42.96 60.032,44.304 L60.032,44.352 C60.032,45.648 59.36,46.752 58.232,46.752 Z M68.336,57.192 C70.712,57.192 72.32,55.224 72.32,52.896 L72.32,52.848 C72.32,50.544 70.736,48.6 68.384,48.6 C66.008,48.6 64.4,50.544 64.4,52.896 L64.4,52.944 C64.4,55.248 65.984,57.192 68.336,57.192 Z M68.384,55.344 C67.304,55.344 66.536,54.264 66.536,52.896 L66.536,52.848 C66.536,51.552 67.208,50.448 68.336,50.448 C69.416,50.448 70.184,51.552 70.184,52.896 L70.184,52.944 C70.184,54.24 69.512,55.344 68.384,55.344 Z" id="78%" fill="#00594C" fill-rule="nonzero"></path>
        </g>
    </g>
</svg>