<?xml version="1.0" encoding="UTF-8"?>
<svg id="uuid-b5a7b834-3a75-473a-9ffb-273db3b3bcf9" data-name="Layer 1" xmlns="http://www.w3.org/2000/svg" viewBox="0 0 131 144.61">
  <defs>
    <style>
      .uuid-384ae5b5-5a32-4947-9b68-fbe42abe63b9 {
        fill: #03cc54;
      }

      .uuid-0213735c-4408-4dd3-804e-25006b0c5cf7 {
        fill: #03f;
      }

      .uuid-c6d27305-819e-48c6-8fb6-8e145c16ce17 {
        fill: #808184;
      }

      .uuid-c33108a0-70a1-4715-b3da-95a5156f87be {
        fill: #fff;
      }

      .uuid-a935b838-2f8d-452c-91f5-7048d1b8ec2b {
        fill: #edd674;
      }
    </style>
  </defs>
  <path class="uuid-0213735c-4408-4dd3-804e-25006b0c5cf7" d="M54.73,2.89L10.77,28.27C4.11,32.11,0,39.23,0,46.92v50.76c0,7.7,4.11,14.81,10.77,18.66l43.96,25.38c6.66,3.85,14.88,3.85,21.54,0l43.96-25.38c6.66-3.85,10.77-10.96,10.77-18.66v-50.76c0-7.7-4.11-14.81-10.77-18.66L76.27,2.89c-6.66-3.85-14.88-3.85-21.54,0Z"/>
  <path class="uuid-a935b838-2f8d-452c-91f5-7048d1b8ec2b" d="M34.09,18.78l22.31-12.89c5.76-3.33,12.85-3.33,18.61,0l22.3,12.89-22.3,12.88c-5.76,3.33-12.85,3.33-18.61,0,0,0-22.31-12.88-22.31-12.88Z"/>
  <g>
    <path class="uuid-c6d27305-819e-48c6-8fb6-8e145c16ce17" d="M50.45,18.08c0-2.72,2.27-4.8,5.23-4.8,1.29,0,2.24.32,2.99.83l.17,2.18h-.3c-1.08-.78-1.96-1.08-2.85-1.08-1.86,0-3.06,1.21-3.06,2.87s1.04,2.85,2.93,2.85c.66,0,1.24-.18,1.69-.53v-1.27h-2.48v-1.77h4.61v4.06c-1.25.95-2.47,1.45-3.9,1.45-2.89,0-5.04-2.08-5.04-4.8h.01Z"/>
    <path class="uuid-c6d27305-819e-48c6-8fb6-8e145c16ce17" d="M60.34,19.43c0-1.91,1.63-3.44,3.63-3.44s3.63,1.53,3.63,3.44-1.63,3.44-3.63,3.44-3.63-1.53-3.63-3.44ZM65.45,19.43c0-.88-.69-1.49-1.49-1.49s-1.49.61-1.49,1.49.69,1.49,1.49,1.49,1.49-.61,1.49-1.49Z"/>
    <path class="uuid-c6d27305-819e-48c6-8fb6-8e145c16ce17" d="M68.67,13.2h2.06v9.49h-2.06s0-9.49,0-9.49Z"/>
    <path class="uuid-c6d27305-819e-48c6-8fb6-8e145c16ce17" d="M71.81,19.43c0-1.9,1.33-3.44,3.26-3.44.78,0,1.36.21,1.83.61v-3.4h2.06v9.49h-2.06v-.46c-.44.37-1,.65-1.94.65-1.53,0-3.15-1.29-3.15-3.44h0ZM76.95,19.43c0-.82-.61-1.49-1.5-1.49s-1.5.67-1.5,1.49.61,1.49,1.5,1.49,1.5-.67,1.5-1.49Z"/>
  </g>
  <path class="uuid-384ae5b5-5a32-4947-9b68-fbe42abe63b9" d="M96.15,125.6l-22.31,12.89c-5.76,3.33-12.85,3.33-18.61,0l-22.3-12.89,22.3-12.88c5.76-3.33,12.85-3.33,18.61,0,0,0,22.31,12.88,22.31,12.88Z"/>
  <g>
    <g>
      <path class="uuid-c33108a0-70a1-4715-b3da-95a5156f87be" d="M10.05,71.38v-1.26l.23-.23h.92c.57,0,1.14-.57,1.14-1.14v-14.31c0-.57-.57-1.14-1.14-1.14h-.92l-.23-.23v-1.26l.23-.23h8.18l.23.23v1.26l-.23.23h-.92c-.57,0-1.14.57-1.14,1.14v5.72h7.95v-5.72c0-.57-.57-1.14-1.14-1.14h-.92l-.23-.23v-1.26l.23-.23h8.18l.23.23v1.26l-.23.23h-.92c-.57,0-1.14.57-1.14,1.14v14.31c0,.57.57,1.14,1.14,1.14h.92l.23.23v1.26l-.23.23h-8.18l-.23-.23v-1.26l.23-.23h.92c.57,0,1.14-.57,1.14-1.14v-6.87h-7.95v6.87c0,.57.57,1.14,1.14,1.14h.92l.23.23v1.26l-.23.23h-8.18s-.23-.23-.23-.23Z"/>
      <path class="uuid-c33108a0-70a1-4715-b3da-95a5156f87be" d="M32.65,64.43c0-4.21,3.26-7.35,7.47-7.35,4.78,0,6.98,3.55,6.98,7.55l-.23.23h-10.64c0,2.52,1.89,4.46,4.81,4.46,2.4,0,4.18-1,5.41-2.86l.23-.11.43.17.09.23c-.92,3.2-3.52,5.26-6.98,5.26-4.46,0-7.55-3.29-7.55-7.58h-.02ZM42.21,63.03c.89,0,1.14-.54,1.14-1.06,0-1.86-1.29-3.06-3.2-3.06-2.26,0-3.78,1.77-3.92,3.89l.23.23s5.75,0,5.75,0Z"/>
      <path class="uuid-c33108a0-70a1-4715-b3da-95a5156f87be" d="M49.13,64.69c0-4.92,3.52-7.61,7.21-7.61,2.55,0,3.92,1.26,4.72,2.23h.14l1.4-1.83h1.17l.23.23v10.13c0,.57.57,1.14,1.14,1.14h.34l.23.23v.77l-.23.23-3.95,1.69h-.92l-.23-.23v-1.92c-1.06,1.37-2.4,2.26-4.52,2.26-3.72,0-6.75-2.72-6.75-7.32h.02ZM60.23,64.55c0-3.06-1.06-5.58-3.6-5.58s-3.6,2.52-3.6,5.58,1.06,5.58,3.6,5.58,3.6-2.52,3.6-5.58Z"/>
      <path class="uuid-c33108a0-70a1-4715-b3da-95a5156f87be" d="M67.44,71.38v-1.26l.23-.23h.34c.57,0,1.14-.57,1.14-1.14v-13.68c0-.57-.57-1.14-1.14-1.14h-.34l-.23-.23v-.77l.17-.23,4.46-1.69h.92l.23.23-.29,2.69v14.82c0,.57.57,1.14,1.14,1.14h.34l.23.23v1.26l-.23.23h-6.75l-.23-.23h.01Z"/>
      <path class="uuid-c33108a0-70a1-4715-b3da-95a5156f87be" d="M77.86,67.84v-8.53h-2.12l-.23-.23v-.63l5.41-4.92h.49l.23.23v3.72h3.6l.23.23v1.37l-.23.23h-3.6v8.78c0,1.17.71,1.75,1.63,1.75s1.46-.49,1.86-1.26l.23-.09.57.23.11.23c-.46,1.4-1.46,3.06-4.03,3.06-2.17,0-4.15-1.2-4.15-4.18h0Z"/>
      <path class="uuid-c33108a0-70a1-4715-b3da-95a5156f87be" d="M87.47,71.38v-1.26l.23-.23h.34c.57,0,1.14-.57,1.14-1.14v-13.68c0-.57-.57-1.14-1.14-1.14h-.34l-.23-.23v-.77l.17-.23,4.46-1.69h.92l.23.23-.29,2.69v5.32c1.06-1.32,2.63-2.17,4.63-2.17,2.98,0,5.04,1.6,5.04,4.89v6.78c0,.57.57,1.14,1.14,1.14h.34l.23.23v1.26l-.23.23h-6.75l-.23-.23v-1.26l.23-.23h.34c.57,0,1.14-.57,1.14-1.14v-6.67c0-1.89-1.14-2.75-2.69-2.75-1.8,0-3.2,1.4-3.2,3.75v5.67c0,.57.57,1.14,1.14,1.14h.34l.23.23v1.26l-.23.23h-6.75l-.23-.23h.02Z"/>
      <path class="uuid-c33108a0-70a1-4715-b3da-95a5156f87be" d="M108.1,77.79l-.6-.97v-.34l4.15-5.92-5.29-10.79c-.17-.34-.37-.57-.83-.57h-.66l-.23-.23v-1.26l.23-.23h7.12l.23.23v1.26l-.23.23h-.57c-.46,0-.66.23-.66.57,0,.17.06.4.17.63l2.83,5.95,2.86-5.95c.11-.23.17-.46.17-.63,0-.34-.23-.57-.66-.57h-.57l-.23-.23v-1.26l.23-.23h4.69l.23.23v1.26l-.23.23h-.49c-.54,0-.8.29-1.03.74l-8.44,17.79-.34.34-1.2.03-.66-.31h.01Z"/>
    </g>
    <g>
      <path class="uuid-c33108a0-70a1-4715-b3da-95a5156f87be" d="M16.6,91.97l-4.42-12.92c-.19-.58-.52-.64-.86-.64h-.69l-.17-.17v-.94l.17-.17h6.26l.17.17v.94l-.17.17h-.9c-.39,0-.56.19-.56.49,0,.11.02.24.06.37l2.92,8.2,3.11-8.2c.04-.09.04-.17.04-.26,0-.32-.24-.6-.58-.6h-.62l-.17-.17v-.94l.17-.17h4.55l.17.17v.94l-.17.17h-.64c-.34,0-.58.28-.58.6,0,.09,0,.17.04.26l3.26,8.15,2.79-8.15c.04-.15.06-.28.06-.39,0-.3-.17-.47-.54-.47h-.9l-.17-.17v-.94l.17-.17h4.4l.17.17v.94l-.17.17h-.69c-.43,0-.73.24-.86.64l-4.42,12.92-.17.17h-1.12l-.17-.17-3.65-9.53-3.69,9.53-.17.17h-1.12l-.17-.17h.03Z"/>
      <path class="uuid-c33108a0-70a1-4715-b3da-95a5156f87be" d="M32.17,86.84c0-3.26,2.51-5.6,5.81-5.6s5.81,2.34,5.81,5.6-2.51,5.6-5.81,5.6-5.81-2.34-5.81-5.6ZM40.84,86.84c0-2.36-.88-4.23-2.85-4.23s-2.85,1.87-2.85,4.23.88,4.23,2.85,4.23,2.85-1.87,2.85-4.23Z"/>
      <path class="uuid-c33108a0-70a1-4715-b3da-95a5156f87be" d="M45.25,91.97v-.94l.17-.17h.26c.43,0,.86-.43.86-.86v-5.41c0-.43-.43-.86-.86-.86h-.26l-.17-.17v-.58l.13-.17,3.13-1.27h.69l.17.17-.21,1.63c.56-1.2,1.63-2.1,3.03-2.1,1.05,0,1.78.71,1.78,1.63s-.69,1.59-1.61,1.59-1.57-.67-1.61-1.52c-.84.52-1.37,1.74-1.37,3.24v3.82c0,.43.43.86.86.86h.26l.17.17v.94l-.17.17h-5.06l-.17-.17h-.02Z"/>
      <path class="uuid-c33108a0-70a1-4715-b3da-95a5156f87be" d="M54.82,91.97v-.94l.17-.17h.26c.43,0,.86-.43.86-.86v-10.25c0-.43-.43-.86-.86-.86h-.26l-.17-.17v-.58l.13-.17,3.35-1.27h.69l.17.17-.21,2.02v7.87l3.65-3.28c.13-.11.19-.24.19-.37,0-.15-.11-.28-.36-.28h-.43l-.17-.17v-.94l.17-.17h3.93l.17.17v.94l-.17.17h-.39c-.43,0-.6.19-1.09.64l-2.49,2.23,3.09,4.66c.24.36.45.49.77.49h.62l.17.17v.94l-.17.17h-3.48l-.28-.17-2.77-4.33-.97.92v1.44c0,.43.43.86.86.86h.26l.17.17v.94l-.17.17h-5.06l-.17-.17h0Z"/>
      <path class="uuid-c33108a0-70a1-4715-b3da-95a5156f87be" d="M67.71,91.97v-.94l.17-.17h.26c.43,0,.86-.43.86-.86v-6.31c0-.45-.41-.86-.86-.86h-.26l-.17-.17v-.94l.17-.17h1.11v-1.01c0-2.72,1.91-3.71,3.39-3.71,1.09,0,1.93.67,1.93,1.67,0,.9-.62,1.63-1.63,1.63s-1.59-.77-1.59-1.74c-.62.34-.84,1.05-.84,1.84l.17.24,1.22.49.17.19v.39h1.54l.17.17v.94l-.17.17h-1.54v7.17c0,.43.43.86.86.86h.26l.17.17v.94l-.17.17h-5.06l-.17-.17h0Z"/>
      <path class="uuid-c33108a0-70a1-4715-b3da-95a5156f87be" d="M74.75,86.84c0-3.26,2.51-5.6,5.81-5.6s5.81,2.34,5.81,5.6-2.51,5.6-5.81,5.6-5.81-2.34-5.81-5.6ZM83.42,86.84c0-2.36-.88-4.23-2.85-4.23s-2.85,1.87-2.85,4.23.88,4.23,2.85,4.23,2.85-1.87,2.85-4.23Z"/>
      <path class="uuid-c33108a0-70a1-4715-b3da-95a5156f87be" d="M87.83,91.97v-.94l.17-.17h.26c.43,0,.86-.43.86-.86v-5.41c0-.43-.43-.86-.86-.86h-.26l-.17-.17v-.58l.13-.17,3.13-1.27h.69l.17.17-.21,1.63c.56-1.2,1.63-2.1,3.03-2.1,1.05,0,1.78.71,1.78,1.63s-.69,1.59-1.61,1.59-1.57-.67-1.61-1.52c-.84.52-1.37,1.74-1.37,3.24v3.82c0,.43.43.86.86.86h.26l.17.17v.94l-.17.17h-5.06l-.17-.17h-.02Z"/>
      <path class="uuid-c33108a0-70a1-4715-b3da-95a5156f87be" d="M97.1,87.01c0-3.71,2.85-5.77,5.92-5.77,1.31,0,2.42.28,3.26.75l.15.21.11,2.81-.17.17h-1.05l-.17-.17v-.39c0-1.24-.84-2.06-2.14-2.06-2.08,0-2.98,1.97-2.98,3.99,0,2.17,1.29,3.99,3.3,3.99,1.37,0,2.42-.67,3.11-1.95l.19-.09.32.11.09.17c-.56,1.89-1.85,3.65-4.55,3.65-2.87,0-5.38-2.1-5.38-5.43h-.01Z"/>
      <path class="uuid-c33108a0-70a1-4715-b3da-95a5156f87be" d="M108.45,86.75c0-3.15,2.45-5.51,5.6-5.51,3.58,0,5.23,2.66,5.23,5.66l-.17.17h-7.98c0,1.89,1.42,3.35,3.6,3.35,1.8,0,3.13-.75,4.05-2.15l.17-.09.32.13.06.17c-.69,2.4-2.64,3.95-5.24,3.95-3.35,0-5.66-2.47-5.66-5.69h.02ZM115.61,85.7c.67,0,.86-.41.86-.79,0-1.39-.97-2.3-2.4-2.3-1.69,0-2.83,1.33-2.94,2.92l.17.17s4.31,0,4.31,0Z"/>
    </g>
    <g>
      <path class="uuid-c33108a0-70a1-4715-b3da-95a5156f87be" d="M17.88,96.94h2.19c2.79,0,4.76,1.63,4.76,4.46s-1.96,4.46-4.76,4.46h-2.19v-8.93h0ZM20.07,104.31c1.88,0,3.02-1.11,3.02-2.91s-1.15-2.91-3.02-2.91h-.38v5.82s.38,0,.38,0Z"/>
      <path class="uuid-c33108a0-70a1-4715-b3da-95a5156f87be" d="M27.71,102.66c0-1.85,1.39-3.28,3.33-3.28s3.11,1.58,3.11,3.28v.5h-4.83c.2.96.89,1.45,1.99,1.45.7,0,1.49-.2,2.21-.83h.18l-.06,1.59c-.8.47-1.71.66-2.44.66-2.02,0-3.48-1.47-3.48-3.38h0ZM32.46,102.01c-.09-.78-.7-1.22-1.49-1.22s-1.4.41-1.62,1.22h3.11Z"/>
      <path class="uuid-c33108a0-70a1-4715-b3da-95a5156f87be" d="M37.02,105.43l.38-1.58h.08c.45.34,1.01.64,1.7.64.46,0,.8-.17.8-.52s-.33-.54-1.24-.84c-.96-.32-1.53-.94-1.53-1.79,0-1.19,1.01-1.95,2.32-1.95.69,0,1.19.13,1.66.41l.06,1.61h-.09c-.52-.34-.97-.59-1.62-.59-.42,0-.73.19-.73.46,0,.37.31.55,1.21.85.88.29,1.63.66,1.63,1.84,0,1.39-1.15,2.08-2.4,2.08-.94,0-1.68-.24-2.25-.61h.02Z"/>
      <path class="uuid-c33108a0-70a1-4715-b3da-95a5156f87be" d="M44.58,97.65c0-.59.47-1.07,1.05-1.07s1.07.49,1.07,1.07-.48,1.05-1.07,1.05-1.05-.47-1.05-1.05ZM44.8,99.56h1.68v6.3h-1.68v-6.3Z"/>
      <path class="uuid-c33108a0-70a1-4715-b3da-95a5156f87be" d="M50.77,108.43l-.06-1.59h.33c.43.31.99.54,1.75.54,1.14,0,1.82-.61,1.82-1.77v-.41c-.37.38-1.01.68-1.84.68-1.76,0-3.11-1.4-3.11-3.24,0-2.08,1.62-3.24,3.1-3.24.97,0,1.49.34,1.85.75v-.57h1.68v5.73c0,2.62-1.45,3.64-3.51,3.64-.93,0-1.53-.2-2.02-.5v-.02ZM54.69,102.63c0-.89-.6-1.68-1.67-1.68s-1.67.79-1.67,1.68.6,1.68,1.67,1.68,1.67-.79,1.67-1.68Z"/>
      <path class="uuid-c33108a0-70a1-4715-b3da-95a5156f87be" d="M59.81,99.56h1.68v.78c.45-.57,1.24-.96,2.07-.96,1.33,0,2.25.71,2.25,2.18v4.3h-1.68v-3.7c0-.84-.51-1.22-1.2-1.22-.8,0-1.43.62-1.43,1.67v3.25h-1.68v-6.3h0Z"/>
      <path class="uuid-c33108a0-70a1-4715-b3da-95a5156f87be" d="M68.91,102.72c0-1.84,1.4-3.33,3.16-3.33.83,0,1.53.31,1.89.75v-.57h1.68v6.3h-1.68v-.57c-.46.43-.98.75-1.99.75-1.51,0-3.06-1.25-3.06-3.33ZM74.04,102.72c0-.97-.65-1.77-1.72-1.77s-1.72.8-1.72,1.77.65,1.77,1.72,1.77,1.72-.8,1.72-1.77Z"/>
      <path class="uuid-c33108a0-70a1-4715-b3da-95a5156f87be" d="M79.77,103.93v-2.93h-1.05v-1.43h1.05v-1.05l1.68-.77v1.81h1.71v1.43h-1.71v2.86c0,.56.31.78.69.78.27,0,.56-.06.97-.37h.19l-.12,1.47c-.54.24-.82.32-1.45.32-1,0-1.96-.62-1.96-2.12Z"/>
      <path class="uuid-c33108a0-70a1-4715-b3da-95a5156f87be" d="M86.21,97.65c0-.59.47-1.07,1.05-1.07s1.07.49,1.07,1.07-.49,1.05-1.07,1.05-1.05-.47-1.05-1.05ZM86.43,99.56h1.68v6.3h-1.68v-6.3Z"/>
      <path class="uuid-c33108a0-70a1-4715-b3da-95a5156f87be" d="M91.29,102.72c0-1.89,1.57-3.33,3.46-3.33s3.46,1.44,3.46,3.33-1.57,3.33-3.46,3.33-3.46-1.44-3.46-3.33ZM96.52,102.72c0-1.06-.82-1.77-1.77-1.77s-1.77.71-1.77,1.77.82,1.77,1.77,1.77,1.77-.71,1.77-1.77Z"/>
      <path class="uuid-c33108a0-70a1-4715-b3da-95a5156f87be" d="M101.39,99.56h1.68v.78c.45-.57,1.24-.96,2.07-.96,1.33,0,2.25.71,2.25,2.18v4.3h-1.68v-3.7c0-.84-.51-1.22-1.2-1.22-.8,0-1.43.62-1.43,1.67v3.25h-1.68v-6.3h-.01Z"/>
    </g>
    <g>
      <path class="uuid-c33108a0-70a1-4715-b3da-95a5156f87be" d="M109.51,96.7h-.65v-.46h1.85v.46h-.65v2.24h-.55s0-2.24,0-2.24Z"/>
      <path class="uuid-c33108a0-70a1-4715-b3da-95a5156f87be" d="M111.97,96.24h.18l.75,1.66.75-1.66h.18l.72,2.7h-.54l-.39-1.43-.66,1.43h-.12l-.66-1.43-.39,1.43h-.54s.72-2.7.72-2.7Z"/>
    </g>
    <g>
      <path class="uuid-c33108a0-70a1-4715-b3da-95a5156f87be" d="M47.65,41.2c0-2.44,1.85-4.19,4.29-4.19,1.01,0,1.61.2,2.31.61l.13,1.67h-.22c-.7-.53-1.38-.81-2.15-.81-1.75,0-2.73,1.16-2.73,2.72s.98,2.72,2.73,2.72c.77,0,1.45-.28,2.15-.81h.22l-.13,1.67c-.7.41-1.3.61-2.31.61-2.44,0-4.29-1.75-4.29-4.19Z"/>
      <path class="uuid-c33108a0-70a1-4715-b3da-95a5156f87be" d="M56.67,37.82c0-.53.43-.97.94-.97s.97.44.97.97-.44.94-.97.94-.94-.43-.94-.94ZM56.86,39.54h1.52v5.68h-1.52v-5.68Z"/>
      <path class="uuid-c33108a0-70a1-4715-b3da-95a5156f87be" d="M61.7,47.54l-.06-1.44h.3c.39.28.9.48,1.58.48,1.02,0,1.65-.55,1.65-1.6v-.37c-.33.35-.91.61-1.66.61-1.59,0-2.81-1.27-2.81-2.92,0-1.88,1.46-2.92,2.8-2.92.87,0,1.35.31,1.67.68v-.52h1.52v5.17c0,2.36-1.31,3.28-3.16,3.28-.84,0-1.38-.18-1.82-.45h0ZM65.23,42.3c0-.81-.54-1.52-1.51-1.52s-1.51.71-1.51,1.52.54,1.52,1.51,1.52,1.51-.71,1.51-1.52Z"/>
      <path class="uuid-c33108a0-70a1-4715-b3da-95a5156f87be" d="M69.3,39.54h1.52v.7c.4-.52,1.12-.86,1.86-.86,1.2,0,2.02.64,2.02,1.97v3.88h-1.52v-3.34c0-.76-.46-1.1-1.08-1.1-.73,0-1.29.56-1.29,1.51v2.93h-1.52v-5.68h.01Z"/>
      <path class="uuid-c33108a0-70a1-4715-b3da-95a5156f87be" d="M76.96,42.39c0-1.66,1.27-3,2.85-3,.75,0,1.38.28,1.7.68v-.52h1.52v5.68h-1.52v-.52c-.41.39-.89.68-1.79.68-1.36,0-2.76-1.13-2.76-3ZM81.59,42.39c0-.87-.59-1.6-1.55-1.6s-1.55.72-1.55,1.6.59,1.6,1.55,1.6,1.55-.72,1.55-1.6Z"/>
    </g>
  </g>
  <g>
    <path class="uuid-c33108a0-70a1-4715-b3da-95a5156f87be" d="M52.46,121.98c0-1.24.75-2.17,1.6-2.75l.31.29c-.49.4-.83.86-.86,1.49.52,0,1.01.41,1.01.99s-.43,1.06-1.01,1.06-1.04-.49-1.04-1.08h0Z"/>
    <path class="uuid-c33108a0-70a1-4715-b3da-95a5156f87be" d="M56.63,131.81l4.93-6c.92-1.13,1.33-1.98,1.33-3.07,0-1.42-1.08-2.21-2.35-2.21s-2.48.77-3.18,1.92h-.16l.11-1.87c.84-.86,2.07-1.42,3.27-1.42,2.32,0,3.86,1.55,3.86,3.49,0,1.51-.81,2.77-1.69,3.85l-3.4,4.13h5.61v1.37h-8.32v-.18h0Z"/>
    <path class="uuid-c33108a0-70a1-4715-b3da-95a5156f87be" d="M72.26,128.86h-5.79v-.72l7.03-8.74h.38v8.09h1.4v1.37h-1.4v3.13h-1.62s0-3.13,0-3.13ZM72.26,127.5v-4.42l-3.58,4.42h3.58Z"/>
  </g>
</svg>