<svg xmlns="http://www.w3.org/2000/svg" id="uuid-333347f1-9d2e-4a37-872b-58ffa2e58a87" data-name="Layer 1" viewBox="0 0 184.23 36.15"><defs><style>      .uuid-2893350b-80de-44b3-8345-f4471afca9c3 {        fill: #b1181e;      }    </style></defs><path class="uuid-2893350b-80de-44b3-8345-f4471afca9c3" d="M65.43,9.83c0-1.37,1.11-2.47,2.47-2.47h10.71c2.28,0,4.12,1.85,4.12,4.12,0,1.7-1.05,3.23-2.64,3.84l-8.3,3.06c-3.01,1.04-4.61,4.32-3.58,7.33.52,1.51,1.65,2.74,3.11,3.39l15.53,7.05v-5.41l-13.58-6.01c-.5-.22-.72-.81-.5-1.31.11-.25.32-.44.58-.53l8.51-2.96c4.67-1.79,7.01-7.04,5.21-11.71-1.34-3.5-4.71-5.82-8.46-5.82h-10.71c-4.1,0-7.42,3.32-7.42,7.42h0v25.54h4.94V9.83Z"></path><path class="uuid-2893350b-80de-44b3-8345-f4471afca9c3" d="M92.67,2.41h4.94v32.96h-4.94V2.41Z"></path><path class="uuid-2893350b-80de-44b3-8345-f4471afca9c3" d="M24.46,2.41l-8.85,27.44c-.14.43-.61.67-1.04.53-.25-.08-.44-.28-.53-.53L5.2,2.41H0l9.35,28.97c.98,3.03,4.24,4.69,7.27,3.7,1.76-.57,3.13-1.95,3.7-3.7L29.66,2.41h-5.2Z"></path><path class="uuid-2893350b-80de-44b3-8345-f4471afca9c3" d="M127.32,35.37l8.85-27.44c.14-.43.61-.67,1.04-.53.25.08.45.28.53.53l8.85,27.44h5.2l-9.35-28.97c-.99-3.03-4.24-4.69-7.27-3.7-1.75.57-3.13,1.95-3.7,3.7l-9.35,28.97h5.2Z"></path><path class="uuid-2893350b-80de-44b3-8345-f4471afca9c3" d="M39.76,7.36h15.65V2.41h-15.65c-4.55,0-8.24,3.69-8.24,8.24v16.48c0,4.55,3.69,8.24,8.24,8.24h15.65v-4.94h-15.65c-1.82,0-3.3-1.48-3.3-3.3v-5.81h15.66v-4.86h-15.66v-5.81c0-1.82,1.48-3.29,3.3-3.3Z"></path><path class="uuid-2893350b-80de-44b3-8345-f4471afca9c3" d="M125.79,2.41h-24.06v4.94h9.56v28.01h4.94V7.36h9.56V2.41Z"></path><path class="uuid-2893350b-80de-44b3-8345-f4471afca9c3" d="M170.15,35.37c5.23-.05,9.43-4.34,9.38-9.57-.05-5.16-4.22-9.33-9.38-9.38h-8.24c-2.5,0-4.53-2.03-4.53-4.53s2.03-4.53,4.53-4.53h16.07V2.41h-16.07c-5.23.05-9.43,4.34-9.38,9.57.05,5.16,4.22,9.33,9.38,9.38h8.24c2.5,0,4.53,2.03,4.53,4.53s-2.03,4.53-4.53,4.53h-16.07v4.94h16.07Z"></path><path class="uuid-2893350b-80de-44b3-8345-f4471afca9c3" d="M180.77,2.41h-.43V.4h-.72v-.4h1.87v.4h-.72v2.01ZM183.04,1.82l.15-.43.54-1.39h.5v2.41h-.41V.82s-.12.34-.12.34l-.48,1.25h-.36l-.48-1.25-.13-.34v.41s0,1.18,0,1.18h-.41V0h.5l.54,1.39.15.43Z"></path></svg>