<svg xmlns="http://www.w3.org/2000/svg" id="uuid-cfb66f8b-4c93-431a-9878-5123876485a6" data-name="Layer 1" viewBox="0 0 581.45 133.15"><defs><style>      .uuid-5227adf7-e93f-4312-a489-f1336ebe5dd3 {        fill: #fff;      }      .uuid-1e7f8b5a-23a5-4511-809e-f54020e06113 {        fill: #003146;      }    </style></defs><rect class="uuid-5227adf7-e93f-4312-a489-f1336ebe5dd3" width="563.9" height="133.15"></rect><g><path class="uuid-1e7f8b5a-23a5-4511-809e-f54020e06113" d="M419.22,104.06v-17.38c-.48.86-1.26,1.44-2.04,1.92-2.81,1.54-6.3,3.07-6.3,3.07-3.78,1.82-6.98,3.55-9.69,5.09-4.26,2.21-7.95,4.99-9.79,8.35,0,0-.19.29-.19.48-1.84,4.13-1.55,8.06,1.74,11.62,0,0,2.23,2.4,6.11,3.74,1.74.48,3.78.77,6.01.48-.1,0,13.95-1.63,14.15-17.38"></path><path class="uuid-1e7f8b5a-23a5-4511-809e-f54020e06113" d="M409.72,127.68h11.73c-1.16-4.03-1.84-7.39-2.13-8.54-1.94,4.42-5.72,7.01-9.59,8.54"></path><polygon class="uuid-1e7f8b5a-23a5-4511-809e-f54020e06113" points="479.3 127.68 507.7 127.77 493.26 80.93 479.3 127.68"></polygon><path class="uuid-1e7f8b5a-23a5-4511-809e-f54020e06113" d="M334.62,65.37c-7.85.58-13.86,3.46-13.86,16.32v29.47c0,5.28,0,11.23,2.62,14.88l1.26,1.73h22.97v-44.35c.1-10.85-2.13-17.95-12.99-18.05"></path><path class="uuid-1e7f8b5a-23a5-4511-809e-f54020e06113" d="M5.52,5.57v122.11h156.7s-.39-.38-.58-.48c-5.52-4.51-50-38.4-150.69-55.58V10.85h211.35c-16.09,53.18-44.58,53.18-59.99,116.83h60.08v-21.02l2.91,3.55c4.75,5.95,11.34,14.88,27.91,14.88,12.31,0,20.25-7.3,20.25-17.38,0-11.04-10.56-17.47-21.71-22.85-12.4-6.05-25.29-13.15-25.29-28.03,0-8.83,3.88-15.26,9.79-19.68,3.2-2.5,7.17-4.42,11.73-5.86,5.72-1.73,12.31-2.5,19.87-2.4,2.33.1,5.04.48,7.85.86,4.46.86,8.62,2.3,12.31,4.22v13.44c-8.82-12.48-24.23-11.9-24.23-11.9-5.52,0-18.61,2.59-18.61,15.65,0,9.7,9.98,15.84,20.64,20.83,12.31,5.86,26.36,13.44,26.36,29.18,0,13.06-7.46,21.98-20.16,26.5h29.56l1.26-1.73c2.71-3.65,2.71-9.6,2.71-14.88V41.37s.39-12.19-6.98-15.65l22.29-3.17v42.72c3.39-3.65,9.59-7.49,20.54-7.49,14.15,0,21.61,7.1,21.61,20.64v32.83c0,5.28,0,11.23,2.42,14.98l1.07,1.63h19.28c-.29-.1-.68-.29-1.07-.38-5.91-2.78-9.98-8.64-9.98-15.55,0-1.92.29-3.74.87-5.47.48-1.25,1.07-2.5,1.74-3.74,4.94-8.83,21.32-14.11,30.91-18.14,2.13-.86,4.55-1.82,6.11-2.5h0c2.71-1.15,4.65-3.46,4.85-6.62v-4.51c-.29-8.83-9.21-8.06-12.5-8.16-5.62.1-8.62,1.92-10.47,4.22-2.91,4.03-3.1,9.31-9.21,9.79h-.19c-3.68,0-6.69-2.98-6.69-6.62,0-1.15.29-2.21.87-3.17,4.17-6.82,17.54-9.22,28.68-9.22,12.31,0,24.32,2.4,24.32,12.29v33.31c0,8.64-.48,17.66,4.07,24.48h27.04l-16.28-54.43c-2.71-9.22-7.46-14.11-7.46-14.11h16.09c6.4.58,7.17,4.99,7.17,4.99l12.6,51.45,10.85-37.63c4.07-13.63-2.04-18.82-2.04-18.82h12.89c6.78.38,7.56,5.09,7.56,5.09l13.18,51.45,10.95-37.63c4.07-13.63-2.04-18.82-2.04-18.82h18.61c-6.88,4.9-9.59,15.74-9.59,15.74l-15.7,52.8h36.44V5.57H5.52"></path><path class="uuid-1e7f8b5a-23a5-4511-809e-f54020e06113" d="M569.43,12c0-3.26,2.71-5.95,6.01-5.95s6.01,2.69,6.01,5.95-2.71,5.95-6.01,5.95-6.01-2.59-6.01-5.95M580.47,12c0-2.88-2.13-5.18-5.04-5.18s-5.04,2.3-5.04,5.18,2.13,5.18,5.04,5.18,5.04-2.21,5.04-5.18M578.44,15.36h-.97l-1.94-3.07h-1.55v3.07h-.87v-6.62h2.91c1.74,0,2.42.67,2.42,1.73,0,1.34-.87,1.82-2.13,1.82,0,0,2.13,3.07,2.13,3.07ZM575.24,11.62c.97,0,2.33.19,2.33-1.15,0-1.06-.87-1.15-1.65-1.15h-1.94v2.4h1.26v-.1Z"></path></g></svg>