<svg xmlns="http://www.w3.org/2000/svg" id="uuid-24d20607-49d0-4c5e-aff2-70fa7b95116a" data-name="Layer 1" viewBox="0 0 291.94 294.23"><defs><style>      .uuid-1594c19a-9238-4ff6-97fe-c617bc6092be {        fill: #231f20;      }      .uuid-1ccccfa5-77cf-4e12-8755-1930836e2ea3 {        fill: #77797c;      }      .uuid-af2547ac-5481-442a-a3c1-a2f3a211a962 {        isolation: isolate;      }      .uuid-a8e96be6-bcda-43f6-8c1a-f993ca48250e {        mix-blend-mode: multiply;      }      .uuid-f767d1ef-5d4b-4522-b6dd-d6d65bda0996 {        fill: #ce2030;      }      .uuid-338926bb-02ab-4a43-8965-d3a898af66bf {        fill: #fff;      }    </style></defs><g class="uuid-af2547ac-5481-442a-a3c1-a2f3a211a962"><g id="uuid-bdc85cfd-87a8-43ad-9a4f-32cf36e46dbd" data-name="Layer 1"><path class="uuid-f767d1ef-5d4b-4522-b6dd-d6d65bda0996" d="M286.41,3.08H.68v288.06h285.73V3.08Z"></path><path class="uuid-f767d1ef-5d4b-4522-b6dd-d6d65bda0996" d="M291.94,294.23H0V0h291.94v294.22h0ZM6.21,288.06h279.53V6.16H6.21v281.89h0Z"></path><g class="uuid-a8e96be6-bcda-43f6-8c1a-f993ca48250e"><path class="uuid-1ccccfa5-77cf-4e12-8755-1930836e2ea3" d="M289.11,3.09H3.38v288.06h285.73V3.09h0Z"></path></g><path class="uuid-1594c19a-9238-4ff6-97fe-c617bc6092be" d="M262.24,28.58H30.2v5.27h232.03v-5.27h0Z"></path><path class="uuid-1594c19a-9238-4ff6-97fe-c617bc6092be" d="M262.24,122.55H30.2v5.27h232.03v-5.27h0Z"></path><path class="uuid-f767d1ef-5d4b-4522-b6dd-d6d65bda0996" d="M261.19,27.01H29.15v5.27h232.03v-5.27h.01Z"></path><path class="uuid-f767d1ef-5d4b-4522-b6dd-d6d65bda0996" d="M261.19,120.99H29.15v5.27h232.03v-5.27h.01Z"></path><path class="uuid-1594c19a-9238-4ff6-97fe-c617bc6092be" d="M47.43,99.33h6.17v-42.68h-6.17v-11.42h32.75c14.26,0,25.82,0,25.82,16.33,0,8.81-5.78,14.52-14.16,15.42v.2c9.73.8,15.13,5.81,15.13,15.53,0,16.33-14.07,18.03-26.01,18.03h-33.53v-11.42h0ZM71.71,72.07h7.03c3.28,0,9.15-1.09,9.15-8.01,0-5.31-3.18-7.41-7.71-7.41h-8.47v15.42h0ZM71.71,99.33h7.23c4.24,0,9.92-1.3,9.92-7.81,0-5.61-2.89-8.62-8-8.62h-9.15v16.43h0Z"></path><path class="uuid-1594c19a-9238-4ff6-97fe-c617bc6092be" d="M80.96,111.84h-34.62v-13.59h6.16v-40.51h-6.16v-13.6h33.85c14.44,0,26.91,0,26.91,17.42,0,7.34-3.91,12.99-10.3,15.39,7.39,2.07,11.26,7.44,11.26,15.77,0,19.12-18.99,19.12-27.1,19.12M48.53,109.66h32.43c12.94,0,24.92-2.05,24.92-16.95,0-8.93-4.62-13.67-14.12-14.45l-1-.08v-1.98l.97-.31c8.13-.87,13.18-6.37,13.18-14.35,0-15.24-10.37-15.24-24.72-15.24h-31.66v9.25h6.17v44.86h-6.17v9.25h0ZM78.94,100.42h-8.32v-18.61h10.25c5.78,0,9.09,3.54,9.09,9.7,0,5.66-4.02,8.9-11.02,8.9M72.81,98.25h6.14c4.03,0,8.83-1.17,8.83-6.73,0-3.43-1.2-7.53-6.9-7.53h-8.06v14.26h-.01ZM78.75,73.17h-8.13v-17.61h9.57c5.68,0,8.8,3.02,8.8,8.5,0,8.45-7.85,9.11-10.25,9.11M72.81,70.99h5.94c3.01,0,8.06-.9,8.06-6.93,0-4.26-2.17-6.33-6.61-6.33h-7.39v13.25h0Z"></path><path class="uuid-1594c19a-9238-4ff6-97fe-c617bc6092be" d="M111.7,99.33h3.85l21.19-54.1h21.49l20.71,54.1h3.85v11.42h-29.96v-11.42h7.13l-2.8-7.32h-22.64l-2.79,7.32h7.13v11.42h-27.16v-11.42h0ZM138.57,81.19h14.55l-7.13-21.64h-.19l-7.22,21.64h0Z"></path><path class="uuid-1594c19a-9238-4ff6-97fe-c617bc6092be" d="M183.88,111.84h-32.15v-13.6h6.64l-1.97-5.14h-21.13l-1.96,5.14h6.64v13.6h-29.35v-13.6h4.2l21.19-54.1h22.99l.27.7,20.44,53.4h4.19v13.6h0ZM153.92,109.66h27.77v-9.25h-3.51l-.27-.7-20.44-53.4h-19.98l-21.19,54.1h-3.5v9.25h24.98v-9.25h-7.62l3.62-9.49h24.15l3.63,9.49h-7.62v9.25h-.02ZM154.63,82.29h-17.57l7.95-23.82h1.58l.44.75,7.6,23.07h0ZM140.09,80.11h11.52l-5.72-17.37-5.8,17.37Z"></path><path class="uuid-1594c19a-9238-4ff6-97fe-c617bc6092be" d="M187.42,99.33h6.17v-42.69h-6.17v-11.42h34.49c6.26-.1,12.23.4,16.66,3,4.53,2.6,7.42,7.11,7.42,14.83,0,10.12-6.45,15.33-15.8,15.93v.2c12.72,0,12.14,10.73,15.8,20.15h5.59v11.42h-20.91c-.86-2.11-2.12-7.52-3.85-12.83-.77-2.51-3.28-9.72-5.01-11.52-1.25-1.4-2.99-1.6-4.82-1.7h-5.3v14.63h6.84v11.42h-31.12v-11.42h.01ZM211.7,73.28h6.45c5.39,0,9.73-2.2,9.73-9.11s-5.3-7.52-9.73-7.52h-6.45v16.63Z"></path><path class="uuid-1594c19a-9238-4ff6-97fe-c617bc6092be" d="M252.68,111.83h-22.74l-.28-.67c-.47-1.14-1.01-3.08-1.7-5.52-.63-2.26-1.35-4.82-2.19-7.38-1.12-3.66-3.41-9.7-4.76-11.1-1-1.11-2.44-1.28-4.08-1.37h-4.14v12.46h6.84v13.59h-33.31v-13.59h6.16v-40.51h-6.16v-13.6h35.58c5.41-.09,12.18.2,17.22,3.16,5.35,3.07,7.95,8.23,7.95,15.76,0,8.15-3.97,13.75-11.09,15.99,5.84,2.23,7.48,8.05,9.07,13.71.51,1.81,1.03,3.67,1.69,5.49h5.93v13.59h.01ZM231.44,109.66h19.05v-9.25h-5.25l-.27-.7c-.82-2.12-1.43-4.28-2.02-6.37-2.05-7.3-3.67-13.07-12.76-13.07h-1.1v-2.11l1.03-.27c9.53-.61,14.77-5.89,14.77-14.85,0-6.69-2.25-11.23-6.87-13.88-4.57-2.69-10.98-2.93-16.1-2.87h-33.41v9.25h6.16v44.86h-6.16v9.25h28.93v-9.25h-6.84v-16.8h6.39c2.05.11,4.11.36,5.63,2.07,2.24,2.34,5.21,11.83,5.24,11.93.84,2.59,1.57,5.17,2.2,7.45.52,1.85.98,3.51,1.36,4.61M218.15,74.36h-7.55v-18.81h7.55c3.24,0,10.83,0,10.83,8.6,0,6.58-3.84,10.21-10.83,10.21M212.79,72.18h5.36c5.81,0,8.63-2.63,8.63-8.03s-3.3-6.43-8.63-6.43h-5.36v14.46Z"></path><path class="uuid-1594c19a-9238-4ff6-97fe-c617bc6092be" d="M90.82,210.53h32.88c-.4,15.13,7.77,25.92,22.92,25.92,8.77,0,18.54-3.94,18.54-14.51,0-24.67-73.54-12.85-73.54-62.39,0-29.02,22.12-40.83,47.43-40.83,9.17,0,26.31,2.49,29.9,13.27h.4v-10.36h30.69v42.9h-30.49c1.19-15.34-8.37-22.18-22.13-22.18-7.77,0-18.33,3.12-18.33,13.06,0,22.8,73.54,10.77,73.54,60.93,0,32.33-19.33,43.74-48.43,43.74-11.76,0-27.1-3.32-32.29-15.96h-.4v13.06h-30.69v-46.64h0Z"></path><path class="uuid-1594c19a-9238-4ff6-97fe-c617bc6092be" d="M154.19,261.16c-7.33,0-24.16-1.37-31.59-13.29v10.39h-32.88v-48.82h35.1l-.03,1.12c-.21,7.96,1.97,14.49,6.29,18.9,3.78,3.85,9.15,5.89,15.53,5.89,8.05,0,17.44-3.51,17.44-13.42s-12.32-13.28-26.58-17.77c-20.92-6.58-46.96-14.78-46.96-44.62,0-26.25,18.14-41.92,48.53-41.92,10.66,0,23.84,2.84,29.2,10.57v-7.66h32.88v45.08h-32.77l.09-1.18c.5-6.45-.93-11.54-4.26-15.12-3.59-3.85-9.38-5.88-16.77-5.88-7.95,0-17.24,3.14-17.24,11.97,0,8.37,11.77,11.85,25.39,15.89,21.45,6.36,48.15,14.27,48.15,45.04s-16.2,44.82-49.52,44.82M120.41,243.03h2.23l.28.68c5.65,13.79,23.75,15.28,31.27,15.28,31.85,0,47.33-13.95,47.33-42.65s-25.83-36.8-46.59-42.96c-14.46-4.29-26.95-7.99-26.95-17.98s10.47-14.15,19.43-14.15c8.01,0,14.37,2.28,18.38,6.58,3.56,3.81,5.21,9.06,4.91,15.59h28.23v-40.73h-28.5v10.37h-2.28l-.25-.74c-4.05-12.17-26.33-12.52-28.86-12.52-29.02,0-46.34,14.86-46.34,39.74,0,28.25,24.14,35.84,45.43,42.55,15.09,4.74,28.11,8.84,28.11,19.84s-10.58,15.6-19.63,15.6c-6.99,0-12.91-2.27-17.11-6.55-4.54-4.62-6.92-11.31-6.92-19.36h-30.68v44.46h28.5v-13.06h.01Z"></path><path class="uuid-338926bb-02ab-4a43-8965-d3a898af66bf" d="M45.33,96.72h6.17v-42.68h-6.17v-11.43h32.75c14.25,0,25.82,0,25.82,16.33,0,8.81-5.78,14.52-14.16,15.42v.2c9.73.8,15.12,5.81,15.12,15.53,0,16.33-14.07,18.03-26.01,18.03h-33.52v-11.42h0v.02ZM69.61,69.46h7.03c3.28,0,9.15-1.1,9.15-8.01,0-5.31-3.18-7.41-7.71-7.41h-8.48v15.42h0ZM69.61,96.72h7.23c4.24,0,9.92-1.3,9.92-7.81,0-5.61-2.89-8.62-8-8.62h-9.15v16.43h0Z"></path><path class="uuid-338926bb-02ab-4a43-8965-d3a898af66bf" d="M109.59,96.71h3.85l21.19-54.11h21.49l20.71,54.11h3.85v11.42h-29.96v-11.42h7.13l-2.79-7.32h-22.64l-2.79,7.32h7.13v11.42h-27.17v-11.42h0ZM136.47,78.58h14.55l-7.13-21.64h-.19l-7.22,21.64h0Z"></path><path class="uuid-338926bb-02ab-4a43-8965-d3a898af66bf" d="M185.32,96.72h6.17v-42.69h-6.17v-11.42h34.49c6.26-.1,12.23.4,16.67,3.01,4.53,2.6,7.42,7.11,7.42,14.83,0,10.12-6.45,15.33-15.8,15.93v.2c12.72,0,12.14,10.73,15.8,20.15h5.59v11.42h-20.91c-.87-2.11-2.12-7.52-3.85-12.83-.77-2.5-3.28-9.72-5.01-11.52-1.25-1.4-2.99-1.6-4.82-1.7h-5.3v14.64h6.84v11.42h-31.11v-11.42h0v-.02ZM209.6,70.67h6.46c5.39,0,9.73-2.2,9.73-9.11s-5.3-7.52-9.73-7.52h-6.46v16.63Z"></path><path class="uuid-338926bb-02ab-4a43-8965-d3a898af66bf" d="M88.71,207.93h32.88c-.4,15.13,7.77,25.92,22.92,25.92,8.77,0,18.54-3.94,18.54-14.51,0-24.67-73.55-12.85-73.55-62.39,0-29.02,22.12-40.83,47.43-40.83,9.17,0,26.31,2.49,29.89,13.27h.4v-10.37h30.69v42.91h-30.49c1.19-15.34-8.37-22.18-22.12-22.18-7.77,0-18.33,3.11-18.33,13.06,0,22.8,73.54,10.77,73.54,60.93,0,32.33-19.33,43.74-48.43,43.74-11.76,0-27.1-3.32-32.29-15.96h-.4v13.05h-30.69v-46.63h.01Z"></path><path class="uuid-1594c19a-9238-4ff6-97fe-c617bc6092be" d="M78.85,108.32h-33.7v-11.78h6.17v-42.32h-6.17v-11.79h32.94c7.01,0,13.62,0,18.33,2.06,5.23,2.29,7.67,6.88,7.67,14.46,0,8.43-5.18,14.32-13.59,15.51,9.66,1.03,14.56,6.29,14.56,15.64,0,16.05-13.24,18.21-26.2,18.21h-.01ZM45.51,107.95h33.34c12.77,0,25.83-2.12,25.83-17.85,0-9.37-5.03-14.53-14.96-15.35h-.17v-.54l.16-.02c8.63-.93,14-6.77,14-15.24,0-16.15-11.31-16.15-25.63-16.15h-32.57v11.06h6.17v43.04h-6.17v11.06h0ZM76.83,96.9h-7.41v-16.8h9.34c5.27,0,8.18,3.13,8.18,8.8,0,6.96-6.33,8-10.11,8h0ZM69.79,96.54h7.04c3.64,0,9.74-.99,9.74-7.63,0-5.44-2.78-8.44-7.82-8.44h-8.97v16.07h.01ZM76.64,69.64h-7.22v-15.79h8.66c5.16,0,7.89,2.63,7.89,7.59,0,3.1-1.16,5.37-3.43,6.75-2.07,1.25-4.58,1.44-5.9,1.44h0ZM69.79,69.28h6.85c2.7,0,8.97-.76,8.97-7.83,0-5.98-4.09-7.23-7.52-7.23h-8.3v15.06Z"></path><path class="uuid-1594c19a-9238-4ff6-97fe-c617bc6092be" d="M180.87,108.32h-30.33v-11.78h7.05l-2.65-6.95h-22.39l-2.65,6.95h7.05v11.78h-27.53v-11.78h3.91l21.19-54.11h21.73l.04.12,20.67,53.99h3.91v11.78h0ZM150.91,107.95h29.6v-11.06h-3.8l-.04-.12-20.67-53.99h-21.23l-21.19,54.11h-3.8v11.06h26.8v-11.06h-7.21l2.93-7.68h22.89l2.93,7.68h-7.21v11.06h0ZM151.27,78.76h-15.05l7.34-22h.46l7.25,22ZM136.72,78.4h14.04l-6.98-21.17-7.07,21.17h.01Z"></path><path class="uuid-1594c19a-9238-4ff6-97fe-c617bc6092be" d="M249.66,108.32h-21.21l-.05-.11c-.45-1.09-.99-3.01-1.67-5.44-.63-2.26-1.35-4.83-2.19-7.4-.74-2.4-3.24-9.66-4.97-11.45-1.21-1.35-2.91-1.55-4.7-1.65h-5.1v14.27h6.84v11.78h-31.48v-11.78h6.16v-42.33h-6.16v-11.79h34.67c5.26-.08,11.92.19,16.76,3.03,5.05,2.9,7.5,7.81,7.5,14.98,0,9.15-5.31,14.92-14.62,15.99,8.87.6,10.7,7.09,12.63,13.95.57,2.02,1.16,4.12,1.94,6.15h5.65v11.78h0v.02ZM228.7,107.96h20.6v-11.06h-5.53l-.05-.12c-.81-2.08-1.41-4.23-1.99-6.3-2.07-7.37-3.86-13.73-13.64-13.73h-.18v-.55h.17c9.93-.65,15.63-6.39,15.63-15.76,0-7.04-2.4-11.84-7.32-14.67-4.76-2.8-11.36-3.07-16.57-2.98h-34.31v11.06h6.16v43.05h-6.16v11.06h30.75v-11.06h-6.84v-15h5.48c1.88.1,3.66.32,4.95,1.76,1.77,1.84,4.3,9.17,5.05,11.59.84,2.58,1.56,5.15,2.19,7.41.63,2.24,1.17,4.19,1.61,5.29h0ZM216.05,70.85h-6.64v-17h6.64c4.9,0,9.91.92,9.91,7.7,0,6.08-3.43,9.3-9.91,9.3ZM209.78,70.48h6.27c6.33,0,9.55-3,9.55-8.93,0-6.45-4.59-7.34-9.55-7.34h-6.27v16.27Z"></path><path class="uuid-1594c19a-9238-4ff6-97fe-c617bc6092be" d="M152.09,257.65c-7.76,0-26.41-1.56-32.41-15.96h-.1v13.05h-31.06v-47h33.26v.19c-.22,8.21,2.04,14.97,6.54,19.56,3.95,4.04,9.55,6.17,16.19,6.17,8.47,0,18.36-3.75,18.36-14.33s-12.61-14.04-27.22-18.64c-10.33-3.25-22.04-6.93-30.99-13.39-10.31-7.44-15.33-17.37-15.33-30.36,0-13.68,4.81-24.26,14.3-31.44,8.27-6.26,19.8-9.57,33.32-9.57,2.61,0,25.59.37,30.02,13.27h.09v-10.37h31.06v43.27h-30.87v-.2c.54-6.72-.98-12.04-4.49-15.81-3.76-4.04-9.79-6.17-17.43-6.17-4.47,0-8.84,1.01-11.99,2.78-4.09,2.29-6.16,5.69-6.16,10.1,0,9.05,12.07,12.62,26.04,16.76,21.16,6.27,47.5,14.07,47.5,44.17,0,15.43-4.5,26.91-13.37,34.13-8.09,6.58-19.62,9.78-35.24,9.78h-.02ZM119.22,241.32h.71l.05.11c5.86,14.3,24.42,15.85,32.12,15.85,32.47,0,48.25-14.25,48.25-43.56s-26.19-37.59-47.24-43.82c-14.12-4.18-26.31-7.79-26.31-17.11,0-4.49,2.19-8.1,6.35-10.42,3.21-1.79,7.64-2.82,12.17-2.82,7.75,0,13.87,2.17,17.7,6.29,3.55,3.81,5.1,9.16,4.62,15.89h30.11v-42.54h-30.33v10.37h-.72l-.04-.12c-1.56-4.7-5.85-8.25-12.74-10.56-6.96-2.33-14.19-2.58-16.98-2.58-13.45,0-24.89,3.28-33.1,9.5-9.39,7.11-14.15,17.59-14.15,31.15s4.96,22.7,15.18,30.07c8.91,6.42,20.59,10.1,30.89,13.34,14.74,4.64,27.48,8.64,27.48,18.98,0,10.85-10.09,14.7-18.72,14.7-6.74,0-12.43-2.17-16.45-6.28-4.54-4.63-6.83-11.42-6.65-19.64h-32.52v46.27h30.33v-13.05h0v-.02Z"></path><path class="uuid-338926bb-02ab-4a43-8965-d3a898af66bf" d="M45.33,96.72h6.17v-42.68h-6.17v-11.43h32.75c14.25,0,25.82,0,25.82,16.33,0,8.81-5.78,14.52-14.16,15.42v.2c9.73.8,15.12,5.81,15.12,15.53,0,16.33-14.07,18.03-26.01,18.03h-33.52v-11.42h0v.02ZM69.61,69.46h7.03c3.28,0,9.15-1.1,9.15-8.01,0-5.31-3.18-7.41-7.71-7.41h-8.48v15.42h0ZM69.61,96.72h7.23c4.24,0,9.92-1.3,9.92-7.81,0-5.61-2.89-8.62-8-8.62h-9.15v16.43h0Z"></path><path class="uuid-338926bb-02ab-4a43-8965-d3a898af66bf" d="M109.59,96.71h3.85l21.19-54.11h21.49l20.71,54.11h3.85v11.42h-29.96v-11.42h7.13l-2.79-7.32h-22.64l-2.79,7.32h7.13v11.42h-27.17v-11.42h0ZM136.47,78.58h14.55l-7.13-21.64h-.19l-7.22,21.64h0Z"></path><path class="uuid-338926bb-02ab-4a43-8965-d3a898af66bf" d="M185.32,96.72h6.17v-42.69h-6.17v-11.42h34.49c6.26-.1,12.23.4,16.67,3.01,4.53,2.6,7.42,7.11,7.42,14.83,0,10.12-6.45,15.33-15.8,15.93v.2c12.72,0,12.14,10.73,15.8,20.15h5.59v11.42h-20.91c-.87-2.11-2.12-7.52-3.85-12.83-.77-2.5-3.28-9.72-5.01-11.52-1.25-1.4-2.99-1.6-4.82-1.7h-5.3v14.64h6.84v11.42h-31.11v-11.42h0v-.02ZM209.6,70.67h6.46c5.39,0,9.73-2.2,9.73-9.11s-5.3-7.52-9.73-7.52h-6.46v16.63Z"></path><path class="uuid-338926bb-02ab-4a43-8965-d3a898af66bf" d="M88.71,207.93h32.88c-.4,15.13,7.77,25.92,22.92,25.92,8.77,0,18.54-3.94,18.54-14.51,0-24.67-73.55-12.85-73.55-62.39,0-29.02,22.12-40.83,47.43-40.83,9.17,0,26.31,2.49,29.89,13.27h.4v-10.37h30.69v42.91h-30.49c1.19-15.34-8.37-22.18-22.12-22.18-7.77,0-18.33,3.11-18.33,13.06,0,22.8,73.54,10.77,73.54,60.93,0,32.33-19.33,43.74-48.43,43.74-11.76,0-27.1-3.32-32.29-15.96h-.4v13.05h-30.69v-46.63h.01Z"></path><path class="uuid-f767d1ef-5d4b-4522-b6dd-d6d65bda0996" d="M291.94,294.23H0V0h291.94v294.22h0ZM6.21,288.06h279.53V6.16H6.21v281.89h0Z"></path><path class="uuid-1594c19a-9238-4ff6-97fe-c617bc6092be" d="M209.43,258.23c-3.81,0-6.4-2.73-6.4-6.6s2.59-6.56,6.4-6.56,6.38,2.72,6.38,6.56-2.67,6.6-6.38,6.6ZM209.43,260.27c4.77,0,8.69-3.86,8.69-8.64s-3.92-8.63-8.69-8.63-8.7,3.87-8.7,8.63,3.87,8.64,8.7,8.64ZM211.46,252.39c1.66-.12,2.59-.8,2.59-2.54,0-2.19-1.2-2.85-3.65-2.85h-4.54v9.33h1.97v-3.94h1.56l2.07,3.94h2.28l-2.28-3.94h0ZM207.82,251v-2.57h2.15c.88,0,2.22-.1,2.22,1.18,0,1.17-.73,1.41-1.76,1.39h-2.61Z"></path></g></g></svg>