<svg xmlns="http://www.w3.org/2000/svg" id="uuid-a24ef731-3abb-4300-9899-dda128fbbda7" data-name="Layer 1" viewBox="0 0 200 35"><defs><style>      .uuid-8c46f208-2fd5-4292-915c-68e95736d5ee {        fill-rule: evenodd;      }    </style></defs><path class="uuid-8c46f208-2fd5-4292-915c-68e95736d5ee" d="M39.4,22.81v5.39h2.97v6.02h-13.98v-6.03h2.97v-9.8h-2.97v-6h8.22l.68,4.27h.51c1.28-1.84,4.23-4.69,8.38-4.69v7.74c-1.04-.23-2.1-.36-3.16-.38-2.05,0-3.61,1.03-3.61,3.47ZM26.19,25.74c0,4.01-2.5,8.48-9.48,8.48H0v-6.03h2.97V10.36H0v-6.01h16c6.27,0,8.82,3.92,8.82,7.42.02,2.46-1.25,4.76-3.37,6.06v.5c2.91,1.33,4.77,4.22,4.75,7.39h0ZM11.02,16.64h3.2c1.96,0,2.94-1.74,2.94-3.19s-.98-3.09-2.94-3.09h-3.2v6.28ZM18.13,24.63c0-1.64-.96-3.47-3.32-3.47h-3.79v7.03h3.79c2.34,0,3.32-1.91,3.32-3.56ZM75.89,10.19c3.01,0,5.3-1.53,5.3-5.09s-2.31-5.09-5.3-5.09-5.3,1.53-5.3,5.09,2.28,5.09,5.3,5.09ZM80.76,12.39h-11.03v6h2.97v15.82h11.01v-6.03h-2.97l.02-15.78ZM172.28,19.46c0,9.02-6.76,15.54-15.8,15.54s-15.8-6.51-15.8-15.54,6.76-15.53,15.8-15.53,15.8,6.52,15.8,15.53ZM164.06,19.46c0-4.91-2.92-8.63-7.59-8.63s-7.58,3.72-7.58,8.63,2.92,8.63,7.58,8.63,7.59-3.71,7.59-8.63h0ZM66.34,28.19h2.97v6.02h-8.54l-.68-4.27h-.5c-1.14,2.56-3.41,4.69-7.48,4.69s-6.87-2.84-6.87-6.86c0-4.79,3.97-7.15,8.09-7.16,1.71-.03,3.41.31,4.97,1.01v-.71c0-1.92-1.47-2.93-3.48-2.93-2.6,0-5.07,1.26-5.07,1.26v-6.24c2.17-.65,4.42-1,6.69-1.04,6.44,0,9.91,3.18,9.91,8.95v7.28ZM58.29,25.28c-.73-.47-1.59-.71-2.46-.72-1.41,0-2.56.84-2.56,2.11s1.08,1.97,2.13,1.97c1.81,0,2.88-1.64,2.88-3.36ZM200,14.17c0,6.33-4.38,9.82-10.79,9.82h-4.38v4.19h2.97v6.02h-13.98v-6.02h2.97V10.37h-2.97v-6.02h15.39c6.4,0,10.79,3.5,10.79,9.82ZM191.95,14.17c0-1.77-1.11-3.79-3.59-3.79h-3.51v7.59h3.51c2.48,0,3.59-2.03,3.59-3.8ZM109.55,20.24c0-6.86-4.15-8.28-7.62-8.28-4.15,0-7.11,2.84-8.38,4.69h-.51l-.68-4.25h-8.22v6h2.97v15.82h11.01v-6.03h-2.97v-5.23c0-1.98,1.45-3.64,3.58-3.64,1.6,0,2.77.8,2.77,2.66v12.24h11.01v-6.03h-2.97v-7.95ZM139.12,14.17c0,6.33-4.38,9.83-10.79,9.83h-4.38v4.19h2.97v6.02h-11.01V10.37h-2.97v-6.02h15.39c6.41,0,10.79,3.5,10.79,9.82h0ZM131.07,14.17c0-1.77-1.11-3.79-3.59-3.79h-3.52v7.59h3.52c2.48,0,3.59-2.03,3.59-3.8h0Z"></path></svg>