<svg xmlns="http://www.w3.org/2000/svg" id="uuid-215201fc-48cb-443b-a396-42b5acde32da" data-name="Layer 1" viewBox="0 0 326.05 69.43"><defs><style>      .uuid-c724ecc6-a381-4d62-a79f-dc15d2a88147 {        fill: #00b6ef;      }    </style></defs><path class="uuid-c724ecc6-a381-4d62-a79f-dc15d2a88147" d="M28.8,0h-11.77c-.31,0-.59.1-.82.27-.4.25-.68.69-.68,1.2v65.15h-5.01V1.46c0-.78-.63-1.4-1.4-1.4H1.4C.63.06,0,.69,0,1.46v66.5c0,.73.54,1.39,1.27,1.46.84.08,1.54-.58,1.54-1.4V2.87h4.92v65.15c0,.78.63,1.4,1.4,1.4h7.82c.78,0,1.4-.63,1.4-1.4V3.87c0-.59.48-1.06,1.06-1.06h9.39c12.36,0,22.04,9.87,22.04,22.48s-9.68,22.48-22.04,22.48h-2.72v-4.24h1.26c9.99,0,18.13-8.02,18.28-17.93.15-10.2-8.37-18.55-18.58-18.55h-2.37c-.78,0-1.4.63-1.4,1.4v7.41c0,.51.27.95.68,1.2.25.21.56.34.91.34h1.4c4.11,0,7.62,3.19,7.77,7.3.16,4.32-3.3,7.88-7.58,7.88h-1.7c-.73,0-1.39.54-1.46,1.27-.08.84.58,1.54,1.4,1.54h1.54c5.66,0,10.45-4.43,10.62-10.08.17-5.88-4.56-10.71-10.39-10.71h-.36v-4.73h.98c8.63,0,15.87,7.06,15.75,15.69-.12,8.38-7.01,15.17-15.47,15.17h-2.66c-.78,0-1.4.63-1.4,1.4v7.05c0,.78.63,1.4,1.4,1.4h4.13c13.93,0,24.85-11.11,24.85-25.29S42.74,0,28.8,0Z"></path><g><path class="uuid-c724ecc6-a381-4d62-a79f-dc15d2a88147" d="M116.99,29.94h4.67c.23,0,.43.15.49.37l4.33,14.9h.09l4.46-14.91c.07-.22.26-.37.49-.37h4.92c.23,0,.43.15.49.36l4.51,14.91h.09l4.42-14.91c.06-.22.26-.37.49-.37h4.45c.35,0,.6.35.48.68l-6.74,19.49c-.24.68-.88,1.14-1.6,1.14h-2.98c-.73,0-1.39-.47-1.61-1.17l-4.46-13.75h-.09l-4.42,13.74c-.23.7-.88,1.18-1.61,1.18h-2.98c-.72,0-1.36-.46-1.6-1.14l-6.78-19.49c-.12-.33.13-.68.48-.68Z"></path><g><path class="uuid-c724ecc6-a381-4d62-a79f-dc15d2a88147" d="M89.01,22.73c-.89-.84-1.96-1.51-3.19-1.98-1.24-.47-2.62-.71-4.12-.71h-10.64c-.48,0-.86.39-.86.86v29.49c0,.35.29.64.64.64h4.21c.35,0,.64-.29.64-.64v-11.28h6.01c1.5,0,2.89-.24,4.12-.72,1.23-.47,2.31-1.13,3.2-1.96.88-.83,1.57-1.84,2.04-3.01.47-1.17.71-2.47.71-3.85s-.24-2.67-.71-3.83c-.47-1.15-1.16-2.17-2.04-3.01ZM84.81,33.13h0s0,0,0,0h0c-.94.87-2.24,1.32-3.87,1.32h-5.2v-8.82c0-.51.41-.92.92-.92h4.28c1.63,0,2.93.44,3.87,1.29.95.87,1.43,2.08,1.43,3.6s-.48,2.65-1.42,3.53Z"></path><path class="uuid-c724ecc6-a381-4d62-a79f-dc15d2a88147" d="M111.62,32.23c-.99-.99-2.19-1.78-3.55-2.34-1.37-.56-2.86-.85-4.45-.85s-3.08.28-4.45.85c-1.37.56-2.56,1.35-3.55,2.34-.99.99-1.78,2.2-2.34,3.57-.56,1.38-.85,2.92-.85,4.56s.28,3.17.85,4.54c.56,1.36,1.35,2.57,2.34,3.58.99,1,2.18,1.8,3.55,2.36,1.37.56,2.86.85,4.45.85s3.08-.28,4.45-.85c1.37-.56,2.56-1.35,3.55-2.36.99-1.01,1.78-2.21,2.34-3.58.56-1.37.85-2.89.85-4.54s-.28-3.18-.85-4.56c-.56-1.38-1.35-2.58-2.34-3.57ZM109.04,43.22c-.33.81-.76,1.5-1.3,2.05-.54.55-1.18.98-1.9,1.26-.72.28-1.47.42-2.22.42s-1.5-.14-2.22-.42c-.73-.29-1.37-.71-1.9-1.26-.53-.55-.97-1.24-1.3-2.05-.33-.81-.49-1.77-.49-2.85s.17-2.04.49-2.85c.33-.81.76-1.5,1.3-2.05.54-.55,1.18-.98,1.9-1.26,1.44-.56,3-.56,4.44,0,.73.28,1.37.71,1.9,1.26.53.55.97,1.24,1.3,2.05.33.81.49,1.77.49,2.85s-.17,2.04-.49,2.85Z"></path><path class="uuid-c724ecc6-a381-4d62-a79f-dc15d2a88147" d="M163.38,29.05c-1.35,0-2.67.27-3.93.8-1.26.53-2.39,1.29-3.35,2.25-.96.96-1.74,2.15-2.32,3.53-.58,1.38-.87,2.94-.87,4.65,0,1.79.3,3.42.89,4.83.59,1.41,1.4,2.62,2.4,3.6,1.01.98,2.18,1.73,3.5,2.23,1.33.5,2.74.76,4.21.76,1.3,0,2.5-.18,3.58-.54,1.08-.36,2.03-.85,2.83-1.45.8-.6,1.49-1.32,2.05-2.13.41-.6.74-1.22.98-1.87.04-.11.04-.22-.02-.33-.05-.1-.14-.18-.25-.21l-3.6-1.07c-.18-.05-.38.03-.46.19-.38.78-.91,1.44-1.58,1.97-.85.67-2.02,1.01-3.49,1.01-.78,0-1.53-.14-2.22-.4-.69-.27-1.3-.64-1.82-1.11-.52-.47-.95-1.04-1.28-1.68-.28-.55-.45-1.13-.52-1.75-.02-.18.04-.36.16-.5.13-.14.31-.22.5-.22h15.05c0-.09.02-.21.03-.34.03-.37.04-.76.04-1.16,0-3.44-.93-6.17-2.77-8.12-1.83-1.94-4.44-2.93-7.75-2.93ZM168.47,37.92c-.15.18-.38.29-.62.29h-8.75c-.24,0-.47-.11-.63-.3-.15-.19-.21-.43-.17-.67.07-.34.18-.68.33-1.02.24-.54.59-1.04,1.03-1.49.44-.44.99-.81,1.62-1.1.63-.29,1.37-.43,2.19-.43.87,0,1.64.14,2.29.4.65.27,1.2.62,1.63,1.06.43.43.76.94.97,1.5.13.36.23.73.29,1.1.04.23-.03.47-.18.66Z"></path><path class="uuid-c724ecc6-a381-4d62-a79f-dc15d2a88147" d="M240.42,44.39l-2.17-.72c-.61-.2-1.26.06-1.59.65-.28.49-.64.93-1.09,1.31-.45.38-.98.69-1.59.93-.62.24-1.32.36-2.11.36s-1.58-.14-2.29-.43c-.71-.28-1.35-.72-1.9-1.28-.55-.57-.99-1.26-1.3-2.08-.31-.81-.47-1.73-.47-2.76s.16-1.95.47-2.75c.31-.81.74-1.51,1.28-2.06.54-.55,1.17-.98,1.88-1.26.71-.28,1.48-.43,2.29-.43,1.55,0,2.75.42,3.57,1.26.42.43.77.88,1.05,1.36.33.57.98.82,1.57.62l2.28-.77c.36-.12.64-.38.79-.73.15-.35.14-.76-.03-1.11-.15-.31-.32-.63-.5-.94-.51-.85-1.19-1.62-2.02-2.28-.83-.66-1.83-1.2-2.97-1.62-1.14-.42-2.44-.63-3.88-.63-1.55,0-3.02.28-4.36.84-1.34.56-2.52,1.35-3.51,2.34-.99.99-1.78,2.19-2.34,3.57-.56,1.38-.85,2.92-.85,4.56s.29,3.17.87,4.54c.57,1.37,1.38,2.57,2.38,3.58,1,1.01,2.21,1.8,3.57,2.36,1.37.56,2.85.85,4.4.85,1.41,0,2.69-.21,3.81-.63,1.12-.42,2.11-.97,2.94-1.64.83-.67,1.52-1.44,2.05-2.28.19-.3.35-.6.5-.89.17-.35.19-.76.04-1.11-.15-.35-.43-.62-.8-.74Z"></path><path class="uuid-c724ecc6-a381-4d62-a79f-dc15d2a88147" d="M262.87,31.57h0c-.63-.73-1.45-1.33-2.43-1.77-.98-.44-2.16-.66-3.5-.66-1,0-2.05.18-3.11.54-1.04.35-1.9.94-2.57,1.75l-.59.72v-12.21c0-.32-.26-.58-.58-.58h-4.11c-.32,0-.58.26-.58.58v30.5c0,.32.26.58.58.58h4.11c.32,0,.58-.26.58-.58v-11.99c.06-1.31.48-2.4,1.24-3.28.78-.89,1.86-1.34,3.2-1.34,1.53,0,2.67.46,3.37,1.38.68.89,1.03,2.01,1.03,3.33v11.9c0,.32.26.58.58.58h4.11c.32,0,.58-.26.58-.58v-12.93c0-1.15-.16-2.26-.48-3.3-.31-1.02-.79-1.91-1.43-2.65Z"></path><path class="uuid-c724ecc6-a381-4d62-a79f-dc15d2a88147" d="M288.17,32.23c-.99-.99-2.19-1.78-3.55-2.34-1.37-.56-2.86-.85-4.45-.85s-3.08.28-4.45.85c-1.37.56-2.56,1.35-3.55,2.34-.99.99-1.78,2.19-2.34,3.57-.56,1.38-.85,2.92-.85,4.56s.28,3.17.85,4.54c.56,1.36,1.35,2.57,2.34,3.58.99,1,2.18,1.8,3.55,2.36,1.37.56,2.86.85,4.45.85s3.08-.28,4.45-.85c1.37-.56,2.56-1.35,3.55-2.36.99-1.01,1.78-2.21,2.34-3.58.56-1.37.85-2.9.85-4.54s-.29-3.18-.85-4.56c-.56-1.38-1.35-2.58-2.34-3.57ZM285.59,43.22h0c-.33.81-.77,1.5-1.3,2.05-.54.55-1.18.98-1.9,1.26-.72.28-1.47.42-2.22.42s-1.5-.14-2.22-.42c-.73-.29-1.37-.71-1.9-1.26-.53-.55-.97-1.24-1.3-2.05-.33-.81-.49-1.77-.49-2.85s.17-2.04.49-2.85c.33-.81.76-1.5,1.3-2.05.54-.55,1.18-.98,1.9-1.26,1.44-.56,3-.56,4.44,0,.73.28,1.37.71,1.91,1.26.53.55.97,1.24,1.3,2.05.33.81.49,1.77.49,2.85s-.17,2.04-.49,2.85Z"></path><path class="uuid-c724ecc6-a381-4d62-a79f-dc15d2a88147" d="M313.52,32.23c-.99-.99-2.19-1.78-3.55-2.34-1.37-.56-2.86-.85-4.45-.85s-3.08.28-4.45.85c-1.37.56-2.56,1.35-3.55,2.34-.99.99-1.78,2.19-2.34,3.57-.56,1.38-.85,2.92-.85,4.56s.28,3.17.85,4.54c.56,1.37,1.35,2.57,2.34,3.58.99,1,2.18,1.8,3.55,2.36,1.37.56,2.86.85,4.45.85s3.08-.28,4.45-.85,2.56-1.35,3.55-2.36c.99-1.01,1.78-2.21,2.34-3.58.56-1.37.85-2.89.85-4.54s-.28-3.18-.85-4.56c-.56-1.38-1.35-2.58-2.34-3.57ZM310.94,43.22h0c-.33.81-.77,1.5-1.3,2.05-.54.55-1.18.98-1.9,1.26-.72.28-1.47.42-2.22.42s-1.5-.14-2.22-.42c-.73-.29-1.37-.71-1.91-1.26-.53-.55-.97-1.24-1.3-2.05s-.49-1.77-.49-2.85.17-2.04.49-2.85c.33-.81.76-1.5,1.3-2.05.54-.55,1.18-.98,1.91-1.26,1.44-.56,3-.56,4.44,0,.73.28,1.37.71,1.9,1.26.53.55.97,1.24,1.3,2.05.33.81.49,1.77.49,2.85s-.17,2.04-.49,2.85Z"></path><rect class="uuid-c724ecc6-a381-4d62-a79f-dc15d2a88147" x="320.78" y="19.36" width="5.27" height="31.66" rx=".68" ry=".68"></rect><path class="uuid-c724ecc6-a381-4d62-a79f-dc15d2a88147" d="M192.31,29.88c-3.13.11-5.08.47-6.91,3.32l-.64,1.47v-4.09c0-.18-.16-.34-.36-.34h-4.53c-.2,0-.36.15-.36.34v20.48c0,.23.2.42.45.42h4.35c.25,0,.45-.19.45-.42v-8.49c0-5.11,3.99-7.4,7.94-7.41v-4.95c0-.09-.04-.17-.1-.23-.07-.07-.18-.11-.29-.11Z"></path></g><path class="uuid-c724ecc6-a381-4d62-a79f-dc15d2a88147" d="M217.93,39.97c-.35-.92-.87-1.76-1.55-2.51-.68-.75-1.54-1.41-2.55-1.95-1.02-.55-2.21-.96-3.54-1.2l-4.28-.82c-1.23-.25-2.16-.73-2.77-1.43-.62-.71-.94-1.55-.94-2.5,0-.59.13-1.16.4-1.68.26-.51.62-.98,1.09-1.38.46-.4,1.02-.72,1.66-.95.64-.23,1.35-.35,2.13-.35,1.04,0,1.94.16,2.67.47.73.31,1.34.71,1.81,1.18.47.47.83.99,1.07,1.55.24.56.82.85,1.37.68h0s2.37-.73,2.37-.73c.3-.09.55-.31.69-.59.13-.27.14-.57.04-.84-.14-.35-.3-.71-.48-1.07-.45-.88-1.09-1.7-1.9-2.43-.82-.73-1.87-1.35-3.12-1.83-1.25-.48-2.79-.72-4.56-.72-1.38,0-2.7.24-3.94.7-1.24.47-2.34,1.12-3.27,1.94-.93.82-1.67,1.79-2.2,2.9-.53,1.1-.8,2.3-.8,3.58,0,2.2.69,4.03,2.05,5.44,1.38,1.43,3.27,2.4,5.61,2.87l4.28.87c1.3.25,2.31.74,3.01,1.45.72.74,1.09,1.63,1.09,2.65,0,1.24-.49,2.27-1.45,3.07-.93.78-2.28,1.17-4,1.17-1.15,0-2.17-.17-3.03-.51-.86-.34-1.6-.8-2.19-1.38-.59-.57-1.05-1.24-1.38-1.99-.1-.23-.19-.46-.26-.69-.16-.49-.6-.8-1.07-.8-.09,0-.18.01-.27.04l-2.48.66c-.29.08-.53.26-.68.52-.15.26-.19.57-.11.86.15.56.36,1.13.62,1.69.49,1.08,1.22,2.06,2.16,2.94.95.88,2.14,1.61,3.55,2.18,1.41.57,3.12.85,5.1.85,1.72,0,3.25-.26,4.56-.79,1.31-.52,2.42-1.21,3.31-2.05.88-.83,1.57-1.79,2.03-2.87s.7-2.18.7-3.29c0-1-.18-1.98-.53-2.9Z"></path></g></svg>