<svg xmlns="http://www.w3.org/2000/svg" id="uuid-8a80fa47-d6b5-4831-a6ff-72c0bad419fd" data-name="Layer 1" viewBox="0 0 476.3 60.2"><defs><style>      .uuid-7ac0850c-803f-4ec9-9f83-b81c108193cb {        fill: #fff;      }      .uuid-7ac0850c-803f-4ec9-9f83-b81c108193cb, .uuid-c08686c8-6308-4cd3-89f1-87310707eea9 {        fill-rule: evenodd;      }      .uuid-c08686c8-6308-4cd3-89f1-87310707eea9 {        fill: #e81111;      }    </style></defs><path class="uuid-c08686c8-6308-4cd3-89f1-87310707eea9" d="M0,0h476.3v60.2H0V0Z"></path><path class="uuid-7ac0850c-803f-4ec9-9f83-b81c108193cb" d="M0,60.2V0h476.3v60.2H0ZM1.6,58.3h472.7V1.9H1.6v56.4ZM228.3,30.4v-.3c0-2.2-.8-5.2-3-7.7-2.5-2.5-5.7-3.3-7.9-3.3h-.3c-2.5,0-5.7.8-7.9,3.3s-3,5.5-3,7.7v.3c0,2.2.8,5.2,3,7.7,2.5,2.5,5.7,3.3,7.9,3.3h.3c2.5,0,5.7-.8,7.9-3.3s3-5.5,3-7.7ZM228.8,20c4.1,3.6,4.9,7.4,4.9,10.1v.3c0,2.7-.8,6.6-4.9,10.1-4.4,3.6-9.9,3.6-11.5,3.6h-.3c-1.6,0-7.4,0-11.5-3.6s-4.9-7.4-4.9-10.1v-.3c0-2.7.8-6.6,4.9-10.1,4.4-3.6,9.9-3.6,11.5-3.6h.3c1.7,0,7.4,0,11.5,3.6ZM186.1,17c-2.2.8-2.5,3-2.5,4.1v18.1c0,1.1.3,3.3,2.5,4.1.3,0,.3.3,0,.3h-9.6c-.3,0-.3-.3,0-.3,2.2-.8,2.5-3,2.5-4.1v-8.8h-17.8v8.8c0,1.1.3,3.3,2.5,4.1.3,0,.3.3,0,.3h-9.6c-.3,0-.3-.3,0-.3,2.2-.8,2.5-3,2.5-4.1v-18.1c0-1.1-.3-3.3-2.5-4.1-.3,0-.3-.3,0-.3h9.6c.3,0,.3.3,0,.3-2.2.8-2.5,3-2.5,4.1v6.8h17.8v-6.8c0-1.1-.3-3.3-2.5-4.1-.3,0-.3-.3,0-.3h9.6c.3,0,.3.3,0,.3ZM92.5,29.3c1.6.5,3.3,1.6,4.4,3.3,1.1,1.9,1.1,5.2-.3,7.1-1.4,2.2-3.6,3.6-5.7,4.1-3.3.8-6.6.5-9.9-.3-2.7-.8-5.2-1.4-6.8-.3q-.5.3-.5-.3c0-.6-.3-5.7-.3-6.6,0-.3.3,0,.3,0,1.1,1.1,4.1,3.3,7.4,4.4,2.7.8,5.2,1.1,8.5.3,1.4-.3,2.7-1.4,3-2.2.5-1.1.5-3-.3-3.8-.5-.5-1.4-1.6-7.7-2.5-6.8-1.1-8.5-2.7-9.9-4.7-1.6-2.5-1.4-5.2-.3-7.1,1.1-2.2,3-3.3,4.7-3.8,2.2-.8,5.2-1.1,8.8-.5,3.6.5,4.7,1.4,6.3.8.5-.2.8-.2.8.3.3.8.5,5.5.5,5.7.3.5,0,.5-.3.3-.8-.5-3-3-6.6-4.1-2.7-.8-4.9-.5-6.3-.3-1.9.3-3,1.4-3.6,2.2-1.1,1.6-.8,3.3.3,4.4,1.1,1.1,3.3,1.6,5.5,1.9,2.3.6,6.1.9,8,1.7ZM133,40.2c2.2-.8,4.1-2.2,5.5-3.6.3-.3.5-.3,0,.3-.3,1.1-.5,3.8-.8,4.7,0,.3-.3.3-.5.5-.5.3-2.2,1.1-3.8,1.4-3.6.8-7.9.8-10.9-.3s-6.6-3-9-6.8c-2.5-3.8-1.9-9.6.3-12.9,3-4.4,6-5.7,9-6.6,3.3-.8,6.8-.8,9.9-.3,1.4.3,3.8,1.1,4.4,1.4.3,0,.5.3.5.5,0,0,.5,3.8.5,4.4,0,.5-.3.5-.5.3-1.4-1.6-3.6-3-5.2-3.6-2.7-.8-6-.8-8.2.3-1.9.8-3.8,1.6-5.5,4.4-2.5,4.1-1.6,8.8-.5,10.7.8,1.1,1.9,3.6,5.5,5.2,3,1.7,6.6,1.1,9.3,0ZM419.3,17c-2.2.8-2.5,3-2.5,4.1v18.1c0,1.1.3,3.3,2.5,4.1.3,0,.3.3,0,.3h-9.6c-.3,0-.3-.3,0-.3,2.2-.8,2.5-3,2.5-4.1v-18.1c0-1.1-.3-3.3-2.5-4.1-.3,0-.3-.3,0-.3h9.6c.3,0,.3.3,0,.3ZM390.6,16.7c1.4,0,3.3-.3,4.9-.8.3,0,.5,0-.3.3-.5.8-2.5,3.3-3,4.1-.3.3-.3,0-.5,0-.3,0-.8-.8-3-.8h-5.7v19.7c0,1.1.3,3.3,2.5,4.1.3,0,.3.3,0,.3h-9.6c-.3,0-.3-.3,0-.3,2.2-.8,2.5-3,2.5-4.1v-19.8h-6.8c-1.4,0-2.2,0-3.8.8-.5.3-.5,0-.3-.3l3.3-4.4c.3-.3.3,0,.5,0,.3.3,1.4,1.1,3,1.1l16.3.1h0ZM271,38.9c.3-.3.3,0,.5.3-.3.5-1.9,4.7-2.2,5.2q-.3.3-.5.3c-1.1-.5-2.5-.8-3.8-.8h-16.1c-.3,0-.3-.3,0-.3,2.2-.8,2.5-3,2.5-4.1v-18.2c0-1.1-.3-3.3-2.5-4.1-.3,0-.3-.3,0-.3h9.9c.3,0,.3.3,0,.3-2.5.8-2.7,2.5-2.7,3.8v20h9.3c3.1.1,5.3-1.9,5.6-2.1ZM460.7,36.7c.3-.3.5-.3,0,.3-.3,1.1-.5,3.8-.8,4.7,0,.3-.3.3-.5.5-.5.3-2.2,1.1-3.8,1.4-3.6.8-7.9.8-10.9-.3s-6.6-3-9-6.8-1.9-9.6.3-12.9c3-4.4,6-5.7,9-6.6,3.3-.8,6.8-.8,9.9-.3,1.4.3,3.8,1.1,4.4,1.4.3,0,.5.3.5.5,0,0,.5,3.8.5,4.4,0,.5-.3.5-.5.3-1.4-1.6-3.6-3-5.2-3.6-2.7-.8-6-.8-8.2.3-1.9.8-3.8,1.6-5.5,4.4-2.5,4.1-1.6,8.8-.5,10.7.8,1.1,1.9,3.6,5.5,5.2,3.3,1.6,6.8,1.1,9.6,0,1.9-.9,3.8-2.3,5.2-3.6h0ZM291,33.7h14l-6.8-12.9-7.2,12.9ZM314.2,40.2c.5,1.4,1.6,2.5,2.7,2.7.3.3.3.5,0,.8h-8.2c-.3,0-.3-.3,0-.3s1.4-.5.5-2.2c-.5-1.1-2.5-4.7-2.5-4.7h-17s-1.9,3.8-2.5,4.7c-.3.5-.3,1.6.5,2.2.3,0,.3.3,0,.3h-6c-.3,0-.5-.3,0-.5.5-.3,1.6-.8,3-3.3s11.2-19.7,11.5-20.5.5-1.6-.3-2.5c-.3-.3,0-.3,0-.3h4.7c.2.1,12.8,22.3,13.6,23.6ZM349.3,29.3c1.6.5,3,1.9,4.4,3.3,1.1,1.9,1.1,5.2-.3,7.1-1.4,2.2-3.6,3.6-5.7,4.1-3.3.8-6.6.5-9.9-.3-2.7-.8-5.2-1.4-6.8-.3-.3.3-.5.3-.5-.3s-.3-5.7-.3-6.6c0-.3.3,0,.3,0,1.1,1.1,4.1,3.3,7.4,4.4,2.7.8,5.2,1.1,8.5.3,1.4-.3,2.7-1.6,3-2.2.5-1.1.5-3-.3-3.8-.5-.5-1.4-1.6-7.7-2.5-6.8-1.1-8.5-2.7-9.9-4.7-1.6-2.5-1.4-5.2-.3-7.1,1.1-2.2,3-3.3,4.7-3.8,2.2-.8,5.2-1.1,8.8-.5,3.6.5,4.7,1.4,6.3.8.5-.3.8-.3.8.3.3.8.5,5.5.5,5.7.3.5,0,.5-.3.3-.8-.5-3-3-6.6-4.1-2.7-.8-4.7-.5-6.3-.3-1.9.3-3,1.4-3.6,2.2-1.1,1.6-.8,3.3.3,4.4,1.1,1.1,3.3,1.6,5.5,1.9,2.2.6,6,.9,8,1.7h0ZM17.5,39.1c-.4-.2-.9-.4-.8-1.3.1-.9,2.8-19.3,2.9-19.9,0-.3,0-.9.2-1,.2-.2.5,0,1.2.1s2,.3,4.6.3,5.1.4,6.8,1.9c1.4,1.2,3.9,3.8,3.9,5.8v19.5c0,.5-.5.5-1.1,0-.5-.5-3.4-3.4-6-4.3-1.7-.6-3.1-.7-6-.7s-5-.2-5.7-.4ZM56.2,39.1c-.7.3-2.7.3-5.6.3s-4.3.2-6,.7c-2.7.9-5.5,3.8-6,4.3s-1.1.5-1.1,0v-19.6c0-2,2.4-4.6,3.9-5.8,1.7-1.5,4.3-1.9,6.8-1.9s3.8-.1,4.6-.3c.7-.1,1-.3,1.2-.1.2.2.1.7.2,1,.1.6,2.8,19,2.9,19.9,0,1-.5,1.3-.9,1.5h0Z"></path></svg>