<svg xmlns="http://www.w3.org/2000/svg" id="uuid-9ed5fa08-f81a-40ea-b372-819bcdaf6b4f" data-name="Layer 1" viewBox="0 0 672.7 146.1"><defs><style>      .uuid-22487926-18fb-4a9e-832a-9ecd2a9ecd98, .uuid-b957a423-9205-4171-add6-4423fc3413ab {        fill: #fc6600;      }      .uuid-b957a423-9205-4171-add6-4423fc3413ab {        fill-rule: evenodd;      }      .uuid-7a9cddd4-ce9e-487c-9e48-82ed9da5e545 {        fill: #059bd2;      }    </style></defs><path class="uuid-7a9cddd4-ce9e-487c-9e48-82ed9da5e545" d="M68.4,110s-7.1-8.7-11.3-13.4l-5.9,13.9c8.5,12.6,14.1,23.5,17.2,28.7,6-10.2,20.7-40.4,51-68.7l-3.4-7.9c-19.7,14.6-36.5,33.2-47.6,47.4"></path><path class="uuid-b957a423-9205-4171-add6-4423fc3413ab" d="M372,112.9c0,8.1,4.7,12.3,12.2,13.5v19.7c-22.4-.3-34.3-11.1-34.3-31.6V0h22.1v112.9Z"></path><path class="uuid-b957a423-9205-4171-add6-4423fc3413ab" d="M441.4,42.6c-27.7,0-49.6,22.7-49.6,51.4s21.2,51.4,47.7,51.4c13.5,0,24.3-5.1,30.7-12.5l1.2.4v10.1h22.2V44.6h-22.2v6.9l-1,.4c-6.7-5.5-15.8-9.3-29-9.3M444.1,126.9c-16.6,0-30.3-14.4-30.3-32.8s13.7-32.8,30.3-32.8c10.9,0,20.4,3.2,27.1,8.3v42.3c-5.7,10.8-16,15-27.1,15"></path><path class="uuid-b957a423-9205-4171-add6-4423fc3413ab" d="M511.9,143.7h22.1v-69.2c6.9-7.1,16.6-11.7,27.9-11.7h4.7v-20.2h-2.8c-12.1,0-22.2,5.7-28.7,13.6l-1.2-.4v-11.2h-22.1v99.1h.1Z"></path><path class="uuid-b957a423-9205-4171-add6-4423fc3413ab" d="M279.7,42.6c-27.7,0-49.7,22.8-49.7,51.4s21.2,51.4,47.7,51.4c13.4,0,24.3-5.1,30.7-12.5l1.2.4v10.1h22.2V44.6h-22.2v6.9l-1,.4c-6.6-5.5-15.7-9.3-28.9-9.3M282.4,126.9c-16.6,0-30.3-14.4-30.3-32.8s13.6-32.8,30.3-32.8c10.9,0,20.4,3.2,27.1,8.3v42.3c-5.7,10.8-16,15-27.1,15"></path><path class="uuid-b957a423-9205-4171-add6-4423fc3413ab" d="M620.5,42.6c-27.7,0-49.6,22.7-49.6,51.4s21.2,51.4,47.7,51.4c13.4,0,24.3-5.1,30.7-12.5l1.2.4v10.1h22.2V44.6h-22.2v6.9l-1,.4c-6.7-5.5-15.8-9.3-29-9.3M623.2,126.9c-16.6,0-30.2-14.4-30.2-32.8s13.6-32.8,30.2-32.8c10.9,0,20.4,3.2,27.1,8.3v42.3c-5.7,10.8-16,15-27.1,15"></path><path class="uuid-22487926-18fb-4a9e-832a-9ecd2a9ecd98" d="M112.6,143.3h24.1l-21.2-50.8c-6.2,6.6-11.5,13.1-16.2,19.3l13.3,31.5Z"></path><polygon class="uuid-22487926-18fb-4a9e-832a-9ecd2a9ecd98" points="208.4 44.7 177.5 117 177.2 117 177 117 176.9 117 176.8 117 176.7 117 176.5 117 176.3 117 145.4 44.7 121.5 44.7 165.6 143.3 165.6 143.3 165.9 143.3 187.9 143.3 188.1 143.3 188.1 143.3 232.2 44.7 208.4 44.7"></polygon><path class="uuid-22487926-18fb-4a9e-832a-9ecd2a9ecd98" d="M78.9,5.3h-21.2L0,143.3h24.1l41.7-98.4,2-5.3h1.1l2,5.3,12.4,29.2c5.5-5.5,11.5-10.9,17.8-16L78.9,5.3Z"></path></svg>