<svg xmlns="http://www.w3.org/2000/svg" id="uuid-37af6ec9-586c-4c8f-9026-f143c1037d1b" data-name="Layer 1" viewBox="0 0 585.37 261.55"><defs><style>      .uuid-1c38b2ff-5afa-465e-b51a-2c24353258e6 {        fill: #d33;      }      .uuid-57adb207-3af6-4358-801c-9a2427a3a747 {        fill: #0762ac;      }      .uuid-ac45dc1f-709c-4a76-aeaa-5f487c3b2c6f {        fill: #2094d2;      }    </style></defs><path class="uuid-57adb207-3af6-4358-801c-9a2427a3a747" d="M198.48,182.23c9.27-.1,22.24-.87,23.41,7.73.78,5.51-.2,10.35.39,16.15,1.17,13.63,8.19,24.65,17.55,30.07,17.55,10.15,44.28,2.42,62.9-1.45,29.06-6.09,55.49-14.79,85.24-18.76,26.33-3.58,55.3.19,77.53,4.45,13.56,2.51,25.55,6.67,37.65,10.64-.98,6.96-1.66,13.63-2.93,20.21-17.26-4.54-32.67-11.51-53.05-13.92-52.47-6.28-98.6,6.28-139.37,17.21-41.35,11.12-80.56,12.38-99.18-22.04-2.54-4.64-5.07-10.44-6.24-16.15-.68-3.58-.2-7.35-1.85-9.86-.59-.97-2.73-2.32-4-2.61-3.51-.77-16.97-.68-19.9-.68-13.26,0-26.82,1.93-38.33,3.58-33.74,5.03-64.37,11.51-95.87,18.37-13.07,2.8-26.53,7.44-39.5,10.25-1.27.29-1.56.1-2.93.39,1.17-7.93,3.51-14.89,5.17-22.72,3.51-.97,7.22-2.13,10.63-2.9,55.88-13.44,114.11-27.46,182.67-27.94"></path><path class="uuid-ac45dc1f-709c-4a76-aeaa-5f487c3b2c6f" d="M183.46,152.84c21.55-1.55,49.15-.48,60.76,8.8,5.85,4.64,8.78,13.83,9.56,23.49.49,6.67-1.66,15.18.39,20.21,1.56,3.96,7.12,6.09,13.17,5.51,15.7-1.64,31.7-6.57,45.74-9.86,33.45-7.93,75.88-19.72,118.2-16.53,29.94,2.22,52.47,8.31,76.46,15.37-.98,6.77-1.95,13.73-2.93,20.59-3.71-1.06-6.83-1.74-10.63-2.9-30.43-9.67-73.15-17.5-113.03-11.02-16.97,2.71-32.28,8.02-48.28,11.41-17.26,3.58-33.74,7.06-51.59,10.64-7.61,1.55-18.63,3.96-27.8,1.84-13.65-3.09-20.19-13.54-20.87-29.68-.29-6.48.98-13.34-1.46-18.37-2.83-5.8-10.73-9.09-18.63-9.86-15.31-1.55-34.13.29-49.35,1.45-56.96,4.25-105.72,15.47-154,27.55.88-4.16,1.56-7.73,2.54-11.7.78-3.19,1.66-6.67,2.54-9.86,10.73-2.22,21.16-4.74,32.18-6.96,43.2-8.89,87.48-16.44,137.03-20.11"></path><path class="uuid-57adb207-3af6-4358-801c-9a2427a3a747" d="M547.23,127.02c0-5.8,4.39-10.25,10.05-10.25s9.95,4.45,9.95,10.25-4.39,10.35-9.95,10.35-10.05-4.45-10.05-10.35M557.18,139.4c6.73,0,12.39-5.22,12.39-12.38s-5.75-12.28-12.39-12.28-12.48,5.22-12.48,12.28,5.75,12.38,12.48,12.38M554.65,127.99h2.44l3.71,6.19h2.44l-4-6.28c2.05-.29,3.71-1.35,3.71-3.87,0-2.8-1.66-4.06-4.97-4.06h-5.36v14.21h2.15v-6.19h-.12ZM554.65,126.15v-4.45h2.93c1.46,0,3.12.29,3.12,2.13,0,2.22-1.66,2.32-3.41,2.32h-2.64Z"></path><path class="uuid-57adb207-3af6-4358-801c-9a2427a3a747" d="M267.72,169.85h3.22v.77c0,1.84.59,3.38,1.66,4.45,1.17,1.06,2.63,1.64,4.58,1.64s3.41-.58,4.68-1.84,1.85-2.8,1.85-4.64c0-1.26-.29-2.42-.98-3.29-.68-.97-1.85-1.93-3.8-3.09-.29-.19-.78-.39-1.37-.77-2.15-1.16-3.8-2.32-4.78-3.38-.59-.68-1.07-1.45-1.37-2.22-.29-.87-.49-1.74-.49-2.61,0-2.51.88-4.54,2.73-6.38,1.85-1.74,4-2.61,6.63-2.61s4.49.77,6.05,2.22c1.56,1.55,2.24,3.48,2.24,5.99v1.06h-3.22v-.77c0-1.84-.49-3.29-1.37-4.25s-2.24-1.45-3.9-1.45-3.12.48-4.19,1.55c-1.07,1.06-1.66,2.32-1.66,3.96,0,2.13,1.95,4.35,5.85,6.48.68.39,1.27.68,1.66.97,1.76.97,3.02,2.22,3.9,3.58.88,1.35,1.37,3,1.37,4.74,0,2.71-.98,4.93-3.02,6.86s-4.39,2.9-7.31,2.9-5.07-.77-6.63-2.42c-1.66-1.64-2.44-3.77-2.44-6.48v-.58c.1-.19.1-.29.1-.39"></path><polygon class="uuid-57adb207-3af6-4358-801c-9a2427a3a747" points="290.74 179.04 296.98 146.46 313.66 146.46 313.07 149.45 299.52 149.45 297.37 161.06 310.83 161.06 310.24 164.05 296.69 164.05 294.44 176.04 307.9 176.04 307.32 179.04 290.74 179.04"></polygon><path class="uuid-57adb207-3af6-4358-801c-9a2427a3a747" d="M322.24,165.89l9.46-17.31,3.22,17.31h-12.68ZM315.12,179.04l5.46-10.15h14.92l1.95,10.15h3.22l-6.44-32.68h-4.97l-17.65,32.68h3.51,0Z"></path><polygon class="uuid-57adb207-3af6-4358-801c-9a2427a3a747" points="343.7 179.04 349.94 146.46 366.61 146.46 366.03 149.45 352.57 149.45 350.33 161.06 363.79 161.06 363.2 164.05 349.74 164.05 346.82 179.04 343.7 179.04"></polygon><path class="uuid-57adb207-3af6-4358-801c-9a2427a3a747" d="M373.15,157.96c.78-2.03,2.05-3.77,3.61-5.22,1.37-1.26,2.93-2.22,4.58-2.9s3.51-.97,5.36-.97c3.61,0,6.44,1.06,8.58,3.19s3.22,5.03,3.22,8.6c0,4.74-1.37,8.51-4.19,11.51-2.73,2.9-6.34,4.45-10.73,4.45-3.51,0-6.44-1.06-8.48-3.19-2.15-2.13-3.22-5.03-3.22-8.6.1-2.51.49-4.83,1.27-6.86M372.66,175.65c2.73,2.71,6.24,4.06,10.83,4.06,5.56,0,9.95-1.74,13.36-5.22s5.07-8.02,5.07-13.73c0-4.54-1.37-8.12-4-10.93-2.73-2.71-6.34-4.06-10.83-4.06-2.54,0-4.97.39-7.12,1.26s-4.1,2.13-5.75,3.77c-1.76,1.74-3.12,3.77-4.1,6.19s-1.37,5.03-1.37,7.93c-.1,4.45,1.27,8.02,3.9,10.73"></path><path class="uuid-57adb207-3af6-4358-801c-9a2427a3a747" d="M410.31,157.96c.78-2.03,2.05-3.77,3.61-5.22,1.37-1.26,2.93-2.22,4.58-2.9s3.51-.97,5.36-.97c3.61,0,6.44,1.06,8.58,3.19s3.22,5.03,3.22,8.6c0,4.74-1.37,8.51-4.19,11.51-2.73,2.9-6.34,4.45-10.73,4.45-3.61,0-6.44-1.06-8.48-3.19-2.15-2.13-3.22-5.03-3.22-8.6.1-2.51.49-4.83,1.27-6.86M409.82,175.65c2.73,2.71,6.24,4.06,10.83,4.06,5.46,0,9.95-1.74,13.36-5.22,3.41-3.48,5.07-8.02,5.07-13.73,0-4.54-1.37-8.12-4-10.93-2.73-2.71-6.34-4.06-10.83-4.06-2.54,0-4.97.39-7.12,1.26s-4.1,2.13-5.75,3.77c-1.76,1.74-3.12,3.77-4.1,6.19s-1.37,5.03-1.37,7.93c-.1,4.45,1.27,8.02,3.9,10.73"></path><path class="uuid-57adb207-3af6-4358-801c-9a2427a3a747" d="M464.24,152.26c1.95,1.93,2.93,4.83,2.93,8.51,0,4.54-1.46,8.31-4.29,11.12-2.83,2.8-6.53,4.25-11.22,4.25h-6.83l5.17-26.78h5.66c3.8,0,6.63.97,8.58,2.9M447.46,146.46l-6.14,32.58h10.63c5.66,0,10.14-1.64,13.56-5.03s5.07-7.83,5.07-13.34c0-4.45-1.27-8.02-3.9-10.44-2.63-2.51-6.34-3.67-11.12-3.67h-8.09v-.1h-.01Z"></path><path class="uuid-57adb207-3af6-4358-801c-9a2427a3a747" d="M473.5,169.85h3.22v.77c0,1.84.59,3.38,1.66,4.45,1.17,1.06,2.63,1.64,4.58,1.64s3.41-.58,4.68-1.84,1.85-2.8,1.85-4.64c0-1.26-.29-2.42-.98-3.29-.68-.97-1.95-1.93-3.8-3.09-.29-.19-.68-.39-1.37-.77-2.15-1.16-3.8-2.32-4.78-3.38-.59-.68-1.07-1.45-1.37-2.22-.29-.87-.49-1.74-.49-2.61,0-2.51.88-4.54,2.73-6.38,1.85-1.74,4-2.61,6.63-2.61s4.49.77,6.05,2.22c1.56,1.55,2.24,3.48,2.24,5.99v1.06h-3.22v-.77c0-1.84-.49-3.29-1.37-4.25s-2.24-1.45-3.9-1.45-3.12.48-4.19,1.55-1.66,2.32-1.66,3.96c0,2.13,1.95,4.35,5.85,6.48.68.39,1.27.68,1.66.97,1.76.97,3.02,2.22,3.9,3.58.88,1.35,1.37,3,1.37,4.74,0,2.71-.98,4.93-3.02,6.86-1.95,1.93-4.39,2.9-7.31,2.9s-5.07-.77-6.73-2.42-2.44-3.77-2.44-6.48v-.58c.1-.19.1-.29.2-.39"></path><path class="uuid-1c38b2ff-5afa-465e-b51a-2c24353258e6" d="M112.85,22.6h3.12c-.2.68-.39,1.64-.68,3-2.63,11.8-6.73,17.69-12.19,17.69h-18.53l-21.85,81.12c-.2.48-.29.97-.39,1.45s-.1.97-.1,1.35c0,1.64.59,2.9,1.66,3.77,1.17.87,2.73,1.45,4.78,1.64l-.68,3.09h-22.43c-3.12,0-5.36-.48-6.92-1.45-1.46-.97-2.24-2.42-2.24-4.45,0-.68,0-1.26.1-1.64.1-.39.1-.77.29-1.06l22.04-83.92h-17.36c-2.34,0-4.1.29-5.17.97-1.17.68-1.85,1.74-2.34,3.38h-3.32c.2-.87.49-2.03.88-3.48,2.93-11.8,7.8-17.69,14.63-17.69h59.1c2.44,0,4.19-.29,5.27-.87,1.07-.48,1.85-1.45,2.34-2.9"></path><path class="uuid-1c38b2ff-5afa-465e-b51a-2c24353258e6" d="M93.54,48.03h23.21c1.76,0,3.02.39,4,1.06.88.68,1.37,1.84,1.37,3.29,0,.29-.1.68-.2,1.16s-.2,1.06-.39,1.74l-1.07,5.22c3.22-4.83,6.14-8.12,8.68-9.86,2.54-1.74,5.75-2.51,9.56-2.51h11.9l-1.66,8.02c-.98,4.06-2.15,6.67-3.41,7.73-1.37,1.06-3.8,1.64-7.31,1.64h-8.58c-3.32,0-6.05.97-8.29,2.8s-3.71,4.54-4.58,8.12l-11.7,48.83c-.1.19-.1.58-.2.97-.29,1.16-.39,1.93-.39,2.32,0,1.35.49,2.42,1.37,3.09.88.77,2.15,1.16,3.71,1.16l-.49,3.09h-22.14c-1.66,0-3.02-.48-4-1.35-.98-.97-1.46-2.22-1.46-3.87,0-.39,0-.87.1-1.45s.2-1.16.39-1.84l16.29-68.45c.2-.68.2-1.26.29-1.55v-.87c0-1.35-.49-2.51-1.37-3.38s-2.34-1.45-4.39-1.93l.78-3.19h-.02Z"></path><path class="uuid-1c38b2ff-5afa-465e-b51a-2c24353258e6" d="M154.79,48.03h22.63c1.46,0,2.54.48,3.32,1.35.78.87,1.17,2.13,1.17,3.77,0,.58-.1,1.26-.2,1.93-.1.68-.29,1.45-.49,2.13l-16.38,67.49c-.2.68-.29,1.35-.39,1.93s-.1,1.06-.1,1.35c0,1.45.49,2.51,1.46,3.38.98.77,2.34,1.16,4.1,1.16l-.98,3.09h-21.85c-1.66,0-3.02-.48-4.1-1.45-1.07-.97-1.56-2.22-1.56-3.67,0-.29.1-.77.2-1.55.1-.29.1-.48.1-.58l16.58-69.03c.2-.77.39-1.45.39-1.93.1-.58.1-.97.1-1.35,0-1.26-.39-2.22-1.07-2.9-.68-.68-1.95-1.35-3.9-2.03l.98-3.09h-.01ZM165.71,24.92h16.48c1.66,0,2.93.29,3.8.97.78.68,1.27,1.64,1.27,3v.77c0,.29-.1.77-.29,1.45l-2.63,10.64h-14.92c-2.15,0-3.71-.39-4.88-1.16-1.07-.77-1.66-1.93-1.66-3.48,0-.48,0-.97.1-1.45s.1-.87.2-1.26l2.54-9.48h0Z"></path><path class="uuid-1c38b2ff-5afa-465e-b51a-2c24353258e6" d="M231.34,106.33c-1.27,5.32-2.83,8.89-4.88,10.83s-4.97,2.9-8.97,2.9c-4.29,0-7.41-.77-9.27-2.32s-2.83-4.06-2.83-7.64c0-3.87.78-9.18,2.34-16.05,1.56-6.86,3.71-13.44,6.24-19.82,1.37-3.48,3.8-5.99,7.41-7.64,3.51-1.64,8.39-2.51,14.53-2.51h3.22c.78,0,1.46.1,2.15.1l-9.95,42.15h.01ZM243.14,29.18c1.85.48,3.22,1.06,3.9,1.84.68.77,1.07,1.93,1.07,3.48,0,.29,0,.68-.1,1.16s-.1.87-.2,1.45l-2.54,11.02h-14.73c-6.92,0-12.39.48-16.29,1.35-3.9.97-7.51,2.42-10.83,4.45-1.85,1.26-3.61,2.9-5.27,4.83-1.56,1.93-2.83,4.06-3.8,6.28-1.37,3-2.73,6.77-4.1,11.31s-2.93,9.86-4.39,16.05c-1.76,6.96-2.93,12.47-3.61,16.24-.68,3.87-.98,7.15-.98,9.96,0,6.28,1.76,10.93,5.27,13.83,3.51,3,9.07,4.45,16.68,4.45,5.95,0,9.95-.29,11.9-.77s3.51-1.35,4.68-2.61l7.02-7.44c-.1.87-.2,1.64-.29,2.42-.1.77-.1,1.35-.1,1.74,0,1.74.49,3.09,1.46,3.96s2.34,1.35,4.1,1.35h21.55l.68-3c-2.05-.29-3.51-.68-4.58-1.35-1.07-.68-1.56-1.55-1.56-2.51,0-.68.1-1.35.2-2.03s.29-1.45.49-2.22l21.75-90.59c.2-.58.29-1.16.39-1.74.1-.48.1-.97.1-1.35,0-1.64-.59-2.8-1.66-3.67s-2.73-1.26-4.78-1.26h-20.77l-.68,3.38h.02Z"></path><path class="uuid-1c38b2ff-5afa-465e-b51a-2c24353258e6" d="M292.69,81.48c1.76-6.57,4.1-11.22,6.73-13.92,2.73-2.71,6.34-4.16,11.02-4.16,3.9,0,6.83.77,8.78,2.42s2.93,4.16,2.93,7.54c0,.97-.1,2.13-.39,3.38s-.78,2.9-1.46,4.83h-27.6v-.1h0ZM335.31,92.6c1.66-1.06,3.12-3,4.49-5.99.98-2.42,1.85-5.12,2.54-8.22.59-3.09.98-6.09.98-8.99,0-7.73-2.54-13.44-7.51-16.92-5.07-3.48-13.26-5.22-24.58-5.22-8,0-14.43.87-19.31,2.51-4.88,1.74-8.87,4.45-12,8.12-1.66,2.03-3.22,4.45-4.58,7.35-1.37,2.8-2.54,5.9-3.51,9.28-2.73,9.86-4.78,17.98-6.05,24.36s-1.95,11.22-1.95,14.5c0,8.8,2.54,14.89,7.7,18.27,5.17,3.38,15.12,5.12,29.84,5.12h1.76c7.51,0,12.78-.48,15.7-1.35s5.46-2.42,7.61-4.54c1.37-1.35,2.63-3.67,3.71-6.86,1.07-3.19,1.95-7.44,2.83-12.67h-3.22c-.98,2.9-3.22,4.93-6.83,6.09-3.61,1.16-9.85,1.74-18.82,1.74-6.53,0-11.02-.77-13.65-2.42-2.54-1.55-3.8-4.35-3.8-8.31,0-1.26.2-3.09.59-5.32.39-2.32,1.07-5.32,2.05-8.99h38.91c3.02,0,5.46-.48,7.12-1.55"></path><path class="uuid-1c38b2ff-5afa-465e-b51a-2c24353258e6" d="M409.62,124.8c-.2.48-.29,1.06-.39,1.55s-.1.97-.1,1.45c0,1.55.49,2.71,1.37,3.48s2.24,1.26,4.1,1.35l-.49,3.09h-21.46c-1.85,0-3.32-.48-4.29-1.35-1.07-.97-1.56-2.22-1.56-3.87,0-.58,0-1.16.1-1.55s.1-.77.2-1.16l13.17-54.63c.1-.39.2-.77.2-1.16,0-.48.1-1.06.1-1.93,0-2.32-.78-4.06-2.44-5.22-1.66-1.16-4.1-1.74-7.41-1.74-4.39,0-8.09,1.06-11.12,3.09s-4.97,4.83-5.85,8.41l-12.09,50.47c-.1.19-.1.58-.2.97-.29,1.16-.39,1.93-.39,2.32,0,1.35.49,2.42,1.37,3.09.88.77,2.15,1.16,3.71,1.16l-.49,3.09h-22.14c-1.66,0-3.02-.48-4-1.35-.98-.97-1.46-2.22-1.46-3.87,0-.39,0-.87.1-1.45s.2-1.16.39-1.74l16.29-68.45c.2-.68.29-1.35.39-1.84.1-.58.1-.97.1-1.45,0-1.16-.39-2.03-1.17-2.71s-2.05-1.26-3.8-1.55l.88-3.09h22.04c1.76,0,3.12.39,4,1.16s1.37,1.84,1.37,3.38c0,.29,0,.68-.1,1.06-.1.39-.2.97-.39,1.64l-1.07,5.12c4.19-5.03,8.19-8.51,12.09-10.44s8.58-2.9,14.14-2.9c6.73,0,12,1.16,15.9,3.58,3.9,2.32,5.85,5.51,5.85,9.57,0,.48,0,.97-.1,1.45-.1.58-.2,1.16-.39,1.74l-14.92,61.2-.04.03Z"></path><path class="uuid-57adb207-3af6-4358-801c-9a2427a3a747" d="M514.27,256.29c2.54-.58,2.15-3.38,2.44-5.8,4.19-27.94,8.09-55.5,11.41-83.53.49-4.35,1.27-21.37,3.12-24.75.49-.77,4.19-2.71,5.07-3.09-.78-7.35-4.19-16.63-.29-26.1,6.24-15.08,32.77-2.22,43.3-20.01,11.41-19.05,3.51-46.41,1.76-61.49-.49-3.87-.68-8.12-.59-12.09v-2.71c-1.76,5.9-3.8,11.6-5.66,16.63-2.05,5.41-3.51,10.15-5.66,15.18,3.51-.97,4.68-5.32,7.51-7.35,5.56,9.67,5.17,40.41-6.73,51.15-4,3.58-9.46,4.64-15.51,4.54-6.73-.1-14.04-.58-14.43-8.12-.39-7.15,1.95-15.28,3.02-23.2,1.56-10.73,2.73-22.53,4.49-33.16l.88-1.64c1.17,1.45,3.41,3.87,3.9-.39.39-3.19-1.27-5.51-1.56-11.6s-.39-12.76-1.27-18.76c-2.54,5.51-4.49,11.89-6.53,17.6-2.05,5.7-4.19,7.44-4.78,10.64-.78,4.16,2.05,2.51,3.61,1.45l.39,1.84c-1.37,10.64-3.51,22.33-5.17,33.07-1.17,7.83-1.27,16.34-3.71,23.11-2.54,7.06-9.56,5.51-16.09,3.67-5.75-1.64-10.73-4.25-13.56-8.8-8.39-13.73,0-43.31,8-51.05,2.15,2.71,2.05,7.25,5.17,9.18-.59-5.41-.68-10.35-1.07-16.15-.39-5.41-.78-11.51-.78-17.6-.2.68-.49,1.64-.78,2.61-1.07,3.77-2.54,7.73-4,11.41-5.95,13.92-21.16,37.9-15.7,59.46,5.07,20.11,34.13,15.37,35.89,31.52,1.07,10.15-4.88,18.18-7.7,24.94.78.58,3.8,3.48,4,4.45.78,3.77-3.32,20.3-4,24.56-4.88,27.84-8.97,55.3-12.78,83.24-.39,2.42-1.56,4.93.68,6.28l3.71.87h0Z"></path><path class="uuid-1c38b2ff-5afa-465e-b51a-2c24353258e6" d="M458.39,32.76h9.75l-3.61,15.28h22.33l-2.05,9.86c-.49,2.13-1.17,3.58-2.24,4.35s-2.93,1.16-5.56,1.16h-7.51c-3.32,0-5.75.48-7.12,1.55-1.37.97-2.44,2.9-3.12,5.8l-9.46,38.96c-.29,1.26-.49,2.32-.59,3s-.2,1.35-.2,1.93c0,1.84.49,3.19,1.46,4.06.98.97,2.34,1.35,4.19,1.35h7.22c3.61,0,6.44-.58,8.48-1.74,2.05-1.16,3.61-3.09,4.78-5.9h3.12l-5.27,17.89c-.59,2.03-1.76,3.38-3.51,4.25s-4.58,1.26-8.39,1.26h-25.84c-3.41,0-6.14-.97-8.19-2.9s-3.02-4.54-3.02-7.73c0-.58.1-1.35.2-2.22s.29-1.93.59-3.19l13.36-56.27h-8.29l2.83-11.6c5.95-.77,11.02-2.8,15.31-5.9,4.39-3.29,7.8-7.64,10.34-13.25"></path></svg>