<svg xmlns="http://www.w3.org/2000/svg" id="uuid-a299f484-4e97-4495-8d6e-9b9f563f39ed" data-name="Layer 1" viewBox="0 0 187.45 64"><path d="M71.61,17.37c-2.7-2.49-6.58-3.89-11.59-3.51-2.65.21-5.2,1.57-6.22,2.68V0l-10.33,1.8v48.27h10.34v-17.86c-.2-7.12,2.48-8.84,6.51-8.84s6.12,2.66,6.12,8.36v18.31h9.91v-20.02c0-5.87-1.71-9.87-4.73-12.65ZM26.53,41.12c2.82-.13,5.55-1.02,7.9-2.58l1.75-1.15,4.53,7.77-1.53,1.05c-4.16,2.86-9.09,4.39-14.14,4.38-3.92,0-7.79-.93-11.29-2.7-3.5-1.77-6.54-4.34-8.87-7.5S1.01,33.58.35,29.71c-.65-3.87-.39-7.84.77-11.59,1.16-3.75,3.18-7.17,5.91-10,2.72-2.82,6.07-4.97,9.78-6.26,3.7-1.29,7.66-1.7,11.55-1.18,3.89.51,7.6,1.94,10.84,4.15l1.52,1.05-4.53,7.78-1.75-1.15c-2.35-1.56-5.08-2.45-7.9-2.58-2.82-.13-5.62.51-8.1,1.84-2.49,1.34-4.56,3.32-6.01,5.74-1.45,2.42-2.21,5.19-2.21,8.01s.76,5.59,2.21,8.01c1.45,2.42,3.52,4.41,6.01,5.74,2.49,1.34,5.29,1.97,8.1,1.84ZM179.23,16.42l-.05.25-.2-.17c-2.31-1.91-5.31-2.83-9.19-2.83-9.71,0-17.61,8.14-17.61,18.16s7.9,18.16,17.61,18.16c2.41,0,4.8-.5,7-1.49l.33-.15-.12.34c-1.23,3.62-4.52,5.95-8.6,6.08h-.5c-2.34.06-4.62-.77-6.37-2.33l-.46-.4-5.63,6.39.4.4c3.58,3.55,9.01,5.16,12.54,5.16,11.05,0,19.06-7.99,19.06-19.01V13.77h-7.66l-.56,2.65ZM170.59,40.5c-4.5,0-8.16-3.89-8.16-8.68s3.66-8.68,8.16-8.68,8.16,3.89,8.16,8.68-3.66,8.68-8.16,8.68ZM142.02,16.42l-.06.26-.21-.17c-2.31-1.91-5.3-2.83-9.18-2.83-9.71,0-17.61,8.14-17.61,18.15s7.9,18.15,17.61,18.15c2.41,0,4.8-.5,7-1.49l.35-.16-.12.36c-1.22,3.63-4.51,5.96-8.59,6.1h-.5c-2.35.06-4.62-.77-6.38-2.33l-.45-.39-5.62,6.38.4.4c3.58,3.54,9.01,5.16,12.54,5.16,11.04,0,19.06-7.99,19.06-19V13.77h-7.66l-.56,2.65ZM133.38,40.51c-4.51,0-8.17-3.9-8.17-8.69s3.67-8.69,8.17-8.69,8.17,3.9,8.17,8.69-3.66,8.69-8.17,8.69ZM78.31,32.18c0-10.44,7.63-18.62,17.36-18.62s17.29,8.18,17.29,18.61c0,1.33-.09,2.66-.27,3.98h-23.99l.1.35c.49,1.6,1.52,2.97,2.91,3.89,1.36.91,2.95,1.44,4.58,1.53,3.7.2,6.5-.85,8.76-3.31l6.13,4.23c-.82,1.28-5.62,7.96-14.88,7.96-9.93,0-18-8.35-18-18.62ZM87.82,29.13l-.03.3h16.46l-.02-.29c-.28-5.04-4.49-7.77-8.32-7.77-1.98.02-3.88.78-5.33,2.13-1.59,1.47-2.57,3.47-2.77,5.62Z"></path></svg>