<svg xmlns="http://www.w3.org/2000/svg" id="Layer_1" data-name="Layer 1" viewBox="0 0 832.9 211.02"><defs><style>.cls-1{fill:#2b2a2a;}.cls-2{fill:#ffb549;}</style></defs><path class="cls-1" d="M276.13,72.29c10.24,0,25.17,3.86,25.17,14.7v8.42H288.05V91.32c0-4.09-6.26-6-11.44-6-11.2,0-18.06,7.71-18.06,18.9,0,12.65,8.79,19.51,19.27,19.51,8.67,0,15.77-4.81,19.14-7.46l5.42,10.83c-4.21,4-13.73,9.52-25.41,9.52-17.94,0-33.83-12.16-33.83-32C243.14,86.26,257.23,72.29,276.13,72.29Z" transform="translate(-0.52 -0.01)"></path><path class="cls-1" d="M344.17,97.22H348v-2c0-7.82-4.94-10.59-11.32-10.59-9.15,0-17.34,5.9-17.34,5.9l-5.66-10.6A41.72,41.72,0,0,1,338,72.29c16.49,0,25.28,8.55,25.28,24.21v24.56a2.36,2.36,0,0,0,2.65,2.65h5.54v11.44H357.05c-5.66,0-7.83-3-7.83-6.5v-.72a11.64,11.64,0,0,1,.37-3.13h-.24A21.38,21.38,0,0,1,330,136.6c-10.48,0-20.35-6.14-20.35-18.67C309.61,99.15,334.29,97.22,344.17,97.22Zm-10.24,27.94c8.31,0,14.21-8.91,14.21-16.62v-2.05h-2.53c-6,0-20.59,1-20.59,10.24C325,121.3,328.27,125.16,333.93,125.16Z" transform="translate(-0.52 -0.01)"></path><path class="cls-1" d="M379.81,123.71h8.91v-36a2.32,2.32,0,0,0-2.65-2.53h-6.86V73.74h16c5.42,0,8.07,2.53,8.07,6.86v2.77a17,17,0,0,1-.24,2.65h.24c3.13-6.26,10.84-13.73,20.95-13.73,8.55,0,14.7,4,17.1,13.37h.24A24,24,0,0,1,462.9,72.29c12.4,0,19.75,7.23,19.75,23.37v28.05h8.91v11.44H467.35V98.54c0-7-1.32-12.28-8.43-12.28-10.47,0-15.65,10.48-15.65,21.8v15.65h8.91v11.44H428.1V98.54c0-6.62-1.09-12.28-8.31-12.28C409,86.26,404,97.7,404,108.78v14.93h8.79v11.44h-33Z" transform="translate(-0.52 -0.01)"></path><path class="cls-1" d="M503.84,61.09h-9.39V49.66h24.68V76.27c0,3-.24,5.18-.24,5.18h.24s5.54-9.16,18.43-9.16c16.61,0,27.33,13.13,27.33,32.16,0,19.5-12,32.15-28.3,32.15-13.36,0-18.3-9.76-18.3-9.76h-.24s.24,2.17.24,4.58v3.73H503.84Zm30.1,62.62c8.43,0,15.54-6.86,15.54-19,0-11.68-6.26-19.27-15.3-19.27-7.94,0-15.41,5.78-15.41,19.39C518.77,114.32,523.71,123.71,533.94,123.71Z" transform="translate(-0.52 -0.01)"></path><path class="cls-1" d="M574.76,123.71h8.92V85.18h-9.52V73.74H599v50h8.79v11.44h-33Zm8.8-74H599v13.6H583.56Z" transform="translate(-0.52 -0.01)"></path><path class="cls-1" d="M622.81,85.18H613.3V73.74h24.8v36.85c0,7.34,1.93,12.4,9.64,12.4,10.59,0,17-10.84,17-21.92V85.18h-9.4V73.74H680v47.44a2.41,2.41,0,0,0,2.65,2.65h5.9v11.32H673.39c-5.42,0-7.95-2.53-7.95-6.86V126c0-1.56.12-2.89.12-2.89h-.24c-.72,2-7,13.49-22.4,13.49-12.28,0-20.11-6.63-20.11-23.36Z" transform="translate(-0.52 -0.01)"></path><path class="cls-1" d="M697.71,123.71h8.91v-36A2.32,2.32,0,0,0,704,85.18h-6.86V73.74h16c5.42,0,8.07,2.53,8.07,6.86v2.77A17,17,0,0,1,721,86h.24c3.13-6.26,10.84-13.73,20.95-13.73,8.55,0,14.69,4,17.1,13.37h.24A24,24,0,0,1,780.8,72.29c12.4,0,19.75,7.23,19.75,23.37v28.05h8.91v11.44H785.25V98.54c0-7-1.32-12.28-8.43-12.28-10.47,0-15.65,10.48-15.65,21.8v15.65h8.91v11.44H746V98.54c0-6.62-1.09-12.28-8.31-12.28-10.84,0-15.78,11.44-15.78,22.52v14.93h8.79v11.44h-33Z" transform="translate(-0.52 -0.01)"></path><path class="cls-1" d="M248.17,164H252v18.37h9v3.22h-12.8Z" transform="translate(-0.52 -0.01)"></path><path class="cls-1" d="M288.46,164h13v3.23h-9.17v5.53h7.77V176h-7.77v6.39h9.5v3.22H288.46Z" transform="translate(-0.52 -0.01)"></path><path class="cls-1" d="M334.17,164h4.49l7,21.59h-4.05l-3.29-11.48c-.69-2.29-1.32-4.75-1.95-7.12h-.14c-.59,2.39-1.23,4.83-1.91,7.12L331,185.6h-3.9Zm-2.88,12.74h10.17v3H331.29Z" transform="translate(-0.52 -0.01)"></path><path class="cls-1" d="M371.89,164h7.28c4.49,0,7.95,1.59,7.95,6.41,0,4.64-3.46,6.75-7.95,6.75h-3.45v8.43h-3.83Zm6.88,10.09c3,0,4.57-1.23,4.57-3.68s-1.61-3.34-4.57-3.34h-3v7Zm-.32,2,2.77-2.28L388,185.6h-4.3Z" transform="translate(-0.52 -0.01)"></path><path class="cls-1" d="M415.16,164h3.93l6.71,12.14,2.23,4.61h.14c-.19-2.23-.49-5-.49-7.37V164h3.64V185.6h-3.93l-6.71-12.15-2.23-4.59h-.13c.18,2.28.48,4.89.48,7.29v9.45h-3.64Z" transform="translate(-0.52 -0.01)"></path><path class="cls-1" d="M460.54,164h3.83V185.6h-3.83Z" transform="translate(-0.52 -0.01)"></path><path class="cls-1" d="M493.57,164h3.94l6.7,12.14,2.23,4.61h.14c-.19-2.23-.49-5-.49-7.37V164h3.64V185.6H505.8l-6.71-12.15-2.23-4.59h-.13c.18,2.28.49,4.89.49,7.29v9.45h-3.65Z" transform="translate(-0.52 -0.01)"></path><path class="cls-1" d="M537.82,174.88c0-7.06,4.48-11.26,10.22-11.26a8.86,8.86,0,0,1,6.52,2.73l-2,2.47a5.84,5.84,0,0,0-4.36-1.87c-3.83,0-6.41,3-6.41,7.81s2.29,7.91,6.62,7.91a4.79,4.79,0,0,0,3.07-.95v-4.66h-4.06v-3.14h7.5v9.52A9.84,9.84,0,0,1,548,186C542.16,186,537.82,182,537.82,174.88Z" transform="translate(-0.52 -0.01)"></path><path class="cls-1" d="M612.59,174.88c0-7.06,4.48-11.26,10.22-11.26a8.84,8.84,0,0,1,6.52,2.73l-2,2.47a5.82,5.82,0,0,0-4.36-1.87c-3.83,0-6.4,3-6.4,7.81s2.28,7.91,6.61,7.91a4.84,4.84,0,0,0,3.08-.95v-4.66h-4.07v-3.14h7.5v9.52a9.81,9.81,0,0,1-6.89,2.56C616.94,186,612.59,182,612.59,174.88Z" transform="translate(-0.52 -0.01)"></path><path class="cls-1" d="M658.18,164h7.28c4.49,0,7.95,1.59,7.95,6.41,0,4.64-3.46,6.75-7.95,6.75H662v8.43h-3.83Zm6.88,10.09c3,0,4.57-1.23,4.57-3.68s-1.61-3.34-4.57-3.34h-3v7Zm-.32,2,2.77-2.28,6.74,11.74H670Z" transform="translate(-0.52 -0.01)"></path><path class="cls-1" d="M700.31,174.72c0-7,3.9-11.1,9.52-11.1s9.52,4.14,9.52,11.1S715.46,186,709.83,186,700.31,181.71,700.31,174.72Zm15.11,0c0-4.84-2.19-7.77-5.59-7.77s-5.58,2.93-5.58,7.77,2.19,7.95,5.58,7.95S715.42,179.57,715.42,174.72Z" transform="translate(-0.52 -0.01)"></path><path class="cls-1" d="M747.32,176.14V164h3.83v12.42c0,4.7,1.75,6.24,4.37,6.24s4.46-1.54,4.46-6.24V164h3.68v12.13c0,7.09-3.14,9.86-8.14,9.86S747.32,183.23,747.32,176.14Z" transform="translate(-0.52 -0.01)"></path><path class="cls-1" d="M792.77,164h6.8c4.8,0,8.35,1.67,8.35,6.66,0,4.81-3.57,7-8.21,7H796.6v7.93h-3.83Zm6.62,10.59c3.22,0,4.75-1.28,4.75-3.93s-1.68-3.59-4.88-3.59H796.6v7.52Z" transform="translate(-0.52 -0.01)"></path><path class="cls-2" d="M88.74,54.89a4.56,4.56,0,0,0-5.37-3.56l-5.69,1.15a26.2,26.2,0,0,0-3.87-6.79l4.07-4.5a4.56,4.56,0,1,0-6.77-6.11L67,39.61a26.09,26.09,0,0,0-9.22-3.52V31a4.56,4.56,0,0,0-9.12,0v5.11a25.93,25.93,0,0,0-9.34,3.6l-3.41-3.77A4.56,4.56,0,0,0,29.16,42l3.4,3.77a25.63,25.63,0,0,0-3.47,5.9l-5.42-1.1a4.56,4.56,0,1,0-1.81,8.94l5.2,1.05c0,.43,0,.85,0,1.28v.85a4.56,4.56,0,1,0,9.12,0v-.85a17,17,0,0,1,5.31-12.36c.12-.09.24-.18.35-.28l.32-.32a17.06,17.06,0,0,1,28.18,13v.85a4.56,4.56,0,0,0,9.12,0v-.85c0-.15,0-.3,0-.45l5.76-1.16A4.56,4.56,0,0,0,88.74,54.89Z" transform="translate(-0.52 -0.01)"></path><path class="cls-2" d="M154.05,198.46a4.5,4.5,0,0,1-3.92-2.28l-12.51-22L132,183.67a25.56,25.56,0,0,1-21.93,12.53,17.77,17.77,0,1,1,0-35.53h12a4.5,4.5,0,0,1,0,9h-12a8.77,8.77,0,1,0,0,17.54,16.53,16.53,0,0,0,14.18-8.1l9.55-16.22a4.52,4.52,0,0,1,3.88-2.22h0A4.51,4.51,0,0,1,141.6,163L158,191.74a4.49,4.49,0,0,1-1.69,6.13A4.44,4.44,0,0,1,154.05,198.46Z" transform="translate(-0.52 -0.01)"></path><path class="cls-2" d="M67.67,185.92H33.85a4.09,4.09,0,0,1-4.09-4.09V148a4.09,4.09,0,0,1,4.09-4.09H67.67A4.09,4.09,0,0,1,71.76,148v33.83A4.09,4.09,0,0,1,67.67,185.92Zm-29.73-8.19H63.58V152.09H37.94Z" transform="translate(-0.52 -0.01)"></path><path class="cls-2" d="M84.58,200.57H50.76a4.09,4.09,0,0,1-4.09-4.09V162.65a4.09,4.09,0,0,1,4.09-4.09H84.58a4.1,4.1,0,0,1,4.1,4.09v33.83A4.1,4.1,0,0,1,84.58,200.57Zm-29.73-8.18H80.49V166.74H54.85Z" transform="translate(-0.52 -0.01)"></path><path class="cls-2" d="M166.81,64.19a4.2,4.2,0,0,1-3.26-1.29l-20.37-22L129.34,59a4.19,4.19,0,1,1-6.66-5.09l16.82-22a4.18,4.18,0,0,1,6.36-.34L169.62,57.1a4.2,4.2,0,0,1-2.81,7.09Z" transform="translate(-0.52 -0.01)"></path><path class="cls-2" d="M181.19,53a4.15,4.15,0,0,1-3.27-1.3L161,33.81,154,44.4a4.19,4.19,0,0,1-7-4.6l9.88-15a4.2,4.2,0,0,1,6.55-.58L184,46A4.19,4.19,0,0,1,181.19,53Z" transform="translate(-0.52 -0.01)"></path><circle class="cls-2" cx="144.65" cy="62.93" r="8.59"></circle><circle class="cls-2" cx="48.51" cy="127.66" r="9.83"></circle><path class="cls-2" d="M170.33,187.36a14.9,14.9,0,1,1,14.9-14.9A14.92,14.92,0,0,1,170.33,187.36Zm0-21.13a6.24,6.24,0,1,0,6.24,6.23A6.23,6.23,0,0,0,170.33,166.23Z" transform="translate(-0.52 -0.01)"></path><path class="cls-2" d="M53.23,76A12.29,12.29,0,1,1,65.52,63.66,12.3,12.3,0,0,1,53.23,76Zm0-17.44a5.15,5.15,0,1,0,5.15,5.15A5.15,5.15,0,0,0,53.23,58.51Z" transform="translate(-0.52 -0.01)"></path><circle class="cls-2" cx="135.62" cy="200.56" r="9.03"></circle><path class="cls-2" d="M114.79,211H90.87a3.62,3.62,0,0,1,0-7.23h23.92a3.62,3.62,0,0,1,0,7.23Z" transform="translate(-0.52 -0.01)"></path><rect class="cls-2" x="11" y="147.84" width="11.38" height="11.38"></rect><path class="cls-2" d="M151.7,161.18A3.59,3.59,0,0,1,149,160c-2.71-3.05-6.12-6.71-7.11-7.52a3.62,3.62,0,0,1,3-6.54c.84.31,1.88.69,9.49,9.27a3.62,3.62,0,0,1-2.71,6Zm-9.28-8.5h0Z" transform="translate(-0.52 -0.01)"></path><circle class="cls-2" cx="70.87" cy="18.93" r="8.3"></circle><path class="cls-2" d="M102.34,53A34.94,34.94,0,0,1,88.85,50a3.41,3.41,0,0,1-1.92-4.13c.18-.59,4.58-14.46,16-19.4,6.21-2.69,13.14-2.22,20.59,1.41a3.4,3.4,0,0,1,1.86,3.62c-.1.55-2.42,13.4-12.72,19A21.06,21.06,0,0,1,102.34,53ZM94.6,44.86c5.88,1.93,10.84,1.82,14.78-.33,5.11-2.8,7.57-8.41,8.62-11.69-4.59-1.71-8.75-1.78-12.4-.19C99.79,35.17,96.27,41.21,94.6,44.86Z" transform="translate(-0.52 -0.01)"></path><path class="cls-2" d="M124.39,33.46a3.65,3.65,0,0,1-2.58-1.08c-.29-.3-7.22-7.48-5.53-15.86,1.11-5.53,5.53-9.95,13.13-13.15a3.63,3.63,0,0,1,4.29,1.16c.27.36,6.61,8.94,4.08,17.49-1.5,5.05-5.58,8.83-12.15,11.22A3.53,3.53,0,0,1,124.39,33.46Zm5-22.09c-3.51,1.92-5.54,4.11-6,6.55-.55,2.69.82,5.59,2.13,7.53,2.9-1.44,4.69-3.27,5.34-5.46C131.71,17.12,130.6,13.75,129.41,11.37Z" transform="translate(-0.52 -0.01)"></path><path class="cls-2" d="M97.29,22.07a11,11,0,1,1,11-11A11,11,0,0,1,97.29,22.07Zm0-15.65A4.62,4.62,0,1,0,101.9,11,4.62,4.62,0,0,0,97.29,6.42Z" transform="translate(-0.52 -0.01)"></path><rect class="cls-2" x="143.05" y="12.93" width="8.23" height="8.23"></rect><path class="cls-2" d="M194.23,78.25H158.54a4.34,4.34,0,1,1,0-8.67h26.34l-3-3.58a4.34,4.34,0,0,1,6.62-5.6l9.08,10.72a4.33,4.33,0,0,1-3.31,7.13Z" transform="translate(-0.52 -0.01)"></path><path class="cls-2" d="M185.15,159a4.34,4.34,0,0,1-3.31-7.14l3-3.58H158.54a4.34,4.34,0,1,1,0-8.67h35.69a4.33,4.33,0,0,1,3.31,7.14l-9.08,10.72A4.33,4.33,0,0,1,185.15,159Z" transform="translate(-0.52 -0.01)"></path><path class="cls-2" d="M57.49,80.39A4,4,0,0,0,53,83.77a38.32,38.32,0,0,1-4,13,11,11,0,0,1-1.18,1.61,6.45,6.45,0,0,1-5.69,2.35c-.41-6.85-2.89-13.8-7.38-20.68-5.13-7.87-13.74-15.88-20.44-14.9a7.14,7.14,0,0,0-6.27,6.68c-1.15,10.55,13.8,29.33,25.44,35a23.13,23.13,0,0,1-3.26,8.6,13.3,13.3,0,0,1-5.33,3.58,20.15,20.15,0,0,0,.33-4.81,13.22,13.22,0,0,0-5.33-10.14c-5.43-4-12.12-3.86-16.28.43-3.68,3.79-4.89,10.78.71,17.84a16.65,16.65,0,0,0,8,5.63A54.71,54.71,0,0,1,8,134.71a4.21,4.21,0,0,0,3,7h.11A4.19,4.19,0,0,0,14,140.6a64.77,64.77,0,0,0,7.64-11.91,26.86,26.86,0,0,0,13.85-6.41,12.6,12.6,0,0,0,1.93-2.3,31.94,31.94,0,0,0,4.24-10.82A15.13,15.13,0,0,0,54,103.62a34,34,0,0,0,2-3c1.77-2.94,3.69-7.8,4.82-15.79A4,4,0,0,0,57.49,80.39ZM33.05,96.81C24,90.17,17,78,16.41,73.72c2.05.8,6.77,4,11.35,11A39.54,39.54,0,0,1,33.05,96.81ZM16,120.28a8.47,8.47,0,0,1-5-3.1c-2.59-3.27-2.3-5.68-1.27-6.74l.08-.08c.9-.85,2.79-1.22,5.15.54a4.63,4.63,0,0,1,1.91,3.45A14.4,14.4,0,0,1,16,120.28Z" transform="translate(-0.52 -0.01)"></path><path class="cls-1" d="M813.91,73.78h-4.45V72.29H820v1.49h-4.46v11h-1.63Zm8.15-1.49h1.45l3.32,7.17c.22.55.4,1.18.4,1.18h0a7.49,7.49,0,0,1,.4-1.18L831,72.29h1.45l1,12.52h-1.59l-.69-8.49a4.31,4.31,0,0,1,0-.83h-.06l-3.2,7h-1.34l-3.2-7h-.06a4.31,4.31,0,0,1,0,.83l-.68,8.49h-1.6Z" transform="translate(-0.52 -0.01)"></path></svg>