<svg xmlns="http://www.w3.org/2000/svg" id="uuid-ece5d02a-4d71-472d-b962-6ce5640c6717" data-name="Layer 1" viewBox="0 0 923.08 223.39"><defs><style>      .uuid-106d0a67-3470-4275-9c1f-f79fc2cb9c0d, .uuid-9df982e7-ad7a-4d1a-b7f2-552fec88cdfc, .uuid-b3f93996-9d8e-4abb-b8ae-1c65741bfc72 {        fill-rule: evenodd;      }      .uuid-106d0a67-3470-4275-9c1f-f79fc2cb9c0d, .uuid-b3f93996-9d8e-4abb-b8ae-1c65741bfc72 {        fill: #ed1c24;      }      .uuid-b13a5735-77e7-4d09-a9f1-8267b4037a9f {        fill: none;      }      .uuid-b13a5735-77e7-4d09-a9f1-8267b4037a9f, .uuid-b3f93996-9d8e-4abb-b8ae-1c65741bfc72 {        stroke: #ed1c24;        stroke-miterlimit: 12.89;        stroke-width: 1.07px;      }    </style></defs><path class="uuid-9df982e7-ad7a-4d1a-b7f2-552fec88cdfc" d="M41,121.01l45.04.17v40.87H0V12.69h41v108.33ZM108.04,53.73l-45.04-.36V12.69h86.22v149.37h-41.17V53.73Z"></path><path class="uuid-9df982e7-ad7a-4d1a-b7f2-552fec88cdfc" d="M57.36,53.55h-10.2V0h10.2v53.55ZM102.59,174.04h-10.03v-53.37h10.03v53.37Z"></path><path class="uuid-b3f93996-9d8e-4abb-b8ae-1c65741bfc72" d="M236.84,168.58h-34.84V7.22h34.84v161.35ZM494.62,49.67h34.49v11.8c11.61-11.1,18.65-13.74,36.42-14.8v26.95c-11.43.88-36.42,9.86-36.42,30.83v64.29h-34.49V49.67ZM692.58,60.77l-.18-11.1h-34.66v119.08h34.66v-73.81c-.52-10.75,30.1-28.01,30.44,2.47v71.34h34.84v-82.09c0-35.06-31.68-48.09-65.11-25.89Z"></path><path class="uuid-106d0a67-3470-4275-9c1f-f79fc2cb9c0d" d="M598.97,46.68c-6.87-.53-13.73-.53-20.06-.71v27.13c7.56-.35,14.6-.18,20.06.71,7.74,1.23,12.67,3.87,12.85,8.81v8.63c-4.22-2.64-8.45-4.58-12.85-5.81-3.35-.88-6.87-1.23-10.56-1.23-23.58,0-40.47,18.85-40.47,42.45s17.59,42.1,41,42.1c3.52,0,6.87-.17,10.03-.88,4.4-.88,8.62-2.47,12.67-4.93l.18,5.81h34.66v-86.14c0-28.01-23.92-34.35-47.5-35.93h0ZM598.97,140.92c-9.68,0-17.59-7.75-17.59-17.44s7.91-17.61,17.59-17.61c4.75,0,9.15,1.94,12.32,5.11,3.17,3.17,5.11,7.57,5.11,12.51,0,9.69-7.74,17.44-17.42,17.44h0ZM839.68,6.87l-.17,53.02c-5.81-4.22-12.14-7.05-19.18-8.1-1.93-.36-4.05-.36-6.16-.36-27.63,0-50.15,25.72-50.15,57.25s22.52,57.25,50.15,57.25c2.11,0,4.22-.18,6.16-.53,7.21-1.41,13.9-4.76,19.53-8.98l-.18,11.81h34.84V6.87h-34.84ZM820.33,131.06c-12.85,0-23.23-10.92-23.23-24.31s10.38-24.14,23.23-24.14,23.4,10.92,23.4,24.14-10.56,24.31-23.4,24.31ZM362.3,117.66c.53-3.17.71-6.16.71-9.16,0-34.7-26.22-63.06-58.42-63.24h-.35c-32.2,0-58.6,28.36-58.6,63.24s26.4,63.06,58.6,63.06h.35c24.64-.17,45.75-17.26,54.19-40.51h-35.37c-3.87,4.93-8.44,8.1-17.59,8.28h-1.23c-8.8-.53-19.01-8.46-20.58-21.84h20.58l57.71.17ZM284.35,96.36c2.29-13.91,8.97-20.08,20.24-20.79h.71c11.61-.71,17.59,7.92,19.53,20.61h-20.23l-20.24.18ZM448.7,49.67l-.18,12.69c-5.8-5.46-13.2-9.51-21.64-10.92-1.93-.35-4.05-.52-6.16-.52-29.21,0-52.97,25.72-52.97,57.25s23.75,57.07,52.97,57.07c2.11,0,4.22,0,6.16-.18,8.09-.71,15.13-3.17,21.82-8.1,5.63,16.2-7.21,34.35-21.82,33.29-5.81-.35-11.79-3.7-16.89-11.27h-43.11c7.56,28.01,34.13,43.33,60,43.86,28.68.71,56.48-16.74,56.48-54.6V49.67h-34.67ZM426.88,134.4c-13.02,0-23.76-11.45-23.76-25.37s10.74-25.19,23.76-25.19,23.75,11.27,23.75,25.19-10.55,25.37-23.75,25.37Z"></path><path class="uuid-b13a5735-77e7-4d09-a9f1-8267b4037a9f" d="M448.52,62.36l.18-12.69h34.66v118.55M483.36,168.22c0,72.05-100.47,69.93-116.49,10.75M366.88,178.97h43.11M409.99,178.97c18.3,26.77,46.45.52,38.71-22.02-8.45,6.16-17.07,8.28-27.98,8.28-29.21,0-52.97-25.72-52.97-57.07s23.75-57.25,52.97-57.25c10.9,0,20.59,4.58,27.8,11.45M426.88,83.85c13.2,0,23.75,11.27,23.75,25.19s-10.56,25.37-23.75,25.37-23.76-11.45-23.76-25.37,10.74-25.19,23.76-25.19"></path><path class="uuid-9df982e7-ad7a-4d1a-b7f2-552fec88cdfc" d="M888.76,21.18c0-8.92,6.72-15.64,15.31-15.64s15.22,6.72,15.22,15.64-6.71,15.73-15.22,15.73-15.31-6.68-15.31-15.73ZM904.07,40.05c10.24,0,19.01-7.97,19.01-18.87s-8.76-18.77-19.01-18.77-19.09,7.97-19.09,18.77,8.75,18.87,19.09,18.87ZM900.09,22.68h3.78l5.72,9.41h3.68l-6.17-9.56c3.19-.4,5.62-2.09,5.62-5.98,0-4.28-2.54-6.17-7.66-6.17h-8.25v21.7h3.28v-9.41ZM900.09,19.89v-6.72h4.48c2.29,0,4.73.5,4.73,3.19,0,3.34-2.49,3.54-5.27,3.54h-3.93Z"></path></svg>