<svg xmlns="http://www.w3.org/2000/svg" id="uuid-b1059202-6b61-4733-81cc-d9b7eb0301d1" data-name="Layer 1" viewBox="0 0 145 30"><path d="M22.93,12.72c1.02,4,.41,6.36-.43,7.6-.81,1.2-2.03,1.65-3.2,1.55-1.27-.11-2.38-.89-2.91-2.04-.57-1.23-.75-3.39.91-6.62,1.7-3.31,1.9-6.44.63-8.96C16.66,1.75,14.18.33,11.56.05c-2.63-.28-5.45.59-7.65,2.65C1.7,4.77.26,7.91.03,12.03c-.28,5.15,1.44,11.59,8.04,17.97l3.46-3.34c-5.63-5.44-6.82-10.58-6.61-14.37.18-3.18,1.25-5.11,2.4-6.19,1.16-1.09,2.55-1.46,3.71-1.34,1.17.12,2.06.72,2.49,1.57.42.84.62,2.38-.61,4.78-2.1,4.09-2.33,7.77-.99,10.66,1.33,2.87,4.06,4.56,6.92,4.82,2.88.26,5.9-.93,7.76-3.66,1.83-2.7,2.31-6.55,1.09-11.32l-4.75,1.13h0s0,0,0,0ZM54.22,20.21c-.66,0-1.1-.28-1.56-1.11l-2.16-3.65c2.8-.61,4.85-2.7,4.85-5.94,0-3.85-2.91-6.3-6.58-6.3h-9.95v20.22h4.07v-7.61h3.35l2.86,5.02c1.21,2.26,2.6,2.87,4.47,2.87,1.33,0,2.45-.36,3.35-.89l-1.15-3.04c-.55.31-1.04.45-1.53.45h0s0,0,0,0ZM48.36,12.35h-5.48v-5.69h5.48c1.73,0,2.94,1.14,2.94,2.85s-1.21,2.84-2.94,2.84h0ZM64.69,8.44c-4.44,0-7.85,3.01-7.85,7.64s3.35,7.61,7.76,7.61c3.46,0,6-1.7,7.16-4.32l-3.46-1.25c-.66,1.48-1.85,2.26-3.66,2.26-1.93,0-3.49-1.2-3.75-3.6h11.25v-.98c0-4.74-2.94-7.36-7.44-7.36h0ZM61.11,14.33c.55-1.73,1.96-2.57,3.58-2.57s2.83.86,3.26,2.57h-6.84ZM81.55,11.87c1.73,0,3.17.86,3.64,2.65l3.98-.7c-.78-3.54-3.72-5.38-7.62-5.38-4.42,0-7.93,2.85-7.93,7.64s3.52,7.61,7.93,7.61c3.89,0,6.84-1.84,7.62-5.38l-3.98-.67c-.46,1.76-1.9,2.62-3.64,2.62-2.19,0-3.92-1.31-3.92-4.18s1.73-4.21,3.92-4.21h0ZM141.02,8.72v8.06c0,1.9-1.36,3.15-3.32,3.15-2.11,0-3.17-1.25-3.17-3.18v-8.03h-4.01v8.23c0,3.74,2.42,6.05,5.89,6.05,2.11,0,3.64-.75,4.62-1.98v1.53c0,2.93-1.82,4.04-4.13,4.04-2.01,0-3.29-.76-4.35-2.25l-2.89,2.35c1.68,2.24,4.15,3.3,7.41,3.3,4.59,0,7.93-2.43,7.93-7.44v-13.83h-3.98Z"></path><path d="M129.2,19.99c-.4.18-.83.28-1.27.28-.84,0-1.27-.42-1.27-1.42V2.14h-4.01v17.12c0,3.29,2.08,4.43,4.56,4.43,1.07,0,2.13-.26,3.09-.75l-1.1-2.96ZM115.36,8.47c-1.67,0-2.89.7-3.66,1.76v-1.51h-3.64v14.7h4.01v-8.92c0-1.76.89-2.7,2.39-2.7,1.59,0,2.39.89,2.39,2.82v.22l3.87-.34v-.7c0-3.37-2.25-5.33-5.37-5.33,0,0,0,0,0,0ZM101.48,17.2c0,1.9-1.36,3.18-3.2,3.18s-3.26-1.28-3.26-3.18v-8.48h-4.01v8.95c0,3.51,2.39,6.02,6.06,6.02,2.14,0,3.66-.92,4.62-2.29v2.01h3.81v-14.7h-4.01v8.48h0s0,0,0,0Z"></path></svg>