<svg xmlns="http://www.w3.org/2000/svg" xmlns:xlink="http://www.w3.org/1999/xlink" id="Layer_1" x="0px" y="0px" viewBox="0 0 212.2 34.4" style="enable-background:new 0 0 212.2 34.4;" xml:space="preserve"><style type="text/css">	.st0{fill:#00A5DF;}	.st1{fill:#002F6C;}</style><title>GoGuardian_logo_2c</title><g id="_Group_">	<g id="_Group_2">		<g id="_Group_3">			<path id="_Path_" class="st0" d="M29.9,21.3c-3.3,5.9-10,11-13.3,13c-4.2-3.2-7.7-7.1-10.5-11.6l0.5-9.9    c3.1,5.3,6.7,10.4,10.8,15C19.7,26.8,25,24,29.9,21.3"></path>			<path id="_Path_2" class="st1" d="M4.5,21.5C1.1,15.7,0.1,7.3,0,3.5c4.7-2,9.7-3.1,14.8-3.2l8.3,5.4c-6,0-12,0.5-17.9,1.7    C5,9.9,4.7,16,4.5,21.5"></path>			<path id="_Path_3" class="st1" d="M16.9,0c6.7-0.2,14.6,2.9,18,4.7c-0.6,5.1-2.2,10-4.6,14.6l-8.7,4.6c3-5.3,5.4-10.8,7.3-16.6    C26.8,5.9,21.6,2.7,16.9,0"></path>		</g>	</g></g><path class="st1" d="M51.9,19.7v-3.5h9.8v8.9c-2.4,3-6,4.7-9.9,4.6c-7,0-12.4-4.8-12.4-12c0-6.6,5.4-12,12-12c0.1,0,0.3,0,0.4,0 c3.6,0,7.1,1.6,9.4,4.4l-2.9,2.5c-1.6-2-4-3.2-6.6-3.2c-4.4,0-8,3.6-8,8c0,0.1,0,0.3,0,0.4c0,5.1,3.3,8.4,8,8.4 c2.1,0,4.2-0.8,5.8-2.2v-4.1h-5.6C51.9,19.9,51.9,19.7,51.9,19.7z"></path><path class="st1" d="M81,20.8c0,4.9-3.9,8.8-8.8,8.8s-8.8-3.9-8.8-8.8l0,0c0-4.9,4-8.8,8.8-8.8S81,15.9,81,20.8z M72.2,15.4 c-2.7,0-4.7,2.4-4.7,5.4s2,5.4,4.8,5.4s4.8-2.4,4.8-5.4S75,15.4,72.2,15.4z"></path><path class="st1" d="M94.7,19.7v-3.5h9.8v8.9c-2.4,3-6,4.7-9.9,4.6c-7,0-12.4-4.8-12.4-12c0-6.6,5.4-12,12-12c0.1,0,0.3,0,0.4,0 c3.6,0,7.1,1.6,9.4,4.4l-2.9,2.5c-1.6-2-4-3.1-6.6-3.2c-4.4,0-8,3.6-8,8c0,0.1,0,0.3,0,0.4c0,5.1,3.3,8.4,8,8.4 c2.1,0,4.2-0.8,5.8-2.2v-4.1h-5.6C94.7,19.9,94.7,19.7,94.7,19.7z"></path><path class="st1" d="M118.4,29.3l-0.2-2.5c-1.2,1.8-3.2,2.9-5.4,2.9c-1.8,0.1-3.6-0.8-4.7-2.2c-1.2-1.7-1.5-3.9-1.5-6.4v-8.9h4v8.6 c-0.1,1.4,0.1,2.8,0.7,4.1c0.5,0.9,1.5,1.4,2.6,1.3c1.8-0.1,3.3-1.1,4.2-2.6V12.3h4v17.1h-3.7V29.3z"></path><path class="st1" d="M134.9,29.3l-0.2-1.6c-1.2,1.4-3,2.1-4.8,2c-3.2,0-6.1-1.8-6.1-5.3c0-4.2,3.9-5.6,7.5-5.6 c1.1,0,2.2,0.1,3.2,0.4v-0.4c0-2.3-1-3.7-3.6-3.7c-1.8,0.1-3.6,0.6-5.3,1.5l-1.1-3c2.2-1.1,4.6-1.7,7.1-1.7c4.8,0,6.9,2.7,6.9,7.1 v10.3H134.9z M134.4,21.8c-0.9-0.2-1.7-0.3-2.6-0.3c-1.9,0-4.2,0.6-4.2,2.8c0,1.7,1.4,2.5,2.9,2.5c1.5-0.1,2.8-0.7,3.9-1.7 L134.4,21.8L134.4,21.8z"></path><path class="st1" d="M144.4,14.7c1-1.7,2.4-2.8,4.1-2.8c0.7,0,1.4,0.1,2,0.3l-0.9,3.7c-0.5-0.3-1.1-0.4-1.6-0.4 c-1.5,0-2.9,0.9-3.5,2.3v11.5h-4v-17h3.7L144.4,14.7z"></path><path class="st1" d="M167.2,29.3h-3.7l-0.2-2.2c-1.2,1.7-3.2,2.7-5.3,2.6c-4.7,0-8.2-4-8.2-9c0-4.7,3.3-8.9,8.2-8.9 c1.9,0,3.8,0.8,5.1,2.1V4.5h4L167.2,29.3z M163.2,17.6c-1-1.4-2.6-2.2-4.3-2.1c-3.3,0-4.9,2.8-4.9,5.5c0,2.8,1.9,5.4,4.9,5.4 c1.8,0,3.5-1,4.4-2.7L163.2,17.6L163.2,17.6z"></path><path class="st1" d="M169.7,9.5V5.8h4v3.7H169.7z M169.7,29.3v-17h4v17H169.7z"></path><path class="st1" d="M186.8,29.3l-0.2-1.6c-1.2,1.4-3,2.1-4.8,2c-3.2,0-6.1-1.8-6.1-5.3c0-4.2,3.9-5.6,7.5-5.6 c1.1,0,2.2,0.1,3.2,0.4v-0.4c0-2.3-1-3.7-3.6-3.7c-1.8,0.1-3.6,0.6-5.3,1.5l-1.1-3c2.2-1.1,4.6-1.7,7.1-1.7c4.8,0,6.9,2.7,6.9,7.1 v10.3H186.8z M186.4,21.8c-0.9-0.2-1.7-0.3-2.6-0.3c-1.9,0-4.2,0.6-4.2,2.8c0,1.7,1.4,2.5,2.9,2.5c1.5-0.1,2.8-0.7,3.9-1.7 L186.4,21.8L186.4,21.8z"></path><path class="st1" d="M196.2,12.3l0.2,2.5c1.2-1.8,3.2-2.9,5.4-2.9c1.8-0.1,3.6,0.8,4.7,2.2c1.3,1.6,1.5,3.9,1.5,6.4v8.9h-4v-8.6 c0.1-1.4-0.1-2.8-0.7-4.1c-0.5-0.9-1.5-1.4-2.6-1.3c-1.8,0.1-3.4,1.1-4.2,2.6v11.3h-4v-17L196.2,12.3z"></path><g>	<g>		<path class="st1" d="M210.1,11.8c-1.2,0-2.1-0.9-2.1-2.1s0.9-2.1,2.1-2.1s2.1,0.9,2.1,2.1S211.2,11.8,210.1,11.8z M210.1,7.9   c-1,0-1.8,0.8-1.8,1.8c0,1,0.8,1.8,1.8,1.8s1.8-0.8,1.8-1.8C211.9,8.7,211.1,7.9,210.1,7.9z"></path>	</g>	<path class="st1" d="M210.4,9.8c0.1-0.1,0.2-0.1,0.3-0.3c0.1-0.1,0.1-0.3,0.1-0.4c0-0.2-0.1-0.4-0.2-0.5c-0.2-0.1-0.4-0.2-0.6-0.2  h-0.6v2.5h0.3v-1h0.5l0.6,1h0.3L210.4,9.8z M210,9.7h-0.3v-1h0.3c0.4,0,0.6,0.2,0.6,0.5c0,0.1,0,0.3-0.1,0.4  C210.3,9.7,210.1,9.7,210,9.7z"></path></g></svg>