<svg xmlns="http://www.w3.org/2000/svg" xmlns:xlink="http://www.w3.org/1999/xlink" id="uuid-f1982542-e7cb-416f-a057-f7ce84992ac8" data-name="Layer 1" viewBox="0 0 657.02 136.01"><defs><style>      .uuid-0056d398-c7fd-4b38-9a7f-6cf75cf603e5 {        fill: none;      }      .uuid-aaccb3ed-1cbb-45dc-81d8-8d4596b733a3 {        clip-path: url(#uuid-48748f90-876e-4e36-abeb-a1f3e3166dcc);      }      .uuid-b9e92840-cf30-4369-9f6d-9c6007e82eea {        fill: url(#uuid-6aad639f-7528-4bd6-9d80-12fe5cfeeb7b);      }      .uuid-20efbc19-7295-4e3b-9d30-12e31a8d80ee {        fill: #190f1a;      }      .uuid-77a6d0b4-75ce-4470-ae0f-1ee6c7cc7abe {        fill: url(#uuid-452421fd-307a-466a-9ff9-a93e2d535c95);      }    </style><clipPath id="uuid-48748f90-876e-4e36-abeb-a1f3e3166dcc"><rect class="uuid-0056d398-c7fd-4b38-9a7f-6cf75cf603e5" width="94.33" height="136"></rect></clipPath><linearGradient id="uuid-6aad639f-7528-4bd6-9d80-12fe5cfeeb7b" x1="0" y1="70" x2="94.33" y2="70" gradientTransform="translate(0 138) scale(1 -1)" gradientUnits="userSpaceOnUse"><stop offset="0" stop-color="#ff3800"></stop><stop offset=".5" stop-color="#f71c00"></stop><stop offset="1" stop-color="#ef0000"></stop></linearGradient><linearGradient id="uuid-452421fd-307a-466a-9ff9-a93e2d535c95" x1="57.43" y1="19.44" x2=".26" y2="91.29" gradientTransform="translate(0 138) scale(1 -1)" gradientUnits="userSpaceOnUse"><stop offset="0" stop-color="#900"></stop><stop offset=".4" stop-color="red" stop-opacity="0"></stop></linearGradient></defs><g class="uuid-aaccb3ed-1cbb-45dc-81d8-8d4596b733a3"><g><path class="uuid-b9e92840-cf30-4369-9f6d-9c6007e82eea" d="M35.72,23.79c-.07-16.43,13.11-23.79,13.11-23.79,0,0,4.38,19.37,19.58,38.14,17.71,21.87,25.93,34,25.93,49.83,0,26.53-21.12,48.05-47.17,48.05S0,114.49,0,87.95,23.29,29.3,28.79,23.99c0,0,.32,7.3,3.79,17.42,3.12,9.07,2.51,18.99-1.36,27.76-2.25,5.11-4,11.44-4,18.78,0,11.21,8.92,20.3,19.93,20.3s19.32-10,19.32-20.3c.01-19.96-30.64-39.63-30.76-64.16Z"></path><path class="uuid-77a6d0b4-75ce-4470-ae0f-1ee6c7cc7abe" d="M65.08,80.23c.89,2.58,1.41,5.14,1.41,7.72,0,10.3-8.31,20.3-19.32,20.3s-19.93-9.08-19.93-20.3c0-7.34,1.75-13.67,4-18.78,3.86-8.77,4.47-18.69,1.36-27.76-3.47-10.11-3.79-17.42-3.79-17.42C23.29,29.31,0,61.65,0,87.95c0,16.28,7.95,30.66,20.1,39.35,31.46,7.15,56.34-18.4,44.98-47.07Z"></path></g></g><path class="uuid-20efbc19-7295-4e3b-9d30-12e31a8d80ee" d="M182.52,66.05h13.57v8.22c2.5-5.21,6.98-8.22,13.77-8.22h4.68v13.33h-7.88c-7.28,0-10.47,3.81-10.47,13.13v23.65h-13.67v-50.1Z"></path><path class="uuid-20efbc19-7295-4e3b-9d30-12e31a8d80ee" d="M214.82,91.1c0-14.43,11.47-26.05,25.84-26.05s25.84,11.62,25.84,26.05-11.47,26.05-25.84,26.05-25.84-11.62-25.84-26.05ZM253.23,91.1c0-7.11-5.59-13.03-12.57-13.03s-12.47,5.91-12.47,13.03,5.39,13.03,12.47,13.03,12.57-5.91,12.57-13.03Z"></path><path class="uuid-20efbc19-7295-4e3b-9d30-12e31a8d80ee" d="M271.98,66.05h13.57v5.31c3.09-3.91,7.68-6.31,13.27-6.31,7.08,0,12.37,2.81,15.36,7.92,3.39-4.81,9.08-7.92,15.56-7.92,12.67,0,18.95,7.61,18.95,20.54v30.56h-13.87v-28.76c0-6.71-2.6-10.62-8.68-10.62-5.19,0-8.98,3.61-8.98,12.02v27.35h-13.87v-28.76c0-6.71-2.59-10.62-8.68-10.62-5.19,0-8.98,3.61-8.98,12.02v27.35h-13.67v-50.1h0Z"></path><path class="uuid-20efbc19-7295-4e3b-9d30-12e31a8d80ee" d="M411.97,63.59c0-8.24,6.74-12.26,13.67-14.49v16.95h11.41v12.32h-11.41v17.08c0,7.81,2.48,8.3,11.41,7.79v12.83s-2.5.51-4.87.51c-15.77,0-20.21-4.79-20.21-21.12v-31.87h0Z"></path><path class="uuid-20efbc19-7295-4e3b-9d30-12e31a8d80ee" d="M443.13,45.06h13.57v26.51c3.29-4.01,8.08-6.51,13.77-6.51,11.77,0,18.86,7.61,18.86,20.54v30.56h-13.87v-28.66c0-6.81-3.09-10.72-9.18-10.72-5.19,0-9.48,3.61-9.48,12.02v27.35h-13.67V45.06h0Z"></path><path class="uuid-20efbc19-7295-4e3b-9d30-12e31a8d80ee" d="M550.57,91.1c0-17.74,12.97-26.05,24.24-26.05,6.48,0,11.57,2.4,14.86,5.91v-4.91h13.67v50.1h-13.67v-5.61c-3.29,3.91-8.58,6.62-15.07,6.62-10.57,0-24.04-8.42-24.04-26.05ZM590.08,91c0-7.41-5.39-13.43-12.77-13.43s-13.37,5.71-13.37,13.43,5.79,13.53,13.37,13.53,12.77-6.11,12.77-13.53Z"></path><path class="uuid-20efbc19-7295-4e3b-9d30-12e31a8d80ee" d="M610.83,66.05h13.57v5.61c3.19-4.11,8.08-6.62,13.77-6.62,11.77,0,18.86,7.61,18.86,20.54v30.56h-13.87v-28.76c0-6.71-3.09-10.62-9.18-10.62-5.19,0-9.48,3.61-9.48,12.02v27.35h-13.67v-50.1h0Z"></path><path class="uuid-20efbc19-7295-4e3b-9d30-12e31a8d80ee" d="M151.91,45.06h-27.5v71.1h13.87v-58.17h12.64c7.88,0,13.27,5.91,13.27,13.23s-5.39,13.23-13.27,13.23h-11.96s5.22,15.86,21.03,11.72c10.84-3.32,18.17-13.18,18.17-24.95,0-14.53-11.18-26.15-26.24-26.15Z"></path><path class="uuid-20efbc19-7295-4e3b-9d30-12e31a8d80ee" d="M494.56,90.83c.14-15.1,13.38-26.91,28.36-25.68,13.94,1.15,23.32,12.2,23.32,25.85v5.01h-38.51c1.6,5.51,6.09,9.12,13.27,9.12,2.46,0,4.74-.6,6.71-1.71,4.02-2.25,8.78-2.71,13.04-.98l3.39,1.38c-4.29,7.82-12.17,13.33-23.24,13.33-15.66,0-26.47-11.77-26.34-26.33ZM508.33,84.99h24.14c-1.79-5.21-6.09-7.92-11.87-7.92s-10.17,3.2-12.27,7.92Z"></path><path class="uuid-20efbc19-7295-4e3b-9d30-12e31a8d80ee" d="M354.45,90.83c.14-15.1,13.38-26.91,28.36-25.68,13.94,1.15,23.32,12.2,23.32,25.85v5.01h-38.51c1.6,5.51,6.09,9.12,13.27,9.12,2.46,0,4.74-.6,6.71-1.71,4.02-2.25,8.78-2.71,13.04-.98l3.39,1.38c-4.29,7.82-12.17,13.33-23.24,13.33-15.66,0-26.47-11.77-26.33-26.33ZM368.21,84.99h24.14c-1.79-5.21-6.09-7.92-11.87-7.92s-10.18,3.2-12.27,7.92Z"></path></svg>