<svg xmlns="http://www.w3.org/2000/svg" id="uuid-e2af5cd0-ed5d-4661-b009-6e6d8b873ac6" data-name="layer" viewBox="0 0 599.9 90.4"><defs><style>      .uuid-ea9fa364-e1fc-4179-a7ea-d47d0bf80712 {        fill: #e40065;      }      .uuid-e101c9e0-39ea-4aaf-bc27-28660171f073 {        fill: #59b555;      }      .uuid-9a1327d9-bc41-46a8-a274-c00924d19383 {        fill: #ea601f;      }      .uuid-504eae02-3435-4539-9e3d-cc5ec93426d7 {        fill: #009bd9;      }      .uuid-abc2eca6-4ee6-43c1-927a-4750a5a0ae91 {        fill: #f6aa00;      }      .uuid-61d112bf-bfdf-4027-9885-140b9563934b {        fill: #231815;      }      .uuid-16524dd9-2d8c-41f1-84ff-2ed2fe628a8f {        fill: #c3d600;      }      .uuid-9a6b790a-36a0-4651-93dd-1904a3305956 {        fill: #b863a2;      }    </style></defs><g><path class="uuid-9a6b790a-36a0-4651-93dd-1904a3305956" d="M354.1,64.4h18.3v-15.2h-18.4c.1,2,.1,4,.1,6"></path><path class="uuid-abc2eca6-4ee6-43c1-927a-4750a5a0ae91" d="M422.4,62.6v1.8h18.5c-.2-1.6-.2-3.2-.2-4.8v-10.4h-18.3"></path><path class="uuid-ea9fa364-e1fc-4179-a7ea-d47d0bf80712" d="M461.5,64.4c.2-1.6.2-3.2.2-4.8v-10.4h18.4v15.1"></path><path class="uuid-504eae02-3435-4539-9e3d-cc5ec93426d7" d="M314.8,49.3v15.2h18.3v-7.1c0-2.4,0-5.3.4-8.1"></path><path class="uuid-9a1327d9-bc41-46a8-a274-c00924d19383" d="M144.4,49.3v15.2h18.3v-6.8c0-2.3-.1-5.4.3-8.4"></path><path class="uuid-16524dd9-2d8c-41f1-84ff-2ed2fe628a8f" d="M218,55.5v9h18.3v-15.2h-18.5c.3,2.2.2,4.4.2,6.2"></path><path class="uuid-504eae02-3435-4539-9e3d-cc5ec93426d7" d="M181.1,49.3c.2,2.7.1,5.4.1,7.4v7.8h18.3v-6.8c0-2.3,0-5.3.4-8.4"></path><path class="uuid-16524dd9-2d8c-41f1-84ff-2ed2fe628a8f" d="M490.8,49.3v15.2h18.3v-6.8c0-2.3-.1-5.4.3-8.4"></path><path class="uuid-504eae02-3435-4539-9e3d-cc5ec93426d7" d="M564.4,55.5v9h18.3v-15.2h-18.5c.2,2.2.2,4.4.2,6.2"></path><path class="uuid-9a1327d9-bc41-46a8-a274-c00924d19383" d="M527.4,49.3c.2,2.7.1,5.4.1,7.4v7.8h18.3v-6.8c0-2.3,0-5.3.4-8.4"></path><path class="uuid-ea9fa364-e1fc-4179-a7ea-d47d0bf80712" d="M306.4,57.6c0-2.9-.3-5.7-.7-8.4h-60.2c-.5,2.7-.7,5.5-.7,8.4,0,2.4.2,4.6.6,6.8h60.6c.2-2.1.4-4.4.4-6.8"></path></g><rect class="uuid-e101c9e0-39ea-4aaf-bc27-28660171f073" x="387.8" y="49.3" width="18.3" height="15.2"></rect><g><path class="uuid-abc2eca6-4ee6-43c1-927a-4750a5a0ae91" d="M85.2,57c0-2.6.6-5.3,1.6-7.7h-19.4c-.5,2.5-.7,5-.7,7.5s.3,5.2.7,7.7h19.3c-1-2.4-1.5-5-1.5-7.5"></path><path class="uuid-9a6b790a-36a0-4651-93dd-1904a3305956" d="M132.1,64.4v-15.2h-18.1c1.1,2.5,1.6,5.1,1.6,7.7s-.5,5.1-1.5,7.4"></path></g><path class="uuid-504eae02-3435-4539-9e3d-cc5ec93426d7" d="M61.7,57.6c0-2.9-.3-5.7-.8-8.4H.7c-.5,2.7-.7,5.5-.7,8.4,0,2.4.2,4.6.6,6.8h60.5c.4-2.1.6-4.4.6-6.8"></path><polyline class="uuid-61d112bf-bfdf-4027-9885-140b9563934b" points="583.4 27.2 585.6 27.2 585.6 35.3 586.6 35.3 586.6 27.2 588.7 27.2 588.7 26.3 583.4 26.3"></polyline><polyline class="uuid-61d112bf-bfdf-4027-9885-140b9563934b" points="598.1 25.8 594.9 33.3 591.6 25.8 589.8 35.3 590.8 35.3 592 29.2 592 29.2 594.9 35.7 597.7 29.2 597.8 29.2 598.9 35.3 599.9 35.3"></polyline><rect class="uuid-61d112bf-bfdf-4027-9885-140b9563934b" x="387.8" y="64.4" width="18.3" height="23.9"></rect><rect class="uuid-61d112bf-bfdf-4027-9885-140b9563934b" x="422.4" y="25.8" width="18.3" height="23.5"></rect><path class="uuid-61d112bf-bfdf-4027-9885-140b9563934b" d="M461.5,64.4c-.7,5.7-3,10.9-10.2,10.9s-9.6-5.2-10.2-10.9h-18.5c.6,17.1,10.3,25.9,28.8,25.9s28.2-8.8,28.8-25.9h0"></path><rect class="uuid-61d112bf-bfdf-4027-9885-140b9563934b" x="461.7" y="25.8" width="18.3" height="23.4"></rect><rect class="uuid-61d112bf-bfdf-4027-9885-140b9563934b" x="314.8" y="64.4" width="18.3" height="23.9"></rect><rect class="uuid-61d112bf-bfdf-4027-9885-140b9563934b" x="354.1" y="64.4" width="18.3" height="23.9"></rect><path class="uuid-61d112bf-bfdf-4027-9885-140b9563934b" d="M372.4,49.3c0-14.2-5.7-25.5-22.3-25.5-6.5,0-13,2.2-16.8,7.8h-.2v-5.7h-18.3v23.5h18.7c.8-5.8,3.2-11.2,10.6-11.2s9.5,5.4,9.9,11.2h18.4"></path><rect class="uuid-61d112bf-bfdf-4027-9885-140b9563934b" x="218" y="64.4" width="18.3" height="23.9"></rect><rect class="uuid-61d112bf-bfdf-4027-9885-140b9563934b" x="144.4" y="64.4" width="18.3" height="23.9"></rect><rect class="uuid-61d112bf-bfdf-4027-9885-140b9563934b" x="181.2" y="64.4" width="18.3" height="23.9"></rect><g><path class="uuid-61d112bf-bfdf-4027-9885-140b9563934b" d="M215.9,23.8c-7.5,0-14.8,3.7-18.7,9.8-4.2-6.6-10.5-9.8-18.5-9.8-5.9,0-12.2,2.7-15.7,7.6h-.3v-5.6h-18.3v23.5h18.6c.7-5.7,2.7-11.2,9.4-11.2s8.2,5.7,8.6,11.2h18.9c.8-5.7,3-11.2,9.4-11.2s8.1,5.7,8.5,11.2h18.5c.1-13.7-4-25.5-20.4-25.5"></path><path class="uuid-61d112bf-bfdf-4027-9885-140b9563934b" d="M276.8,76.7c-6.9,0-10.5-4.7-11.9-10.2v-.1l-.5-2h-19.1c2.6,15.4,14.1,25.9,31.5,25.9,11.4,0,21.2-5.1,26.7-14.3l-16.2-4.9c-2.5,3.4-5.8,5.6-10.5,5.6"></path><path class="uuid-61d112bf-bfdf-4027-9885-140b9563934b" d="M275.9,23.8c-17.6,0-27.8,10.7-30.4,25.5h19.2c.9-6.5,5-13,12.3-13s11.3,6.7,12.2,13h16.5c-2.6-14.7-12-25.5-29.8-25.5"></path></g><rect class="uuid-61d112bf-bfdf-4027-9885-140b9563934b" x="564.4" y="64.4" width="18.3" height="23.9"></rect><rect class="uuid-61d112bf-bfdf-4027-9885-140b9563934b" x="490.8" y="64.4" width="18.3" height="23.9"></rect><rect class="uuid-61d112bf-bfdf-4027-9885-140b9563934b" x="527.6" y="64.4" width="18.3" height="23.9"></rect><g><path class="uuid-61d112bf-bfdf-4027-9885-140b9563934b" d="M562.3,23.8c-7.5,0-14.8,3.7-18.7,9.8-4.2-6.6-10.5-9.8-18.5-9.8-5.9,0-12.2,2.7-15.7,7.6h-.3v-5.6h-18.3v23.5h18.6c.7-5.7,2.7-11.2,9.4-11.2s8.2,5.7,8.6,11.2h18.9c.7-5.7,3-11.2,9.4-11.2s8.1,5.7,8.5,11.2h18.5c0-13.7-4.1-25.5-20.4-25.5"></path><path class="uuid-61d112bf-bfdf-4027-9885-140b9563934b" d="M32,76.7c-6.9,0-10.5-4.7-11.9-10.2v-.1l-.5-2H.5c2.6,15.4,14.1,25.9,31.5,25.9,11.4,0,21.2-5.1,26.7-14.3l-16.2-4.9c-2.4,3.4-5.8,5.6-10.5,5.6"></path><path class="uuid-61d112bf-bfdf-4027-9885-140b9563934b" d="M31.1,23.8C13.5,23.8,3.3,34.5.7,49.3h19.2c.9-6.5,5-13,12.3-13s11.3,6.7,12.2,13h16.5c-2.5-14.7-12-25.5-29.8-25.5"></path></g><polyline class="uuid-61d112bf-bfdf-4027-9885-140b9563934b" points="406.1 4.7 387.8 4.7 387.8 25.8 376.7 25.8 376.7 40.9 387.8 40.9 387.8 49.3 406.1 49.3 406.1 40.9 416.9 40.9 416.9 25.8 406.1 25.8"></polyline><g><path class="uuid-61d112bf-bfdf-4027-9885-140b9563934b" d="M113.8,31.5h-.3c-4.1-5-10.9-7.8-17.6-7.8-15.7,0-25.9,11.8-28.6,25.5h19.5c2.3-5.4,7.1-9.7,13.6-9.7s11.3,4.3,13.6,9.7h18.1V0h-18.3"></path><path class="uuid-61d112bf-bfdf-4027-9885-140b9563934b" d="M100.4,74.6c-6.6,0-11.4-4.5-13.7-10.2h-19.3c2.7,14,12.9,26,28.9,26,6.7,0,13.5-2.8,17.3-7.9h.3v5.9h18.2v-23.9h-18c-2.2,5.6-7.1,10.1-13.7,10.1"></path></g></svg>