<svg xmlns="http://www.w3.org/2000/svg" id="uuid-438c946c-5c3e-4d8b-a739-6c9cb329b117" data-name="Layer 1" viewBox="0 0 299.5 40.8"><defs><style>      .uuid-0592cbda-5a70-4807-817b-4f929a96968f {        fill: #f7901e;      }      .uuid-33e4784a-6a28-4f12-957c-3f51fe641df8 {        fill: #0068ac;      }    </style></defs><rect class="uuid-0592cbda-5a70-4807-817b-4f929a96968f" x="48.57" y="32.93" width="21.26" height="7.08"></rect><path class="uuid-33e4784a-6a28-4f12-957c-3f51fe641df8" d="M299.5.79v39.23h-11.07s-13.42-23.38-14.93-25.98v25.98h-8.88V.79h11.51s13.03,22.74,14.5,25.32V.79h8.87ZM28.08.79s-7.07,21.71-7.8,23.99c-.75-2.29-7.77-23.99-7.77-23.99H0v39.23h8.68V13.23c1.41,4.63,8.12,26.79,8.12,26.79h6.58s7.06-22.42,8.46-26.89v26.89h8.72V.79h-12.48M143.46,32.42h-19.54v-9.11h17.92v-7.6h-17.92v-7.3h19.54V.79h-28.99v39.23h28.99v-7.6h0ZM98.15.79s-10.49,13.13-12,14.86V.79h-8.92v39.23h8.92v-17.32c1.57,1.93,12.26,17.32,12.26,17.32h12.44s-16.45-20.34-17.05-21.06c.61-.68,16.14-18.18,16.14-18.18h-11.79ZM221.39,20.29C221.39,8.22,227.9.01,239.94.01s18.54,8.37,18.54,20.28-6.54,20.51-18.54,20.51c-12.15.01-18.55-8.4-18.55-20.51M230.86,20.32c0,6.1,2.46,12.24,9.08,12.24s9.1-6.14,9.1-12.24-2.64-12.04-9.1-12.04c-6.44,0-9.08,6.1-9.08,12.04M168.37,16.17c-4.28-1.14-8.33-1.83-8.41-4.6-.02-.79.25-1.44.84-2.01,1.51-1.43,4.95-1.84,7.67-1.64,4.12.34,6.54,1.05,9.81,2.87l1.93-7.98C175.21,1.09,171.38-.05,165.94,0c-9.84.1-15.92,4.94-15.92,12.63s7.46,9.86,13.74,11.67c4.08,1.14,8.15,1.75,8.15,4.79s-4.92,4.1-8.23,4.1c-3.86,0-7.36-1.05-11.53-3.48l-2.54,7.9c5.65,2.22,9.08,3.17,14.54,3.17,5.97,0,10.9-1.66,13.88-4.65,2.17-2.14,3.3-4.99,3.3-8.23,0-7.96-7-10.18-12.96-11.73M203.97,16.17c-4.28-1.14-8.36-1.83-8.42-4.6,0-.79.27-1.44.84-2.01,1.53-1.43,4.96-1.84,7.66-1.64,4.12.34,6.54,1.05,9.84,2.87l1.91-7.98C210.8,1.09,206.98-.05,201.53,0c-9.83.1-15.91,4.94-15.91,12.63s7.47,9.86,13.74,11.67c4.08,1.14,8.16,1.75,8.16,4.79s-4.92,4.1-8.24,4.1c-3.87,0-7.36-1.05-11.53-3.48l-2.55,7.9c5.64,2.22,9.09,3.17,14.56,3.17,5.96,0,10.89-1.66,13.9-4.65,2.14-2.14,3.29-4.99,3.29-8.23-.04-7.96-7.05-10.18-12.98-11.73M61.8,28.82c3.31,0,6.48-.56,9.08-1.8l-2.7-6.34c-1.34.82-2.95,1.3-4.68,1.3-4.6,0-8.41-2.29-8.41-7.53s3.8-7.53,8.41-7.53c1.73,0,3.34.47,4.68,1.27l2.7-6.33c-2.6-1.22-5.77-1.8-9.08-1.8-9.38,0-15.35,5.38-15.35,14.39,0,8.99,5.97,14.37,15.35,14.37"></path></svg>