<svg xmlns="http://www.w3.org/2000/svg" id="uuid-738c2d2a-709c-4cea-a1c2-de64e8d4bdf7" data-name="Layer 1" viewBox="0 0 619.48 70.2"><defs><style>      .uuid-777e9b22-4b91-4e03-a3cb-4af0dd27b647 {        fill: #0c1927;      }    </style></defs><path class="uuid-777e9b22-4b91-4e03-a3cb-4af0dd27b647" d="M49.53.87H4.7C2.1.87,0,2.97,0,5.57c0,2.59,2.1,4.7,4.7,4.7h17.72v53.46c0,2.6,2.1,4.7,4.7,4.7s4.7-2.1,4.7-4.7V10.26h17.71c2.6,0,4.7-2.1,4.7-4.7s-2.1-4.7-4.7-4.7c0,0,0,0,0,0Z"></path><path class="uuid-777e9b22-4b91-4e03-a3cb-4af0dd27b647" d="M135.2.87c-2.59,0-4.69,2.09-4.7,4.68,0,0,0,.01,0,.02v24.38h-39.27V5.56c0-2.6-2.1-4.7-4.7-4.7s-4.7,2.1-4.7,4.7h0v58.16c0,2.6,2.1,4.7,4.7,4.7s4.7-2.1,4.7-4.7v-24.38h39.27v24.38c0,2.6,2.1,4.7,4.69,4.71,2.6,0,4.7-2.1,4.71-4.69h0V5.56c0-2.6-2.1-4.7-4.7-4.7Z"></path><path class="uuid-777e9b22-4b91-4e03-a3cb-4af0dd27b647" d="M180.35.87c-2.59,0-4.69,2.09-4.7,4.68,0,0,0,.01,0,.02v58.16c0,2.6,2.1,4.7,4.69,4.71,2.6,0,4.7-2.1,4.71-4.69h0V5.57c0-2.6-2.1-4.7-4.7-4.7Z"></path><path class="uuid-777e9b22-4b91-4e03-a3cb-4af0dd27b647" d="M319.57.87c-2.6,0-4.7,2.1-4.7,4.7h0v58.16c0,2.6,2.1,4.7,4.69,4.71,2.6,0,4.7-2.1,4.71-4.69h0V5.57c0-2.59-2.09-4.69-4.68-4.7,0,0-.01,0-.02,0h0Z"></path><path class="uuid-777e9b22-4b91-4e03-a3cb-4af0dd27b647" d="M406.15.87c-2.6,0-4.7,2.1-4.7,4.7h0v58.16c0,2.6,2.1,4.7,4.69,4.71,2.6,0,4.7-2.1,4.71-4.69h0V5.57c0-2.59-2.09-4.69-4.68-4.7,0,0-.01,0-.02,0h0Z"></path><path class="uuid-777e9b22-4b91-4e03-a3cb-4af0dd27b647" d="M523.85.87c-2.6,0-4.7,2.1-4.7,4.7h0v58.16c0,2.6,2.1,4.7,4.7,4.7s4.7-2.1,4.7-4.7V5.57c0-2.59-2.09-4.69-4.68-4.7,0,0-.01,0-.02,0Z"></path><path class="uuid-777e9b22-4b91-4e03-a3cb-4af0dd27b647" d="M487.03.87h-35.83c-2.59,0-4.69,2.09-4.7,4.68v58.18c0,2.6,2.1,4.7,4.69,4.71,2.6,0,4.7-2.1,4.71-4.69h0v-23.01h27.63c2.6,0,4.7-2.1,4.7-4.7s-2.1-4.7-4.7-4.7h-27.63V10.27h31.13c2.6,0,4.7-2.1,4.7-4.7,0-2.6-2.1-4.7-4.7-4.7h0Z"></path><path class="uuid-777e9b22-4b91-4e03-a3cb-4af0dd27b647" d="M274.37.87c-2.59,0-4.69,2.09-4.7,4.68v45.24L229.3,2.55c-1.67-1.99-4.63-2.25-6.62-.58-1.06.89-1.67,2.2-1.68,3.58v58.18c0,2.6,2.1,4.7,4.69,4.71,2.6,0,4.7-2.1,4.71-4.69h0V18.51l40.36,48.24c1.66,1.99,4.63,2.26,6.62.6,1.07-.89,1.69-2.21,1.69-3.6V5.57c0-2.6-2.1-4.7-4.7-4.7h0Z"></path><path class="uuid-777e9b22-4b91-4e03-a3cb-4af0dd27b647" d="M611.54,53.26c-10.04,10.04-26.31,10.04-36.35,0-10.04-10.04-10.04-26.31,0-36.35,10.04-10.04,26.31-10.04,36.35,0,0,0,0,0,0,0,1.92,1.75,4.89,1.62,6.64-.3,1.64-1.8,1.64-4.54,0-6.34-13.7-13.71-35.93-13.71-49.64,0-13.71,13.7-13.71,35.93,0,49.64s35.93,13.71,49.64,0c0,0,0,0,0,0,1.79-1.88,1.73-4.85-.15-6.65-1.81-1.74-4.67-1.74-6.49,0Z"></path><path class="uuid-777e9b22-4b91-4e03-a3cb-4af0dd27b647" d="M365.48,1.84c-2.05-1.59-4.99-1.21-6.58.84,0,0,0,0-.01.01l-22.42,29.08c-1.3,1.69-1.3,4.05,0,5.74l22.42,29.08c1.62,2.03,4.57,2.37,6.6.75,1.98-1.58,2.36-4.45.85-6.48l-20.21-26.22,20.21-26.21c1.58-2.06,1.2-5.01-.86-6.59h0Z"></path></svg>