<svg xmlns="http://www.w3.org/2000/svg" xmlns:xlink="http://www.w3.org/1999/xlink" id="uuid-5c62af1e-3c2b-4ee3-82ce-8760fcd9c4b4" data-name="Layer 1" viewBox="0 0 378.08 118"><defs><style>      .uuid-7bd444f5-43ae-47fa-b307-67936c703bf7 {        fill: url(#uuid-9f0b6c11-ce9e-4b20-afb1-5e0064a6a25a);      }      .uuid-86ba6d0d-92c3-4d13-b55b-6b1af806f09b {        fill: url(#uuid-452182d3-3462-45de-9d99-46023d874e5b);      }      .uuid-c30d2cce-5c5d-4c60-8a44-55100621c8fa {        fill: url(#uuid-b2bef389-909b-4f97-914b-fc6bfa960728);      }      .uuid-61bec7ad-e1a3-4291-b183-42e8f4556b3a {        fill: url(#uuid-da70e493-6297-445c-857b-6195fa3321f2);      }      .uuid-11b73947-47a5-47bd-bcfd-44550fcf4ce1 {        fill: url(#uuid-65ee3671-5d53-476c-a755-383c0947e59f);      }      .uuid-2c7bb7eb-5627-4200-89bf-d9600a76c396 {        fill: #49c2f1;      }      .uuid-0b4d6f94-41c1-4133-b5f1-578144821360 {        fill: url(#uuid-b415137d-a046-4d7e-bfbd-e0478e2f6412);      }      .uuid-8bc7efc6-fa72-482e-b25d-be50bae9ac3c {        fill: url(#uuid-eaf23a5f-4de5-42a0-89a2-3e34f031158b);      }      .uuid-f546feff-ba9f-4e08-9bcb-a1765ea0f4d3 {        fill: url(#uuid-cadcb90a-6bb6-4c5e-967e-ae3b3472acff);      }      .uuid-699babb8-6118-4431-8b49-1bf6bfe436e4 {        fill: url(#uuid-696e77a3-c805-4281-ac3a-21e408663c67);      }      .uuid-0d31fff3-efd9-4ed0-b3f2-7ea483ab5bbf {        fill: #082040;      }      .uuid-27b285a4-fdb2-4e61-a55b-7627e74d4fc5 {        fill: url(#uuid-bf56f560-49ac-4b1f-a4d8-750ab62a0d2d);      }      .uuid-6798458b-7348-42d3-a9e9-ce06af4f28b9 {        fill: url(#uuid-e911f78c-5829-434a-a883-551e76f5bdeb);      }      .uuid-d57949b1-ded4-41e0-a963-9e22a833e952 {        fill: url(#uuid-b19017fb-7c36-429f-9f8d-3580eea3ad28);      }      .uuid-c48a6b90-1121-4bcd-a4dc-96af9e4f7175 {        fill: url(#uuid-2da3f63f-5e61-49c7-a0c3-d48a58e09ebc);      }      .uuid-11d717ad-60cf-4790-be9a-7e40e9c26d5a {        fill: url(#uuid-6822419b-1bae-4bd5-b82c-66b2a4699d21);      }      .uuid-e890d6b0-7477-4cfd-8716-bddb821de763 {        fill: url(#uuid-5661f4d8-55a0-4362-9e33-e7cc6dcaf70f);      }      .uuid-bd93511b-9d82-4b08-b121-177335e8799d {        fill: url(#uuid-703c1dd1-1fdf-46c9-9225-6035285cc308);      }      .uuid-630cdf9e-759d-4cbb-b204-9e89d8b9141b {        fill: url(#uuid-39b7d2ba-5467-487e-8bdb-43febe5c479b);      }      .uuid-d74121bf-44f7-4cb8-ac0f-b30c41dd1cc9 {        fill: url(#uuid-8e8db6d6-327a-4b72-9f34-a35afd3236f6);      }      .uuid-eda90245-ad92-4f70-8035-d3d0bbe516eb {        fill: url(#uuid-fa5bb03c-ca15-4bfe-adef-ace044befa36);      }      .uuid-9e1fd7e9-ff6c-4bb0-93ea-b1b30912353e {        fill: url(#uuid-1c0635cc-9977-4518-bf11-0df360b67397);      }      .uuid-89a816de-ce02-490d-ba0b-7348435827bb {        fill: url(#uuid-c399b5e7-c37a-488a-b1af-6f79ab3b5f51);      }      .uuid-2b9c249a-b311-4a5d-9383-9fc47b6b7d73 {        fill: url(#uuid-0761d163-2c61-4aba-8323-ba33506621bf);      }      .uuid-ffb1bd86-71f9-488b-8da4-f920fe559199 {        fill: url(#uuid-099cca3b-34ba-4868-aa74-89db60cfaacd);      }      .uuid-9185c438-0132-4a0c-b917-2392d5469599 {        fill: url(#uuid-560a82d1-69b3-4808-8ddf-517a6729def4);      }      .uuid-c2c5c944-e5fb-4734-9b9b-475e684c82eb {        fill: url(#uuid-c0171533-3b8f-4422-896e-b38685a45d15);      }      .uuid-8e72b856-3b2c-4528-adc9-55eccb02c438 {        fill: url(#uuid-55de76e8-bdb0-464d-8f4d-5c23f9e4b417);      }      .uuid-f363d1ca-b959-47a6-a71e-2c8980cd88b2 {        fill: url(#uuid-8f392fac-3755-4545-9892-4afbd0871ae0);      }      .uuid-4aa7d405-420e-4bb4-ba5f-b089ea70f861 {        fill: url(#uuid-445d2c5d-9018-4f99-8acb-48d95d90d67e);      }    </style><linearGradient id="uuid-bf56f560-49ac-4b1f-a4d8-750ab62a0d2d" x1="315.6" y1="175.79" x2="348.04" y2="201.33" gradientTransform="translate(0 -157.68)" gradientUnits="userSpaceOnUse"><stop offset="0" stop-color="#082040"></stop><stop offset="1" stop-color="#49c2f1"></stop></linearGradient><linearGradient id="uuid-6822419b-1bae-4bd5-b82c-66b2a4699d21" x1="312.84" y1="179.29" x2="345.28" y2="204.83" gradientTransform="translate(0 -157.68)" gradientUnits="userSpaceOnUse"><stop offset="0" stop-color="#082040"></stop><stop offset="1" stop-color="#49c2f1"></stop></linearGradient><linearGradient id="uuid-452182d3-3462-45de-9d99-46023d874e5b" x1="310.74" y1="181.96" x2="343.18" y2="207.51" gradientTransform="translate(0 -157.68)" gradientUnits="userSpaceOnUse"><stop offset="0" stop-color="#082040"></stop><stop offset="1" stop-color="#49c2f1"></stop></linearGradient><linearGradient id="uuid-560a82d1-69b3-4808-8ddf-517a6729def4" x1="309.19" y1="183.94" x2="341.62" y2="209.49" gradientTransform="translate(0 -157.68)" gradientUnits="userSpaceOnUse"><stop offset="0" stop-color="#082040"></stop><stop offset="1" stop-color="#49c2f1"></stop></linearGradient><linearGradient id="uuid-eaf23a5f-4de5-42a0-89a2-3e34f031158b" x1="308.08" y1="185.34" x2="340.53" y2="210.88" gradientTransform="translate(0 -157.68)" gradientUnits="userSpaceOnUse"><stop offset="0" stop-color="#082040"></stop><stop offset="1" stop-color="#49c2f1"></stop></linearGradient><linearGradient id="uuid-65ee3671-5d53-476c-a755-383c0947e59f" x1="307.38" y1="186.22" x2="339.82" y2="211.77" gradientTransform="translate(0 -157.68)" gradientUnits="userSpaceOnUse"><stop offset="0" stop-color="#082040"></stop><stop offset="1" stop-color="#49c2f1"></stop></linearGradient><linearGradient id="uuid-9f0b6c11-ce9e-4b20-afb1-5e0064a6a25a" x1="306.99" y1="186.72" x2="339.44" y2="212.27" gradientTransform="translate(0 -157.68)" gradientUnits="userSpaceOnUse"><stop offset="0" stop-color="#082040"></stop><stop offset="1" stop-color="#49c2f1"></stop></linearGradient><linearGradient id="uuid-099cca3b-34ba-4868-aa74-89db60cfaacd" x1="359.39" y1="260.51" x2="335.41" y2="242.34" gradientTransform="translate(0 -157.68)" gradientUnits="userSpaceOnUse"><stop offset="0" stop-color="#082040"></stop><stop offset="1" stop-color="#49c2f1"></stop></linearGradient><linearGradient id="uuid-8f392fac-3755-4545-9892-4afbd0871ae0" x1="361.42" y1="257.84" x2="337.44" y2="239.66" gradientTransform="translate(0 -157.68)" gradientUnits="userSpaceOnUse"><stop offset="0" stop-color="#082040"></stop><stop offset="1" stop-color="#49c2f1"></stop></linearGradient><linearGradient id="uuid-e911f78c-5829-434a-a883-551e76f5bdeb" x1="362.97" y1="255.8" x2="338.99" y2="237.62" gradientTransform="translate(0 -157.68)" gradientUnits="userSpaceOnUse"><stop offset="0" stop-color="#082040"></stop><stop offset="1" stop-color="#49c2f1"></stop></linearGradient><linearGradient id="uuid-0761d163-2c61-4aba-8323-ba33506621bf" x1="364.11" y1="254.3" x2="340.13" y2="236.12" gradientTransform="translate(0 -157.68)" gradientUnits="userSpaceOnUse"><stop offset="0" stop-color="#082040"></stop><stop offset="1" stop-color="#49c2f1"></stop></linearGradient><linearGradient id="uuid-b19017fb-7c36-429f-9f8d-3580eea3ad28" x1="364.89" y1="253.26" x2="340.92" y2="235.07" gradientTransform="translate(0 -157.68)" gradientUnits="userSpaceOnUse"><stop offset="0" stop-color="#082040"></stop><stop offset="1" stop-color="#49c2f1"></stop></linearGradient><linearGradient id="uuid-2da3f63f-5e61-49c7-a0c3-d48a58e09ebc" x1="365.39" y1="252.6" x2="341.41" y2="234.42" gradientTransform="translate(0 -157.68)" gradientUnits="userSpaceOnUse"><stop offset="0" stop-color="#082040"></stop><stop offset="1" stop-color="#49c2f1"></stop></linearGradient><linearGradient id="uuid-55de76e8-bdb0-464d-8f4d-5c23f9e4b417" x1="365.67" y1="252.23" x2="341.69" y2="234.05" gradientTransform="translate(0 -157.68)" gradientUnits="userSpaceOnUse"><stop offset="0" stop-color="#082040"></stop><stop offset="1" stop-color="#49c2f1"></stop></linearGradient><linearGradient id="uuid-fa5bb03c-ca15-4bfe-adef-ace044befa36" x1="315.6" y1="175.79" x2="348.04" y2="201.33" gradientTransform="translate(0 -157.68)" gradientUnits="userSpaceOnUse"><stop offset="0" stop-color="#082040"></stop><stop offset="1" stop-color="#49c2f1"></stop></linearGradient><linearGradient id="uuid-5661f4d8-55a0-4362-9e33-e7cc6dcaf70f" x1="312.84" y1="179.29" x2="345.28" y2="204.83" gradientTransform="translate(0 -157.68)" gradientUnits="userSpaceOnUse"><stop offset="0" stop-color="#082040"></stop><stop offset="1" stop-color="#49c2f1"></stop></linearGradient><linearGradient id="uuid-cadcb90a-6bb6-4c5e-967e-ae3b3472acff" x1="310.74" y1="181.96" x2="343.18" y2="207.51" gradientTransform="translate(0 -157.68)" gradientUnits="userSpaceOnUse"><stop offset="0" stop-color="#082040"></stop><stop offset="1" stop-color="#49c2f1"></stop></linearGradient><linearGradient id="uuid-c399b5e7-c37a-488a-b1af-6f79ab3b5f51" x1="309.19" y1="183.94" x2="341.62" y2="209.49" gradientTransform="translate(0 -157.68)" gradientUnits="userSpaceOnUse"><stop offset="0" stop-color="#082040"></stop><stop offset="1" stop-color="#49c2f1"></stop></linearGradient><linearGradient id="uuid-703c1dd1-1fdf-46c9-9225-6035285cc308" x1="308.08" y1="185.34" x2="340.53" y2="210.88" gradientTransform="translate(0 -157.68)" gradientUnits="userSpaceOnUse"><stop offset="0" stop-color="#082040"></stop><stop offset="1" stop-color="#49c2f1"></stop></linearGradient><linearGradient id="uuid-1c0635cc-9977-4518-bf11-0df360b67397" x1="307.38" y1="186.22" x2="339.82" y2="211.77" gradientTransform="translate(0 -157.68)" gradientUnits="userSpaceOnUse"><stop offset="0" stop-color="#082040"></stop><stop offset="1" stop-color="#49c2f1"></stop></linearGradient><linearGradient id="uuid-da70e493-6297-445c-857b-6195fa3321f2" x1="306.99" y1="186.72" x2="339.44" y2="212.27" gradientTransform="translate(0 -157.68)" gradientUnits="userSpaceOnUse"><stop offset="0" stop-color="#082040"></stop><stop offset="1" stop-color="#49c2f1"></stop></linearGradient><linearGradient id="uuid-39b7d2ba-5467-487e-8bdb-43febe5c479b" x1="359.39" y1="260.51" x2="335.41" y2="242.34" gradientTransform="translate(0 -157.68)" gradientUnits="userSpaceOnUse"><stop offset="0" stop-color="#082040"></stop><stop offset="1" stop-color="#49c2f1"></stop></linearGradient><linearGradient id="uuid-696e77a3-c805-4281-ac3a-21e408663c67" x1="361.42" y1="257.84" x2="337.44" y2="239.66" gradientTransform="translate(0 -157.68)" gradientUnits="userSpaceOnUse"><stop offset="0" stop-color="#082040"></stop><stop offset="1" stop-color="#49c2f1"></stop></linearGradient><linearGradient id="uuid-8e8db6d6-327a-4b72-9f34-a35afd3236f6" x1="362.97" y1="255.8" x2="338.99" y2="237.62" gradientTransform="translate(0 -157.68)" gradientUnits="userSpaceOnUse"><stop offset="0" stop-color="#082040"></stop><stop offset="1" stop-color="#49c2f1"></stop></linearGradient><linearGradient id="uuid-b415137d-a046-4d7e-bfbd-e0478e2f6412" x1="364.11" y1="254.3" x2="340.13" y2="236.12" gradientTransform="translate(0 -157.68)" gradientUnits="userSpaceOnUse"><stop offset="0" stop-color="#082040"></stop><stop offset="1" stop-color="#49c2f1"></stop></linearGradient><linearGradient id="uuid-b2bef389-909b-4f97-914b-fc6bfa960728" x1="364.89" y1="253.26" x2="340.92" y2="235.07" gradientTransform="translate(0 -157.68)" gradientUnits="userSpaceOnUse"><stop offset="0" stop-color="#082040"></stop><stop offset="1" stop-color="#49c2f1"></stop></linearGradient><linearGradient id="uuid-c0171533-3b8f-4422-896e-b38685a45d15" x1="365.39" y1="252.6" x2="341.41" y2="234.42" gradientTransform="translate(0 -157.68)" gradientUnits="userSpaceOnUse"><stop offset="0" stop-color="#082040"></stop><stop offset="1" stop-color="#49c2f1"></stop></linearGradient><linearGradient id="uuid-445d2c5d-9018-4f99-8acb-48d95d90d67e" x1="365.67" y1="252.23" x2="341.69" y2="234.05" gradientTransform="translate(0 -157.68)" gradientUnits="userSpaceOnUse"><stop offset="0" stop-color="#082040"></stop><stop offset="1" stop-color="#49c2f1"></stop></linearGradient></defs><path class="uuid-2c7bb7eb-5627-4200-89bf-d9600a76c396" d="M.17,93.24C.09,93.24,0,93.16,0,93.07v-7.89c0-.08.08-.17.17-.17h3.51c1.99,0,3.41,1.19,3.41,3.08s-1.48,3.02-3.41,3.02h-1.81v1.94c0,.08-.08.17-.17.17H.17v.02ZM1.87,86.58v3.07h1.66c1.08,0,1.7-.63,1.7-1.55s-.68-1.52-1.7-1.52h-1.66Z"></path><path class="uuid-2c7bb7eb-5627-4200-89bf-d9600a76c396" d="M28.29,89.13c0,2.58-2.07,4.25-4.53,4.25s-4.53-1.67-4.53-4.25,2.07-4.25,4.53-4.25,4.53,1.71,4.53,4.25ZM21.09,89.13c0,1.66,1.22,2.69,2.67,2.69s2.67-1.03,2.67-2.69-1.22-2.69-2.67-2.69-2.67,1.03-2.67,2.69Z"></path><path class="uuid-2c7bb7eb-5627-4200-89bf-d9600a76c396" d="M49.77,93.24h-1.14l-1.89-4.49c-.1-.24-.21-.57-.21-.57h-.03s-.1.34-.19.57l-1.9,4.49h-1.14l-3.65-7.97c-.03-.06-.06-.12-.06-.17s.03-.08.11-.08h1.64c.17,0,.19,0,.28.18l1.85,3.93c.21.42.44,1.19.44,1.19h.06s.14-.52.33-.96l1.82-4.34h.88l1.82,4.34c.19.45.33.96.33.96h.06s.24-.77.44-1.19l1.85-3.93c.08-.17.11-.18.28-.18h1.64c.08,0,.11.04.11.08s-.03.11-.06.17l-3.65,7.97h0-.03Z"></path><path class="uuid-2c7bb7eb-5627-4200-89bf-d9600a76c396" d="M67.45,89.82v1.86h4.82c.08,0,.19.11.19.19v1.18c0,.08-.11.19-.19.19h-6.52c-.08,0-.17-.08-.17-.17v-7.89c0-.08.08-.17.17-.17h6.44c.08,0,.19.11.19.19v1.18c0,.08-.11.19-.19.19h-4.74v1.67h4.33c.08,0,.19.11.19.19v1.18c0,.08-.11.19-.19.19h-4.33v.02h0Z"></path><path class="uuid-2c7bb7eb-5627-4200-89bf-d9600a76c396" d="M84.92,85.19c0-.08.08-.17.17-.17h3.8c2,0,3.43,1.08,3.43,2.87,0,1.25-.75,2.08-1.85,2.47v.03s.25.26.44.55l1.38,2.03c.07.1.08.15.08.18,0,.06-.03.1-.11.1h-1.82c-.07,0-.17-.06-.22-.14l-1.67-2.44h-1.77v2.41c0,.08-.08.17-.17.17h-1.53c-.08,0-.17-.08-.17-.17v-7.89h0ZM86.78,86.58v2.6h1.99c1.03,0,1.69-.48,1.69-1.29s-.66-1.31-1.69-1.31h-1.99Z"></path><path class="uuid-2c7bb7eb-5627-4200-89bf-d9600a76c396" d="M120.04,90.47c.17,0,.25.07.28.21.14.7.72,1.14,2.03,1.14s1.9-.49,1.9-1.08c0-.38-.28-.72-1.1-.8l-2.13-.18c-1.67-.14-2.56-.91-2.56-2.13,0-1.42,1.25-2.74,3.67-2.74s3.6,1.16,3.6,2.48c0,.13-.1.24-.26.24h-1.35c-.14,0-.22-.04-.25-.21-.08-.48-.55-.95-1.75-.95s-1.8.46-1.8,1.07c0,.37.25.64,1,.7l2.12.18c1.92.17,2.67,1.12,2.67,2.26,0,1.29-1.11,2.73-3.76,2.73-2.51,0-3.89-1.19-3.89-2.55v-.11c0-.14.11-.25.26-.25h1.33,0,0Z"></path><path class="uuid-2c7bb7eb-5627-4200-89bf-d9600a76c396" d="M147.27,89.13c0,2.58-2.07,4.25-4.53,4.25s-4.53-1.67-4.53-4.25,2.07-4.25,4.53-4.25,4.53,1.71,4.53,4.25ZM140.07,89.13c0,1.66,1.22,2.69,2.67,2.69s2.67-1.03,2.67-2.69-1.22-2.69-2.67-2.69-2.67,1.03-2.67,2.69Z"></path><path class="uuid-2c7bb7eb-5627-4200-89bf-d9600a76c396" d="M161.66,91.67h4.05c.08,0,.19.11.19.19v1.18c0,.08-.11.19-.19.19h-5.75c-.08,0-.17-.08-.17-.17v-7.89c0-.08.08-.17.17-.17h1.53c.08,0,.17.08.17.17v6.49h0Z"></path><path class="uuid-2c7bb7eb-5627-4200-89bf-d9600a76c396" d="M184.16,85.19c0-.08.08-.17.17-.17h1.53c.08,0,.17.08.17.17v4.12c0,2.66-1.67,4.07-4.19,4.07s-4.19-1.41-4.19-4.07v-4.12c0-.08.08-.17.17-.17h1.53c.08,0,.17.08.17.17v4.11c0,1.7.84,2.52,2.33,2.52s2.33-.82,2.33-2.52v-4.11h-.02Z"></path><path class="uuid-2c7bb7eb-5627-4200-89bf-d9600a76c396" d="M198.23,86.58c-.08,0-.19-.11-.19-.19v-1.18c0-.08.11-.19.19-.19h7.77c.08,0,.19.11.19.19v1.18c0,.08-.11.19-.19.19h-2.95v6.49c0,.08-.08.17-.17.17h-1.53c-.08,0-.17-.08-.17-.17v-6.49h-2.96,0Z"></path><path class="uuid-2c7bb7eb-5627-4200-89bf-d9600a76c396" d="M220.18,93.07c0,.08-.08.17-.17.17h-1.53c-.08,0-.17-.08-.17-.17v-7.89c0-.08.08-.17.17-.17h1.53c.08,0,.17.08.17.17v7.89Z"></path><path class="uuid-2c7bb7eb-5627-4200-89bf-d9600a76c396" d="M241.77,89.13c0,2.58-2.07,4.25-4.53,4.25s-4.53-1.67-4.53-4.25,2.07-4.25,4.53-4.25,4.53,1.71,4.53,4.25ZM234.57,89.13c0,1.66,1.22,2.69,2.67,2.69s2.67-1.03,2.67-2.69-1.22-2.69-2.67-2.69-2.67,1.03-2.67,2.69Z"></path><path class="uuid-2c7bb7eb-5627-4200-89bf-d9600a76c396" d="M261.31,93.24l-4.19-4.27c-.44-.44-.93-1.06-.93-1.06h-.04v5.16c0,.08-.08.17-.17.17h-1.53c-.08,0-.17-.08-.17-.17v-7.89c0-.08.08-.17.17-.17h1.26l4.15,4.22c.45.45.96,1.11.96,1.11h.06v-5.16c0-.08.08-.17.17-.17h1.53c.08,0,.17.08.17.17v7.89c0,.08-.08.17-.17.17,0,0-1.27,0-1.27,0Z"></path><path class="uuid-2c7bb7eb-5627-4200-89bf-d9600a76c396" d="M276.85,90.47c.17,0,.25.07.28.21.14.7.72,1.14,2.03,1.14s1.9-.49,1.9-1.08c0-.38-.28-.72-1.1-.8l-2.13-.18c-1.67-.14-2.56-.91-2.56-2.13,0-1.42,1.24-2.74,3.67-2.74s3.6,1.16,3.6,2.48c0,.13-.1.24-.26.24h-1.35c-.14,0-.22-.04-.25-.21-.08-.48-.55-.95-1.75-.95s-1.8.46-1.8,1.07c0,.37.25.64,1,.7l2.12.18c1.92.17,2.67,1.12,2.67,2.26,0,1.29-1.11,2.73-3.76,2.73-2.51,0-3.89-1.19-3.89-2.55v-.11c0-.14.11-.25.26-.25h1.33,0Z"></path><path class="uuid-27b285a4-fdb2-4e61-a55b-7627e74d4fc5" d="M322.13,77.52c-.94-.66-1.16-1.96-.5-2.9h0L371.3,7.69l-46.28,69.32h0c-.66.94-1.96,1.16-2.9.5h0Z"></path><path class="uuid-11d717ad-60cf-4790-be9a-7e40e9c26d5a" d="M314.66,68.54h0l49.83-54.22-47.07,56.64h0c-.67.76-1.83.84-2.59.17s-.84-1.83-.17-2.59h0Z"></path><path class="uuid-86ba6d0d-92c3-4d13-b55b-6b1af806f09b" d="M309.01,64.83c-.61-.66-.57-1.68.09-2.29h0l48.8-43.05-46.59,45.43h0c-.66.61-1.68.57-2.29-.09h0Z"></path><path class="uuid-9185c438-0132-4a0c-b917-2392d5469599" d="M304.48,58.76c-.48-.63-.34-1.53.29-2.01h0l46.86-33.32-45.14,35.62h0c-.63.48-1.53.34-2.01-.29h0Z"></path><path class="uuid-8bc7efc6-fa72-482e-b25d-be50bae9ac3c" d="M301.05,53c-.36-.6-.16-1.38.44-1.74h0l44.25-24.95-42.96,27.13h0c-.6.36-1.38.16-1.74-.44h0Z"></path><path class="uuid-11b73947-47a5-47bd-bcfd-44550fcf4ce1" d="M298.57,47.63c-.26-.56-.02-1.23.55-1.49h0l41.19-17.84-40.25,19.87c-.56.26-1.23.02-1.49-.55h0Z"></path><path class="uuid-7bd444f5-43ae-47fa-b307-67936c703bf7" d="M296.88,42.68c-.18-.52.1-1.08.61-1.26l37.85-11.87-37.21,13.75c-.52.18-1.08-.1-1.26-.61h.01Z"></path><path class="uuid-ffb1bd86-71f9-488b-8da4-f920fe559199" d="M353.95,57.85c.72.5.9,1.49.4,2.21h0l-37.53,51.37,34.92-53.18h0c.5-.72,1.49-.9,2.21-.4h0Z"></path><path class="uuid-f363d1ca-b959-47a6-a71e-2c8980cd88b2" d="M359.71,64.67h0l-37.72,41.67,35.6-43.51h0c.5-.59,1.39-.65,1.98-.15s.65,1.39.15,1.98h-.01Z"></path><path class="uuid-6798458b-7348-42d3-a9e9-ce06af4f28b9" d="M364.05,67.46c.47.5.45,1.28-.05,1.75h0l-37,33.14,35.3-34.94h0c.5-.47,1.28-.45,1.75.05h0Z"></path><path class="uuid-2b9c249a-b311-4a5d-9383-9fc47b6b7d73" d="M367.54,72.07c.37.48.28,1.17-.21,1.53h0l-35.57,25.7,34.25-27.45h0c.48-.37,1.17-.28,1.53.21h0Z"></path><path class="uuid-d57949b1-ded4-41e0-a963-9e22a833e952" d="M370.19,76.44c.28.46.13,1.05-.33,1.33h0l-33.63,19.3,32.63-20.95h0c.46-.28,1.05-.13,1.33.33h0Z"></path><path class="uuid-c48a6b90-1121-4bcd-a4dc-96af9e4f7175" d="M372.11,80.53c.2.42.02.94-.41,1.14h0l-31.34,13.86,30.61-15.4c.42-.2.94-.02,1.14.41h0Z"></path><path class="uuid-8e72b856-3b2c-4528-adc9-55eccb02c438" d="M373.43,84.3c.14.4-.07.83-.46.96l-28.82,9.28,28.32-10.71c.4-.14.83.07.96.46h0Z"></path><path class="uuid-2c7bb7eb-5627-4200-89bf-d9600a76c396" d="M378.08,0s-33.2,52.78-33.62,53.58l-34.44,64.42,38.42-62.12s0-.02.01-.02h0c12.48-22.63,29.62-55.86,29.62-55.86h0Z"></path><path class="uuid-eda90245-ad92-4f70-8035-d3d0bbe516eb" d="M322.13,77.52c-.94-.66-1.16-1.96-.5-2.9h0L371.3,7.69l-46.28,69.32h0c-.66.94-1.96,1.16-2.9.5h0Z"></path><path class="uuid-e890d6b0-7477-4cfd-8716-bddb821de763" d="M314.66,68.54h0l49.83-54.22-47.07,56.64h0c-.67.76-1.83.84-2.59.17s-.84-1.83-.17-2.59h0Z"></path><path class="uuid-f546feff-ba9f-4e08-9bcb-a1765ea0f4d3" d="M309.01,64.83c-.61-.66-.57-1.68.09-2.29h0l48.8-43.05-46.59,45.43h0c-.66.61-1.68.57-2.29-.09h0Z"></path><path class="uuid-89a816de-ce02-490d-ba0b-7348435827bb" d="M304.48,58.76c-.48-.63-.34-1.53.29-2.01h0l46.86-33.32-45.14,35.62h0c-.63.48-1.53.34-2.01-.29h0Z"></path><path class="uuid-bd93511b-9d82-4b08-b121-177335e8799d" d="M301.05,53c-.36-.6-.16-1.38.44-1.74h0l44.25-24.95-42.96,27.13h0c-.6.36-1.38.16-1.74-.44h0Z"></path><path class="uuid-9e1fd7e9-ff6c-4bb0-93ea-b1b30912353e" d="M298.57,47.63c-.26-.56-.02-1.23.55-1.49h0l41.19-17.84-40.25,19.87c-.56.26-1.23.02-1.49-.55h0Z"></path><path class="uuid-61bec7ad-e1a3-4291-b183-42e8f4556b3a" d="M296.88,42.68c-.18-.52.1-1.08.61-1.26l37.85-11.87-37.21,13.75c-.52.18-1.08-.1-1.26-.61h.01Z"></path><path class="uuid-630cdf9e-759d-4cbb-b204-9e89d8b9141b" d="M353.95,57.85c.72.5.9,1.49.4,2.21h0l-37.53,51.37,34.92-53.18h0c.5-.72,1.49-.9,2.21-.4h0Z"></path><path class="uuid-699babb8-6118-4431-8b49-1bf6bfe436e4" d="M359.71,64.67h0l-37.72,41.67,35.6-43.51h0c.5-.59,1.39-.65,1.98-.15s.65,1.39.15,1.98h-.01Z"></path><path class="uuid-d74121bf-44f7-4cb8-ac0f-b30c41dd1cc9" d="M364.05,67.46c.47.5.45,1.28-.05,1.75h0l-37,33.14,35.3-34.94h0c.5-.47,1.28-.45,1.75.05h0Z"></path><path class="uuid-0b4d6f94-41c1-4133-b5f1-578144821360" d="M367.54,72.07c.37.48.28,1.17-.21,1.53h0l-35.57,25.7,34.25-27.45h0c.48-.37,1.17-.28,1.53.21h0Z"></path><path class="uuid-c30d2cce-5c5d-4c60-8a44-55100621c8fa" d="M370.19,76.44c.28.46.13,1.05-.33,1.33h0l-33.63,19.3,32.63-20.95h0c.46-.28,1.05-.13,1.33.33h0Z"></path><path class="uuid-c2c5c944-e5fb-4734-9b9b-475e684c82eb" d="M372.11,80.53c.2.42.02.94-.41,1.14h0l-31.34,13.86,30.61-15.4c.42-.2.94-.02,1.14.41h0Z"></path><path class="uuid-4aa7d405-420e-4bb4-ba5f-b089ea70f861" d="M373.43,84.3c.14.4-.07.83-.46.96l-28.82,9.28,28.32-10.71c.4-.14.83.07.96.46h0Z"></path><path class="uuid-0d31fff3-efd9-4ed0-b3f2-7ea483ab5bbf" d="M258.82,74.78h23.22c.28,0,.51-.23.51-.51v-40.12c0-.48-.41-.64-.77-.43l-3.81,2.2c-.15.09-.24.26-.24.48v9.6c0,.33-.26.59-.59.59h-18.32c-6.01,0-10.89,4.89-10.89,10.89v6.4c0,6.01,4.89,10.89,10.89,10.89h0ZM252.76,57.48c0-3.34,2.72-6.06,6.06-6.06h18.32c.33,0,.59.26.59.59v17.36c0,.33-.26.59-.59.59h-18.32c-3.34,0-6.06-2.72-6.06-6.06v-6.4h0v-.02Z"></path><path class="uuid-0d31fff3-efd9-4ed0-b3f2-7ea483ab5bbf" d="M.01,74.27c0,.28.23.51.51.51h3.8c.28,0,.51-.23.51-.51v-22.26c0-.33.26-.59.59-.59h18.32c3.34,0,6.06,2.72,6.06,6.06v16.79c0,.28.23.51.51.51h3.8c.28,0,.51-.23.51-.51v-16.79c0-6.01-4.89-10.89-10.89-10.89H5.41c-.33,0-.59-.26-.59-.59v-11.85c0-.48-.41-.64-.77-.43l-3.81,2.2c-.15.09-.24.26-.24.48v37.87h.01Z"></path><path class="uuid-0d31fff3-efd9-4ed0-b3f2-7ea483ab5bbf" d="M108.59,46.59h-30.14c-.28,0-.51.23-.51.51v27.17c0,.28.23.51.51.51h3.8c.28,0,.51-.23.51-.51v-22.26c0-.33.26-.59.59-.59h12.35c.33,0,.59.26.59.59v22.26c0,.28.23.51.51.51h3.8c.28,0,.51-.23.51-.51v-22.26c0-.33.26-.59.59-.59h6.88c3.34,0,6.06,2.72,6.06,6.06v16.79c0,.28.23.51.51.51h3.8c.28,0,.51-.23.51-.51v-16.79c0-6.01-4.89-10.89-10.89-10.89h.02Z"></path><path class="uuid-0d31fff3-efd9-4ed0-b3f2-7ea483ab5bbf" d="M154.87,46.59h-30.14c-.28,0-.51.23-.51.51v27.17c0,.28.23.51.51.51h3.8c.28,0,.51-.23.51-.51v-22.26c0-.33.26-.59.59-.59h12.35c.33,0,.59.26.59.59v22.26c0,.28.23.51.51.51h3.8c.28,0,.51-.23.51-.51v-22.26c0-.33.26-.59.59-.59h6.88c3.34,0,6.06,2.72,6.06,6.06v16.79c0,.28.23.51.51.51h3.8c.28,0,.51-.23.51-.51v-16.79c0-6.01-4.89-10.89-10.89-10.89h.02Z"></path><path class="uuid-0d31fff3-efd9-4ed0-b3f2-7ea483ab5bbf" d="M232.7,51.42c3.34,0,6.06,2.72,6.06,6.06v16.79c0,.28.23.51.51.51h3.8c.28,0,.51-.23.51-.51v-16.79c0-6.01-4.89-10.89-10.89-10.89h-22.64c-.28,0-.51.23-.51.51v27.17c0,.28.23.51.51.51h3.8c.28,0,.51-.23.51-.51v-22.26c0-.33.26-.59.59-.59h17.75Z"></path><path class="uuid-0d31fff3-efd9-4ed0-b3f2-7ea483ab5bbf" d="M193.78,46.59h-12.31c-6.01,0-10.89,4.89-10.89,10.89v6.4c0,6.01,4.89,10.89,10.89,10.89h12.31c6.01,0,10.89-4.89,10.89-10.89v-6.4c0-6.01-4.89-10.89-10.89-10.89ZM199.84,63.89c0,3.34-2.72,6.06-6.06,6.06h-12.31c-3.34,0-6.06-2.72-6.06-6.06v-6.4c0-3.34,2.72-6.06,6.06-6.06h12.31c3.34,0,6.06,2.72,6.06,6.06v6.4Z"></path><path class="uuid-0d31fff3-efd9-4ed0-b3f2-7ea483ab5bbf" d="M73.13,54.84c0-4.55-3.7-8.26-8.26-8.26h-17.05c-.21,0-.4.09-.48.24l-2.2,3.82c-.21.36-.05.77.43.77h19.12c1.81,0,3.43,1.31,3.6,3.12v3.24c0,.28-.23.51-.51.51h-20.54c-4.3,0-8.06,3.18-8.46,7.46-.46,4.91,3.4,9.05,8.22,9.05h25.62c.28,0,.51-.23.51-.51v-19.27h0v-.15h0v-.02ZM67.78,69.95h-20.79c-1.89,0-3.43-1.54-3.43-3.43s1.54-3.43,3.43-3.43h20.79c.28,0,.51.23.51.51v5.83c0,.28-.23.51-.51.51h0Z"></path></svg>