<svg xmlns="http://www.w3.org/2000/svg" id="uuid-c0dcd151-5538-4f34-b07a-7f6799cbf308" data-name="Layer 1" viewBox="0 0 503.96 286.92"><defs><style>      .uuid-cb996b2c-a8f6-4e7d-97de-9dbacb186fa6 {        fill: #6b2a7f;        stroke: #6b2a7f;      }      .uuid-cb996b2c-a8f6-4e7d-97de-9dbacb186fa6, .uuid-d26d1676-b344-4aa8-9cd7-1fa2b7056727, .uuid-8ff0d945-69c8-46f7-a73c-804ef54bf583, .uuid-79172804-f6f0-41a5-9415-f93ebeb53090 {        fill-rule: evenodd;        stroke-miterlimit: 10;        stroke-width: .48px;      }      .uuid-d26d1676-b344-4aa8-9cd7-1fa2b7056727 {        fill: #fff;        stroke: #fff;      }      .uuid-8ff0d945-69c8-46f7-a73c-804ef54bf583 {        fill: #eb214d;        stroke: #eb214d;      }      .uuid-79172804-f6f0-41a5-9415-f93ebeb53090 {        fill: #f68938;        stroke: #f68938;      }    </style></defs><g id="uuid-007d44d6-cd79-468b-9c96-93faf78c0bfa" data-name="Capa 1"><path class="uuid-79172804-f6f0-41a5-9415-f93ebeb53090" d="M2.99,99.22h499.85V32.22S504.02.24,475.58.24H28.41C25.22.17,2.56,4.89,2.56,29.46v28.37l.43,41.39Z"></path><path class="uuid-d26d1676-b344-4aa8-9cd7-1fa2b7056727" d="M101.1,58.96v-11.07c.06-6.72.2-10.59.44-11.64.24-1.04,1.16-2.01,2.77-2.93,1.57-.87,2.52-1.52,2.9-1.95.36-.42.55-1.07.55-1.95,0-1.78-1.07-3.08-3.2-3.9-2.12-.8-5.57-1.22-10.3-1.22s-8.36.42-10.55,1.25c-2.18.84-3.28,2.15-3.28,3.96,0,.85.28,1.56.86,2.14.6.57,1.68,1.21,3.26,1.9,1.69.76,2.68,1.8,2.96,3.11.3,1.32.52,5.79.67,13.43v9.98c0,2.51-.16,4.49-.45,5.94-.31,1.44-.88,2.75-1.71,3.95-1.03,1.53-2.56,2.76-4.55,3.64-1.99.9-4.2,1.35-6.66,1.35-3.86,0-7.01-1.11-9.45-3.36-3.01-2.72-4.42-6.69-4.28-11.89.25-8.73.38-14.41.38-17.04s.17-4.41.53-5.54c.34-1.11,1-1.89,1.99-2.31,1.61-.76,2.54-1.22,2.76-1.41.94-.76,1.43-1.76,1.43-3.03,0-2.57-1.65-4.23-4.92-4.94-3.34-.76-7.53-1.15-12.59-1.15-4.59,0-8.58.34-11.93,1.01-1.69.33-3.04.94-4.08,1.86-1.02.91-1.54,1.95-1.54,3.13,0,1.61,1.02,3.05,3.04,4.35,1.29.85,2.12,1.76,2.49,2.72.39.97.58,2.71.58,5.22,0,1.15-.05,3.51-.14,7.07-.16,5.05-.24,8.68-.24,10.88,0,5.65.56,9.98,1.66,12.97s3.09,5.62,5.97,7.89c5.91,4.63,13.78,6.93,23.61,6.93,5.63,0,10.68-.82,15.14-2.45,7.38-2.63,12.17-6.87,14.33-12.74,1.02-2.79,1.52-7.52,1.52-14.19h0l.03.03Z"></path><path class="uuid-d26d1676-b344-4aa8-9cd7-1fa2b7056727" d="M108.45,51.84c0,1.18.66,2.17,1.98,2.99,1.52.94,2.45,1.73,2.77,2.38.31.65.49,2.01.49,4.1,0,3.78-.11,7.4-.33,10.83-.19,2.91-.38,4.72-.6,5.46s-.72,1.41-1.52,1.98c-.97.7-1.6,1.22-1.85,1.61-.27.37-.39.93-.39,1.66,0,3.47,4.25,5.2,12.76,5.22,5.33-.02,9.25-.43,11.76-1.28,2.51-.84,3.76-2.15,3.76-3.93,0-.7-.16-1.32-.5-1.87-1.29-1.9-2.04-3.19-2.27-3.85-.22-.67-.34-1.89-.34-3.67v-8.98c0-3.42.39-5.77,1.14-7.07.77-1.3,2.18-1.95,4.23-1.95s3.61.8,4.41,2.4c.99,2,1.47,5.08,1.47,9.26,0,7.2-.61,11.42-1.83,12.69-1.05,1.13-1.66,1.83-1.83,2.12-.19.28-.28.73-.28,1.33,0,1.69.91,2.91,2.71,3.67,1.74.73,4.73,1.1,8.95,1.1,6.22,0,10.54-.4,12.95-1.19,2.43-.77,3.64-2.17,3.64-4.16,0-.88-.24-1.56-.69-2.04-1.57-1.63-2.51-2.74-2.82-3.31-.33-.57-.52-1.47-.58-2.68l-.64-15.96c-.19-3.71-.66-6.53-1.43-8.45-.77-1.92-2.12-3.59-4.04-5.01-2.74-2-6.05-2.99-9.91-2.99-5.03,0-8.86,1.87-11.49,5.62-.83,1.15-1.6,1.72-2.34,1.72-1.22,0-1.83-.73-1.83-2.17,0-.19.02-.4.05-.63.02-.67.03-1.05.03-1.15,0-.9-.31-1.69-.94-2.35-.63-.67-1.4-.99-2.32-.99-1,0-2.87.34-5.6,1.05s-5.55,1.58-8.5,2.62c-3.34,1.18-5.53,2.15-6.62,2.93-1.07.77-1.6,1.76-1.6,2.97h0v-.03Z"></path><path class="uuid-d26d1676-b344-4aa8-9cd7-1fa2b7056727" d="M175.27,46.93c-2.48.94-3.72,2.37-3.72,4.27,0,1.59.94,2.8,2.84,3.62,1.54.67,2.4,1.63,2.57,2.86.06.45.17,2.04.3,4.78.14,2.72.22,4.6.22,5.6,0,3.11-.2,5.45-.61,7.03-.39,1.56-1.07,2.69-2.01,3.39-1.38,1.01-2.24,1.73-2.59,2.18-.33.45-.5,1.08-.5,1.9,0,.97.33,1.83.99,2.58.66.76,1.52,1.28,2.6,1.59,3.15.84,7.42,1.27,12.81,1.27,10.02,0,15.02-1.95,15.02-5.85,0-.73-.16-1.33-.49-1.8-.31-.46-.96-1.04-1.9-1.7-1.16-.82-1.94-1.7-2.32-2.68-.39-.96-.58-2.49-.58-4.58v-26.34c0-1.87-.83-2.8-2.52-2.8-2.15,0-5.17.45-9.09,1.35-3.92.91-7.59,2.01-11.02,3.31h0v.02Z"></path><path class="uuid-d26d1676-b344-4aa8-9cd7-1fa2b7056727" d="M204.57,44.48c-.67.42-1.02,1.08-1.05,2v2c0,1.05.13,1.73.36,2.01.25.29.82.43,1.71.43h4.73c.71,0,1.13.08,1.3.25s.25.6.25,1.3v20.94c0,4.47,1.49,8.08,4.45,10.82,2.98,2.74,6.91,4.1,11.81,4.1,6.19,0,11.46-1.83,15.8-5.48,2.09-1.73,3.12-3.53,3.12-5.4,0-1.02-.3-1.98-.91-2.86-.61-.87-1.29-1.32-2.02-1.32-.45,0-.92.14-1.38.42-1.96,1.08-3.54,1.63-4.73,1.63-1.41,0-2.56-.57-3.46-1.72-.91-1.15-1.35-2.63-1.35-4.44v-15.32c0-.85.14-1.42.45-1.73.3-.29.89-.45,1.74-.45h8.31c1.14,0,1.93-.28,2.35-.84.42-.56.64-1.56.64-3.02v-2.68c0-1.33-.17-2.2-.5-2.6-.34-.42-1.08-.62-2.21-.62h-8.5c-.94,0-1.57-.14-1.87-.4-.28-.28-.42-.87-.42-1.78v-6.11c0-1.02-.14-1.72-.39-2.06-.27-.36-.78-.53-1.54-.53h-3.73c-.77,0-1.41.14-1.93.4l-21.04,13.06h.01Z"></path><path class="uuid-d26d1676-b344-4aa8-9cd7-1fa2b7056727" d="M278.47,55.64c0,1.78-.97,2.68-2.93,2.68h-4.64c-1.11,0-1.88-.19-2.32-.56-.45-.36-.67-.99-.67-1.9,0-1.27.45-2.52,1.38-3.76.99-1.33,2.34-2,4.04-2,1.54,0,2.77.53,3.72,1.55.96,1.02,1.43,2.35,1.43,3.99h0ZM253.34,51.74c-3.12,4.06-4.67,8.61-4.67,13.7,0,3.78.89,7.37,2.7,10.79,1.38,2.57,3.14,4.75,5.24,6.58,4.36,3.68,9.75,5.53,16.18,5.53s11.98-1.8,16.85-5.4c2.76-2.01,4.14-4.12,4.14-6.3,0-1.02-.39-2.03-1.16-2.99-.75-.98-1.54-1.46-2.34-1.46-.61,0-1.44.37-2.48,1.08-1.16.82-2.65,1.52-4.44,2.07-1.79.56-3.42.84-4.89.84-2.48,0-4.8-.87-6.96-2.62-2.16-1.73-3.23-3.58-3.23-5.54,0-.82.47-1.24,1.41-1.24h21.59c1.32,0,2.4-.62,3.21-1.87.83-1.25,1.25-2.86,1.25-4.83,0-2.41-.72-4.91-2.16-7.44-1.25-2.23-2.92-4.16-4.97-5.8-4.06-3.27-9.01-4.89-14.83-4.89-3.64,0-7.02.65-10.14,1.95-4.17,1.72-7.6,4.33-10.3,7.85h0Z"></path><path class="uuid-d26d1676-b344-4aa8-9cd7-1fa2b7056727" d="M332.62,40.77c0,2.6-.49,3.9-1.46,3.9-.28,0-.64-.12-1.11-.37-2.81-1.56-5.99-2.35-9.55-2.35-3.09,0-6.22.82-9.42,2.45-3.79,1.97-6.79,4.78-9,8.44-2.38,3.96-3.57,8.08-3.57,12.34,0,3.62.91,7.21,2.74,10.74,1.38,2.72,3.2,5.12,5.42,7.21,3.79,3.48,8.07,5.22,12.82,5.22,3.83,0,7.29-1.25,10.43-3.76,1.1-.91,1.91-1.36,2.43-1.36.94,0,1.5.77,1.65,2.31.09,1.1.28,1.78.58,2.07.3.28.92.43,1.91.43,4.44,0,8.87-.57,13.31-1.69,4.94-1.27,7.4-3.11,7.4-5.53,0-.82-.19-1.52-.58-2.09-.38-.57-1.13-1.24-2.23-2-.91-.63-1.47-1.28-1.68-1.95-.19-.67-.3-2.18-.3-4.54V28.84c0-2.48-1.32-3.71-3.95-3.71s-7.92,1.07-15.76,3.22c-4.44,1.24-6.66,2.96-6.66,5.17,0,1.52.97,2.57,2.9,3.17,1.38.42,2.34.93,2.87,1.52s.8,1.45.8,2.57h.01ZM322.76,54.78c1.16-2.09,2.73-3.13,4.72-3.13,1.6.06,2.81.7,3.64,1.9,1.07,1.55,1.6,4.64,1.6,9.3,0,5.08-.44,8.76-1.35,11.04s-2.35,3.42-4.34,3.42c-1.83,0-3.29-.76-4.36-2.26-1.51-2.09-2.26-5.19-2.26-9.3,0-4.54.78-8.19,2.35-10.97h0Z"></path><path class="uuid-d26d1676-b344-4aa8-9cd7-1fa2b7056727" d="M193.96,36.19c2.37-1.36,3.54-3.2,3.54-5.53,0-1.67-.78-2.99-2.35-3.98-1.55-.98-3.67-1.47-6.33-1.47-3.34,0-6.91.76-10.74,2.26-3.78,1.49-5.66,3.53-5.66,6.13,0,1.93.89,3.45,2.67,4.54,1.32.85,3.09,1.27,5.33,1.27,5.3,0,9.81-1.07,13.55-3.22h0Z"></path><polygon class="uuid-cb996b2c-a8f6-4e7d-97de-9dbacb186fa6" points="2.33 104.38 2.33 181.9 503.72 181.9 503.72 104.13 262.52 104.13 2.33 104.38"></polygon><path class="uuid-d26d1676-b344-4aa8-9cd7-1fa2b7056727" d="M78.74,146.47c0,13.44-4.47,20.17-13.42,20.17-1.93,0-3.31-.4-4.14-1.21-.83-.81-1.24-2.15-1.24-4.06v-35.15c0-1.36.3-2.32.89-2.9.6-.57,1.63-.87,3.11-.87,5.48,0,9.39,2.26,11.68,6.77,2.09,4.08,3.12,9.83,3.12,17.25h0ZM46.96,175.44h3.31c2.81,0,6.08.06,9.8.19l4.77.14,5.57.17c4.18,0,8.1-.6,11.77-1.81,6.25-2.06,11.16-5.63,14.71-10.71,1.73-2.51,3.09-5.49,4.1-8.93,1.02-3.44,1.52-6.87,1.52-10.29,0-6.77-1.37-12.62-4.1-17.53-3.06-5.56-7.63-9.53-13.71-11.89-4.08-1.58-9.62-2.36-16.64-2.36-1.76,0-3.22.03-4.38.08-5.51.28-10.47.42-14.85.42-1.16,0-3.03-.05-5.6-.14-1.18-.03-2.18-.05-3.05-.05-2.61,0-4.63.42-6.09,1.26-1.46.82-2.18,1.98-2.18,3.47,0,1.91,1.05,3.25,3.17,4.05,1.48.51,2.4,1.19,2.81,2.03.39.85.6,2.54.6,5.08,0,6.48-.11,13-.3,19.58-.2,6.57-.42,10.99-.67,13.27-.24,1.97-.58,3.29-1,3.97-.44.68-1.26,1.18-2.48,1.47-1.29.37-2.23.84-2.79,1.44-.57.59-.85,1.41-.85,2.46,0,1.52.64,2.74,1.93,3.67,1.29.95,2.97,1.41,5.02,1.41.58,0,1.62-.06,3.12-.17,2.39-.19,4.55-.28,6.48-.28h.01Z"></path><path class="uuid-d26d1676-b344-4aa8-9cd7-1fa2b7056727" d="M130.89,140.04c.68,1.44,1,3.77,1,6.98,0,1.27-.22,2.08-.68,2.43-.47.34-1.59.51-3.36.51-8.01.03-14.02,1.95-18.04,5.77-2.57,2.43-3.86,5.21-3.86,8.37,0,1.97.47,3.84,1.43,5.64.94,1.8,2.25,3.27,3.86,4.39,2.48,1.69,5.73,2.54,9.75,2.54s7.38-1.1,10.44-3.32c1.02-.76,1.82-1.13,2.43-1.13.57,0,1.16.39,1.81,1.18,1.87,2.19,4.41,3.27,7.63,3.27,2.51,0,4.91-.67,7.22-2,1.87-1.05,3.39-2.37,4.57-3.95,1.19-1.57,1.77-3.08,1.77-4.54,0-1.12-.49-1.75-1.46-1.91-.99-.15-1.63-.31-1.93-.5-.31-.19-.64-.6-.97-1.27-.67-1.4-1.02-4.43-1.02-9.13l.09-6.76c0-3.21-.39-5.73-1.16-7.56-.79-1.83-2.17-3.46-4.13-4.88-3.71-2.67-8.23-4-13.56-4-6.04,0-11.84,1.46-17.38,4.36-2.03,1.1-3.63,2.37-4.8,3.81-1.19,1.46-1.77,2.91-1.77,4.37s.47,2.57,1.43,3.44c.94.88,2.17,1.32,3.67,1.32,2.97,0,5.82-1.92,8.56-5.77,1.07-1.46,1.96-2.45,2.68-2.99.72-.54,1.54-.82,2.46-.82,1.54,0,2.64.73,3.31,2.15h0ZM126.13,158.1c.99-1.1,2.17-1.64,3.52-1.64.97.03,1.65.34,1.99.91.36.57.53,1.69.53,3.36,0,4.08-1.22,6.12-3.67,6.12-1.18,0-2.1-.45-2.81-1.33-.71-.9-1.05-2.06-1.05-3.52s.49-2.82,1.49-3.91h0Z"></path><path class="uuid-d26d1676-b344-4aa8-9cd7-1fa2b7056727" d="M159.04,139.48c0,1.6.94,2.81,2.84,3.63,1.54.67,2.4,1.63,2.57,2.87.06.45.17,2.05.3,4.79.14,2.73.22,4.6.22,5.61,0,3.12-.2,5.46-.61,7.04-.39,1.57-1.07,2.7-2.01,3.39-1.38,1.01-2.25,1.74-2.59,2.19-.33.45-.5,1.09-.5,1.91,0,.98.33,1.83.99,2.59s1.52,1.29,2.61,1.6c3.16.84,7.43,1.27,12.83,1.27,10.03,0,15.04-1.95,15.04-5.86,0-.73-.16-1.33-.49-1.8-.31-.47-.96-1.04-1.9-1.7-1.16-.82-1.95-1.7-2.32-2.68-.39-.96-.58-2.5-.58-4.59v-26.38c0-1.88-.83-2.81-2.53-2.81-2.15,0-5.18.45-9.11,1.35-3.93.91-7.6,2.01-11.04,3.32-2.48.95-3.72,2.37-3.72,4.28h0v-.02Z"></path><path class="uuid-d26d1676-b344-4aa8-9cd7-1fa2b7056727" d="M167.91,127.67c5.31,0,9.83-1.07,13.56-3.22,2.37-1.36,3.55-3.21,3.55-5.53,0-1.67-.79-2.99-2.35-3.98-1.55-.98-3.67-1.47-6.34-1.47-3.34,0-6.92.76-10.75,2.26-3.78,1.49-5.67,3.53-5.67,6.14,0,1.94.89,3.46,2.67,4.54,1.32.85,3.09,1.27,5.34,1.27h0Z"></path><path class="uuid-d26d1676-b344-4aa8-9cd7-1fa2b7056727" d="M198.18,144.58c.31.59.46,1.57.46,2.93,0,7.46-.24,12.55-.72,15.3-.13.82-.36,1.47-.69,1.94-.35.46-.96.99-1.85,1.57-1.84,1.24-2.75,2.65-2.75,4.23,0,2.08,1.26,3.55,3.77,4.4,2.83.93,6.94,1.41,12.37,1.41,5.7,0,10.03-.31,12.97-.91,1.48-.31,2.65-.91,3.55-1.84.88-.91,1.33-2,1.33-3.24,0-2.03-1.38-3.46-4.14-4.28-1.26-.36-2.07-.71-2.46-1.05-.38-.36-.67-.98-.89-1.89-.33-1.66-.5-4.79-.5-9.35,0-3.07.13-5.07.39-6.03.25-.95.82-1.43,1.68-1.43.55,0,1.15.33,1.79.96,1.71,1.66,3.11,2.76,4.16,3.3,1.07.56,2.37.82,3.94.82,2.84,0,5.26-.91,7.22-2.77,1.07-.96,1.95-2.2,2.62-3.69.66-1.5,1-2.96,1-4.39,0-1.27-.28-2.6-.83-3.97-.55-1.38-1.26-2.51-2.12-3.39-1.77-1.78-4.05-2.67-6.85-2.67-3.96,0-7.16,1.89-9.61,5.67-.55.87-1.15,1.32-1.76,1.32-.79,0-1.27-.67-1.41-2-.28-2.45-.6-3.91-.96-4.36-.35-.47-1.33-.68-2.97-.68-3.3.03-7.32.73-12.04,2.12-3.53,1.04-6.04,2.08-7.55,3.12-1.49,1.04-2.25,2.29-2.25,3.75,0,1.6,1.08,2.82,3.27,3.67.93.36,1.54.84,1.84,1.43h0Z"></path><path class="uuid-8ff0d945-69c8-46f7-a73c-804ef54bf583" d="M246.57,187.7H.67l-.43,41.39v28.37c0,24.57,22.77,29.29,25.97,29.22h449.19c28.57,0,27.38-31.98,27.38-31.98v-66.99H246.57Z"></path><path class="uuid-d26d1676-b344-4aa8-9cd7-1fa2b7056727" d="M251.73,147.2l11.08,23.3c1.59,3.32,2.39,5.7,2.39,7.13,0,1.21-.31,2.22-.96,3.04-.66.82-1.44,1.22-2.4,1.22-1.19,0-1.96-.67-2.29-2-.44-1.75-.75-2.88-.97-3.41-.2-.51-.64-1.1-1.29-1.77-1.35-1.46-3.12-2.19-5.34-2.19s-4.07.81-5.59,2.39c-1.51,1.6-2.28,3.55-2.28,5.89,0,.37.02.74.06,1.09.25,2.32,1.33,4.28,3.21,5.85,2.83,2.36,6.5,3.53,11.04,3.53,5.62,0,10.42-1.88,14.4-5.63,1.19-1.11,2.29-2.36,3.32-3.76.65-.89,1.27-1.84,1.87-2.84,1.52-2.59,3.03-5.92,4.54-10.01l6.06-16.49c1.76-4.65,3.3-8,4.65-10.03.86-1.27,2.03-2.19,3.5-2.73,1.74-.6,2.95-1.24,3.61-1.92.66-.68.99-1.58.99-2.71,0-3.08-3.25-4.62-9.75-4.62-3.5,0-6.3.45-8.37,1.38-2.09.91-3.14,2.15-3.14,3.7,0,.96.58,2.12,1.76,3.49.75.88,1.15,2.01,1.15,3.41,0,1.72-.5,3.52-1.52,5.38-1,1.86-1.99,2.79-2.94,2.79s-1.92-1.05-3.09-3.18c-1.04-1.88-1.71-3.21-2.04-4-.31-.78-.49-1.53-.49-2.26s.35-1.63,1.02-2.59c.71-1.02,1.05-1.92,1.05-2.68,0-2.12-1.26-3.61-3.77-4.49-1.87-.67-4.43-.99-7.68-.99-4.63,0-8.76.31-12.37.95-5.43.98-8.15,2.81-8.15,5.5,0,.67.22,1.35.66,2.06.46.71.97,1.19,1.6,1.43,1.99.88,3.28,1.63,3.86,2.23.58.6,1.44,2.11,2.62,4.54h-.01Z"></path><path class="uuid-d26d1676-b344-4aa8-9cd7-1fa2b7056727" d="M38.32,241.7c0,2.89-.27,9.11-1.15,11.57-1.86,4.64-6.66,2.37-6.66,7.27,0,3.77,2.31,5.78,16.51,5.78,21.55,0,20.75-3.85,20.75-5.87,0-6.66-8.95.53-8.59-12.44.09-9.02-.44-9.73,3.46-9.73,9.48,0,3.62,9.9,9.3,9.9,6.03,0,6.48-10.6,6.48-14.72,0-3.42-.35-12.97-5.41-12.97-6.21,0-1.86,8.06-8.7,8.06-5.13,0-5.22-1.49-5.22-3.07,0-12.7,2.31-12.27,7.71-12.27,17.04,0,13.84,9.02,19.97,9.02,3.37,0,4.79-3.07,4.79-6.05,0-5.96-3.64-13.14-7.1-13.14-1.24,0-19.08.88-20.86.88-7.35,0-23.33-.88-25.63-.88-2.84,0-6.74,1.4-6.74,4.73,0,4.82,5.77,1.58,6.83,9.11.44,3.42.36,9.02.27,12.62v12.18h0v.02Z"></path><path class="uuid-d26d1676-b344-4aa8-9cd7-1fa2b7056727" d="M113.66,228.21c4.08,0,4.17,6.05,4.17,8.94,0,3.15-1.24,2.98-3.99,2.98-15.62,0-21.65,7.71-21.65,13.93,0,8.67,7.37,12.53,14.73,12.53,4.08,0,6.74-1.14,8.7-2.28,1.95-1.05,3.11-2.19,4.17-2.19,2.22,0,2.4,4.47,9.41,4.47,6.48,0,13.4-5.43,13.4-10.43,0-4.73-5.32,3.68-5.32-11.74v-8.76c0-13.14-13.84-15.07-18.9-15.07-8.43,0-23.43,4.82-23.43,12.27,0,2.8,2.13,4.82,4.97,4.82,7.9,0,8.43-9.46,13.76-9.46h-.02ZM115.7,246.52c2.48,0,2.4,2.19,2.4,4.12,0,2.63-.27,6.22-3.64,6.22-2.57,0-3.82-2.45-3.82-4.73,0-2.8,2.04-5.61,5.06-5.61h0Z"></path><path class="uuid-d26d1676-b344-4aa8-9cd7-1fa2b7056727" d="M145.26,229.7c0,5.34,5.5.53,5.5,9.11v5.26c0,2.45-.27,7.45-.98,9.64-.98,3.07-5.06,3.07-5.06,6.75,0,6.05,12.07,5.87,16.15,5.87,9.76,0,17.57-.44,17.57-5.96s-6.74-2.89-7.28-6.75c-.44-3.33-.71-7.01-.71-9.64,0-1.58-.44-7.45,2.04-7.45,2.31,0,3.9,4.99,9.67,4.99s10.92-4.64,10.92-10.51-3.9-10.16-9.85-10.16c-7.63,0-8.96,6.92-11.09,6.92-1.51,0-1.42-2.01-1.51-3.07-.35-2.98-.44-3.85-3.82-3.85-.8,0-21.57,1.93-21.57,8.85h.02Z"></path><path class="uuid-d26d1676-b344-4aa8-9cd7-1fa2b7056727" d="M218.65,220.85c-.18,0-22.19,2.45-22.19,8.94,0,2.28,1.24,2.19,2.4,3.15.89.79,2.04,2.37,2.04,7.97v8.06c0,10.95-5.32,8.85-5.32,12.79,0,4.64,10.47,4.56,13.93,4.56,12.16,0,14.2-3.07,14.2-5.34,0-3.15-2.4-2.63-2.4-10.69v-7.1c0-3.24-.44-9.2,4.53-9.2s4.61,7.89,4.61,11.04v4.99c.27,10.43-4.17,6.75-4.26,11.39-.09,2.45.62,4.91,14.02,4.91,3.2,0,13.84-.09,13.84-5.52,0-3.24-3.19-1.4-3.19-12.18v-5.43c0-3.24-.44-9.2,4.53-9.2s4.61,7.36,4.61,11.04v7.89c0,5.08-3.11,4.99-3.11,8.24,0,4.56,10.29,5.17,13.22,5.17,3.46,0,13.58-.26,13.58-5.78,0-2.54-3.28-2.98-3.28-8.06v-18.49c0-8.59-5.24-13.14-13.67-13.14-4.53,0-8.08,1.93-10.74,3.85-2.57,2.02-4.17,3.94-4.88,3.94-1.86,0-1.95-7.8-12.51-7.8-5.24,0-8.79,1.93-11.27,3.85-2.48,2.02-3.9,3.94-4.79,3.94-1.86,0-1.51-2.98-1.51-4.03,0-1.84-.18-3.77-2.4-3.77h.01Z"></path><path class="uuid-d26d1676-b344-4aa8-9cd7-1fa2b7056727" d="M315.83,234.17c0,3.15-2.84,2.63-5.24,2.63s-5.32.7-5.32-2.45c0-2.8,2.4-5.78,5.32-5.78,3.28,0,5.24,2.45,5.24,5.61h0ZM311.12,220.58c-13.31,0-24.94,9.81-24.94,23.31,0,11.3,8.25,22.69,24.23,22.69,7.99,0,20.5-4.91,20.5-11.65,0-1.66-1.6-4.38-3.46-4.38s-5.15,3.94-11.8,3.94c-4.17,0-9.94-3.68-9.94-8.06,0-1.49,1.42-1.23,2.4-1.23h19.26c2.84,0,5.5-.79,5.5-6.57,0-6.57-6.66-18.05-21.74-18.05h-.01Z"></path><path class="uuid-d26d1676-b344-4aa8-9cd7-1fa2b7056727" d="M335.53,229.7c0,5.34,5.5.53,5.5,9.11v5.26c0,2.45-.27,7.45-.98,9.64-.98,3.07-5.06,3.07-5.06,6.75,0,6.05,12.07,5.87,16.15,5.87,9.76,0,17.57-.44,17.57-5.96s-6.74-2.89-7.28-6.75c-.44-3.33-.71-7.01-.71-9.64,0-1.58-.44-7.45,2.04-7.45,2.31,0,3.9,4.99,9.67,4.99s10.92-4.64,10.92-10.51-3.9-10.16-9.85-10.16c-7.63,0-8.96,6.92-11.09,6.92-1.51,0-1.42-2.01-1.51-3.07-.35-2.98-.44-3.85-3.82-3.85-.8,0-21.57,1.93-21.57,8.85h.02Z"></path><path class="uuid-d26d1676-b344-4aa8-9cd7-1fa2b7056727" d="M387.89,234.87c0,14.46,17.39,15.07,17.39,20.24,0,1.93-1.69,2.8-3.46,2.8-4.97,0-8.52-8.67-12.42-8.67-2.57,0-3.37,1.84-3.37,4.12,0,3.33,2.22,8.32,4.44,10.78,1.24,1.4,2.13,1.66,3.9,1.66.62,0,1.15-.09,1.69-.18.62-.09,1.15-.18,1.77-.18.53,0,2.48.26,4.7.53,2.22.35,4.79.61,6.57.61,9.23,0,17.31-5.69,17.31-13.93,0-13.58-19.52-14.63-19.52-20.24,0-1.66,1.6-2.98,3.19-2.98,3.9,0,6.74,6.92,11.8,6.92,2.31,0,4.35-1.75,4.35-4.12,0-3.59-4.08-11.65-8.16-11.65-.8,0-1.6.26-2.4.53-.8.35-1.51.61-2.4.61-.62,0-2.04-.35-3.64-.61-1.69-.35-3.55-.53-5.32-.53-9.14,0-16.42,5.52-16.42,14.28h0Z"></path></g></svg>