<svg xmlns="http://www.w3.org/2000/svg" xmlns:xlink="http://www.w3.org/1999/xlink" id="uuid-b9ef3917-e814-4e8d-b265-556b0a4d8007" data-name="Layer 1" viewBox="0 0 1540.6 117"><defs><style>      .uuid-a4c4d886-4a76-47d4-a88f-bad1fffa064f {        fill: none;      }      .uuid-f420a482-b0e0-4977-99aa-701914930bed {        clip-path: url(#uuid-e13c02d0-dc2e-4009-a2e8-e89059663e31);      }      .uuid-1a37d222-7556-457c-aee9-292b1bf2095e {        fill: #fff;      }      .uuid-1a37d222-7556-457c-aee9-292b1bf2095e, .uuid-47f86685-2cf2-4c1f-b371-311abccf14b4 {        fill-rule: evenodd;      }      .uuid-47f86685-2cf2-4c1f-b371-311abccf14b4 {        fill: #ed1c29;      }    </style><clipPath id="uuid-e13c02d0-dc2e-4009-a2e8-e89059663e31"><path class="uuid-a4c4d886-4a76-47d4-a88f-bad1fffa064f" d="M882.52,5.85l-32.39,108.39h-28.05l-19.29-64.63-19.32,64.63h-28.05l-32.39-108.39h26.01l20.39,68.34,20.42-68.34h25.85l20.39,68.34,20.39-68.34h26.04ZM380.66,30.04v24.51c-11.25.29-19.16,2.63-19.16,14.96v44.73h-24.29V32.83h22.83v8.65h.29c2.05-3.93,6.29-11.44,20.33-11.44h0ZM412.85,4.1c2.62,2.63,4.1,6.2,4.1,9.91s-1.48,7.28-4.1,9.91c-2.62,2.63-6.17,4.11-9.88,4.11s-7.26-1.48-9.88-4.11c-2.63-2.63-4.1-6.19-4.1-9.91s1.47-7.28,4.1-9.91c2.63-2.63,6.17-4.1,9.88-4.1s7.26,1.48,9.88,4.1ZM390.81,32.83h24.28v81.41h-24.28V32.83ZM67.12,5.85l32.39,108.39h-26l-6.42-21.52h-34.66l-6.42,21.52H0L32.4,5.85h34.72ZM60.56,71l-10.82-36.25-10.83,36.25s21.66,0,21.65,0ZM1281.08,38.26c7.61,8.07,8.78,13.49,8.78,31.53v44.45h-24.28v-43.27c0-6.6,0-18.05-12.45-18.05-13.46,0-13.46,12.33-13.46,16.87v44.45h-24.28v-44.31c0-4.39,0-17.01-12.16-17.01-13.75,0-13.75,13.2-13.75,18.04v43.28h-24.29V32.83h22.67v8.65h.29c1.88-3.38,7.17-11.44,22.37-11.44,7.17,0,16.99,2.5,23.41,14.53,4.96-7.93,13.3-14.53,25.75-14.53,5.71,0,14.78,1.33,21.4,8.22h0ZM484.09,83.32h24.71c-4.38,18.47-20.63,33.58-42.58,33.58-24.57,0-43.45-19.37-43.45-43.56s18.59-43.27,42.87-43.27c21.5,0,38.91,14.21,43,34.17h-24.58c-2.63-5.56-7.46-11.45-17.54-11.45-11.58-.58-19.33,8.95-19.33,20.68s7.78,20.67,19.33,20.67c10.08,0,14.91-5.85,17.57-10.82h0ZM223.63,38.26c7.62,8.07,8.78,13.49,8.78,31.53v44.45h-24.28v-43.27c0-6.6,0-18.05-12.42-18.05-13.46,0-13.46,12.33-13.46,16.87v44.45h-24.28v-44.31c0-4.39,0-17.01-12.13-17.01-13.75,0-13.75,13.2-13.75,18.04v43.28h-24.28V32.83h22.66v8.65h.3c1.88-3.38,7.16-11.44,22.37-11.44,7.16,0,16.95,2.5,23.41,14.53,4.96-7.93,13.29-14.53,25.74-14.53,5.71,0,14.79,1.33,21.34,8.22h0ZM1507.53,73.57l32.23,40.57h-27.86l-32.16-40.51,32.16-40.67h27.86s-32.23,40.61-32.23,40.61ZM327.09,74.51c0,3.22-.29,4.55-.58,6.47h-60.86c1.46,9.69,9.5,15.41,19.03,15.41,7.46,0,11.41-3.38,14.79-7.64h24.87c-3.96,9.1-9.67,16.12-16.54,20.83-1.67,1.2-3.43,2.26-5.28,3.18-1.84.93-3.74,1.7-5.7,2.32-1.96.63-3.96,1.1-6,1.41-2.03.31-4.08.46-6.14.45-23.24,0-42.99-18.93-42.99-43.11,0-22.73,17.83-43.73,42.57-43.73,24.71-.06,42.83,19.61,42.83,44.41h0ZM302.81,64.53c-1.04-4.84-5.84-13.95-18.42-13.95s-17.42,9.11-18.42,13.95h36.84ZM1055.79,73.47c0,19.96-14.2,43.27-43.74,43.27s-43.74-23.31-43.74-43.27,14.2-43.27,43.74-43.27,43.74,23.31,43.74,43.27ZM1031.51,73.47c0-11.36-8.7-20.55-19.46-20.55s-19.45,9.19-19.45,20.55,8.7,20.54,19.45,20.54,19.46-9.18,19.46-20.54ZM1363.27,32.84h24.28v81.4h-24.28v-8.81h-.29c-4.08,7.93-14.2,11.57-23.7,11.57-25.75,0-40.82-20.25-40.82-43.56,0-26.69,19.16-43.43,40.82-43.43,13.33,0,20.78,6.47,23.7,11.44h.29s0-8.62,0-8.61ZM1363.27,73.47c0-9.82-6.74-20.68-20.49-20.68s-20.04,11.74-20.04,20.97c0,7.64,5.55,20.55,20.2,20.55s20.33-12.91,20.33-20.84h0ZM961.76,73.47c0,19.96-14.2,43.27-43.74,43.27s-43.74-23.31-43.74-43.27,14.2-43.27,43.74-43.27,43.74,23.31,43.74,43.27ZM937.48,73.47c0-11.36-8.7-20.55-19.46-20.55s-19.45,9.19-19.45,20.55,8.69,20.54,19.45,20.54,19.46-9.18,19.46-20.54ZM1126.83,5.69h24.29v108.55h-23.11v-8.81h-.3c-2.04,3.38-7.91,11.44-24.28,11.44-24.58,0-40.67-19.08-40.67-43.56,0-27.57,19.62-43.27,40.24-43.27,14.34,0,21.21,7.05,23.84,9.69,0,0,0-34.04-.01-34.04h0ZM1128.17,73.18c0-9.82-7.04-20.39-20.5-20.39s-20.62,10.99-20.62,20.39c0,12.61,8.92,20.97,20.33,20.97,15.21,0,20.78-12.46,20.79-20.97ZM1479.74,5.72v108.55h-24.38V5.72h24.38ZM1445.21,30.04v24.51c-11.26.29-19.17,2.63-19.17,14.96v44.73h-24.28V32.83h22.83v8.65h.29c2.04-3.93,6.29-11.44,20.33-11.44h0ZM580,32.83h24.28v81.41h-24.28v-8.81h-.29c-4.08,7.93-14.2,11.57-23.7,11.57-25.75,0-40.82-20.25-40.82-43.56,0-26.69,19.16-43.43,40.82-43.43,13.32,0,20.78,6.47,23.7,11.44h.29v-8.62ZM580,73.46c0-9.81-6.74-20.67-20.49-20.67s-20.04,11.74-20.04,20.97c0,7.64,5.54,20.54,20.2,20.54s20.33-12.9,20.33-20.84h0ZM693.45,63.36v50.91h-24.28v-44.44c0-5.73,0-16.88-12.74-16.88-13.92,0-13.92,12.03-13.92,17v44.28h-24.28V32.83h22.67v8.65h.29c2.46-3.97,7.58-11.45,22.08-11.45,7.75,0,16.4,3.26,20.78,7.06,4.38,3.8,9.34,10.27,9.4,26.27Z"></path></clipPath></defs><g id="uuid-585db036-6cd7-4c90-94ae-8023045bf760" data-name="Layer"><path id="uuid-a22f5ca6-4b39-4f21-861e-c3ecd064cb31" data-name="uexjpqusma" class="uuid-1a37d222-7556-457c-aee9-292b1bf2095e" d="M882.5,5.9l-32.4,108.3h-28l-19.3-64.6-19.3,64.6h-28.1l-32.4-108.3h26l20.4,68.3,20.5-68.3h25.8l20.4,68.3,20.4-68.3h26,0ZM380.6,30v24.5c-11.2.3-19.1,2.7-19.1,15v44.7h-24.3V32.8h22.8v8.7h.3c2-4,6.3-11.5,20.3-11.5h0ZM412.8,4.1c2.6,2.6,4.1,6.2,4.1,9.9s-1.5,7.3-4.1,9.9-6.2,4.1-9.9,4.1-7.2-1.5-9.9-4.1c-2.6-2.6-4-6.2-4-9.9s1.4-7.3,4-9.9c2.7-2.6,6.2-4.1,9.9-4.1s7.3,1.5,9.9,4.1ZM390.8,32.8h24.3v81.4h-24.3V32.8ZM67.1,5.8l32.4,108.4h-26l-6.4-21.5h-34.7l-6.4,21.5H0L32.4,5.8s34.7,0,34.7,0ZM60.5,71l-10.8-36.2-10.9,36.2s21.7,0,21.7,0ZM1281,38.3c7.6,8,8.8,13.5,8.8,31.5v44.4h-24.3v-43.2c0-6.6,0-18.1-12.4-18.1-13.5,0-13.5,12.3-13.5,16.9v44.4h-24.3v-44.3c0-4.4,0-17-12.1-17-13.8,0-13.8,13.2-13.8,18.1v43.2h-24.3V32.8h22.7v8.7h.3c1.9-3.4,7.2-11.5,22.4-11.5,7.1,0,17,2.5,23.4,14.6,4.9-8,13.3-14.6,25.7-14.6,5.7,0,14.8,1.4,21.4,8.3h0ZM484,83.3h24.7c-4.3,18.5-20.6,33.6-42.5,33.6-24.6,0-43.5-19.4-43.5-43.6s18.6-43.2,42.9-43.2c21.5,0,38.9,14.2,43,34.1h-24.6c-2.6-5.5-7.5-11.4-17.5-11.4-11.6-.6-19.4,8.9-19.4,20.7s7.8,20.6,19.4,20.6c10,0,14.9-5.8,17.5-10.8ZM223.6,38.3c7.6,8,8.8,13.5,8.8,31.5v44.4h-24.3v-43.2c0-6.6,0-18.1-12.5-18.1-13.4,0-13.4,12.3-13.4,16.9v44.4h-24.3v-44.3c0-4.4,0-17-12.1-17-13.8,0-13.8,13.2-13.8,18.1v43.2h-24.3V32.8h22.7v8.7h.3c1.9-3.4,7.2-11.5,22.4-11.5,7.1,0,16.9,2.5,23.4,14.6,4.9-8,13.3-14.6,25.7-14.6,5.7,0,14.8,1.4,21.4,8.3h0ZM1507.5,73.6l32.2,40.5h-27.9l-32.1-40.5,32.1-40.6h27.9l-32.2,40.6ZM327,74.5c0,3.2-.3,4.6-.6,6.5h-60.8c1.4,9.7,9.5,15.4,19,15.4,7.5,0,11.4-3.4,14.8-7.7h24.9c-4,9.2-9.7,16.2-16.6,20.9-1.67,1.2-3.4,2.27-5.2,3.2-1.87.87-3.77,1.63-5.7,2.3-2,.6-4,1.07-6,1.4-2.07.33-4.13.47-6.2.4-23.2,0-43-18.9-43-43.1,0-22.7,17.9-43.7,42.6-43.7,24.7-.1,42.8,19.6,42.8,44.4h0ZM302.7,64.5c-1-4.8-5.8-13.9-18.4-13.9s-17.4,9.1-18.4,13.9h36.8ZM1055.7,73.5c0,19.9-14.2,43.2-43.7,43.2s-43.7-23.3-43.7-43.2,14.2-43.3,43.7-43.3,43.7,23.3,43.7,43.3ZM1031.4,73.5c0-11.4-8.6-20.6-19.4-20.6s-19.5,9.2-19.5,20.6,8.7,20.5,19.5,20.5,19.4-9.2,19.4-20.5ZM1363.2,32.8h24.3v81.4h-24.3v-8.8h-.3c-4.1,8-14.2,11.6-23.7,11.6-25.7,0-40.8-20.2-40.8-43.6,0-26.7,19.2-43.4,40.8-43.4,13.3,0,20.8,6.5,23.7,11.4h.3s0-8.6,0-8.6ZM1363.2,73.5c0-9.8-6.7-20.7-20.5-20.7s-20,11.7-20,21c0,7.6,5.5,20.5,20.2,20.5s20.3-12.9,20.3-20.8ZM961.7,73.5c0,19.9-14.2,43.2-43.7,43.2s-43.8-23.3-43.8-43.2,14.2-43.3,43.8-43.3,43.7,23.3,43.7,43.3ZM937.4,73.5c0-11.4-8.7-20.6-19.4-20.6s-19.5,9.2-19.5,20.6,8.7,20.5,19.5,20.5,19.4-9.2,19.4-20.5ZM1126.8,5.7h24.3v108.5h-23.2v-8.8h-.3c-2,3.4-7.9,11.5-24.2,11.5-24.6,0-40.7-19.1-40.7-43.6,0-27.6,19.6-43.3,40.2-43.3,14.4,0,21.2,7.1,23.9,9.7V5.7h0ZM1128.1,73.2c0-9.8-7-20.4-20.5-20.4s-20.6,11-20.6,20.4c0,12.6,8.9,20.9,20.3,20.9,15.2,0,20.8-12.4,20.8-20.9h0ZM1479.7,5.7v108.6h-24.4V5.7h24.4ZM1445.1,30v24.5c-11.2.3-19.1,2.7-19.1,15v44.7h-24.3V32.8h22.8v8.7h.3c2.1-4,6.3-11.5,20.3-11.5h0ZM579.9,32.8h24.3v81.4h-24.3v-8.8h-.2c-4.1,8-14.3,11.6-23.8,11.6-25.7,0-40.8-20.2-40.8-43.6,0-26.7,19.2-43.4,40.8-43.4,13.4,0,20.8,6.5,23.7,11.4h.3s0-8.6,0-8.6ZM579.9,73.5c0-9.8-6.7-20.7-20.5-20.7s-20,11.7-20,21c0,7.6,5.6,20.5,20.2,20.5s20.3-12.9,20.3-20.8ZM693.4,63.4v50.9h-24.3v-44.5c0-5.7,0-16.8-12.7-16.8-13.9,0-13.9,12-13.9,17v44.3h-24.3V32.8h22.6v8.7h.3c2.5-4,7.6-11.4,22.1-11.4,7.8,0,16.4,3.2,20.8,7,4.4,3.8,9.3,10.3,9.4,26.3h0Z"></path><g class="uuid-f420a482-b0e0-4977-99aa-701914930bed"><g id="uuid-a5e666b0-b018-4c1d-8b76-f2a65b322c53" data-name="Clip-Path"><g id="uuid-eef6f2f7-296b-4ecf-b750-1c3f8dbe9221" data-name="Layer-2"><path id="uuid-c7d26ba6-78f6-4eb3-9690-13c2154c466f" data-name="Layer-3" class="uuid-47f86685-2cf2-4c1f-b371-311abccf14b4" d="M.4,0h1540.2v117H.4V0Z"></path></g></g></g></g></svg>