<svg xmlns="http://www.w3.org/2000/svg" id="uuid-3650332a-30d1-4e17-8e06-5e992646d576" data-name="layer" viewBox="0 0 600.1 84.9"><defs><style>      .uuid-70e23b31-ed34-4b41-8f53-0dbd1208b979 {        fill: #0056d2;      }    </style></defs><path class="uuid-70e23b31-ed34-4b41-8f53-0dbd1208b979" d="M83,42.3C83,19.2,102,.5,125.8.5s43,18.7,43,41.8-19,42-43,42c-23.8-.1-42.8-19.1-42.8-42h0ZM148.2,42.3c0-11.6-10-21.7-22.4-21.7s-22.3,10.2-22.3,21.7,10,21.9,22.3,21.9,22.4-10.2,22.4-21.9h0ZM514.7,43c0-25.3,20.6-42.5,39.3-42.5,12.7,0,20,3.9,25,11.4l2-9.9h19.1v80.7h-19.1l-2.5-8.3c-5.6,6.1-12.6,9.9-24.5,9.9-18.4-.1-39.3-16.2-39.3-41.3h0ZM580,42.8c0-12.2-10.1-22.2-22.3-22.2s-22.3,10.1-22.3,22.3v.1c0,11.2,10,21.2,22.3,21.2s22.3-10,22.3-21.4h0ZM491.2,11.4V2.1h-20.9v80.7h20.9v-43.5c0-13.1,6.5-19.9,17.7-19.9.7,0,1.4.1,2.1.1L514.9,0c-10.9,0-18.8,3.8-23.7,11.4h0ZM281.3,11.4V2.1h-20.9l.2,80.7h20.9l-.1-43.5c0-13.1,6.4-19.9,17.6-19.9.7,0,1.4,0,2.1.1L305,0c-11,0-18.9,3.8-23.7,11.4h0ZM176,51.5V2.1h20.9v46.9c0,10.4,5.8,16.5,15.8,16.5,11.2,0,17.7-6.8,17.7-19.9V2.1h20.9v80.7h-20.9v-9.3c-4.9,7.6-12.9,11.4-24,11.4-18.7-.1-30.4-13.7-30.4-33.4h0ZM379.5,42.4c0-22.6,16.2-41.9,41.9-41.9,23.8,0,40.6,19.1,40.5,41.6,0,2.2-.2,4.4-.5,6.6l-61.5-.1c2.4,9.7,10.3,16.7,22.4,16.7,7.3,0,15.1-2.7,19.9-8.8l14.3,11.4c-7.3,10.4-20.3,16.4-34,16.4-24.4-.1-43.1-18.3-43-41.9h0ZM440.8,34c-1.2-8.2-9.7-14.5-19.7-14.5s-17.5,5.7-20.6,14.4l40.3.1ZM305.1,65.1l18.6-9.7c3.1,6.7,9.2,10.6,17.9,10.6,8,0,11.1-2.6,11.1-6.1,0-13-44-5.1-44-34.8,0-16.4,14.3-25.1,32.1-25.1,13.5,0,25.4,6,31.9,17.1l-18.4,9.7c-2.7-5.5-7.8-8.5-14.3-8.5s-9.4,2.2-9.4,6c0,12.6,44,4.6,44,34.8,0,15.7-12.8,25.2-33.4,25.2-17.7-.1-30-5.9-36.1-19.2h0ZM0,42.3C0,19,19,.3,42.8.3c14.5-.1,28.1,7.1,36.2,19.2l-17.8,10.3c-4.2-6-11-9.5-18.3-9.5-12.2,0-22.3,10.2-22.3,21.9s10,21.9,22.3,21.9c7.7,0,14.8-3.9,18.9-10.4l17.7,10.5c-8,12.4-21.8,20-36.5,19.9-24,.1-43-18.9-43-41.8h0Z"></path></svg>