<svg xmlns="http://www.w3.org/2000/svg" id="uuid-31200add-4822-4c77-a134-dade05e7e407" data-name="Layer 1" viewBox="0 0 165.08 16.01"><path d="M16.47,12.83c0-.09-.04-.19-.11-.25l-1.98-2.03s-.08-.06-.12-.08c-.05-.02-.1-.03-.15-.03-.08,0-.15.03-.22.08,0,0-.01,0-.02,0-1.34,1.13-3.08,2.04-4.76,2.04-2.93,0-4.81-2.09-4.81-4.59s1.84-4.59,4.7-4.59c1.3,0,3.01.58,4.42,1.6h.01c.07.06.16.09.26.08.09,0,.18-.05.24-.12l1.96-2.07c.06-.07.1-.15.1-.24,0-.05-.01-.11-.04-.16s-.06-.09-.11-.12c0,0-.01-.02-.02-.02C13.67.84,11.1.03,8.47,0,3.45,0,0,3.65,0,7.94s3.42,7.95,8.59,7.95c2.84-.02,5.58-1.01,7.75-2.8.04-.03.07-.08.09-.12.02-.05.03-.1.03-.15Z"></path><path d="M32.84,2.71c-1.44-1.47-3.56-2.25-6.44-2.25h-6.73c-.1,0-.2.04-.27.11-.07.07-.11.16-.11.26v14.24c0,.1.04.19.11.26.07.07.17.11.27.11h6.73c3.04,0,4.98-.85,6.32-2.13,1.42-1.35,2.17-3.28,2.17-5.37.03-1.93-.7-3.8-2.05-5.22ZM29.37,11.09c-.68.64-1.49.99-3.07.99h-2.88V3.84h2.88c1.7,0,2.5.42,3.19,1.12.73.76,1.12,1.72,1.12,3.02,0,1.4-.43,2.34-1.24,3.1Z"></path><path d="M53.8,15l-7.11-8.58,6.01-5.47s.05-.06.07-.09c.02-.04.02-.08.02-.11,0-.07-.03-.14-.08-.19-.05-.05-.12-.08-.2-.08h-4.38c-.1,0-.19.04-.26.1l-5.96,5.52V.83c0-.1-.04-.19-.11-.26-.07-.07-.17-.11-.27-.11h-3.39c-.1,0-.19.04-.27.11-.07.07-.11.16-.11.26v14.24c0,.1.04.19.11.25.07.07.16.11.26.11h3.4c.1,0,.2-.04.27-.11.07-.07.11-.16.11-.26v-4.34l1.86-1.72,5.15,6.31s.08.08.13.1c.05.02.1.04.16.04h4.35c.07,0,.15-.03.2-.08.05-.05.08-.12.08-.19,0-.07-.03-.13-.07-.18Z"></path><path d="M76.64,13.35v-6.32c0-.1-.04-.19-.11-.26-.07-.07-.16-.11-.26-.11h-7.62c-.1,0-.19.04-.27.11-.07.07-.11.16-.11.26v2.38s0,.1.03.14c.02.04.05.09.08.12.03.03.08.06.12.08.05.02.1.03.14.03h4.06v2.04c-.87.53-2.12.8-3.28.8-3,0-4.55-2.2-4.55-4.54,0-2.51,1.77-4.59,4.32-4.59,1.33,0,3.16.55,4.55,1.55h.01c.06.05.14.07.22.08.05,0,.1,0,.14-.03.05-.02.09-.05.12-.08l2.06-1.95c.07-.07.11-.16.11-.26,0-.06-.02-.11-.04-.17-.03-.05-.07-.09-.12-.13h0c-2.26-1.56-4.81-2.38-7.09-2.38-4.79,0-8.57,3.56-8.57,7.94s3.7,7.91,8.68,7.91c2.35,0,5.12-.89,7.2-2.32.05-.03.09-.08.12-.13.03-.05.04-.11.04-.16h0Z"></path><path d="M93.08,15.18v-2.64s0-.1-.03-.14-.05-.09-.08-.12c-.03-.03-.08-.06-.12-.08-.05-.02-.1-.03-.14-.03h-8.28V.94s0-.1-.03-.14c-.02-.04-.05-.09-.08-.12-.04-.03-.08-.06-.12-.08-.05-.02-.1-.03-.14-.03h-3.38s-.1,0-.14.03c-.05.02-.09.05-.12.08-.03.03-.06.07-.08.12-.02.04-.03.09-.03.14v14.25s0,.1.03.14c.02.04.05.09.08.12.04.03.08.06.12.08s.1.03.14.03h12.03c.1,0,.19-.04.26-.11.07-.07.11-.16.11-.26h0Z"></path><path d="M165.08,15.18v-2.64c0-.1-.04-.19-.11-.26-.07-.07-.17-.11-.27-.11h-8.28V.94c0-.1-.04-.19-.11-.26-.07-.07-.17-.11-.27-.11h-3.38c-.1,0-.19.04-.26.11-.07.07-.11.16-.11.26v14.25c0,.1.04.19.11.26.07.07.17.11.27.11h12.03c.05,0,.1,0,.14-.03.05-.02.09-.05.12-.08.04-.03.06-.07.08-.12.02-.04.03-.09.03-.14h0Z"></path><path d="M103.61.11c4.91,0,8.85,3.56,8.85,7.92s-3.94,7.98-8.85,7.98-8.75-3.56-8.75-7.98c0-4.36,3.84-7.92,8.75-7.92ZM103.61,12.66c2.55,0,4.56-2.11,4.56-4.63s-2.01-4.54-4.56-4.54-4.49,2.06-4.49,4.55,1.96,4.63,4.49,4.63Z"></path><path d="M128.37,7.22c1.16-.69,1.91-1.77,1.91-2.93-.02-.81-.34-1.58-.92-2.16-.95-.99-2.48-1.56-4.52-1.56h-8.78c-.1,0-.2.04-.27.11-.07.07-.11.16-.11.26v14.24c0,.1.04.19.11.26.07.07.17.11.27.11h9.13c1.98,0,3.3-.39,4.44-1.42.45-.42.81-.92,1.06-1.47.25-.56.38-1.15.38-1.76,0-1.65-.92-2.86-2.7-3.67ZM119.84,3.71h4.48c.76,0,1.08.18,1.35.44.12.12.22.26.28.41.06.15.1.32.09.48,0,.17-.03.34-.09.5-.06.16-.16.3-.28.42-.28.28-.71.42-1.35.42h-4.48v-2.67ZM126.36,11.95c-.31.3-.8.46-1.49.46h-5.03v-3.14h5.03c.68,0,1.11.14,1.49.5.29.29.45.68.45,1.08,0,.41-.15.8-.45,1.1Z"></path><path d="M149.76,15.18c0-.06-.01-.11-.04-.16l-6.79-14.24c-.03-.06-.08-.12-.14-.15-.06-.04-.13-.06-.2-.06h-2.94c-.07,0-.14.02-.2.06s-.11.09-.14.15l-6.8,14.26s-.03.1-.03.15c0,.1.04.19.11.26.07.07.17.11.26.11h3.52c.07,0,.15-.02.21-.06.06-.04.11-.1.14-.17l.86-2.06h6.89l.89,2.06c.03.07.07.13.14.17.06.04.14.06.21.06h3.66c.05,0,.1,0,.15-.03.05-.02.09-.05.13-.08.04-.04.07-.08.08-.13.02-.05.03-.1.03-.15ZM138.91,10.13l2.05-4.79h.14l2.05,4.79h-4.25Z"></path></svg>