<svg xmlns="http://www.w3.org/2000/svg" id="uuid-2e001c2d-8e41-49c1-b439-0beb0aa6640b" data-name="layer" viewBox="0 0 599.9 130.1"><defs><style>      .uuid-80a5d2c5-f8db-4ac3-b12c-9f3459e6f294 {        fill: #0083db;      }    </style></defs><path class="uuid-80a5d2c5-f8db-4ac3-b12c-9f3459e6f294" d="M39.8,79.4v-39.7h39.7v39.7h-39.7ZM39.8,0v19.7h59.5v79.5H19.8V0H0v119h119V0H39.8Z"></path><g><path d="M186,56.7v-1s7.2-1,7.2-9.5v-10c0-10.5-5-15.5-15.5-15.5h-27.5v77.7h28.5c10.5,0,15.5-5,15.5-15.5v-14.5c.3-10.5-8.2-11.7-8.2-11.7ZM162.5,31.7h11.7c5,0,6.7,1.7,6.7,6.7v6.7c0,5-1.7,6.7-6.7,6.7h-11.7v-20.1ZM182.2,80.7c0,5-1.7,6.7-6.7,6.7h-13v-24.5h13c5,0,6.7,1.7,6.7,6.7v11.1Z"></path><polygon points="217.2 87.4 246.4 87.4 246.4 98.4 205 98.4 205 20.7 217.2 20.7 217.2 87.4"></polygon><path d="M298.4,83.9c0,10.5-5,15.5-15.5,15.5h-15.5c-10.5,0-15.5-5-15.5-15.5V20.7h12.2v61.2c0,5,1.7,6.7,6.7,6.7h9c5,0,6.7-1.7,6.7-6.7V20.7h12.2v63.2h-.3Z"></path><polygon points="321.2 53.4 344.4 53.4 344.4 64.4 321.2 64.4 321.2 87.4 352.2 87.4 352.2 98.4 308.9 98.4 308.9 20.7 351.2 20.7 351.2 31.7 321.2 31.7 321.2 53.4"></polygon><polygon points="428.4 53.4 451.9 53.4 451.9 64.4 428.4 64.4 428.4 87.4 459.6 87.4 459.6 98.4 416.1 98.4 416.1 20.7 458.4 20.7 458.4 31.7 428.4 31.7 428.4 53.4"></polygon><path d="M498.1,20.7h-14.2l-19,77.7h13l4-18.2h19l4,18.2h13l-19.8-77.7ZM483.8,68.9l6.7-30h1l6.7,30h-14.4Z"></path><polygon points="549.1 98.4 536.1 50.7 534.8 50.7 534.8 98.4 522.6 98.4 522.6 20.7 538.6 20.7 553.1 74.4 554.3 74.4 569.1 20.7 584.8 20.7 584.8 98.4 572.6 98.4 572.6 50.7 571.6 50.7 558.6 98.4 549.1 98.4"></polygon><path d="M397.1,56.7v-1s7.2-1,7.2-9.5v-10c0-10.5-5-15.5-15.5-15.5h-27.2v77.7h28.5c10.5,0,15.5-5,15.5-15.5v-14.5c0-10.5-8.5-11.7-8.5-11.7ZM373.9,31.7h11.7c5,0,6.7,1.7,6.7,6.7v6.7c0,5-1.7,6.7-6.7,6.7h-11.7v-20.1ZM393.6,80.7c0,5-1.7,6.7-6.7,6.7h-13v-24.5h13c5,0,6.7,1.7,6.7,6.7v11.1Z"></path><g><path d="M305.7,129.6l5.7-15h2.2l6.2,15h-2.5l-1.7-4.5h-6.2l-1.7,4.5h-2ZM309.9,123.4h5l-1.5-4.2c-.5-1.2-.7-2.2-1-3-.2,1-.5,2-.7,2.7l-1.8,4.5Z"></path><path d="M326.4,129.6v-15h2l8,11.7v-11.7h2v15h-2l-8-11.7v11.7h-2Z"></path><path d="M342.2,129.6v-15h10.7v1.7h-9v4.5h8.2v1.7h-8.2v5h9.2v1.7h-11v.4h.1Z"></path><path d="M356.4,129.6v-15h3l3.5,10.7c.2,1,.5,1.7.7,2.2.2-.5.5-1.2.7-2.5l3.5-10.5h2.7v15h-2v-12.5l-4.2,12.5h-1.7l-4.2-12.7v12.7h-2v.1Z"></path><path d="M374.1,129.6v-15h10.7v1.7h-9v4.5h8.2v1.7h-8.2v5h9.2v1.7h-11v.4h.1Z"></path><path d="M392.4,129.6v-13.2h-5v-1.7h12v1.7h-5v13.2h-2Z"></path><path d="M400.9,124.9l2-.2c0,.7.2,1.2.5,1.7.2.5.7.7,1.5,1.2.7.5,1.5.5,2.2.5s1.5,0,2-.2,1-.5,1.2-1,.5-.7.5-1.2-.2-1-.5-1.2c-.2-.2-.7-.7-1.2-1-.5-.2-1.2-.5-2.7-.7s-2.2-.7-3-1c-.7-.5-1.2-.7-1.5-1.5-.2-.5-.5-1.2-.5-1.7,0-.7.2-1.5.7-2.2s1-1.2,2-1.5,1.7-.5,2.7-.5,2,.2,3,.5c.7.2,1.5,1,2,1.5.5.7.7,1.5.7,2.2l-2,.2c0-1-.5-1.7-1-2.2s-1.5-.7-2.5-.7c-1.2,0-2,.2-2.7.7s-.7,1-.7,1.5.2,1,.5,1.2c.5.2,1.5.7,3,1,1.5.2,2.7.7,3.2,1,.7.5,1.5,1,2,1.5s.5,1.2.5,2.2c0,.7-.2,1.5-.7,2.2s-1,1.2-2,1.7c-.7.5-1.7.5-3,.5s-2.5-.2-3.5-.5c-1-.5-1.7-1-2.2-1.7-.3-.6-.5-1.3-.5-2.3Z"></path><path d="M426.6,124.4l2,.5c-.5,1.7-1.2,3-2.2,3.7s-2.5,1.2-4,1.2-3-.2-4-1c-1-.7-1.7-1.5-2.2-2.7s-.7-2.5-.7-4,.2-3,1-4c.5-1.2,1.5-2,2.5-2.7,1-.5,2.2-1,3.7-1s2.7.5,3.7,1.2,1.7,1.7,2.2,3.2l-2,.5c-.2-1-.7-2-1.5-2.5-.7-.5-1.5-.7-2.5-.7-1.2,0-2,.2-3,.7-.7.5-1.2,1.2-1.7,2.2-.2,1-.5,2-.5,3,0,1.2.2,2.5.5,3.2.2,1,1,1.7,1.7,2.2s1.7.7,2.5.7c1,0,2-.2,2.7-1,1.1-.5,1.6-1.5,1.8-2.7Z"></path><path d="M431.4,129.6v-15h2v6.2h7.7v-6.2h2v15h-2v-7h-7.7v7h-2Z"></path><path d="M446.9,129.6v-15h10.7v1.7h-9v4.5h8.2v1.7h-8.2v5h9.2v1.7h-11v.4h.1Z"></path><path d="M461.1,129.6v-15h2v7.5l7.5-7.5h2.7l-6.2,6,6.5,9h-2.5l-5.2-7.5-2.5,2.5v5.2h-2.2v-.2h-.1Z"></path><path d="M492.3,124.4l2,.5c-.5,1.7-1.2,3-2.2,3.7s-2.5,1.2-4,1.2-3-.2-4-1c-1-.7-1.7-1.5-2.2-2.7s-.7-2.5-.7-4,.2-3,1-4c.5-1.2,1.5-2,2.5-2.7,1-.5,2.2-1,3.7-1s2.7.5,3.7,1.2,1.7,1.7,2.2,3.2l-2,.5c-.2-1-.7-2-1.5-2.5-.7-.5-1.5-.7-2.5-.7-1.2,0-2,.2-3,.7-.7.5-1.2,1.2-1.7,2.2-.2,1-.5,2-.5,3,0,1.2.2,2.5.5,3.2.2,1,1,1.7,1.7,2.2s1.7.7,2.5.7c1,0,2-.2,2.7-1,1.1-.5,1.6-1.5,1.8-2.7Z"></path><path d="M496.6,122.4c0-2.5.7-4.5,2-5.7,1.2-1.5,3-2,5.2-2,1.5,0,2.7.2,3.7,1s2,1.5,2.5,2.7,1,2.5,1,4-.2,3-1,4c-.5,1.2-1.5,2-2.5,2.7s-2.2,1-3.7,1-2.7-.2-3.7-1c-1-.7-2-1.5-2.5-2.7-.8-1.5-1-2.7-1-4ZM498.6,122.4c0,1.7.5,3.2,1.5,4.2s2.2,1.5,3.7,1.5,2.7-.5,3.7-1.5,1.5-2.5,1.5-4.5c0-1.2-.2-2.2-.5-3.2-.5-1-1-1.5-1.7-2s-1.7-.7-2.7-.7c-1.5,0-2.5.5-3.7,1.5-1.3.7-1.8,2.5-1.8,4.7Z"></path><path d="M513.6,129.6v-15h3l3.5,10.7c.2,1,.5,1.7.7,2.2.2-.5.5-1.2.7-2.5l3.5-10.5h2.7v15h-2v-12.5l-4.2,12.5h-1.7l-4.2-12.7v12.7h-2v.1Z"></path><path d="M531.6,129.6v-15h5.7c1,0,1.7,0,2.2.2.7,0,1.2.2,1.7.7.5.2,1,.7,1.2,1.5.2.5.5,1.2.5,2,0,1.2-.5,2.2-1.2,3.2s-2.2,1.2-4.5,1.2h-3.7v6c.1.2-1.9.2-1.9.2ZM533.6,121.7h4c1.2,0,2.2-.2,2.7-.7s.7-1.2.7-2-.2-1.2-.5-1.5c-.2-.5-.7-.7-1.2-1-.2,0-1-.2-1.7-.2h-3.7v5.5h-.3v-.1Z"></path><path d="M542.6,129.6l5.7-15h2.2l6.2,15h-2.2l-1.7-4.5h-6.2l-1.7,4.5h-2.3ZM547.1,123.4h5l-1.5-4.2c-.5-1.2-.7-2.2-1-3-.2,1-.5,2-.7,2.7l-1.8,4.5Z"></path><path d="M558.6,129.6v-15h2l8,11.7v-11.7h2v15h-2l-8-11.7v11.7h-2Z"></path><path d="M578.3,129.6v-6.2l-5.7-8.7h2.5l3,4.5c.5.7,1,1.7,1.5,2.5.5-.7,1-1.7,1.7-2.7l3-4.5h2.2l-6,8.7v6.2h-2.2v.2Z"></path><path d="M591.1,25.2c0-.7.2-1.5.5-2.2.2-.7,1-1.2,1.7-1.7s1.5-.5,2.2-.5,1.5.2,2.2.5c.7.5,1.2,1,1.7,1.7s.5,1.5.5,2.2-.2,1.5-.5,2.2c-.5.7-1,1.2-1.7,1.7s-1.5.7-2.2.7-1.5-.2-2.2-.7-1.2-1-1.7-1.7c-.3-.7-.5-1.5-.5-2.2ZM591.8,25.2c0,.7.2,1.2.5,2,.2.5.7,1,1.5,1.5.7.5,1.2.5,2,.5s1.2-.2,2-.5c.5-.2,1-.7,1.5-1.5.2-.5.5-1.2.5-2s-.2-1.2-.5-2c-.2-.5-.7-1-1.5-1.5s-1.2-.5-2-.5-1.2.2-2,.5c-.7.2-1,.7-1.5,1.5-.2.5-.5,1.2-.5,2ZM597.6,24.2c0,.7-.2,1.2-1,1.5l1.5,2.5h-1.2l-1.2-2h-.5v2h-1.2v-5.7h1.5c.7,0,1.2.2,1.5.5.1.2.6.4.6,1.2ZM595.1,24.9h.5c.2,0,.5,0,.7-.2s.2-.2.2-.5c0-.2,0-.5-.2-.5s-.5-.2-.7-.2h-.5v1.4Z"></path></g></g></svg>