<svg xmlns="http://www.w3.org/2000/svg" id="uuid-64bdf247-75a8-41b7-a48a-45ade55df087" data-name="svg2" viewBox="0 0 133.33 53.37"><defs><style>      .uuid-877bad20-bd9e-4fa8-ae8e-b373cf3a18cd {        fill: #f49813;      }      .uuid-c750b694-1ef7-4c6e-8b32-46faed32801e {        fill: #3069b5;      }    </style></defs><g id="uuid-f442cfc3-95d1-4da4-b114-74f6566360ab" data-name="g10"><g id="uuid-6142c74d-3bfa-4dc2-8a07-66499576d8c6" data-name="g12"><path id="uuid-b9017cc0-8046-41d3-9457-b41309d6b631" data-name="path14" class="uuid-877bad20-bd9e-4fa8-ae8e-b373cf3a18cd" d="M68.22.02c4.77-.16,9.57.55,14.07,2.15,6.77,2.38,12.81,6.73,17.24,12.37,1.95,2.47,3.58,5.19,4.85,8.07.23.48.4,1.02.28,1.55-.15.9-.93,1.64-1.84,1.72-.94.14-1.91-.45-2.24-1.33-2.54-5.98-6.88-11.17-12.29-14.77-3.34-2.23-7.09-3.86-11.01-4.77-5.05-1.18-10.37-1.18-15.42,0-7.22,1.66-13.82,5.8-18.48,11.55-1.98,2.42-3.61,5.12-4.84,8-.27.67-.88,1.19-1.59,1.31-.69.13-1.44-.1-1.92-.62-.57-.57-.75-1.47-.46-2.22,3.38-8,9.65-14.72,17.36-18.72C56.94,1.68,62.56.21,68.22.02h0"></path><path id="uuid-11135794-a107-4bd8-8f67-4e337b43ec34" data-name="path16" class="uuid-c750b694-1ef7-4c6e-8b32-46faed32801e" d="M61.91,24.66c-.03-.42.36-.73.75-.74.51-.01,1.01,0,1.52,0,.35.01.76.25.76.64.02,4.65-.01,9.3.02,13.95,1.88-2.09,3.78-4.18,5.67-6.27.37-.37.67-.92,1.25-.97.78-.03,1.56-.01,2.34-.01.3-.03.64.25.53.57-.12.25-.35.42-.53.62-2.04,2.04-4.1,4.08-6.13,6.13,1.96,2.24,3.9,4.51,5.86,6.76.25.32.57.59.78.95.15.28-.1.61-.4.62-.65.04-1.3,0-1.95.02-.34,0-.7.04-1.01-.13-.32-.19-.52-.52-.75-.8-1.89-2.38-3.76-4.76-5.65-7.13-.02,2.34,0,4.68,0,7.01,0,.27.05.59-.19.79-.37.36-.93.23-1.4.26-.41-.01-.9.08-1.23-.23-.19-.15-.24-.39-.23-.62,0-7.14,0-14.28,0-21.42h0"></path><path id="uuid-56df65fa-46f2-45b8-995a-d9aba5105c79" data-name="path18" class="uuid-c750b694-1ef7-4c6e-8b32-46faed32801e" d="M53.32,31.23c.95-.3,2.01-.36,2.94.04.33.15.7.48.56.88-.15.5-.27,1.01-.45,1.51-.13.36-.54.49-.89.42-.78-.13-1.55-.39-2.35-.37-.56-.01-1.07.29-1.46.67-.62.6-.93,1.45-1.08,2.28-.11.6-.08,1.22-.09,1.83,0,2.57,0,5.13,0,7.7.04.42-.4.71-.78.72-.52,0-1.04.01-1.57,0-.38-.02-.8-.3-.75-.72,0-4.75,0-9.5,0-14.25-.03-.47.49-.73.9-.68.52.03,1.22-.16,1.55.36.25.6.37,1.25.61,1.86.72-.99,1.67-1.85,2.85-2.24h0"></path><path id="uuid-70ff7600-fa5f-4912-b36b-04930f614bac" data-name="path20" class="uuid-c750b694-1ef7-4c6e-8b32-46faed32801e" d="M0,31.59c.15-.17.32-.35.56-.33.71,0,1.42-.02,2.13.01.36.01.61.33.66.66.7,2.84,1.38,5.68,2.08,8.51.2.88.45,1.74.58,2.63.14.8.16,1.61.29,2.42.18-1.14.34-2.3.65-3.42.91-3.39,1.82-6.77,2.72-10.16.07-.39.43-.66.82-.66.79-.02,1.58,0,2.37,0,.42-.02.88.23.98.66.68,2.47,1.35,4.94,2.02,7.41.41,1.6.95,3.17,1.18,4.81.06.45.13.91.22,1.35.25-2.58.92-5.09,1.46-7.61.45-2.01.89-4.02,1.35-6.03.07-.4.49-.61.87-.6.64,0,1.28-.02,1.92.01.38.01.6.43.46.77-1.28,4.73-2.56,9.46-3.84,14.19-.07.38-.4.67-.79.68-.99.03-1.98,0-2.97.01-.35.02-.73-.17-.79-.54-.89-3.25-1.75-6.51-2.63-9.76-.32-1.13-.45-2.31-.58-3.47-.16,1.04-.24,2.09-.52,3.11-.9,3.35-1.8,6.7-2.7,10.05-.1.54-.72.65-1.18.62-.92-.02-1.84.02-2.76-.02-.33,0-.58-.25-.64-.56-1.29-4.71-2.58-9.42-3.87-14.13-.04-.21-.04-.42-.05-.62h0"></path><path id="uuid-2a1e25ab-2060-4834-a1fe-0376aed8556b" data-name="path22" class="uuid-c750b694-1ef7-4c6e-8b32-46faed32801e" d="M116.06,31.27c.67-.01,1.35-.01,2.02,0,.41,0,.79.29.92.68,1.16,3.03,2.31,6.07,3.47,9.1.24.62.41,1.26.52,1.91.48-1.8,1.12-3.55,1.68-5.33.62-1.92,1.25-3.84,1.87-5.76.09-.33.41-.56.75-.59.55-.04,1.1,0,1.65-.02.32,0,.7-.03.95.22.16.13.12.36.06.53-1.85,5.29-3.7,10.58-5.55,15.87-.32.88-.57,1.8-1.09,2.6-.74,1.21-1.95,2.08-3.27,2.55-.46.14-.94.46-1.44.28-.35-.09-.49-.46-.68-.73-.14-.24-.39-.47-.33-.78.02-.3.27-.55.55-.63.56-.19,1.13-.41,1.58-.8,1.1-.93,1.78-2.3,2.04-3.7-.18-.62-.5-1.19-.74-1.79-1.77-4.11-3.54-8.22-5.31-12.33-.11-.27-.26-.53-.29-.82,0-.32.37-.46.64-.47h0"></path><path id="uuid-680137c4-dce4-4984-ab3e-074623921169" data-name="path24" class="uuid-c750b694-1ef7-4c6e-8b32-46faed32801e" d="M33.62,33.26c-.96.18-1.84.78-2.33,1.63-.82,1.39-.91,3.06-.88,4.63.06,1.42.29,2.94,1.2,4.09.68.87,1.79,1.3,2.87,1.28,1.04.03,2.13-.32,2.84-1.11.9-.99,1.19-2.35,1.32-3.64.05-1.27.08-2.56-.25-3.79-.26-1.05-.81-2.09-1.77-2.65-.89-.55-1.99-.6-2.99-.44ZM34.02,31c1.75-.11,3.57.26,5.01,1.29,1.29.92,2.16,2.33,2.57,3.84.49,1.81.48,3.74.04,5.56-.42,1.68-1.39,3.26-2.85,4.21-1.57,1.04-3.53,1.31-5.37,1.09-1.57-.19-3.09-.88-4.18-2.03-1.28-1.34-1.92-3.19-2.05-5.02-.16-2.03.15-4.17,1.28-5.9.83-1.3,2.16-2.26,3.64-2.7.62-.19,1.26-.28,1.9-.34h0"></path><path id="uuid-6432b0d1-f0fe-48e6-b6ac-2de543795893" data-name="path26" class="uuid-c750b694-1ef7-4c6e-8b32-46faed32801e" d="M85.51,33.17c-.96.06-1.88.61-2.31,1.49-.83,1.62-.85,3.49-.81,5.27.07,1.16.19,2.36.73,3.41.37.71,1.03,1.26,1.82,1.43,1.2.29,2.62.04,3.47-.91.82-.94,1.09-2.21,1.22-3.42.09-1.37.09-2.78-.25-4.12-.23-.9-.63-1.8-1.34-2.42-.68-.6-1.64-.83-2.53-.73ZM89.62,24.46c-.02-.36.35-.6.67-.63.52-.03,1.04-.01,1.56,0,.4,0,.84.29.78.73,0,7.17,0,14.35,0,21.52.03.37-.34.66-.68.68-.41.02-.83.02-1.24,0-.29-.02-.57-.2-.67-.48-.16-.47-.24-.95-.35-1.42-.57.78-1.31,1.46-2.23,1.81-1.31.48-2.77.49-4.11.16-1.35-.32-2.53-1.25-3.18-2.48-1.02-1.87-1.14-4.06-1.08-6.14.04-1.78.38-3.66,1.53-5.07.87-1.2,2.31-1.88,3.75-2.06,1.35-.2,2.81.03,3.92.85.53.37.95.87,1.33,1.39-.01-2.94,0-5.89,0-8.83h0"></path><path id="uuid-127b0b66-e456-4526-bbf5-47978f10fa57" data-name="path28" class="uuid-c750b694-1ef7-4c6e-8b32-46faed32801e" d="M104.11,33.26c-.48.1-.95.29-1.33.59-.78.6-1.16,1.56-1.37,2.5-.3,1.48-.3,3.01-.14,4.5.14,1.1.42,2.27,1.23,3.08.66.69,1.65.94,2.57.9,1,.04,2.03-.33,2.67-1.12.8-.97,1.03-2.26,1.15-3.48.07-1.43.08-2.9-.33-4.29-.25-.87-.72-1.73-1.5-2.22-.86-.57-1.96-.62-2.95-.47ZM102.78,31.3c1.38-.38,2.86-.41,4.26-.09,1.3.3,2.51,1.03,3.31,2.11.84,1.11,1.27,2.48,1.45,3.84.15,1.05.11,2.12.11,3.18,0,1.91,0,3.83,0,5.74.02.23-.13.44-.32.56-.32.2-.72.11-1.08.13-.4,0-.93.03-1.15-.39-.21-.49-.26-1.04-.39-1.56-.54.66-1.1,1.33-1.88,1.71-1.19.59-2.58.55-3.85.3-1.56-.31-2.99-1.23-3.87-2.55-1.05-1.54-1.43-3.45-1.41-5.29-.01-1.8.34-3.65,1.34-5.17.8-1.24,2.08-2.14,3.5-2.53h0"></path><path id="uuid-4560aaa0-0d1d-4b25-86ae-3b9648e9f8c7" data-name="path30" class="uuid-c750b694-1ef7-4c6e-8b32-46faed32801e" d="M130.61,43.06c-.79.29-1.29,1.2-1.09,2.02.21.97,1.33,1.63,2.27,1.27.86-.26,1.41-1.25,1.14-2.12-.24-.98-1.4-1.56-2.32-1.17ZM130.72,42.65c.47-.07.98-.08,1.41.14.74.34,1.27,1.13,1.19,1.96.06.99-.77,1.87-1.72,2.03-1.07.23-2.21-.55-2.43-1.61-.28-1.07.46-2.28,1.54-2.51h0"></path><path id="uuid-878be86b-d97b-49e4-a224-7d8934ab56a7" data-name="path32" class="uuid-c750b694-1ef7-4c6e-8b32-46faed32801e" d="M130.94,43.85c0,.22,0,.45,0,.67.2-.01.4,0,.59-.05.18-.08.16-.31.11-.46-.19-.18-.47-.14-.71-.16ZM130.35,43.49c.57.03,1.2-.13,1.71.19.41.31.21.98-.25,1.12.13.35.32.68.49,1.02-.21,0-.43,0-.64.01-.15-.31-.3-.63-.45-.94-.09,0-.18,0-.27,0,0,.32,0,.63,0,.95-.2,0-.4,0-.59,0,0-.78,0-1.56,0-2.33h0"></path></g></g></svg>