<svg xmlns="http://www.w3.org/2000/svg" id="uuid-fe20dde8-753e-4054-8dad-245f73f0cddf" data-name="Layer 1" viewBox="0 0 167.26 31"><defs><style>      .uuid-177809bc-a62a-4642-95d6-5e97552576ad {        fill: #282a68;      }      .uuid-ffd70a83-9a9c-4044-a88e-ca0a8e29a781 {        fill: #f0503c;      }    </style></defs><g><path class="uuid-177809bc-a62a-4642-95d6-5e97552576ad" d="M7.62,6.3c1.36.03,2.71.54,3.75,1.41.39.32.75.71,1.04,1.12.15.22.51.12.51-.17V3.49c0-2.73-.91-3.23-1.92-3.43-.99-.21-2.06.22-2.76.96-.45.48-1.27,2.03-1.27,2.03,0,0-2.52.62-3.16,2.56-.19.59-.22,1.59-.19,2.34.12.55.5,1.13,1.08,1.5.39.26.86.44,1.36.49.21.03.23.31.04.36-.55.14-1.14.14-1.74-.01-.49-.12-.96-.35-1.39-.68-.03-.01-.04-.04-.06-.05-.4.4-.89.94-1.27,1.52-.55.8-.86,1.79-.75,2.75.06.57.55,1.86.55,1.86,0,0-1,1.26-1.35,2.78-.23,1-.01,2.25.3,3.23.41,1.26,1.62,2.26,1.62,2.26,0,0-.35.85-.06,1.66.57,1.59,1.7,1.68,1.7,1.68,0,0,.01.69.55,1.14.68.55,1.45.48,1.77.41.45-.28.82-.78,1.02-1.41.14-.46.18-.99.09-1.5-.04-.21.23-.3.32-.13.28.5.45,1.11.46,1.72.03.51-.05,1.05-.26,1.57-.12.3-.27.58-.45.84.14.12.28.22.45.31.75.4,1.77.82,2.61.75,1.23-.1,2.88-.75,2.67-3.57-.04-.54-.14-1.08-.31-1.59l-.17-.54c-.24-.77-.5-1.58-1.02-2.16-.68-.76-1.66-.98-2.52-1.38-2.56-1.2-4.35-4.42-4.17-7.5,1.85.3,3.78.81,5.21,2.26,1.09,1.11,2.03,3.64,2.55,5.26.08.24.42.18.42-.06v-6.56c0-1.63-.8-3.14-2.1-4.11-.17-.13-.33-.27-.49-.41-1.22-1.18-1.97-2.78-2.69-4.32Z"></path><path class="uuid-177809bc-a62a-4642-95d6-5e97552576ad" d="M26.82,18.48c-.33-1.52-1.35-2.78-1.35-2.78,0,0,.49-1.3.55-1.86.12-.98-.19-1.95-.75-2.75-.39-.57-.87-1.11-1.27-1.52-.03.01-.04.04-.06.05-.42.33-.91.55-1.39.68-.58.14-1.18.14-1.74.01-.21-.05-.17-.33.04-.36.5-.05.98-.23,1.36-.49.58-.39.96-.95,1.08-1.5.03-.73,0-1.75-.19-2.34-.64-1.94-3.16-2.56-3.16-2.56,0,0-.82-1.57-1.27-2.03-.71-.75-1.77-1.17-2.76-.96-.99.21-1.92.71-1.92,3.43v5.18c0,.27.35.39.51.17.3-.41.64-.8,1.04-1.12,1.04-.87,2.39-1.38,3.75-1.41-.72,1.54-1.47,3.14-2.73,4.29-.15.14-.32.28-.49.41-1.3.98-2.1,2.49-2.1,4.11v6.56c0,.26.35.31.42.06.51-1.62,1.45-4.15,2.55-5.26,1.43-1.45,3.37-1.97,5.21-2.26.19,3.07-1.61,6.3-4.17,7.5-.87.41-1.84.63-2.52,1.38-.51.58-.77,1.39-1.02,2.16l-.17.54c-.17.51-.27,1.05-.31,1.59-.21,2.83,1.44,3.47,2.67,3.57.84.06,1.86-.35,2.61-.75.15-.09.31-.19.45-.31-.19-.27-.35-.55-.45-.84-.19-.51-.27-1.05-.26-1.57.03-.62.19-1.22.46-1.72.1-.18.36-.08.32.13-.09.51-.05,1.04.09,1.5.18.63.57,1.13,1.02,1.41.33.06,1.09.15,1.77-.41.54-.44.55-1.14.55-1.14,0,0,1.13-.09,1.7-1.68.28-.8-.06-1.66-.06-1.66,0,0,1.21-1,1.62-2.26.35-.95.55-2.2.33-3.2Z"></path><path class="uuid-177809bc-a62a-4642-95d6-5e97552576ad" d="M46.04,21.8c-3.19,0-4.32-2.52-4.32-4.87,0-2.97,1.83-5.04,4.44-5.04,2.13,0,2.91,1.41,3.38,2.79h3.01l-.06-.4c-.54-3.19-2.94-5.08-6.44-5.08-3.68,0-7.41,2.65-7.41,7.72,0,3.66,2.31,7.6,7.38,7.6,3.21,0,5.54-1.81,6.53-5.12l.13-.44h-3.18c-.58,1.9-1.71,2.84-3.46,2.84Z"></path><path class="uuid-177809bc-a62a-4642-95d6-5e97552576ad" d="M77.17,11.44v-1.89h-2.85v14.54h2.91v-6.94c0-3.23,1.2-4.8,3.66-4.8h1.07v-3.02h-1.16c-1.5,0-2.74.72-3.63,2.11Z"></path><path class="uuid-177809bc-a62a-4642-95d6-5e97552576ad" d="M91.24,21.8c-2.25,0-3.74-1.59-3.87-4.08h10.84v-1c0-4.66-2.67-7.55-6.97-7.55s-6.97,3.29-6.97,8.18c0,4.13,2.88,7.14,6.85,7.14,3.09,0,5.34-1.52,6.69-4.5l.15-.46h-3.14c-.49,1.08-1.5,2.28-3.59,2.28ZM91.29,11.87c2.04,0,3.37,1.17,3.77,3.3h-7.6c.26-1.39,1.29-3.3,3.83-3.3Z"></path><path class="uuid-177809bc-a62a-4642-95d6-5e97552576ad" d="M63.05,21.8c-2.25,0-3.74-1.59-3.87-4.08h10.84v-1c0-4.66-2.67-7.55-6.97-7.55s-6.97,3.29-6.97,8.18c0,4.13,2.88,7.14,6.85,7.14,3.09,0,5.34-1.52,6.69-4.5l.15-.46h-3.14c-.49,1.08-1.5,2.28-3.59,2.28ZM63.12,11.87c2.04,0,3.37,1.17,3.77,3.3h-7.6c.26-1.39,1.29-3.3,3.83-3.3Z"></path></g><path class="uuid-ffd70a83-9a9c-4044-a88e-ca0a8e29a781" d="M109.67,9.34c-2.42,0-3.78,1.04-4.55,1.92V2.61h-2.92v21.47h2.93v-1.58c.73.93,2.01,1.98,4.27,1.98,4.06,0,7.02-3.21,7.02-7.65,0-5.14-3.5-7.5-6.75-7.5ZM109.33,21.8c-2.1,0-4.22-1.5-4.22-4.85s2.07-4.9,4.13-4.9c3.01,0,4.08,2.51,4.08,4.85.01,2.25-1.03,4.9-3.99,4.9Z"></path><path class="uuid-ffd70a83-9a9c-4044-a88e-ca0a8e29a781" d="M140.74,2.62h-2.92v21.47h2.92V2.62Z"></path><path class="uuid-ffd70a83-9a9c-4044-a88e-ca0a8e29a781" d="M148.66,2.62h-2.92v21.47h2.92V2.62Z"></path><path class="uuid-ffd70a83-9a9c-4044-a88e-ca0a8e29a781" d="M164.06,9.55l-4,10.76-3.99-10.76h-3.29l5.76,13.89-2.82,6.44h3.18l8.36-20.33h-3.2Z"></path><path class="uuid-ffd70a83-9a9c-4044-a88e-ca0a8e29a781" d="M126.5,21.8c-2.25,0-3.74-1.59-3.87-4.08h10.84v-1c0-4.66-2.68-7.55-6.97-7.55s-6.97,3.29-6.97,8.18c0,4.13,2.88,7.14,6.85,7.14,3.09,0,5.34-1.52,6.69-4.5l.15-.46h-3.14c-.49,1.08-1.5,2.28-3.59,2.28ZM126.55,11.87c2.04,0,3.37,1.17,3.77,3.3h-7.6c.27-1.39,1.3-3.3,3.83-3.3Z"></path></svg>