<svg xmlns="http://www.w3.org/2000/svg" id="uuid-259a4733-33f4-432b-abf9-742870913cef" data-name="Layer 1" viewBox="0 0 571.67 209.8"><defs><style>      .uuid-d8eda5fd-66fb-42e8-bdcc-8aaa6ea72cd1 {        fill: #25282a;      }      .uuid-a48718b7-d8f4-4459-a69d-82bd38f3dc64 {        fill: #99ca3c;      }    </style></defs><path class="uuid-d8eda5fd-66fb-42e8-bdcc-8aaa6ea72cd1" d="M498.42,82.34c-29.95-6.36-39.63-9.4-39.63-21.11,0-16.41,16.45-18.19,23.52-18.19,15.51,0,25.97,9.2,27.32,24l.38,4.16h44.92l-.1-4.73c-.81-38.52-31.31-66.47-72.5-66.47-32.81,0-58.32,17.86-66.75,44.51-2.95-4.95-6.33-9.57-10.07-13.8C387.45,11.19,363.1.72,338.03,1.71h-65.21v132.01L230.08,1.71h-51.03l-67.38,206.4h47.82l13.57-43.09h61.02l13.57,43.09h90.4c25.07.98,49.42-9.49,67.47-29,3.31-3.74,6.33-7.79,9.03-12.1,11.35,25.89,37.89,42.79,71.06,42.79,41.88,0,72.45-28.1,72.76-66.84.26-44.53-30.83-54.64-59.95-60.63M203.29,129.01s-14.61.99-14.61-13.64c0-10.33,14.61-49.89,14.61-49.89,0,0,14.61,39.93,14.61,49.89,0,14.61-14.61,13.63-14.61,13.63h0ZM338.05,163.66h-19.26V46.16h19.26c28.9,0,46.15,21.96,46.15,58.74s-17.25,58.74-46.15,58.74h0v.02ZM486.11,167.04c-18.84,0-31.2-10.77-32.34-28.11l-.27-4.23-25.74-.39c1.84-8.29,2.87-16.79,3.08-25.33,12.36,8.91,26.33,14.65,40.9,16.8,30.54,6.73,40.41,9.91,40.41,21.92,0,14.23-13.45,19.3-26.04,19.3v.04h0Z"></path><polygon class="uuid-d8eda5fd-66fb-42e8-bdcc-8aaa6ea72cd1" points="139.5 1.71 74.29 207.83 95.72 207.83 160.97 1.71 139.5 1.71"></polygon><polygon class="uuid-a48718b7-d8f4-4459-a69d-82bd38f3dc64" points="102.35 1.71 37.15 207.83 58.57 207.83 123.83 1.71 102.35 1.71"></polygon><polygon class="uuid-d8eda5fd-66fb-42e8-bdcc-8aaa6ea72cd1" points="65.21 1.71 0 207.83 21.42 207.83 86.68 1.71 65.21 1.71"></polygon><path class="uuid-d8eda5fd-66fb-42e8-bdcc-8aaa6ea72cd1" d="M553.14,209.8h-2.29v-12.13h-3.67v-2.18h9.67v2.18h-3.7v12.13h-.01ZM563.7,209.8l-3.49-11.02h-.14l.11,2.52v8.5h-2.17v-14.31h3.42l3.41,11.02,3.53-11.02h3.3v14.31h-2.33v-8.29l.11-2.72h-.14l-3.69,11.01h-1.92Z"></path></svg>