<svg xmlns="http://www.w3.org/2000/svg" xmlns:xlink="http://www.w3.org/1999/xlink" id="uuid-bc6b65c1-494a-42c7-8ee7-f4063b3adc3f" data-name="Layer 1" viewBox="0 0 348.98 348.98"><defs><style>      .uuid-f37a9202-f2d2-4030-bef3-629ef639e474, .uuid-01db3b58-195e-4d53-8c91-6bb53e9957be {        fill: none;      }      .uuid-834ad543-a68c-4b31-9ba8-4808ed38f005 {        fill: #231f20;      }      .uuid-01db3b58-195e-4d53-8c91-6bb53e9957be {        stroke: #fff;        stroke-linecap: round;        stroke-linejoin: round;        stroke-width: .93px;      }      .uuid-8831b526-f337-44a3-ad7f-7e9ba91b6504 {        fill: url(#uuid-fdcbced2-da9c-4f9c-b570-c663d5dab3eb);      }      .uuid-e4dce122-30b8-4f40-9f93-7748ea418d1e {        fill: #fff;      }      .uuid-9439599b-ef14-421c-ac72-81677b433fd2 {        fill: url(#uuid-f5120f2e-a964-4bfb-adbd-06dbc0df2e46);      }    </style><linearGradient id="uuid-fdcbced2-da9c-4f9c-b570-c663d5dab3eb" x1="348.98" y1="174.49" x2="0" y2="174.49" gradientUnits="userSpaceOnUse"><stop offset="0" stop-color="#2161ad"></stop><stop offset=".18" stop-color="#1f69b3"></stop><stop offset=".47" stop-color="#1c82c4"></stop><stop offset=".84" stop-color="#16a9e1"></stop><stop offset="1" stop-color="#14bdef"></stop></linearGradient><linearGradient id="uuid-f5120f2e-a964-4bfb-adbd-06dbc0df2e46" x1="39.09" y1="174.49" x2="309.89" y2="174.49" xlink:href="#uuid-fdcbced2-da9c-4f9c-b570-c663d5dab3eb"></linearGradient></defs><circle class="uuid-8831b526-f337-44a3-ad7f-7e9ba91b6504" cx="174.49" cy="174.49" r="174.49"></circle><circle class="uuid-9439599b-ef14-421c-ac72-81677b433fd2" cx="174.49" cy="174.49" r="135.4"></circle><g><circle class="uuid-f37a9202-f2d2-4030-bef3-629ef639e474" cx="174.49" cy="174.49" r="160.1"></circle><path class="uuid-e4dce122-30b8-4f40-9f93-7748ea418d1e" d="M67.68,289.77c.47-.48.67-1.03.6-1.64-.07-.61-.43-1.47-1.08-2.6-.66-1.12-1.05-2.03-1.17-2.73-.18-.99.06-1.83.72-2.52.64-.67,1.44-.94,2.39-.83.95.11,1.85.58,2.7,1.41.58.56.99,1.17,1.23,1.83s.29,1.32.16,1.96c-.13.64-.44,1.21-.91,1.7l-.74-.72c.58-.6.83-1.27.78-2.02-.06-.75-.43-1.46-1.11-2.13-.67-.64-1.34-1.01-2.02-1.09-.68-.08-1.25.11-1.72.59-.43.44-.6.98-.52,1.6s.41,1.42.99,2.39c.57.97.95,1.76,1.13,2.38s.22,1.18.11,1.7-.37.99-.79,1.42c-.66.69-1.47.97-2.42.85-.95-.12-1.87-.61-2.77-1.47-.61-.59-1.07-1.25-1.37-1.96-.3-.71-.39-1.4-.28-2.05.12-.65.42-1.23.91-1.74l.74.71c-.59.61-.83,1.32-.72,2.12.12.8.55,1.56,1.31,2.3.68.65,1.37,1.03,2.06,1.13.7.1,1.29-.1,1.77-.59Z"></path><path class="uuid-e4dce122-30b8-4f40-9f93-7748ea418d1e" d="M78.72,296.08c-.72.85-1.49,1.48-2.33,1.88-.84.4-1.67.54-2.51.43-.84-.11-1.62-.47-2.34-1.07-1.08-.91-1.63-2.03-1.65-3.36-.02-1.33.53-2.66,1.63-3.97l.8-.96c.71-.84,1.49-1.47,2.33-1.87s1.69-.55,2.53-.44c.84.11,1.62.46,2.33,1.06.71.6,1.2,1.3,1.46,2.1.26.8.27,1.64.04,2.52-.23.88-.69,1.74-1.37,2.57l-.93,1.11ZM78.78,294.42c.94-1.12,1.42-2.2,1.44-3.26.03-1.06-.4-1.95-1.28-2.69-.86-.72-1.81-.98-2.86-.78-1.04.21-2.04.88-3,2.01l-.81.97c-.92,1.1-1.4,2.18-1.43,3.25s.39,1.97,1.27,2.71c.89.74,1.85,1.01,2.87.79,1.03-.22,2.02-.89,2.97-2.03l.82-.98Z"></path><path class="uuid-e4dce122-30b8-4f40-9f93-7748ea418d1e" d="M86.9,304.07c-.86.95-1.8,1.48-2.82,1.57-1.02.1-2.06-.23-3.1-.98-.73-.52-1.24-1.17-1.54-1.94-.3-.77-.36-1.6-.18-2.48s.57-1.76,1.19-2.62l.92-1.27c.63-.87,1.34-1.54,2.13-1.99.79-.45,1.61-.66,2.44-.61.84.05,1.63.34,2.38.88,1.05.76,1.68,1.64,1.88,2.65s-.01,2.04-.63,3.12l-.84-.6c1-1.82.69-3.3-.91-4.46-.89-.64-1.84-.82-2.85-.53-1.01.29-1.94,1.01-2.78,2.19l-.87,1.2c-.82,1.13-1.21,2.22-1.18,3.27.03,1.05.48,1.88,1.36,2.52.87.63,1.67.89,2.41.79.74-.1,1.46-.53,2.16-1.28l.84.6Z"></path><path class="uuid-e4dce122-30b8-4f40-9f93-7748ea418d1e" d="M91.22,311.26l4.22-7-1.27-.77.42-.7,1.27.77.56-.93c.48-.79,1.04-1.27,1.7-1.45.66-.18,1.34-.05,2.06.38.32.19.6.42.83.67l-.49.67c-.2-.2-.44-.38-.72-.55-.47-.28-.92-.36-1.36-.22-.44.14-.82.47-1.14,1.01l-.58.96,1.84,1.11-.42.7-1.84-1.11-4.22,7-.85-.52Z"></path><path class="uuid-e4dce122-30b8-4f40-9f93-7748ea418d1e" d="M97.49,309.64c.41-.76.92-1.37,1.55-1.82.62-.45,1.3-.7,2.02-.75.72-.05,1.42.11,2.11.48,1.05.57,1.71,1.39,1.97,2.49.26,1.09.06,2.25-.6,3.47l-.1.18c-.41.77-.93,1.38-1.55,1.83-.62.45-1.29.7-2.01.75-.72.04-1.42-.12-2.1-.49-1.05-.56-1.7-1.39-1.96-2.48s-.06-2.25.59-3.47l.09-.18ZM98.24,310.36c-.51.95-.68,1.86-.52,2.73.16.87.64,1.52,1.44,1.95.79.42,1.59.46,2.41.12.82-.34,1.49-1.01,2.03-2.01l.09-.17c.33-.6.51-1.22.56-1.84s-.06-1.18-.32-1.68c-.26-.49-.65-.88-1.17-1.16-.78-.42-1.58-.46-2.4-.11-.82.35-1.5,1.02-2.03,2.01l-.09.16Z"></path><path class="uuid-e4dce122-30b8-4f40-9f93-7748ea418d1e" d="M111.81,312.98c-.17-.13-.37-.24-.58-.34-.56-.27-1.11-.33-1.65-.21-.54.13-1.03.45-1.48.97l-2.65,5.58-.89-.42,3.85-8.13.88.42-.6,1.3c.93-.74,1.92-.85,2.97-.36.25.12.43.25.55.38l-.41.81Z"></path><path class="uuid-e4dce122-30b8-4f40-9f93-7748ea418d1e" d="M121.79,322.59c.24-.63.21-1.21-.09-1.74-.3-.53-.98-1.19-2.02-1.96s-1.76-1.46-2.15-2.05c-.56-.84-.67-1.71-.33-2.6.33-.86.95-1.43,1.87-1.7s1.93-.19,3.04.23c.75.29,1.37.69,1.85,1.2.48.52.79,1.09.92,1.74.13.64.07,1.28-.17,1.92l-.96-.37c.29-.77.27-1.5-.08-2.17-.35-.67-.97-1.18-1.86-1.51-.86-.33-1.63-.4-2.29-.21-.66.19-1.11.6-1.34,1.22-.22.58-.17,1.13.16,1.67.32.54.94,1.14,1.85,1.8.91.66,1.57,1.24,1.98,1.74.41.5.67,1,.77,1.52s.05,1.05-.16,1.62c-.34.89-.97,1.47-1.88,1.74-.92.27-1.96.18-3.12-.26-.8-.3-1.48-.72-2.03-1.26-.56-.54-.91-1.13-1.06-1.77-.15-.64-.1-1.3.15-1.96l.96.36c-.3.8-.24,1.54.18,2.23.42.69,1.12,1.22,2.11,1.6.88.33,1.66.41,2.34.22.68-.19,1.14-.6,1.39-1.24Z"></path><path class="uuid-e4dce122-30b8-4f40-9f93-7748ea418d1e" d="M127.29,327.69c-.73-.23-1.33-.61-1.81-1.15-.48-.54-.78-1.19-.91-1.93-.13-.75-.07-1.52.18-2.32l.11-.34c.26-.83.65-1.52,1.17-2.08s1.13-.94,1.82-1.14c.69-.2,1.37-.2,2.03,0,1.04.32,1.76.94,2.15,1.84.39.9.39,1.97.01,3.2l-.17.53-6.13-1.9-.06.18c-.3.97-.27,1.87.08,2.69.36.82.96,1.36,1.81,1.63.51.16.99.2,1.43.14s.89-.25,1.34-.56l.45.64c-1.01.79-2.18.98-3.51.57ZM129.63,319.54c-.71-.22-1.4-.15-2.05.23-.65.37-1.17.98-1.55,1.83l5.15,1.6.03-.1c.23-.83.2-1.58-.08-2.24-.28-.66-.79-1.1-1.5-1.32Z"></path><path class="uuid-e4dce122-30b8-4f40-9f93-7748ea418d1e" d="M138.85,322.26c-.19-.09-.41-.17-.64-.22-.6-.16-1.15-.12-1.66.11-.5.23-.92.64-1.27,1.23l-1.55,5.98-.96-.25,2.25-8.71.94.24-.34,1.39c.78-.9,1.73-1.2,2.85-.91.27.07.47.16.61.27l-.25.87Z"></path><path class="uuid-e4dce122-30b8-4f40-9f93-7748ea418d1e" d="M141.87,329.86l4.24-6.9,1,.21-5.13,8.12-.79-.16-1.46-9.49,1,.21,1.14,8.02Z"></path><path class="uuid-e4dce122-30b8-4f40-9f93-7748ea418d1e" d="M148.25,332.45l-.98-.17,1.49-8.87.98.17-1.49,8.87ZM149.02,320.82c.03-.18.12-.33.26-.44s.32-.14.52-.11c.21.04.36.13.46.27.1.15.14.31.11.5-.03.18-.12.33-.26.43-.14.1-.32.14-.53.1-.21-.03-.36-.12-.46-.27-.1-.15-.13-.31-.1-.49Z"></path><path class="uuid-e4dce122-30b8-4f40-9f93-7748ea418d1e" d="M154.62,332.69c.69.09,1.29-.03,1.8-.36.51-.33.83-.8.94-1.41l.95.12c-.1.54-.33,1.02-.7,1.42-.37.41-.83.71-1.38.89s-1.12.24-1.72.17c-1.17-.15-2.05-.67-2.63-1.57-.58-.9-.79-2.04-.61-3.41l.04-.3c.11-.88.36-1.64.76-2.28.39-.64.9-1.1,1.52-1.4.62-.3,1.32-.4,2.09-.3.98.12,1.75.52,2.31,1.18.56.66.8,1.47.73,2.43l-.95-.12c.04-.7-.14-1.3-.54-1.79-.41-.49-.96-.77-1.66-.86-.89-.11-1.62.12-2.2.7-.57.58-.93,1.45-1.08,2.61l-.04.29c-.14,1.14,0,2.06.4,2.76.41.7,1.07,1.11,1.96,1.22Z"></path><path class="uuid-e4dce122-30b8-4f40-9f93-7748ea418d1e" d="M163.85,334.4c-.76-.05-1.44-.29-2.03-.7-.59-.42-1.03-.97-1.33-1.67-.3-.69-.42-1.46-.36-2.29l.02-.36c.06-.86.28-1.63.66-2.3s.88-1.18,1.51-1.53,1.28-.51,1.98-.46c1.09.07,1.93.5,2.52,1.29.59.79.84,1.82.75,3.11l-.04.56-6.4-.44v.19c-.08,1.02.15,1.88.69,2.6s1.25,1.11,2.13,1.17c.53.04,1.01-.03,1.43-.19s.81-.45,1.17-.85l.59.51c-.8,1.01-1.9,1.46-3.28,1.37ZM164.24,325.93c-.75-.05-1.39.18-1.94.69-.55.51-.91,1.23-1.08,2.14l5.38.37v-.11c.04-.86-.16-1.58-.59-2.16-.43-.57-1.02-.89-1.77-.94Z"></path><path class="uuid-e4dce122-30b8-4f40-9f93-7748ea418d1e" d="M183.04,329.03c.03,1.11-.14,2.1-.51,2.95-.36.85-.9,1.51-1.6,1.98-.7.47-1.52.72-2.46.74-1.41.03-2.57-.44-3.46-1.43-.89-.99-1.36-2.34-1.4-4.06l-.03-1.25c-.03-1.1.14-2.08.51-2.94.37-.86.91-1.53,1.61-2,.7-.47,1.52-.72,2.45-.75.93-.02,1.76.18,2.48.61.72.43,1.29,1.05,1.7,1.86.41.81.63,1.76.68,2.84l.04,1.45ZM181.99,327.74c-.04-1.46-.39-2.59-1.07-3.4-.68-.81-1.59-1.2-2.74-1.17-1.12.03-2.01.46-2.66,1.31s-.95,2.01-.92,3.49l.03,1.26c.04,1.43.4,2.56,1.08,3.39.69.82,1.6,1.22,2.74,1.19,1.16-.03,2.05-.46,2.68-1.31s.92-2.01.89-3.48l-.03-1.28Z"></path><path class="uuid-e4dce122-30b8-4f40-9f93-7748ea418d1e" d="M189.43,325.74c-.21-.02-.44-.02-.68,0-.62.05-1.13.26-1.53.64-.4.38-.67.91-.79,1.58l.5,6.16-.99.08-.72-8.96.97-.08.13,1.42c.44-1.1,1.24-1.7,2.4-1.79.28-.02.5,0,.66.06l.05.9Z"></path><path class="uuid-e4dce122-30b8-4f40-9f93-7748ea418d1e" d="M190.87,329.2c-.18-1.4-.01-2.54.5-3.44.51-.9,1.3-1.41,2.36-1.55,1.21-.16,2.2.21,2.96,1.09l-.12-1.29.92-.12,1.13,8.74c.15,1.15-.06,2.1-.61,2.85-.56.75-1.38,1.2-2.48,1.34-.62.08-1.23.02-1.83-.19s-1.09-.52-1.47-.94l.48-.67c.81.77,1.69,1.09,2.66.96.82-.11,1.44-.43,1.83-.98.4-.55.55-1.25.46-2.12l-.15-1.12c-.52.96-1.38,1.52-2.59,1.68-1.03.13-1.92-.17-2.65-.91-.73-.74-1.19-1.82-1.37-3.22l-.02-.13ZM191.89,329.24c.15,1.14.49,2.01,1.03,2.6.54.6,1.23.84,2.06.74,1.21-.16,2-.81,2.37-1.97l-.54-4.15c-.31-.54-.69-.93-1.17-1.18-.47-.24-1.01-.33-1.62-.25-.83.11-1.43.52-1.81,1.23-.38.71-.48,1.7-.32,2.97Z"></path><path class="uuid-e4dce122-30b8-4f40-9f93-7748ea418d1e" d="M207.23,331.25c-.15-.26-.29-.66-.42-1.2-.26.51-.63.94-1.11,1.28-.48.34-1.02.57-1.62.69-.85.16-1.58.06-2.2-.31-.62-.37-.99-.92-1.13-1.64-.17-.86.06-1.61.68-2.25.62-.64,1.57-1.08,2.85-1.33l1.77-.34-.19-1c-.12-.63-.41-1.09-.87-1.38-.46-.29-1.06-.36-1.81-.22-.68.13-1.21.41-1.59.85-.38.43-.52.9-.43,1.39l-.98.18c-.13-.7.07-1.37.63-2.01.55-.64,1.31-1.05,2.26-1.23.98-.19,1.81-.09,2.47.29s1.09,1.01,1.27,1.89l.8,4.18c.16.85.38,1.48.64,1.87l.02.1-1.04.2ZM204.02,331.14c.65-.13,1.21-.4,1.66-.81.45-.41.75-.91.88-1.48l-.37-1.94-1.75.34c-.97.2-1.7.52-2.18.97-.48.45-.67.98-.55,1.58.1.5.36.87.79,1.13.43.26.94.33,1.53.21Z"></path><path class="uuid-e4dce122-30b8-4f40-9f93-7748ea418d1e" d="M209.73,321.48l.41,1.48c.19-.62.49-1.13.91-1.54.42-.41.92-.69,1.51-.84.93-.24,1.7-.15,2.29.26s1.02,1.14,1.3,2.19l1.46,5.72-.96.25-1.47-5.72c-.2-.78-.52-1.31-.94-1.61-.42-.3-.99-.36-1.7-.17-.6.15-1.08.47-1.44.96-.36.49-.57,1.08-.63,1.77l1.53,5.97-.96.25-2.23-8.71.92-.24Z"></path><path class="uuid-e4dce122-30b8-4f40-9f93-7748ea418d1e" d="M216.98,316.83c-.05-.18-.04-.35.04-.51s.22-.27.42-.33.38-.05.54.04c.16.09.26.22.32.4.05.18.04.35-.04.5-.08.16-.23.27-.43.33-.2.06-.38.05-.53-.04s-.26-.22-.31-.4ZM221.46,327.59l-.95.29-2.61-8.61.95-.29,2.61,8.61Z"></path><path class="uuid-e4dce122-30b8-4f40-9f93-7748ea418d1e" d="M224.69,325.69l5.52-1.92.28.79-6.68,2.32-.24-.69,2.72-8.78-4.99,1.73-.28-.82,6.18-2.15.25.71-2.74,8.79Z"></path><path class="uuid-e4dce122-30b8-4f40-9f93-7748ea418d1e" d="M237.8,321.6c-.2-.22-.42-.59-.66-1.09-.15.55-.43,1.05-.83,1.48s-.89.77-1.45,1c-.8.33-1.54.37-2.22.13-.68-.24-1.16-.7-1.44-1.38-.33-.81-.26-1.59.22-2.34s1.32-1.37,2.52-1.87l1.67-.69-.39-.95c-.25-.59-.62-.99-1.13-1.17s-1.11-.14-1.81.15c-.64.26-1.1.65-1.39,1.15-.28.5-.33.98-.14,1.44l-.93.37c-.27-.66-.2-1.36.21-2.1.42-.74,1.07-1.29,1.97-1.66.93-.38,1.75-.45,2.48-.21.73.24,1.27.78,1.63,1.6l1.62,3.93c.33.8.67,1.37,1,1.7l.04.09-.98.41ZM234.64,322.13c.62-.25,1.1-.63,1.46-1.13.36-.5.55-1.04.56-1.63l-.75-1.83-1.64.68c-.91.39-1.56.85-1.94,1.39s-.46,1.09-.22,1.66c.19.47.53.78,1,.95.47.16.99.13,1.54-.1Z"></path><path class="uuid-e4dce122-30b8-4f40-9f93-7748ea418d1e" d="M237.84,309.17l.98,2.08,1.68-.79.35.74-1.68.79,2.55,5.43c.21.45.45.75.72.89.27.14.59.13.97-.05.15-.07.38-.21.69-.42l.38.71c-.2.2-.5.39-.9.58-.62.29-1.15.32-1.6.1-.45-.23-.84-.69-1.17-1.38l-2.55-5.43-1.5.7-.35-.74,1.5-.7-.98-2.08.9-.42Z"></path><path class="uuid-e4dce122-30b8-4f40-9f93-7748ea418d1e" d="M241.09,307.26c-.08-.17-.1-.34-.05-.51.05-.17.17-.3.36-.4.19-.1.37-.11.54-.05s.3.17.38.34c.08.17.1.33.05.5s-.17.3-.36.4c-.19.1-.37.11-.53.06s-.29-.17-.38-.34ZM247.39,317.06l-.89.45-4.08-8.02.89-.45,4.08,8.02Z"></path><path class="uuid-e4dce122-30b8-4f40-9f93-7748ea418d1e" d="M247.35,311.92c-.43-.75-.66-1.51-.71-2.28-.05-.77.1-1.47.44-2.11s.85-1.15,1.53-1.53c1.04-.59,2.09-.7,3.15-.33s1.93,1.15,2.61,2.36l.1.18c.43.76.67,1.52.72,2.29.05.77-.1,1.47-.44,2.1-.34.63-.86,1.13-1.54,1.52-1.04.59-2.09.7-3.15.33-1.06-.36-1.93-1.15-2.62-2.36l-.1-.17ZM248.36,311.67c.53.94,1.21,1.57,2.03,1.89s1.63.27,2.42-.18c.78-.44,1.25-1.1,1.39-1.97s-.06-1.8-.62-2.79l-.09-.17c-.34-.6-.76-1.08-1.26-1.45-.5-.37-1.03-.58-1.59-.63-.55-.05-1.09.08-1.61.37-.77.44-1.23,1.09-1.38,1.98-.15.88.06,1.81.61,2.79l.09.16Z"></path><path class="uuid-e4dce122-30b8-4f40-9f93-7748ea418d1e" d="M254.65,302.62l.87,1.27c-.02-.65.1-1.23.37-1.75.26-.52.65-.94,1.16-1.28.81-.53,1.56-.69,2.25-.49.69.2,1.33.75,1.93,1.66l3.21,4.95-.83.54-3.22-4.96c-.44-.67-.91-1.08-1.41-1.23-.5-.15-1.05-.02-1.67.38-.52.34-.87.79-1.05,1.37s-.2,1.21-.03,1.88l3.36,5.17-.83.54-4.9-7.54.79-.52Z"></path><path class="uuid-e4dce122-30b8-4f40-9f93-7748ea418d1e" d="M269.89,300.23c-.29-.4-.69-.6-1.18-.6-.5,0-1.12.16-1.86.5-.74.34-1.36.55-1.84.63-.48.09-.91.06-1.27-.06s-.67-.37-.94-.73c-.42-.57-.53-1.22-.33-1.94.2-.72.68-1.36,1.42-1.91.81-.59,1.6-.87,2.38-.83.78.04,1.41.38,1.88,1.02l-.8.59c-.31-.42-.75-.65-1.31-.67-.56-.02-1.11.17-1.65.57-.53.39-.86.82-1.01,1.29-.15.47-.08.89.19,1.27.27.36.61.54,1.02.55.41,0,1.03-.17,1.85-.52s1.48-.56,1.97-.63c.49-.07.91-.04,1.28.1.36.14.68.39.96.77.45.61.56,1.28.34,2.01s-.73,1.39-1.53,1.97c-.84.62-1.68.92-2.5.9-.83-.02-1.47-.35-1.93-.97l.8-.59c.38.45.84.67,1.4.66s1.13-.23,1.73-.67c.56-.41.92-.87,1.08-1.36s.11-.94-.17-1.31Z"></path><path class="uuid-e4dce122-30b8-4f40-9f93-7748ea418d1e" d="M282.95,295.28l-.63.56-9.56-10.7.63-.56,9.56,10.7Z"></path><path class="uuid-e4dce122-30b8-4f40-9f93-7748ea418d1e" d="M291.87,278.76c-.39-.36-.82-.5-1.29-.42-.46.08-1.13.38-2.01.9-.88.52-1.64.87-2.3,1.05-1.25.34-2.29.14-3.11-.61-.72-.66-1.04-1.5-.97-2.51.07-1.01.54-1.99,1.39-2.92.57-.62,1.19-1.07,1.87-1.35.67-.28,1.35-.36,2.03-.25.68.11,1.27.4,1.79.87l-1.42,1.54c-.46-.43-.96-.62-1.5-.56-.53.05-1.05.35-1.54.89-.46.51-.72,1-.76,1.48s.13.9.52,1.25c.33.3.74.4,1.23.3.5-.1,1.16-.41,2.01-.91.84-.5,1.59-.85,2.24-1.03s1.23-.21,1.75-.09c.52.12,1.01.38,1.47.8.74.68,1.07,1.51.99,2.48-.08.97-.57,1.95-1.47,2.92-.59.65-1.25,1.13-1.99,1.45-.73.32-1.45.44-2.15.35-.7-.09-1.32-.38-1.88-.9l1.42-1.55c.51.46,1.05.66,1.64.58.58-.08,1.16-.43,1.74-1.06.49-.54.76-1.04.79-1.52.03-.47-.13-.87-.49-1.2Z"></path><path class="uuid-e4dce122-30b8-4f40-9f93-7748ea418d1e" d="M299.58,274.68c-.8,1-1.77,1.55-2.9,1.66-1.13.11-2.21-.25-3.26-1.09l-.19-.16c-.7-.56-1.21-1.2-1.55-1.91-.33-.71-.46-1.44-.37-2.17.09-.73.37-1.4.85-2,.77-.95,1.67-1.44,2.69-1.47s2.1.4,3.21,1.3l.63.51-3.69,4.57c.62.42,1.23.59,1.84.53.61-.07,1.12-.36,1.54-.87.58-.72.76-1.54.55-2.46l1.49-.2c.19.62.22,1.25.07,1.91-.15.65-.45,1.27-.92,1.85ZM293.43,270.03c-.35.43-.48.9-.39,1.41s.37,1.02.85,1.53l2.42-3-.12-.09c-.55-.39-1.07-.57-1.53-.54-.47.03-.88.26-1.23.7Z"></path><path class="uuid-e4dce122-30b8-4f40-9f93-7748ea418d1e" d="M299.85,262.18c-.19.19-.37.4-.54.63-.54.75-.62,1.46-.24,2.14l4.97,3.62-1.19,1.63-7.27-5.29,1.13-1.56.84.55c-.34-.85-.26-1.63.25-2.33.17-.23.34-.4.51-.51l1.53,1.12Z"></path><path class="uuid-e4dce122-30b8-4f40-9f93-7748ea418d1e" d="M306.25,260.87l-4.33-5.12,1.15-1.74,5.81,7.54-.96,1.47-9.24-2.31,1.15-1.75,6.44,1.92Z"></path><path class="uuid-e4dce122-30b8-4f40-9f93-7748ea418d1e" d="M301.65,251.76c-.27-.16-.44-.38-.51-.65-.08-.27-.02-.57.17-.88.19-.31.42-.5.7-.57s.55-.02.82.14c.26.16.43.37.5.65s.01.57-.17.88c-.19.31-.42.5-.69.57-.27.06-.54.02-.8-.14ZM312.47,255.73l-1.04,1.73-7.72-4.62,1.04-1.73,7.72,4.62Z"></path><path class="uuid-e4dce122-30b8-4f40-9f93-7748ea418d1e" d="M314.26,249.61c.24-.44.31-.88.21-1.31-.1-.43-.33-.76-.71-.99l.91-1.67c.48.29.86.69,1.13,1.21.27.52.4,1.09.38,1.72-.02.63-.18,1.23-.49,1.8-.6,1.11-1.43,1.79-2.5,2.05-1.07.26-2.23.05-3.49-.63l-.18-.1c-1.2-.65-1.99-1.49-2.37-2.53s-.26-2.11.34-3.22c.51-.94,1.2-1.56,2.07-1.85.87-.3,1.76-.22,2.67.24l-.91,1.67c-.46-.23-.92-.27-1.37-.14s-.79.42-1.04.87c-.31.58-.34,1.13-.09,1.67.25.54.79,1.04,1.64,1.5l.29.15c.86.46,1.58.66,2.17.57s1.04-.42,1.36-1Z"></path><path class="uuid-e4dce122-30b8-4f40-9f93-7748ea418d1e" d="M319.99,241.77c-.54,1.16-1.35,1.93-2.41,2.31s-2.21.29-3.42-.28l-.23-.11c-.81-.38-1.47-.88-1.96-1.49-.49-.61-.79-1.29-.88-2.02-.09-.73.02-1.45.35-2.15.52-1.11,1.27-1.8,2.26-2.08s2.13-.11,3.43.49l.74.34-2.48,5.33c.7.26,1.34.28,1.91.07.58-.21,1-.62,1.28-1.21.39-.84.37-1.68-.06-2.52l1.4-.55c.33.55.51,1.17.52,1.84.01.67-.14,1.34-.45,2.02ZM312.9,238.73c-.23.5-.25.99-.04,1.46.21.47.61.9,1.19,1.28l1.63-3.49-.14-.06c-.63-.25-1.17-.3-1.62-.16-.45.14-.79.46-1.03.97Z"></path><path class="uuid-e4dce122-30b8-4f40-9f93-7748ea418d1e" d="M321.75,221.17c1.12.4,2.03.93,2.74,1.62.71.69,1.16,1.47,1.36,2.34s.13,1.78-.2,2.72c-.33.92-.84,1.67-1.55,2.23-.71.56-1.55.9-2.52,1-.98.1-2.01-.04-3.1-.42l-.64-.23c-1.11-.39-2.03-.94-2.74-1.63-.71-.7-1.17-1.48-1.37-2.36s-.13-1.78.2-2.71c.33-.93.84-1.68,1.54-2.24.7-.56,1.54-.89,2.52-.98.98-.1,2.02.05,3.14.44l.63.22ZM320.46,222.94c-1.26-.45-2.32-.55-3.16-.31-.84.24-1.42.8-1.73,1.68-.3.86-.2,1.65.3,2.37.5.72,1.36,1.3,2.59,1.75l.66.23c1.25.44,2.31.54,3.17.29.86-.25,1.44-.8,1.75-1.67.31-.88.21-1.67-.29-2.38-.5-.71-1.4-1.29-2.68-1.74l-.6-.21Z"></path><path class="uuid-e4dce122-30b8-4f40-9f93-7748ea418d1e" d="M322.23,214.32c-.12.24-.21.5-.29.77-.26.89-.09,1.59.5,2.09l5.91,1.7-.56,1.94-8.64-2.49.53-1.85.98.23c-.62-.69-.8-1.44-.56-2.27.08-.28.18-.5.31-.65l1.82.53Z"></path><path class="uuid-e4dce122-30b8-4f40-9f93-7748ea418d1e" d="M324.98,214.15c-1.36-.32-2.37-.89-3.03-1.72s-.87-1.77-.62-2.83c.23-1,.77-1.7,1.6-2.11l-.86-.3.42-1.77,8.49,1.99c1.15.27,1.97.84,2.47,1.71.5.87.6,1.91.32,3.13-.15.64-.43,1.24-.84,1.79-.41.55-.87.93-1.38,1.15l-.96-1.21c.86-.44,1.39-1.1,1.6-1.98.15-.65.1-1.21-.17-1.67-.27-.46-.74-.77-1.43-.93l-.59-.14c.5.71.64,1.54.42,2.49-.24,1.02-.84,1.77-1.81,2.23-.97.46-2.17.52-3.61.18ZM325.61,212.23c.88.21,1.61.19,2.2-.05.59-.24.96-.68,1.11-1.32.19-.79-.02-1.46-.61-2l-3.85-.9c-.75.22-1.22.72-1.41,1.51-.15.65-.01,1.21.42,1.69s1.14.84,2.14,1.07Z"></path><path class="uuid-e4dce122-30b8-4f40-9f93-7748ea418d1e" d="M332.62,199.69c-.18.06-.47.09-.87.09.55.75.75,1.58.6,2.5-.15.89-.53,1.57-1.13,2.05s-1.28.65-2.03.52c-.94-.16-1.61-.63-2-1.42-.39-.79-.47-1.83-.25-3.14l.21-1.22-.58-.1c-.46-.08-.85-.01-1.17.2s-.52.58-.61,1.1c-.08.45-.03.84.15,1.17.18.33.44.52.79.58l-.34,1.99c-.49-.08-.91-.32-1.28-.71-.37-.39-.63-.89-.77-1.48-.15-.6-.16-1.23-.04-1.92.18-1.04.58-1.82,1.2-2.35.63-.53,1.41-.72,2.36-.58l4,.68c.8.14,1.45.13,1.97-.01l.14.02-.34,2.03ZM330.82,201.64c.07-.39.03-.78-.1-1.16-.13-.38-.34-.68-.64-.91l-1.67-.28-.18,1.07c-.12.74-.09,1.31.1,1.73.19.42.53.66,1,.74.38.06.71-.01.98-.23.27-.22.44-.54.51-.96Z"></path><path class="uuid-e4dce122-30b8-4f40-9f93-7748ea418d1e" d="M324.53,192.6l1.04.05c-.73-.75-1.03-1.66-.92-2.73.2-1.86,1.37-2.7,3.5-2.5l5.91.63-.21,2.01-5.79-.62c-.57-.06-1,.02-1.3.23-.3.22-.48.6-.54,1.16-.09.81.21,1.45.91,1.93l6.36.68-.21,2.01-8.94-.96.2-1.89Z"></path><path class="uuid-e4dce122-30b8-4f40-9f93-7748ea418d1e" d="M322.9,184.98c-.31-.02-.56-.13-.75-.34s-.28-.5-.25-.86c.02-.36.14-.64.36-.83.22-.19.48-.27.79-.25.3.02.55.13.74.35.19.21.27.5.25.87-.02.36-.14.64-.35.82-.21.18-.47.27-.78.25ZM334.34,183.54l-.12,2.02-8.98-.56.12-2.02,8.98.56Z"></path><path class="uuid-e4dce122-30b8-4f40-9f93-7748ea418d1e" d="M332.92,178.84l.1-4.79,1.61.03-.15,7.3-1.32-.03-5.95-4.68-.09,4.48-1.63-.03.14-7.04,1.28.03,6.01,4.74Z"></path><path class="uuid-e4dce122-30b8-4f40-9f93-7748ea418d1e" d="M334.41,166.69c-.17.09-.45.18-.83.26.69.62,1.06,1.39,1.09,2.32.03.9-.2,1.65-.69,2.24-.49.59-1.12.9-1.88.93-.96.04-1.71-.29-2.24-.99-.54-.69-.83-1.7-.88-3.02l-.05-1.24-.59.02c-.47.02-.83.16-1.1.43-.27.27-.39.67-.38,1.2.02.46.15.83.39,1.12.24.29.54.42.89.41l.07,2.02c-.49.02-.96-.13-1.4-.44-.44-.31-.79-.74-1.06-1.3-.26-.55-.41-1.18-.43-1.87-.04-1.05.19-1.9.7-2.55.51-.65,1.24-.99,2.19-1.05l4.05-.15c.81-.03,1.45-.17,1.92-.41h.14s.08,2.05.08,2.05ZM333.04,168.96c-.01-.4-.12-.77-.33-1.11-.21-.34-.48-.6-.81-.76l-1.69.06.04,1.09c.03.75.18,1.3.45,1.67.27.37.65.54,1.13.52.39-.01.69-.15.91-.42.22-.27.32-.61.31-1.05Z"></path><path class="uuid-e4dce122-30b8-4f40-9f93-7748ea418d1e" d="M322.8,160.93l2.18-.19-.13-1.58,1.49-.13.13,1.58,5-.43c.34-.03.58-.12.72-.27.14-.15.2-.4.17-.74-.02-.23-.07-.46-.14-.7l1.56-.13c.17.45.27.88.3,1.31.13,1.55-.66,2.39-2.36,2.54l-5.08.43.13,1.47-1.49.13-.13-1.47-2.18.19-.17-2.01Z"></path><path class="uuid-e4dce122-30b8-4f40-9f93-7748ea418d1e" d="M322.35,157.94c-.31.04-.58-.03-.8-.2s-.36-.44-.4-.8.03-.66.21-.88c.18-.22.42-.35.73-.39.3-.04.57.03.79.21s.36.44.4.81-.02.65-.2.87-.42.35-.72.38ZM333.35,154.48l.24,2.01-8.93,1.06-.24-2.01,8.93-1.06Z"></path><path class="uuid-e4dce122-30b8-4f40-9f93-7748ea418d1e" d="M328.6,153.07c-.87.14-1.68.1-2.43-.13s-1.37-.62-1.85-1.19c-.48-.56-.78-1.25-.92-2.06-.2-1.2.03-2.23.67-3.11.65-.87,1.6-1.45,2.87-1.72l.47-.09c.88-.14,1.68-.11,2.43.12.75.22,1.36.62,1.84,1.18s.79,1.26.92,2.08c.21,1.25-.04,2.32-.75,3.21-.71.89-1.76,1.45-3.15,1.68l-.1.02ZM328.44,151.05c.91-.15,1.6-.46,2.05-.92.46-.46.63-1.03.51-1.7-.11-.67-.46-1.15-1.05-1.44-.59-.29-1.39-.35-2.4-.18-.9.15-1.58.46-2.04.93-.46.47-.64,1.04-.53,1.7.11.65.45,1.12,1.03,1.42s1.38.36,2.41.19Z"></path><path class="uuid-e4dce122-30b8-4f40-9f93-7748ea418d1e" d="M322.13,142.13l1-.29c-.93-.47-1.52-1.23-1.76-2.28-.42-1.82.41-2.99,2.49-3.51l5.79-1.34.45,1.97-5.68,1.31c-.56.13-.94.34-1.15.65-.21.3-.25.73-.13,1.27.18.79.68,1.3,1.49,1.52l6.24-1.44.46,1.97-8.76,2.02-.43-1.85Z"></path><path class="uuid-e4dce122-30b8-4f40-9f93-7748ea418d1e" d="M325.23,128.14c-.35.1-.57.32-.66.66-.1.34-.12.86-.06,1.56s.04,1.3-.04,1.81c-.18,1.11-.72,1.79-1.6,2.05-.74.22-1.46.09-2.14-.39-.68-.48-1.17-1.2-1.46-2.17-.3-1.03-.3-1.94.03-2.73.32-.79.89-1.3,1.7-1.54l.57,1.94c-.37.11-.64.34-.81.69-.17.35-.18.75-.05,1.21.13.43.33.74.6.95.28.21.58.27.91.17.3-.09.49-.28.58-.58.09-.3.11-.85.05-1.66-.06-.81-.03-1.46.07-1.97.1-.5.29-.9.55-1.21.26-.31.62-.53,1.09-.66.78-.23,1.5-.09,2.17.41s1.16,1.27,1.47,2.31c.21.71.27,1.37.17,2-.09.63-.32,1.16-.67,1.6-.36.44-.79.74-1.31.89l-.56-1.88c.45-.16.75-.44.9-.83.15-.39.15-.85,0-1.38-.15-.51-.36-.87-.63-1.08s-.57-.27-.88-.17Z"></path></g><g><g><path class="uuid-e4dce122-30b8-4f40-9f93-7748ea418d1e" d="M111.5,136.07h-24.62l-5.59,15.23h-4.8l20.52-54.23h4.36l20.52,54.23h-4.77l-5.62-15.23ZM88.3,132.2h21.75l-10.88-29.54-10.88,29.54Z"></path><path class="uuid-e4dce122-30b8-4f40-9f93-7748ea418d1e" d="M134.69,151.31h-4.58v-54.23h4.58v54.23Z"></path><path class="uuid-e4dce122-30b8-4f40-9f93-7748ea418d1e" d="M187.04,134.4c-.62,5.71-2.66,10.08-6.13,13.11s-8.08,4.54-13.84,4.54c-4.02,0-7.58-1.01-10.67-3.02-3.09-2.01-5.48-4.86-7.17-8.55-1.69-3.69-2.55-7.9-2.57-12.65v-7.04c0-4.82.84-9.09,2.53-12.81s4.12-6.6,7.28-8.62c3.17-2.02,6.81-3.04,10.93-3.04,5.81,0,10.4,1.56,13.76,4.69,3.36,3.13,5.32,7.46,5.87,13h-4.62c-1.14-9.21-6.15-13.82-15.01-13.82-4.92,0-8.83,1.84-11.75,5.52-2.92,3.68-4.38,8.76-4.38,15.25v6.64c0,6.26,1.42,11.26,4.26,14.98,2.84,3.73,6.69,5.59,11.53,5.59s8.4-1.15,10.84-3.45c2.43-2.3,3.94-5.74,4.51-10.34h4.62Z"></path><path class="uuid-e4dce122-30b8-4f40-9f93-7748ea418d1e" d="M201.99,129.22v22.09h-4.58v-54.23h18.47c5.64,0,10.09,1.44,13.35,4.32,3.27,2.88,4.9,6.84,4.9,11.88s-1.57,9.02-4.71,11.79c-3.14,2.77-7.69,4.15-13.65,4.15h-13.78ZM201.99,125.35h13.89c4.44,0,7.83-1.06,10.17-3.17,2.33-2.11,3.5-5.06,3.5-8.84s-1.16-6.75-3.48-8.97c-2.32-2.23-5.62-3.36-9.89-3.41h-14.19v24.4Z"></path><path class="uuid-e4dce122-30b8-4f40-9f93-7748ea418d1e" d="M267.75,136.07h-24.62l-5.59,15.23h-4.8l20.52-54.23h4.36l20.52,54.23h-4.77l-5.62-15.23ZM244.54,132.2h21.75l-10.88-29.54-10.88,29.54Z"></path><path class="uuid-e4dce122-30b8-4f40-9f93-7748ea418d1e" d="M142.45,226.05c0-3-1.06-5.38-3.17-7.13-2.11-1.75-5.97-3.41-11.58-4.99-5.61-1.58-9.71-3.3-12.29-5.16-3.68-2.63-5.51-6.08-5.51-10.35s1.71-7.52,5.12-10.11c3.41-2.59,7.78-3.89,13.09-3.89,3.6,0,6.82.7,9.67,2.09,2.84,1.39,5.05,3.33,6.61,5.81,1.56,2.48,2.35,5.25,2.35,8.31h-4.62c0-3.71-1.27-6.69-3.8-8.95s-5.93-3.38-10.21-3.38-7.45.93-9.91,2.78c-2.46,1.85-3.69,4.27-3.69,7.26,0,2.76,1.1,5.01,3.31,6.75,2.21,1.74,5.75,3.28,10.61,4.61,4.87,1.33,8.55,2.71,11.06,4.14,2.51,1.43,4.4,3.13,5.66,5.12,1.27,1.99,1.9,4.33,1.9,7.04,0,4.27-1.71,7.7-5.12,10.28s-7.91,3.87-13.5,3.87c-3.82,0-7.33-.68-10.52-2.05-3.19-1.37-5.61-3.28-7.26-5.74-1.65-2.46-2.48-5.28-2.48-8.45h4.58c0,3.82,1.43,6.84,4.28,9.05,2.85,2.21,6.65,3.31,11.4,3.31,4.22,0,7.61-.93,10.17-2.79,2.56-1.86,3.84-4.33,3.84-7.41Z"></path><path class="uuid-e4dce122-30b8-4f40-9f93-7748ea418d1e" d="M196.25,215.21c0,4.99-.86,9.37-2.59,13.15-1.73,3.77-4.19,6.68-7.39,8.72-3.2,2.04-6.9,3.05-11.1,3.05-6.33,0-11.45-2.27-15.34-6.8-3.9-4.53-5.85-10.65-5.85-18.34v-5.59c0-4.94.88-9.32,2.63-13.13,1.75-3.81,4.23-6.74,7.43-8.79,3.2-2.05,6.89-3.07,11.06-3.07s7.85,1.01,11.04,3.02c3.19,2.01,5.65,4.85,7.39,8.53,1.74,3.68,2.64,7.93,2.72,12.78v6.48ZM191.67,209.32c0-6.53-1.48-11.65-4.43-15.35-2.96-3.7-7-5.55-12.14-5.55s-9.06,1.86-12.05,5.57c-2.99,3.71-4.49,8.9-4.49,15.55v5.66c0,6.43,1.49,11.53,4.47,15.29,2.98,3.76,7.03,5.64,12.14,5.64s9.24-1.86,12.14-5.57c2.91-3.71,4.36-8.88,4.36-15.51v-5.74Z"></path><path class="uuid-e4dce122-30b8-4f40-9f93-7748ea418d1e" d="M245.44,222.47c-.62,5.71-2.66,10.08-6.13,13.11s-8.08,4.54-13.84,4.54c-4.02,0-7.58-1.01-10.67-3.02-3.09-2.01-5.48-4.86-7.17-8.55-1.69-3.69-2.55-7.9-2.57-12.65v-7.04c0-4.82.84-9.09,2.53-12.81s4.12-6.6,7.28-8.62c3.17-2.02,6.81-3.04,10.93-3.04,5.81,0,10.4,1.56,13.76,4.69,3.36,3.13,5.32,7.46,5.87,13h-4.62c-1.14-9.21-6.15-13.82-15.01-13.82-4.92,0-8.83,1.84-11.75,5.52-2.92,3.68-4.38,8.76-4.38,15.25v6.64c0,6.26,1.42,11.26,4.26,14.98,2.84,3.73,6.69,5.59,11.53,5.59s8.4-1.15,10.84-3.45c2.43-2.3,3.94-5.74,4.51-10.34h4.62Z"></path></g><line class="uuid-01db3b58-195e-4d53-8c91-6bb53e9957be" x1="74.81" y1="168.93" x2="281.52" y2="168.93"></line></g><g><path class="uuid-e4dce122-30b8-4f40-9f93-7748ea418d1e" d="M108.75,270.78c-.1-.21-.19-.57-.25-1.1-.83.86-1.82,1.29-2.98,1.29-1.03,0-1.88-.29-2.54-.87-.66-.58-.99-1.32-.99-2.22,0-1.09.41-1.93,1.24-2.54.83-.6,1.99-.9,3.49-.9h1.74v-.82c0-.62-.19-1.12-.56-1.49-.37-.37-.92-.56-1.65-.56-.64,0-1.17.16-1.6.48s-.65.71-.65,1.17h-1.8c0-.52.19-1.03.56-1.51.37-.49.87-.87,1.51-1.15.63-.28,1.33-.43,2.09-.43,1.21,0,2.15.3,2.83.9.68.6,1.04,1.43,1.06,2.49v4.81c0,.96.12,1.72.37,2.29v.15h-1.88ZM105.78,269.42c.56,0,1.09-.15,1.59-.43.5-.29.87-.67,1.09-1.13v-2.15h-1.4c-2.19,0-3.29.64-3.29,1.92,0,.56.19,1,.56,1.31.37.32.85.47,1.44.47Z"></path><path class="uuid-e4dce122-30b8-4f40-9f93-7748ea418d1e" d="M112.57,257.55c0-.29.09-.54.27-.73s.44-.3.79-.3.61.1.79.3c.18.2.27.44.27.73s-.09.53-.27.72c-.18.19-.44.29-.79.29s-.61-.1-.79-.29-.27-.44-.27-.72ZM114.5,270.78h-1.79v-10.46h1.79v10.46Z"></path><path class="uuid-e4dce122-30b8-4f40-9f93-7748ea418d1e" d="M121.06,269.52c.64,0,1.19-.19,1.67-.58.48-.39.74-.87.79-1.45h1.69c-.03.6-.24,1.17-.62,1.71-.38.54-.89.97-1.52,1.29-.63.32-1.31.48-2.01.48-1.42,0-2.56-.48-3.4-1.43-.84-.95-1.26-2.25-1.26-3.9v-.3c0-1.02.19-1.92.56-2.72.37-.79.91-1.41,1.61-1.85s1.53-.66,2.48-.66c1.17,0,2.15.35,2.92,1.05.78.7,1.19,1.61,1.24,2.74h-1.69c-.05-.68-.31-1.23-.77-1.67-.46-.43-1.03-.65-1.71-.65-.91,0-1.61.33-2.11.98-.5.65-.75,1.6-.75,2.84v.34c0,1.21.25,2.13.74,2.78.5.65,1.21.98,2.13.98Z"></path><path class="uuid-e4dce122-30b8-4f40-9f93-7748ea418d1e" d="M135.57,265.67c0,1.59-.36,2.87-1.09,3.85-.73.97-1.71,1.46-2.96,1.46s-2.27-.4-3-1.21v5.04h-1.79v-14.48h1.63l.09,1.16c.73-.9,1.74-1.35,3.03-1.35s2.25.47,2.98,1.42c.73.95,1.1,2.27,1.1,3.95v.16ZM133.78,265.47c0-1.18-.25-2.11-.75-2.79-.5-.68-1.19-1.02-2.07-1.02-1.08,0-1.89.48-2.44,1.44v5c.54.95,1.35,1.43,2.46,1.43.86,0,1.54-.34,2.04-1.02.51-.68.76-1.69.76-3.03Z"></path><path class="uuid-e4dce122-30b8-4f40-9f93-7748ea418d1e" d="M143.8,270.78c-.1-.21-.19-.57-.25-1.1-.83.86-1.82,1.29-2.98,1.29-1.03,0-1.88-.29-2.54-.87-.66-.58-.99-1.32-.99-2.22,0-1.09.41-1.93,1.24-2.54.83-.6,1.99-.9,3.49-.9h1.74v-.82c0-.62-.19-1.12-.56-1.49-.37-.37-.92-.56-1.65-.56-.64,0-1.17.16-1.6.48s-.65.71-.65,1.17h-1.8c0-.52.19-1.03.56-1.51.37-.49.87-.87,1.51-1.15.63-.28,1.33-.43,2.09-.43,1.21,0,2.15.3,2.83.9.68.6,1.04,1.43,1.06,2.49v4.81c0,.96.12,1.72.37,2.29v.15h-1.88ZM140.83,269.42c.56,0,1.09-.15,1.59-.43.5-.29.87-.67,1.09-1.13v-2.15h-1.4c-2.19,0-3.29.64-3.29,1.92,0,.56.19,1,.56,1.31.37.32.85.47,1.44.47Z"></path><path class="uuid-e4dce122-30b8-4f40-9f93-7748ea418d1e" d="M147.65,269.85c0-.31.09-.57.28-.77s.46-.31.83-.31.65.1.84.31.29.46.29.77-.1.54-.29.74-.47.3-.84.3-.64-.1-.83-.3-.28-.45-.28-.74Z"></path><path class="uuid-e4dce122-30b8-4f40-9f93-7748ea418d1e" d="M151.86,265.46c0-1.02.2-1.95.6-2.76s.96-1.45,1.68-1.89c.72-.44,1.54-.67,2.46-.67,1.42,0,2.58.49,3.46,1.48s1.32,2.3,1.32,3.93v.13c0,1.02-.19,1.93-.58,2.74-.39.81-.95,1.44-1.67,1.89-.73.45-1.56.68-2.5.68-1.42,0-2.57-.49-3.45-1.48-.88-.99-1.32-2.29-1.32-3.91v-.13ZM153.65,265.67c0,1.16.27,2.09.81,2.79s1.26,1.05,2.16,1.05,1.63-.36,2.16-1.07.8-1.71.8-2.99c0-1.15-.27-2.08-.82-2.79-.54-.71-1.27-1.07-2.17-1.07s-1.59.35-2.14,1.05-.81,1.71-.81,3.02Z"></path><path class="uuid-e4dce122-30b8-4f40-9f93-7748ea418d1e" d="M168.18,261.93c-.27-.04-.56-.07-.88-.07-1.17,0-1.97.5-2.39,1.5v7.42h-1.79v-10.46h1.74l.03,1.21c.59-.93,1.42-1.4,2.49-1.4.35,0,.61.04.79.14v1.66Z"></path><path class="uuid-e4dce122-30b8-4f40-9f93-7748ea418d1e" d="M168.71,265.47c0-1.63.38-2.93,1.13-3.89.75-.96,1.75-1.44,3-1.44s2.27.45,2.99,1.35l.09-1.16h1.63v10.21c0,1.35-.4,2.42-1.2,3.2-.8.78-1.88,1.17-3.23,1.17-.75,0-1.49-.16-2.21-.48-.72-.32-1.27-.76-1.65-1.32l.93-1.07c.77.95,1.7,1.42,2.81,1.42.87,0,1.55-.25,2.03-.73.49-.49.73-1.18.73-2.07v-.9c-.72.83-1.69,1.24-2.93,1.24s-2.21-.49-2.97-1.48c-.76-.99-1.14-2.33-1.14-4.03ZM170.51,265.67c0,1.18.24,2.11.73,2.78.48.67,1.16,1.01,2.03,1.01,1.13,0,1.96-.51,2.48-1.54v-4.77c-.55-1-1.37-1.5-2.46-1.5-.87,0-1.55.34-2.04,1.02-.49.68-.73,1.68-.73,3.01Z"></path><path class="uuid-e4dce122-30b8-4f40-9f93-7748ea418d1e" d="M180.11,271.99h-1.54l5.88-15.28h1.53l-5.87,15.28Z"></path><path class="uuid-e4dce122-30b8-4f40-9f93-7748ea418d1e" d="M193.5,268.01c0-.48-.18-.86-.55-1.13-.36-.27-1-.5-1.9-.69-.91-.19-1.62-.43-2.16-.7-.53-.27-.92-.59-1.18-.97-.25-.37-.38-.82-.38-1.33,0-.86.36-1.58,1.09-2.17.73-.59,1.65-.89,2.78-.89,1.19,0,2.15.31,2.88.92.74.61,1.11,1.4,1.11,2.35h-1.8c0-.49-.21-.91-.62-1.27s-.94-.53-1.57-.53-1.16.14-1.53.43c-.37.28-.55.65-.55,1.11,0,.43.17.76.51.98.34.22.96.43,1.85.63.89.2,1.62.44,2.17.72.55.28.96.61,1.23,1s.4.86.4,1.43c0,.93-.37,1.68-1.12,2.25-.75.56-1.72.85-2.91.85-.84,0-1.58-.15-2.22-.44-.64-.3-1.15-.71-1.51-1.24-.36-.53-.55-1.11-.55-1.73h1.79c.03.6.27,1.07.72,1.43s1.04.53,1.77.53c.68,0,1.22-.14,1.63-.41s.61-.64.61-1.1Z"></path><path class="uuid-e4dce122-30b8-4f40-9f93-7748ea418d1e" d="M196.65,265.46c0-1.02.2-1.95.6-2.76s.96-1.45,1.68-1.89c.72-.44,1.54-.67,2.46-.67,1.42,0,2.58.49,3.46,1.48s1.32,2.3,1.32,3.93v.13c0,1.02-.19,1.93-.58,2.74-.39.81-.95,1.44-1.67,1.89-.73.45-1.56.68-2.5.68-1.42,0-2.57-.49-3.45-1.48-.88-.99-1.32-2.29-1.32-3.91v-.13ZM198.45,265.67c0,1.16.27,2.09.81,2.79s1.26,1.05,2.16,1.05,1.63-.36,2.16-1.07.8-1.71.8-2.99c0-1.15-.27-2.08-.82-2.79-.54-.71-1.27-1.07-2.17-1.07s-1.59.35-2.14,1.05-.81,1.71-.81,3.02Z"></path><path class="uuid-e4dce122-30b8-4f40-9f93-7748ea418d1e" d="M212.11,269.52c.64,0,1.19-.19,1.67-.58.48-.39.74-.87.79-1.45h1.69c-.03.6-.24,1.17-.62,1.71-.38.54-.89.97-1.52,1.29-.63.32-1.31.48-2.01.48-1.42,0-2.56-.48-3.4-1.43-.84-.95-1.26-2.25-1.26-3.9v-.3c0-1.02.19-1.92.56-2.72.37-.79.91-1.41,1.61-1.85s1.53-.66,2.48-.66c1.17,0,2.15.35,2.92,1.05.78.7,1.19,1.61,1.24,2.74h-1.69c-.05-.68-.31-1.23-.77-1.67-.46-.43-1.03-.65-1.71-.65-.91,0-1.61.33-2.11.98-.5.65-.75,1.6-.75,2.84v.34c0,1.21.25,2.13.74,2.78.5.65,1.21.98,2.13.98Z"></path><path class="uuid-e4dce122-30b8-4f40-9f93-7748ea418d1e" d="M225.14,266.06h1.95v1.46h-1.95v3.27h-1.8v-3.27h-6.41v-1.05l6.3-9.75h1.9v9.35ZM218.97,266.06h4.38v-6.9l-.21.39-4.17,6.51Z"></path><path class="uuid-e4dce122-30b8-4f40-9f93-7748ea418d1e" d="M234.49,268.01c0-.48-.18-.86-.55-1.13s-1-.5-1.9-.69c-.91-.19-1.62-.43-2.16-.7-.53-.27-.92-.59-1.18-.97-.25-.37-.38-.82-.38-1.33,0-.86.36-1.58,1.09-2.17s1.65-.89,2.78-.89c1.19,0,2.15.31,2.88.92.74.61,1.11,1.4,1.11,2.35h-1.8c0-.49-.21-.91-.62-1.27-.42-.35-.94-.53-1.57-.53s-1.16.14-1.53.43c-.37.28-.55.65-.55,1.11,0,.43.17.76.51.98.34.22.96.43,1.85.63s1.62.44,2.17.72.96.61,1.23,1,.4.86.4,1.43c0,.93-.37,1.68-1.12,2.25-.75.56-1.72.85-2.91.85-.84,0-1.58-.15-2.22-.44-.64-.3-1.15-.71-1.51-1.24-.36-.53-.55-1.11-.55-1.73h1.79c.03.6.27,1.07.72,1.43.45.35,1.04.53,1.77.53.68,0,1.22-.14,1.63-.41s.61-.64.61-1.1Z"></path><path class="uuid-e4dce122-30b8-4f40-9f93-7748ea418d1e" d="M237.64,265.46c0-1.02.2-1.95.6-2.76.4-.82.96-1.45,1.68-1.89.72-.44,1.54-.67,2.46-.67,1.42,0,2.58.49,3.46,1.48.88.99,1.32,2.3,1.32,3.93v.13c0,1.02-.19,1.93-.58,2.74-.39.81-.95,1.44-1.67,1.89-.73.45-1.56.68-2.5.68-1.42,0-2.57-.49-3.45-1.48-.88-.99-1.32-2.29-1.32-3.91v-.13ZM239.43,265.67c0,1.16.27,2.09.81,2.79s1.26,1.05,2.16,1.05,1.63-.36,2.16-1.07c.54-.71.8-1.71.8-2.99,0-1.15-.27-2.08-.82-2.79-.54-.71-1.27-1.07-2.17-1.07s-1.59.35-2.14,1.05-.81,1.71-.81,3.02Z"></path></g><path class="uuid-834ad543-a68c-4b31-9ba8-4808ed38f005" d="M322.27,311.96v1.21h-2.33v6.08h-1.45v-6.08h-2.33v-1.21h6.11ZM330.15,319.25l-.27-4.28c-.03-.56-.03-1.26-.05-2.04h-.08c-.19.64-.4,1.5-.62,2.17l-1.31,4.04h-1.5l-1.31-4.15c-.13-.56-.35-1.42-.51-2.06h-.08c0,.67-.03,1.37-.05,2.04l-.27,4.28h-1.39l.54-7.28h2.17l1.26,3.56c.16.56.29,1.1.48,1.85h.03c.19-.67.35-1.29.51-1.82l1.26-3.59h2.09l.56,7.28h-1.45Z"></path></svg>