<?xml version="1.0" encoding="utf-8"?>
<!-- Generator: Adobe Illustrator 27.7.0, SVG Export Plug-In . SVG Version: 6.00 Build 0)  -->
<svg version="1.1" id="Layer_1" xmlns="http://www.w3.org/2000/svg" xmlns:xlink="http://www.w3.org/1999/xlink" x="0px" y="0px"
	 viewBox="0 0 2019 445.7" enable-background="new 0 0 2019 445.7" xml:space="preserve">
<g>
	<g>
		<g>
			<path fill="#00594E" d="M710.1,193.9v-80.6h12.1v189.8h-12.1v-97.9H594.7v97.9h-12.1V113.4h12.1v80.6H710.1z"/>
			<path fill="#00594E" d="M811.7,240.8l-25.4,62.4H774l79.6-196.1l79.3,196.1h-12.3l-25.4-62.4H811.7z M853.5,137.8l-37.3,91.6
				h74.3L853.5,137.8z"/>
			<path fill="#00594E" d="M1156.1,309.5L996.8,140.1v163.2h-12.1V110.9L1144.1,279V113.4h12.1V309.5z"/>
			<path fill="#00594E" d="M1412.7,208.3c0,53.4-45.1,97.4-98.4,97.4s-98.4-44.1-98.4-97.4s44.8-97.4,98.4-97.4
				C1367.6,110.9,1412.7,154.9,1412.7,208.3z M1227.9,208.3c0,46.8,39,86.1,86.4,86.1c47.1,0,86.4-39.5,86.4-86.1
				c0-46.8-39.3-86.1-86.4-86.1C1266.9,122.2,1227.9,161.5,1227.9,208.3z"/>
			<path fill="#00594E" d="M1521.7,275.5h0.5l56.1-162.1h12.1l-69,196.1l-68.2-196.1h12.1L1521.7,275.5z"/>
			<path fill="#00594E" d="M1654.3,124.7v69h76.5V205h-76.5v86.9h78.6v11.3h-90.6V113.4h90.6v11.3H1654.3z"/>
			<path fill="#00594E" d="M1894,303.2h-13.9l-61.9-89.9h-6v89.9h-12.1V113.4h23.7c15.4,0,30.5,0.3,43.3,9.6
				c13.6,9.6,19.1,24.7,19.1,40.8c0,33-22.9,50.1-54.4,49.6L1894,303.2z M1827.5,202c11.8,0,23.7-0.5,33.2-8.8
				c9.1-7.3,13.3-18.6,13.3-30c0-14.1-6.5-28.2-20.1-34.2c-10.1-4.8-22.9-4.3-34-4.3h-7.8V202H1827.5z"/>
		</g>
		<g>
			<path fill="#00594E" d="M628.5,443.2h-6.7l-29.9-43.4H589v43.4h-5.8v-91.7h11.4c7.4,0,14.7,0.1,20.9,4.6
				c6.6,4.6,9.2,11.9,9.2,19.7c0,15.9-11.1,24.2-26.3,24L628.5,443.2z M596.4,394.3c5.7,0,11.4-0.2,16.1-4.3c4.4-3.5,6.4-9,6.4-14.5
				c0-6.8-3.2-13.6-9.7-16.5c-4.9-2.3-11.1-2.1-16.4-2.1H589v37.3H596.4z"/>
			<path fill="#00594E" d="M757.5,357v33.3h37v5.5h-37v41.9h37.9v5.5h-43.8v-91.7h43.8v5.5H757.5z"/>
			<path fill="#00594E" d="M965,366.6c-4.1-6.6-10-10.8-18.6-10.8c-9.9,0-17.3,7.9-17.3,17.5c0,9.6,9.1,13.6,16.5,17.1l17.5,9.1
				c6.9,4.4,10.5,10,10.5,18.2c0,15.2-13.9,26.6-28.7,26.6c-12.8,0-22.7-7.9-27-19.7l5.1-2.3c3.9,9.7,11.1,16.5,22.1,16.5
				c12,0,22.6-9.5,22.6-21.6c0-10.3-10.6-14.7-18.5-18.6l-16.5-8.8c-6.1-3.8-9.5-9.1-9.5-16.4c0-13.6,9.7-23.2,23.5-23.2
				c9.2,0,18,5,22.4,12.9L965,366.6z"/>
			<path fill="#00594E" d="M1103.7,357v33.3h37v5.5h-37v41.9h37.9v5.5h-43.8v-91.7h43.8v5.5H1103.7z"/>
			<path fill="#00594E" d="M1277.7,413l-12.3,30.2h-6l38.4-94.7l38.3,94.7h-6L1318,413H1277.7z M1297.9,363.3l-18,44.3h35.9
				L1297.9,363.3z"/>
			<path fill="#00594E" d="M1501.2,443.2h-6.7l-29.9-43.4h-2.9v43.4h-5.8v-91.7h11.4c7.4,0,14.7,0.1,20.9,4.6
				c6.6,4.6,9.2,11.9,9.2,19.7c0,15.9-11.1,24.2-26.3,24L1501.2,443.2z M1469.1,394.3c5.7,0,11.4-0.2,16-4.3c4.4-3.5,6.4-9,6.4-14.5
				c0-6.8-3.2-13.6-9.7-16.5c-4.9-2.3-11.1-2.1-16.4-2.1h-3.8v37.3H1469.1z"/>
			<path fill="#00594E" d="M1697.2,370.2c-7-8.6-19.5-14.5-30.8-14.5c-22.9,0-41.7,19.7-41.7,42.2c0,10.7,4.6,20.8,12.3,28.3
				c7.7,7.3,18.6,12.6,29.4,12.6c10.6,0,24-5.7,30.8-14v8c-8.6,7.2-19.2,11.4-30.5,11.4c-25.5,0-47.8-21.3-47.8-46.9
				c0-26,21.9-47.2,47.9-47.2c11.1,0,22.3,4.4,30.4,11.9V370.2z"/>
			<path fill="#00594E" d="M1885,390.4v-38.9h5.8v91.7h-5.8v-47.3h-55.7v47.3h-5.8v-91.7h5.8v38.9H1885z"/>
		</g>
		<g>
			<rect y="275.3" fill="#00594E" width="190.5" height="170.4"/>
			<polygon fill="#00594E" points="322.9,290.2 322.9,445.7 472.9,445.7 342.3,290.2 			"/>
			<path fill="#00594E" d="M0,0v254.4h190.5V105.7h22.3v339.9h87.8V105.7h60.3c28.3,0,56.2,0.5,79.9,17.7
				c25.1,17.6,35.3,45.5,35.3,75.3c0,60.6-41.9,92.2-99.6,91.6c-0.3,0-8.8,0-9.1,0l130.9,155.5h12.5V0H0z"/>
			<path fill="#00594E" d="M429.1,253c16.7-13.5,24.6-34.4,24.6-55.3c0-26-12.1-52-37.2-63.2c-18.6-8.8-42.3-7.9-62.7-7.9h-31v142.6
				h45C389.6,269.3,411.5,268.3,429.1,253z"/>
		</g>
	</g>
	<g>
		<path fill="#00594E" d="M1980.7,113.4c3.5,0,6.9,0.5,10.2,1.4c3.3,0.9,6.3,2.2,9.1,3.9c2.8,1.7,5.4,3.7,7.7,6
			c2.3,2.3,4.3,4.9,6,7.7c1.7,2.8,3,5.9,3.9,9.1c0.9,3.3,1.4,6.7,1.4,10.2c0,3.5-0.5,6.9-1.4,10.2c-0.9,3.3-2.2,6.3-3.9,9.1
			c-1.7,2.8-3.7,5.4-6,7.7c-2.3,2.3-4.9,4.3-7.7,6c-2.8,1.7-5.9,3-9.1,3.9c-3.3,0.9-6.7,1.4-10.2,1.4c-3.5,0-6.9-0.5-10.2-1.4
			c-3.3-0.9-6.3-2.2-9.1-3.9c-2.8-1.7-5.4-3.7-7.7-6c-2.3-2.3-4.3-4.9-6-7.7c-1.7-2.8-3-5.9-3.9-9.1c-0.9-3.3-1.4-6.6-1.4-10.2
			c0-3.5,0.5-6.9,1.4-10.2c0.9-3.3,2.2-6.3,3.9-9.1c1.7-2.8,3.7-5.4,6-7.7c2.3-2.3,4.9-4.3,7.7-6c2.8-1.7,5.9-3,9.1-3.9
			C1973.7,113.8,1977.1,113.4,1980.7,113.4z M1980.7,187c3.3,0,6.4-0.4,9.4-1.2c3-0.8,5.8-2,8.4-3.6c2.6-1.5,5-3.4,7.1-5.5
			c2.1-2.1,4-4.5,5.5-7.1c1.5-2.6,2.7-5.4,3.6-8.5c0.8-3,1.2-6.2,1.2-9.5c0-4.9-0.9-9.5-2.8-13.8c-1.8-4.3-4.4-8.1-7.6-11.3
			c-3.2-3.2-6.9-5.8-11.2-7.6c-4.3-1.9-8.9-2.8-13.7-2.8c-4.9,0-9.4,0.9-13.7,2.8c-4.3,1.9-8,4.4-11.2,7.6c-3.2,3.2-5.7,7-7.5,11.3
			s-2.7,8.9-2.7,13.8c0,4.9,0.9,9.5,2.7,13.8s4.3,8,7.5,11.2c3.2,3.2,6.9,5.7,11.2,7.6C1971.2,186.1,1975.8,187,1980.7,187z
			 M1979.6,128.2c5.4,0,9.5,1,12.3,3c2.8,2,4.1,5.1,4.1,9.3c0,3.5-1.1,6.4-3.4,8.7c-2.3,2.3-5.5,3.7-9.6,4.2
			c0.7,0.4,1.4,1.1,2.1,2.1l15.1,19.5h-4.2c-0.4,0-0.7-0.1-1-0.2c-0.2-0.1-0.5-0.3-0.7-0.7l-14.4-18.6c-0.3-0.4-0.6-0.7-1.1-0.9
			c-0.4-0.2-1.1-0.3-2.1-0.3h-5.8v20.7h-4.5v-46.9H1979.6z M1978.8,151c4.3,0,7.5-0.9,9.6-2.6c2.1-1.7,3.2-4.2,3.2-7.4
			c0-3.3-0.9-5.6-2.8-7.1c-1.9-1.5-4.9-2.2-9.1-2.2h-8.6V151H1978.8z"/>
	</g>
</g>
<g>
</g>
<g>
</g>
<g>
</g>
<g>
</g>
<g>
</g>
<g>
</g>
</svg>
