<svg xmlns="http://www.w3.org/2000/svg" id="uuid-372868e5-fe47-4595-8b3a-4dd5f6bd5259" data-name="Layer 1" viewBox="0 0 1222.23 999.99"><defs><style>      .uuid-4ea2c706-43ff-4704-84cf-3d1c63687bf7 {        fill: #ffdc95;      }      .uuid-c18566ac-9c41-41be-ab80-554c0265d021 {        fill: #6d9890;      }      .uuid-60a44477-a5e8-4ee8-bf4e-2b2de0f20a03 {        letter-spacing: 1.25em;      }      .uuid-a4c98fbe-7eb1-44e8-b49c-850b9ff51952 {        letter-spacing: 1.28em;      }      .uuid-343cfdf4-3bbd-4eae-963c-df63f8a30dcf, .uuid-acd55ecb-7049-4b2f-b8e6-e029cfbba568 {        isolation: isolate;      }      .uuid-0232a0a2-cd6c-45e5-a435-a18e113c0a64, .uuid-acd55ecb-7049-4b2f-b8e6-e029cfbba568 {        fill: #949598;      }      .uuid-e87b25d2-45a8-4341-bede-dc4fce0cf853 {        fill: #fff;      }      .uuid-acd55ecb-7049-4b2f-b8e6-e029cfbba568 {        font-family: Lato-Regular, Lato;        font-size: 73.52px;      }      .uuid-4766af32-7abf-448e-ab0c-5fe93f325fe7 {        fill: #00594e;      }    </style></defs><g><path class="uuid-4ea2c706-43ff-4704-84cf-3d1c63687bf7" d="M1071.45,642.23c10.58,1.96,21.16,3.99,31.72,6.11,12.21-43.76,18.74-89.89,18.74-137.54C1121.91,228.69,893.22,0,611.11,0S100.32,228.69,100.32,510.8c0,46.4,6.19,91.36,17.78,134.09,59.46-15.12,120.36-24.21,181.25-30.82,256.88-25.08,517.73-15.42,772.1,28.16h0Z"></path><path class="uuid-4ea2c706-43ff-4704-84cf-3d1c63687bf7" d="M1222.23,677.17c-39.14-11.6-78.98-20.82-119.06-28.83-.9,3.23-1.83,6.45-2.79,9.65,40.72,5.35,81.33,11.71,121.85,19.18h0Z"></path><path class="uuid-4ea2c706-43ff-4704-84cf-3d1c63687bf7" d="M108.31,647.43C71.1,657.33,33.36,669.96,0,689.27c38.67-17.11,79.59-27.03,120.87-34.59-.95-3.25-1.88-6.51-2.77-9.79-3.27.83-6.53,1.67-9.79,2.54h0Z"></path></g><polygon class="uuid-e87b25d2-45a8-4341-bede-dc4fce0cf853" points="304.51 442.41 98.57 651.03 376.96 619.89 304.51 442.41"></polygon><polygon class="uuid-e87b25d2-45a8-4341-bede-dc4fce0cf853" points="572.19 223.08 267.41 624.29 880.08 615.97 572.19 223.08"></polygon><polygon class="uuid-e87b25d2-45a8-4341-bede-dc4fce0cf853" points="827.95 380.13 598.61 603.36 1129.19 653.73 827.95 380.13"></polygon><path class="uuid-0232a0a2-cd6c-45e5-a435-a18e113c0a64" d="M433.3,370.98c8.76-17.7-6.01-45.88-24.89-59.01-10.72-7.46-8.57-15.16-8.57-15.16,0,0,1.54-4.25,6-4.7,18.28-1.85,30.01-3.03,36.84-14.46,2.55-4.26,2.59-10.54-1.42-6.02-8.18,9.2-21.24,6.94-41.96-.96-4.01-1.53-14.26-3.97-25.99-4.68-6.28-.38-14.54.11-20.72,2.4-9.81,3.64-18.66,12.81-16.46,29.55.76,5.82,5.94,11.85,8.91,14,5.22,3.78,9.69,2.73,6.93.43-5.72-4.77-7.84-14.84-6.03-18.84,2.37-5.24,8.65-12.95,17.51-6.56.88.64,1.71,1.33,1.58,2.41-.48,3.9-2,21.47,10.13,40.78,2.25,3.58,6.69,8.81,9.85,11.61,12.28,10.85,21.99,39.95,24.03,55.41.3.81,1.3.68,1.83.17,9.34-9.12-.81-53.36-9.48-65.27-.32-.45-.06-1.08.49-1.14,14.1-1.61,28.02,26.47,28.53,39.56.09,2.86,1.33,3.61,2.88.48h0Z"></path><circle class="uuid-0232a0a2-cd6c-45e5-a435-a18e113c0a64" cx="390.28" cy="251.84" r="13.31"></circle><path class="uuid-0232a0a2-cd6c-45e5-a435-a18e113c0a64" d="M328.71,404.38c-2.2-.14-4.31-.88-6.02-2.21-1.15-.9-1.36-2.56-.47-3.71.9-1.15,2.56-1.36,3.71-.47,1.86,1.45,4.98,1.47,7.41.05,2.93-1.7,4.58-4.84,5.45-7.17,2.25-6.05,2.08-13.51-.52-22.83-.81-2.92-1.77-5.81-2.74-8.69-1.65-4.96-3.36-10.09-4.32-15.41-1.85-10.24-.25-19.44,4.52-25.89,3.14-4.25,8.17-7.3,13.45-8.17l.3-.05.31.02c.56-.03,46.58,2.95,70.35-12l.44-.27c8.4-5.28,17.93-11.26,17.97-20.21v-1.66l110.25-52.38c1.32-.63,2.89-.07,3.52,1.25s.07,2.9-1.25,3.52l-107.32,50.99c-1.06,10.84-11.71,17.53-20.35,22.96l-.43.27c-24.43,15.35-68.62,13.1-73.2,12.82-3.85.71-7.49,2.95-9.77,6.05-5.25,7.11-4.49,16.72-3.57,21.81.89,4.95,2.47,9.67,4.13,14.68.99,2.97,1.97,5.93,2.81,8.94,2.91,10.43,3.03,18.97.38,26.09-1.17,3.14-3.46,7.4-7.74,9.89-2.29,1.33-4.85,1.92-7.29,1.76v.02Z"></path><polygon class="uuid-0232a0a2-cd6c-45e5-a435-a18e113c0a64" points="305.98 424.8 338.52 504.45 567.79 189.53 755.6 424.87 831.59 356.81 1106.8 633.77 830.75 406.31 753.07 475.89 568.55 244.67 333.37 567.69 294.57 480.65 115.43 633.77 305.98 424.8"></polygon><polygon class="uuid-0232a0a2-cd6c-45e5-a435-a18e113c0a64" points="1067.34 624.29 833.07 428.73 763.72 484.54 828.2 467.68 782.49 574.09 915.53 524.36 867.99 592.58 951.92 562.82 1067.34 624.29"></polygon><polygon class="uuid-0232a0a2-cd6c-45e5-a435-a18e113c0a64" points="727.58 474.86 568.55 272.09 504.31 360.93 558.45 328.34 519.25 411.66 611.12 384.64 727.58 474.86"></polygon><polygon class="uuid-0232a0a2-cd6c-45e5-a435-a18e113c0a64" points="320.83 575.65 287.03 510.8 150.56 615.97 282.98 549.06 320.83 575.65"></polygon><path class="uuid-c18566ac-9c41-41be-ab80-554c0265d021" d="M0,689.27c33.36-19.31,71.1-31.94,108.31-41.84,62.55-16.66,126.81-26.38,191.04-33.35,256.88-25.08,517.73-15.42,772.1,28.16,50.76,9.42,101.32,20.29,150.78,34.94-50.7-9.35-101.54-16.99-152.58-23.04-203.93-23.96-409.67-32.35-614.9-28.07-102.45,2.53-205.18,8-306.47,23.9-50.48,8.24-101.06,18.42-148.28,39.31h0Z"></path><text class="uuid-acd55ecb-7049-4b2f-b8e6-e029cfbba568" transform="translate(148.26 752.37)"><tspan class="uuid-a4c98fbe-7eb1-44e8-b49c-850b9ff51952" x="0" y="0">HAN</tspan><tspan class="uuid-60a44477-a5e8-4ee8-bf4e-2b2de0f20a03" x="443.47" y="0">O</tspan><tspan class="uuid-a4c98fbe-7eb1-44e8-b49c-850b9ff51952" x="594.33" y="0">VE</tspan></text><text class="uuid-acd55ecb-7049-4b2f-b8e6-e029cfbba568" transform="translate(1026.61 752.37)"><tspan x="0" y="0">R</tspan></text><g class="uuid-343cfdf4-3bbd-4eae-963c-df63f8a30dcf"><path class="uuid-4766af32-7abf-448e-ab0c-5fe93f325fe7" d="M143.14,806.83h37.17l38.11,190.57h-32.23l-7.53-44h-33.17l-7.76,44h-32.7l38.11-190.57ZM174.9,931.29l-12.94-79.99-12.94,79.99h25.88Z"></path><path class="uuid-4766af32-7abf-448e-ab0c-5fe93f325fe7" d="M290.65,941.87l29.88-5.88c.94,22.59,6.35,37.17,21.65,37.17,11.06,0,15.76-7.53,15.76-17.88,0-16.47-8.47-25.65-20.94-36.47l-24-20.94c-13.65-11.76-22.12-24.94-22.12-46.11,0-30.12,18.82-47.05,49.17-47.05,35.76,0,45.88,24,47.76,51.76l-29.88,5.18c-.71-17.88-3.29-31.29-18.59-31.29-10.35,0-16,7.76-16,17.88,0,12.94,5.41,20,15.53,28.7l23.76,20.94c15.53,13.41,28.47,30.12,28.47,55.29,0,27.53-19.29,46.82-47.76,46.82-34.82,0-51.29-20.23-52.7-58.11Z"></path><path class="uuid-4766af32-7abf-448e-ab0c-5fe93f325fe7" d="M467.34,936.46v-67.99c0-39.06,12.47-63.76,54.35-63.76,39.06,0,51.53,21.65,51.53,54.82v16h-33.41v-16.47c0-16-.24-28.94-17.88-28.94s-19.53,13.65-19.53,31.06v82.58c0,20.7,4.23,30.59,19.53,30.59,17.17,0,17.88-13.41,17.88-30.35v-17.18h33.41v15.29c0,33.64-11.29,57.88-51.53,57.88s-54.35-26.35-54.35-63.52Z"></path><path class="uuid-4766af32-7abf-448e-ab0c-5fe93f325fe7" d="M656.26,806.83h79.99v24.47h-45.41v54.82h35.76v24.23h-35.76v63.29h45.88v23.76h-80.46v-190.57Z"></path><path class="uuid-4766af32-7abf-448e-ab0c-5fe93f325fe7" d="M815.77,806.83h24.23l46.35,108.7v-108.7h28.7v190.57h-23.06l-46.58-113.87v113.87h-29.64v-190.57Z"></path></g><g class="uuid-343cfdf4-3bbd-4eae-963c-df63f8a30dcf"><path class="uuid-4766af32-7abf-448e-ab0c-5fe93f325fe7" d="M1005.22,806.83h44.94c46.35,0,60.47,18.59,60.47,59.29v69.41c0,41.88-14.35,61.88-59.05,61.88h-46.35v-190.57ZM1050.63,973.17c23.76,0,24.7-12.71,24.7-36.47v-72.94c0-22.82-2.35-32.23-25.17-32.23h-10.35v141.64h10.82Z"></path></g></svg>