<svg xmlns="http://www.w3.org/2000/svg" xmlns:xlink="http://www.w3.org/1999/xlink" id="uuid-d50cf094-4a7d-4960-81f8-44d98dc85cfa" data-name="Layer 1" viewBox="0 0 679.1 310.19"><defs><style>      .uuid-433fa51e-7827-4c4d-aa5f-0fb4f5bb97b0 {        fill: #a6a9b5;      }      .uuid-905753bb-0faa-49c0-844b-033f9f1d5121 {        fill: #2d6cb5;      }      .uuid-553a28cd-1406-401a-9996-7558fe43dd23 {        fill: #fff;      }      .uuid-9da7b7e3-0b89-42ad-bacc-de3b1c8eb605 {        fill: #202945;      }      .uuid-8df3b6a7-5e48-441a-8450-29d9f2228a0f {        fill: #76787b;      }      .uuid-7aef7066-d31c-4b2c-a6f6-f99ad1bae445 {        fill: url(#uuid-0b801d77-bb77-419d-a90b-963ea03fc10b);      }      .uuid-6f5f60d8-1a71-4dce-8729-cec98bbb40b1 {        fill: url(#uuid-52b9c353-d5a9-4e63-a2f3-0364f8eaea53);      }      .uuid-98448828-4eab-478a-ae4b-6089a8b5f978 {        fill: url(#uuid-16d769e5-3e85-4c57-af7d-28e50431320f);      }    </style><linearGradient id="uuid-0b801d77-bb77-419d-a90b-963ea03fc10b" x1="134.76" y1="72.75" x2="134.76" y2="310.01" gradientTransform="translate(0 310.01) scale(1 -1)" gradientUnits="userSpaceOnUse"><stop offset="0" stop-color="#0e3563"></stop><stop offset=".05" stop-color="#123c6e"></stop><stop offset=".17" stop-color="#1c4d88"></stop><stop offset=".31" stop-color="#235b9c"></stop><stop offset=".47" stop-color="#2864aa"></stop><stop offset=".67" stop-color="#2c6ab2"></stop><stop offset="1" stop-color="#2d6cb5"></stop></linearGradient><linearGradient id="uuid-16d769e5-3e85-4c57-af7d-28e50431320f" x1="134.76" y1="-.18" x2="134.76" y2="237.06" gradientTransform="translate(0 310.01) scale(1 -1)" gradientUnits="userSpaceOnUse"><stop offset="0" stop-color="#2d6cb5"></stop><stop offset=".07" stop-color="#2a68af"></stop><stop offset="1" stop-color="#0e3563"></stop></linearGradient><linearGradient id="uuid-52b9c353-d5a9-4e63-a2f3-0364f8eaea53" x1="345.36" y1="289.28" x2="679.1" y2="289.28" gradientTransform="translate(0 310.01) scale(1 -1)" gradientUnits="userSpaceOnUse"><stop offset="0" stop-color="#0e3563"></stop><stop offset=".44" stop-color="#1e528e"></stop><stop offset=".8" stop-color="#2965aa"></stop><stop offset="1" stop-color="#2d6cb5"></stop></linearGradient></defs><g><path class="uuid-905753bb-0faa-49c0-844b-033f9f1d5121" d="M229.43,102.33s.02.03.04.04l.02-.04h-.06Z"></path><polygon class="uuid-905753bb-0faa-49c0-844b-033f9f1d5121" points="151.64 73.11 151.55 72.94 151.55 72.94 151.64 73.11"></polygon><path class="uuid-905753bb-0faa-49c0-844b-033f9f1d5121" d="M229.25,207.45c-.03.13-.05.27-.09.41h.32l-.23-.41h0Z"></path><polygon class="uuid-905753bb-0faa-49c0-844b-033f9f1d5121" points="62.7 150.77 62.7 150.77 63.29 151.79 62.7 150.77"></polygon><path class="uuid-7aef7066-d31c-4b2c-a6f6-f99ad1bae445" d="M163.07,213.28l-13.78,23.96H16.04c-14.28,0-20.13-10.12-12.99-22.48l30.7-53.14,13.81,24.01-15.98,27.65h131.49,0ZM147.75,9.26c-7.15-12.36-18.84-12.35-25.98.02L55.17,124.55l13.81,24.01,65.79-113.87,18.29,31.65h27.68l-32.98-57.07h-.01ZM266.48,214.77l-64.28-111.27h-27.67l63.43,109.79h-32.13l-13.78,23.96h61.44c14.28,0,20.12-10.11,12.99-22.48Z"></path><path class="uuid-98448828-4eab-478a-ae4b-6089a8b5f978" d="M214.36,185.63l-66.6,115.28c-7.15,12.37-18.84,12.37-25.99,0l-32.97-57.06h27.67l18.28,31.65,65.79-113.87,13.81,24h.01ZM266.48,95.42l-30.65,53.06-13.81-24.01,15.94-27.57H106.46l13.82-23.96h133.21c14.28,0,20.12,10.12,12.99,22.48ZM31.58,96.9h31.94l13.82-23.96H16.04c-14.28,0-20.12,10.11-13,22.47l64.28,111.27h27.67L31.58,96.9Z"></path></g><g><polygon class="uuid-6f5f60d8-1a71-4dce-8729-cec98bbb40b1" points="656.68 40.53 345.36 40.53 367.78 .91 679.1 .91 656.68 40.53"></polygon><g><g><path class="uuid-553a28cd-1406-401a-9996-7558fe43dd23" d="M429.19,9.31v20.97h-2.84v-9.54h-11.31v9.54h-2.84V9.31h2.84v9.35h11.31v-9.35s2.84,0,2.84,0Z"></path><path class="uuid-553a28cd-1406-401a-9996-7558fe43dd23" d="M464.79,30.28h-2.2c-.25,0-.46-.06-.61-.19-.16-.13-.27-.29-.35-.48l-1.96-5.06h-9.41l-1.96,5.06c-.06.18-.17.33-.34.47-.17.14-.37.2-.61.2h-2.2l8.38-20.97h2.87l8.38,20.97h0ZM458.88,22.49l-3.29-8.53c-.1-.25-.2-.55-.31-.89s-.21-.69-.31-1.08c-.2.79-.41,1.45-.63,1.98l-3.29,8.52h7.83Z"></path><path class="uuid-553a28cd-1406-401a-9996-7558fe43dd23" d="M497.74,9.31v20.97h-1.42c-.22,0-.41-.04-.56-.12s-.3-.21-.45-.4l-12.13-15.8c.02.24.03.48.04.72,0,.23.01.45.01.66v14.94h-2.49V9.31h1.46c.13,0,.23,0,.32.02s.17.04.23.07.14.08.2.15c.07.06.14.14.22.24l12.13,15.79c-.02-.25-.04-.5-.05-.74-.01-.24-.02-.47-.02-.68v-14.85h2.51Z"></path><path class="uuid-553a28cd-1406-401a-9996-7558fe43dd23" d="M535.66,19.8c0,1.57-.25,3.01-.75,4.32s-1.2,2.44-2.11,3.39-2,1.68-3.27,2.2-2.68.78-4.22.78-2.95-.26-4.21-.78c-1.27-.52-2.36-1.26-3.26-2.2s-1.61-2.08-2.11-3.39-.75-2.75-.75-4.32.25-3.01.75-4.32,1.2-2.44,2.11-3.39,2-1.69,3.26-2.22,2.67-.79,4.21-.79,2.95.26,4.22.79c1.27.53,2.36,1.27,3.27,2.22.91.95,1.61,2.08,2.11,3.39.5,1.31.75,2.75.75,4.32ZM532.75,19.8c0-1.29-.18-2.44-.53-3.47s-.85-1.89-1.49-2.6-1.42-1.25-2.34-1.63c-.92-.38-1.94-.57-3.07-.57s-2.14.19-3.06.57-1.7.92-2.35,1.63c-.65.71-1.15,1.57-1.5,2.6s-.53,2.18-.53,3.47.18,2.44.53,3.46.85,1.88,1.5,2.59c.65.71,1.43,1.25,2.35,1.62.92.38,1.94.56,3.06.56s2.16-.19,3.07-.56,1.7-.92,2.34-1.62c.64-.71,1.14-1.57,1.49-2.59s.53-2.17.53-3.46Z"></path><path class="uuid-553a28cd-1406-401a-9996-7558fe43dd23" d="M569.38,9.31l-8.55,20.97h-2.55l-8.55-20.97h2.27c.25,0,.46.06.61.19.16.13.27.29.35.48l5.91,14.79c.13.33.25.69.37,1.08s.23.8.33,1.23c.1-.43.2-.84.31-1.23s.22-.75.35-1.08l5.9-14.79c.06-.17.17-.32.34-.46.17-.14.38-.21.62-.21h2.29Z"></path><path class="uuid-553a28cd-1406-401a-9996-7558fe43dd23" d="M598.27,27.96v2.31h-12.93V9.31h12.92v2.31h-10.08v6.96h8.16v2.22h-8.16v7.16h10.1,0Z"></path><path class="uuid-553a28cd-1406-401a-9996-7558fe43dd23" d="M630.93,30.28h-2.52c-.52,0-.9-.2-1.14-.6l-5.44-7.49c-.17-.23-.34-.4-.53-.5s-.49-.15-.89-.15h-2.15v8.75h-2.82V9.31h5.93c1.33,0,2.47.13,3.44.4.97.27,1.76.66,2.39,1.16.63.51,1.09,1.12,1.4,1.84.3.72.45,1.52.45,2.41,0,.74-.12,1.43-.35,2.08s-.57,1.22-1.02,1.73-.99.95-1.62,1.31-1.36.63-2.17.82c.36.21.67.5.94.89l6.12,8.33h-.02ZM621.24,19.46c.82,0,1.54-.1,2.17-.3s1.16-.48,1.58-.85c.42-.37.74-.8.96-1.31.21-.51.32-1.07.32-1.68,0-1.25-.41-2.19-1.23-2.82s-2.05-.95-3.69-.95h-3.1v7.92h2.99Z"></path></g><g><path class="uuid-9da7b7e3-0b89-42ad-bacc-de3b1c8eb605" d="M356.87,121.34c6.63,0,8.81-1.09,8.81-7.45v-56.69h16.26v57.41c0,11.99-3.82,18.08-17.17,18.08h-7.9v-11.36h0Z"></path><path class="uuid-433fa51e-7827-4c4d-aa5f-0fb4f5bb97b0" d="M409.53,57.21h26.62v5.36h-19.62v27.62h15.99v5.09h-15.99v30.34h19.81v5.18h-26.8V57.21h-.01Z"></path><path class="uuid-433fa51e-7827-4c4d-aa5f-0fb4f5bb97b0" d="M447.86,57.21h5.91l9.72,59.78,11.08-58.69h5.72l11.36,58.78,8.99-59.87h5.81l-11.9,73.58h-5.36l-11.72-60.68-11.54,60.68h-5.63l-12.45-73.58h.01Z"></path><path class="uuid-433fa51e-7827-4c4d-aa5f-0fb4f5bb97b0" d="M521.63,57.21h6.9v73.58h-6.9V57.21Z"></path><path class="uuid-433fa51e-7827-4c4d-aa5f-0fb4f5bb97b0" d="M544.25,111.71l6.09-1.82c1,9.08,3.36,16.17,12.35,16.17,6.54,0,10.36-3.18,10.36-10.63,0-6.54-3.45-10.63-8.99-15.9l-12.99-12.45c-4.72-4.45-6.72-9.08-6.72-14.81,0-10.17,6.63-15.81,16.63-15.81,10.63,0,16.62,5.09,17.62,18.62l-5.9,1.55c-.73-9.27-3.27-14.72-11.72-14.72-6.09,0-10.36,3.09-10.36,9.72,0,4,1.36,7.08,5.18,10.72l12.99,12.26c5.72,5.45,10.72,11.99,10.72,20.35,0,10.99-7,16.72-16.9,16.72-11.99,0-17.53-7.99-18.35-19.99v.02Z"></path><path class="uuid-433fa51e-7827-4c4d-aa5f-0fb4f5bb97b0" d="M594.03,57.21h6.99v32.61h23.17v-32.61h6.9v73.58h-6.9v-35.79h-23.17v35.79h-6.99V57.21Z"></path><path class="uuid-9da7b7e3-0b89-42ad-bacc-de3b1c8eb605" d="M360.23,144.88h18.53l13.72,73.58h-14.99l-2.45-15.53h-10.81l-2.54,15.53h-15.35l13.9-73.58h0ZM373.49,193.21l-3.91-28.71-3.91,28.71h7.82Z"></path><path class="uuid-433fa51e-7827-4c4d-aa5f-0fb4f5bb97b0" d="M409.53,144.88h26.43v5.18h-19.53v27.71h16.26v5.09h-16.26v35.61h-6.9v-73.58h0Z"></path><path class="uuid-433fa51e-7827-4c4d-aa5f-0fb4f5bb97b0" d="M448.74,144.88h26.44v5.18h-19.53v27.71h16.26v5.09h-16.26v35.61h-6.9v-73.58h-.01Z"></path><path class="uuid-433fa51e-7827-4c4d-aa5f-0fb4f5bb97b0" d="M489.81,144.88h6.9v73.58h-6.9v-73.58Z"></path><path class="uuid-433fa51e-7827-4c4d-aa5f-0fb4f5bb97b0" d="M521.63,144.88h5l23.44,57.14v-57.14h6v73.58h-4.91l-23.53-57.78v57.78h-6v-73.58Z"></path><path class="uuid-433fa51e-7827-4c4d-aa5f-0fb4f5bb97b0" d="M573.52,144.88h6.9v73.58h-6.9v-73.58Z"></path><path class="uuid-433fa51e-7827-4c4d-aa5f-0fb4f5bb97b0" d="M607.95,150.24h-13.9v-5.36h34.34v5.36h-13.54v68.22h-6.9v-68.22Z"></path><path class="uuid-433fa51e-7827-4c4d-aa5f-0fb4f5bb97b0" d="M653.55,194.03l-16.63-49.15h6.72l13.26,40.88,12.72-40.88h6.81l-16.17,49.15v24.44h-6.72v-24.44h.01Z"></path><path class="uuid-9da7b7e3-0b89-42ad-bacc-de3b1c8eb605" d="M346.33,284.75v-24.71c0-15.63,5.27-25.53,22.07-25.53s21.53,8.72,21.53,21.53v4.72h-15.9v-6c0-4.63-.36-8.81-5.45-8.81s-5.63,4.81-5.63,9.26v34.07c0,5,1.09,9.36,6.09,9.36s6.36-4.54,6.36-9.54v-8.63h-6.63v-9.54h21.26v38.15h-10.72l-.91-6.09c-2,4.18-5.45,7.18-11.9,7.18-15.26,0-20.17-10.27-20.17-25.44v.02Z"></path><path class="uuid-433fa51e-7827-4c4d-aa5f-0fb4f5bb97b0" d="M409.53,235.78h16.62c13.72,0,18.26,7.09,18.26,18.71,0,8.36-2.18,15.53-10.17,17.26l11.26,37.61h-6.72l-10.81-36.16h-11.54v36.16h-6.9v-73.58h0ZM425.79,268.12c9.08,0,11.9-4.54,11.9-13.63s-2.36-13.54-11.72-13.54h-9.54v27.16h9.36Z"></path><path class="uuid-433fa51e-7827-4c4d-aa5f-0fb4f5bb97b0" d="M454.49,287.57v-30.52c0-13.35,4.63-22.08,18.99-22.08s18.8,8.81,18.8,22.08v30.61c0,13.26-4.36,22.53-18.8,22.53s-18.99-9.27-18.99-22.62h0ZM485.29,289.11v-33.34c0-9.36-2.18-15.26-11.81-15.26s-11.99,5.91-11.99,15.26v33.34c0,9.27,2.18,15.53,11.99,15.53s11.81-6.27,11.81-15.53Z"></path><path class="uuid-433fa51e-7827-4c4d-aa5f-0fb4f5bb97b0" d="M506.32,289.2v-53.51h6.72v53.69c0,8.63,2.18,15.26,12.08,15.26s12.08-6.63,12.08-15.26v-53.69h6.63v53.51c0,12.26-4.18,20.99-18.71,20.99s-18.81-8.72-18.81-20.99h.01Z"></path><path class="uuid-433fa51e-7827-4c4d-aa5f-0fb4f5bb97b0" d="M559.44,235.78h17.62c13.17,0,17.44,7.9,17.44,19.53,0,10.45-4.72,19.26-17.35,19.26h-10.81v34.79h-6.9v-73.58h0ZM575.15,269.4c8.9,0,12.54-3.54,12.54-14.08,0-11.26-2.73-14.35-12.45-14.35h-8.9v28.43h8.81Z"></path><rect class="uuid-9da7b7e3-0b89-42ad-bacc-de3b1c8eb605" x="346.33" y="121.36" width="10.68" height="11.34"></rect></g></g><rect class="uuid-8df3b6a7-5e48-441a-8450-29d9f2228a0f" x="306.56" y="0" width="3.9" height="310.18"></rect></g></svg>