<svg xmlns="http://www.w3.org/2000/svg" id="uuid-aeb30b1b-56d1-4d1f-b40a-f8bf07bb2b1d" data-name="Layer 1" viewBox="0 0 357.94 72.12"><defs><style>      .uuid-69ede0cb-bb80-456d-9187-8d78806bdb5d {        fill: #263b80;      }      .uuid-02b9e1c4-8c3c-4a2e-9b0e-b2aedb123a01 {        fill: #2cabe2;      }    </style></defs><path class="uuid-69ede0cb-bb80-456d-9187-8d78806bdb5d" d="M41.79,23.16c-.72-7.39-4.52-10.47-12.73-10.47-7.18,0-11.49,2.57-11.49,6.88,0,3.59,2.36,5.54,8.41,6.87,12.02,2.77,16.02,3.9,20.32,5.51,7.7,3.08,11.91,9.45,11.91,18,0,13.86-10.78,22-28.84,22S.94,64.41,0,48.82l15.41-.87c.41,7.5,5.44,11.4,14.88,11.4,7.6,0,12.32-3.08,12.32-8,0-3.69-2.16-5.85-7.29-7.18-3.08-.82-6.57-1.65-10.47-2.57-11.7-2.46-17-5.44-20.21-11-1.66-2.83-2.51-6.06-2.47-9.34C2.17,8.64,12.74.43,29.06.43c17.35,0,26.28,6.87,28,21.65l-15.27,1.08Z"></path><polygon class="uuid-69ede0cb-bb80-456d-9187-8d78806bdb5d" points="155.58 1.92 142.03 30.04 128.39 1.92 121.69 1.92 111.35 1.92 102.09 1.92 78.38 27.99 78.38 1.92 63.09 1.92 63.09 70.27 78.38 70.27 78.38 45.84 84.54 39.48 105.17 70.27 124.05 70.27 95.11 28.81 114.99 8.71 134.44 45.02 134.44 70.27 149.63 70.27 149.63 45.02 172.62 1.92 155.58 1.92"></polygon><path class="uuid-69ede0cb-bb80-456d-9187-8d78806bdb5d" d="M332.63,1.95v33.32l.11,3.59.1,4c.09,2.01.3,4.01.61,6-1.81-4.69-4.01-9.22-6.56-13.55L307.39,1.95h-15.19v55.79h-40.2v-16.93h32v-12.21h-32.09v-14.37h35V1.95h-50.19v68.31h70.67v-29.31c-.03-5.9-.36-11.79-1-17.65,2.3,5.77,5.08,11.33,8.31,16.63l18.3,30.33h14.89V1.95h-15.26Z"></path><path class="uuid-02b9e1c4-8c3c-4a2e-9b0e-b2aedb123a01" d="M220.3,48.57c-3.97,7.63-11.92,12.37-20.52,12.23-13.84,0-23.71-11.16-23.71-24.71v-.2c0-13.55,9.67-24.61,23.51-24.61,6.31-.07,12.37,2.46,16.75,7h15.39c-5.95-10.86-17.46-18.28-31.94-18.28-21.42,0-36.56,16.43-36.56,36.06v.2c0,19.62,14.95,35.86,36.36,35.86,16.66,0,29.52-9.94,34.41-23.58l-13.69.03Z"></path><path class="uuid-02b9e1c4-8c3c-4a2e-9b0e-b2aedb123a01" d="M198,40.56c-3.13.07-5.72-2.42-5.79-5.55,0-.05,0-.1,0-.15-.02-3.18,2.54-5.76,5.72-5.78.02,0,.05,0,.07,0h48.39c3.17,0,5.74,2.57,5.74,5.74,0,3.17-2.57,5.74-5.74,5.74h-48.39Z"></path><path class="uuid-69ede0cb-bb80-456d-9187-8d78806bdb5d" d="M357.39,64.04c-.31-.6-.8-1.1-1.39-1.43-1.37-.68-2.97-.68-4.34,0-.61.32-1.11.82-1.43,1.43-.67,1.35-.67,2.94,0,4.29.33.61.82,1.1,1.43,1.43,1.37.66,2.97.66,4.34,0,.61-.33,1.1-.82,1.43-1.43.68-1.35.68-2.94,0-4.29h-.04ZM356.64,67.95c-.26.49-.65.89-1.13,1.16-.53.28-1.12.42-1.72.4-.6.02-1.18-.12-1.71-.4-.48-.27-.88-.67-1.14-1.16-.28-.54-.42-1.14-.4-1.74-.01-.6.12-1.2.4-1.74.26-.48.66-.88,1.14-1.15.52-.28,1.11-.42,1.71-.41.6-.01,1.19.13,1.72.41.48.27.87.67,1.13,1.15.28.54.41,1.14.4,1.74.02.6-.12,1.2-.4,1.74Z"></path><path class="uuid-69ede0cb-bb80-456d-9187-8d78806bdb5d" d="M355.46,66.26c.2-.24.3-.55.29-.86,0-.39-.17-.75-.46-1-.35-.26-.78-.4-1.22-.38h-1.83v4.44h.81v-1.64h.81l1.07,1.61h.91l-1.17-1.68c.31-.07.59-.25.79-.49ZM353.05,66.26v-1.66h1c.6,0,.89.27.89.8s-.29.81-.89.81l-1,.05Z"></path></svg>