<svg xmlns="http://www.w3.org/2000/svg" id="uuid-a9069851-f1e5-4f07-b38d-26ad12e4f760" data-name="Art" viewBox="0 0 597.19 154.07"><defs><style>      .uuid-39a1ddaf-dff2-4581-bdf0-0681d59b4761 {        fill: #002c77;      }      .uuid-35d28d00-a61f-41b6-a12d-f093c45a0935 {        fill: #e40032;      }    </style></defs><g id="uuid-fb739c6d-2e1c-43da-9533-294efe1a7e5c" data-name="Logo"><path id="uuid-e0a8c515-709a-4858-ab3a-11822922c203" class="uuid-39a1ddaf-dff2-4581-bdf0-0681d59b4761" d="M11.62,129.29v23.82H2.99v-56.51h31.24v7.59H11.62v17.52h22.6v7.59H11.62ZM42.41,104.82v-8.64h8.32v8.64h-8.32ZM42.41,153.1v-40.85h8.32v40.85h-8.32ZM69.36,112.25l.24,6.46c3.07-4.76,7.99-7.43,13.24-7.43s9.2,1.94,11.62,5.17c2.83,3.87,3.63,9.28,3.63,15.42v21.23h-8.32v-20.51c0-3.71-.16-7.83-1.94-10.66-1.21-1.94-3.39-3.15-6.7-3.15-4.36,0-8.72,2.99-11.38,7.27v27.05h-8.32v-40.85h7.91ZM132.88,153.1l-.24-4.12c-3.15,3.63-6.94,5.09-11.95,5.09-7.59,0-14.53-3.87-14.53-12.59,0-10.25,9.2-13.48,18.08-13.48,2.1,0,4.68.24,7.99.89v-1.21c0-5.97-2.74-9.45-9.28-9.45-4.68,0-9.45,1.78-12.84,3.63l-2.34-6.7c4.44-2.1,10.74-3.87,16.47-3.87,11.71,0,16.31,6.46,16.31,17.03v24.78h-7.67ZM132.23,134.69c-2.83-.57-4.93-.73-6.94-.73-4.76,0-10.98,1.29-10.98,7.1,0,4.6,3.55,6.38,7.59,6.38s7.27-1.94,10.33-4.52v-8.23ZM158.29,112.25l.24,6.46c3.07-4.76,7.99-7.43,13.24-7.43s9.2,1.94,11.63,5.17c2.83,3.87,3.63,9.28,3.63,15.42v21.23h-8.32v-20.51c0-3.71-.16-7.83-1.94-10.66-1.21-1.94-3.39-3.15-6.7-3.15-4.36,0-8.72,2.99-11.38,7.27v27.05h-8.32v-40.85h7.91ZM228.47,149.79c-3.23,2.74-7.91,4.28-13,4.28-11.79,0-20.91-8.56-20.91-21.39,0-11.95,9.2-21.39,21.23-21.39,4.68,0,8.8,1.37,12.27,3.87l-4.04,6.54c-2.34-1.78-5.25-2.91-8.23-2.91-7.1,0-12.76,6.22-12.76,13.89,0,8.32,5.97,13.89,12.76,13.89,2.74,0,6.22-1.13,8.48-2.91l4.2,6.14ZM234.67,104.82v-8.64h8.32v8.64h-8.32ZM234.67,153.1v-40.85h8.32v40.85h-8.32ZM278.17,153.1l-.24-4.12c-3.15,3.63-6.94,5.09-11.95,5.09-7.59,0-14.53-3.87-14.53-12.59,0-10.25,9.2-13.48,18.08-13.48,2.1,0,4.68.24,7.99.89v-1.21c0-5.97-2.75-9.45-9.28-9.45-4.68,0-9.45,1.78-12.84,3.63l-2.34-6.7c4.44-2.1,10.74-3.87,16.47-3.87,11.71,0,16.31,6.46,16.31,17.03v24.78h-7.67ZM277.52,134.69c-2.83-.57-4.93-.73-6.94-.73-4.76,0-10.98,1.29-10.98,7.1,0,4.6,3.55,6.38,7.59,6.38s7.27-1.94,10.33-4.52v-8.23ZM304.47,153.1h-8.32v-60.55h8.32v60.55Z"></path><path id="uuid-fbb7c69a-61cc-40de-a106-0dd445d6e042" data-name="Legal Mark" class="uuid-39a1ddaf-dff2-4581-bdf0-0681d59b4761" d="M588.36,0c4.88,0,8.83,3.95,8.83,8.83s-3.95,8.83-8.83,8.83-8.83-3.95-8.83-8.83,3.95-8.83,8.83-8.83ZM588.36,15.76c3.8,0,6.89-3.14,6.89-6.93s-3.1-6.93-6.89-6.93-6.89,3.14-6.89,6.93,3.1,6.93,6.89,6.93ZM590.41,13.67l-2.86-3.83h-.66v3.83h-1.86V4.19h1.98c3.56,0,4.76.85,4.76,2.83,0,1.16-.7,2.32-1.98,2.75l2.87,3.91h-2.25ZM586.89,5.69v2.75c1.7,0,2.94-.08,2.94-1.39,0-1.2-.77-1.35-2.94-1.35Z"></path><path id="uuid-7dc08cf6-921a-4f53-adc5-e04ccfa89abd" data-name="Wordmark" class="uuid-39a1ddaf-dff2-4581-bdf0-0681d59b4761" d="M36.18.4C15.4.4,0,16.66,0,36.74s15.4,36.33,36.18,36.33,36.18-16.26,36.18-36.33S56.96.4,36.18.4ZM36.18,61.33c-12.95,0-21.93-10.79-21.93-24.59s8.98-24.59,21.93-24.59,21.93,10.79,21.93,24.59-8.98,24.59-21.93,24.59ZM123.96,25.19c3.99,5.15,4.67,11.99,4.67,19.52v27.15h-13.2v-26.35c0-4.11-.11-8.72-1.81-11.84-1.42-2.6-4.02-3.81-7.43-3.81-4.52,0-9.33,2.76-12.15,7.33v34.68h-13.2V19.62h11.69l.85,7.43c4.17-5.92,10.39-8.63,16.41-8.63s10.91,2.59,14.15,6.78ZM163.35,18.42c-14.91,0-26.4,12.04-26.4,27.8s10.39,26.85,26.35,26.85c11.04,0,17.77-4.11,23.64-12.7l-8.78-5.92c-3.31,5.22-7.23,7.93-14,7.93-7.98,0-12.95-5.87-13.85-13.35h37.39c.35-2.01.6-4.42.6-6.42,0-13.95-10.59-24.19-24.94-24.19ZM151.01,39.8c1.56-6.27,5.57-10.94,12.7-10.94,6.12,0,10.79,4.42,11.09,10.94h-23.79ZM347.55,25.04c4.02,5.17,4.72,12.04,4.72,19.67v27.15h-13.25v-26.35c0-4.11-.04-8.74-1.71-11.84-1.4-2.61-3.97-3.81-7.38-3.81-3.96,0-8.23,2.46-11.09,6.52.35,2.56.5,5.42.5,8.33v27.15h-13.2v-26.35c0-4.11-.03-8.91-1.81-12.04-1.38-2.44-3.81-3.61-6.98-3.61-3.81,0-8.13,2.71-10.89,6.07v35.93h-13.2V19.62h11.74l.75,6.67c4.12-5.37,10.04-7.88,15.36-7.88s9.89,2.19,13.14,6.12c.73.84,1.33,1.75,1.87,2.82,4.82-6.87,11.59-8.93,17.57-8.93s10.64,2.51,13.85,6.62ZM387.13,18.42c-14.91,0-26.4,12.04-26.4,27.8s10.39,26.85,26.35,26.85c11.04,0,17.77-4.11,23.64-12.7l-8.78-5.92c-3.31,5.22-7.23,7.93-14,7.93-7.98,0-12.95-5.87-13.85-13.35h37.39c.35-2.01.6-4.42.6-6.42,0-13.95-10.59-24.19-24.94-24.19ZM374.79,39.8c1.56-6.27,5.57-10.94,12.7-10.94,6.12,0,10.79,4.42,11.09,10.94h-23.79ZM445.31,18.42c2.51,0,4.62.4,6.52,1.05l-3.06,11.89c-1.51-.8-3.11-1.15-4.97-1.15-4.27,0-7.98,2.41-10.29,6.37v35.28h-13.25V19.62h11.74l.85,7.18c3.06-4.97,7.18-8.38,12.45-8.38ZM457.49,0h13.2v11.74h-13.2V0ZM457.49,71.86h13.2V19.62h-13.2v52.24ZM517.17,57.71l6.98,9.18c-4.87,4.27-10.99,6.17-18.22,6.17-15.31,0-26.55-11.09-26.55-27.35,0-15.21,11.19-27.3,27-27.3,6.78,0,12.7,2.11,17.62,6.02l-6.68,9.48c-2.91-2.61-6.27-4.06-10.24-4.06-8.23,0-14.25,7.13-14.25,15.86,0,9.23,6.32,15.91,14.1,15.91,3.81,0,7.28-1.2,10.24-3.91ZM554.62,18.42c-7.63,0-15.66,2.11-22.08,5.27l3.56,9.69c4.52-2.36,10.04-4.57,15.96-4.57,7.83,0,10.74,4.12,10.74,10.94v1c-3.56-.75-6.83-1.1-9.64-1.1-10.94,0-22.89,4.06-22.89,16.96,0,10.84,9.03,16.46,18.77,16.46,5.77,0,10.94-1.56,14.5-5.87l.85,4.67h11.59v-31.47c0-13.6-6.72-21.98-21.38-21.98ZM562.8,58.77c-3.26,2.86-6.83,4.82-11.14,4.82s-8.43-2.36-8.43-7.28c0-6.47,6.52-8.33,11.99-8.33,2.26,0,4.67.3,7.58.95v9.84Z"></path><g id="uuid-827bc5a1-93a1-4870-bc50-af1872e5b65c" data-name="Symbol"><path id="uuid-4d180335-7d5e-44ce-8447-e06167643cfc" data-name="Red" class="uuid-35d28d00-a61f-41b6-a12d-f093c45a0935" d="M236.94,45.14l7.47,16.09c-24.02-3.27-39.27.28-53.2,11.84-.15-.47-.16-1.15,0-1.98,2.28-10.95,18.08-27.8,45.72-25.95ZM213.33,24.32c-.11.68-.1,1.35.03,1.78,2.35-2.31,6.51-4.79,11.87-6.15l-4.75-10.22c-3.83,4.2-6.54,10.9-7.16,14.59ZM202.3,46.71c-.19.69-.22,1.26-.09,1.72,8.61-7.37,19.7-11.02,31.3-10.69l-5.63-12.13c-13.72,2.22-23.17,12.37-25.58,21.09Z"></path><path id="uuid-06e02d2d-80d5-444d-8f8f-de62cae0f871" data-name="Blue" class="uuid-39a1ddaf-dff2-4581-bdf0-0681d59b4761" d="M233.76.2c-3.2,1.26-6.63,3.2-8.99,5.35l30.82,66.32h11.48L233.76.2Z"></path></g></g></svg>