<svg xmlns="http://www.w3.org/2000/svg" id="uuid-9b8a93b0-7e48-4ac8-9318-b8998d3e8bc6" data-name="Layer 1" viewBox="0 0 117 27.12"><defs><style>      .uuid-e2043d4a-ba28-45f3-b7e6-e08b4d5883d4 {        fill-rule: evenodd;      }      .uuid-e2043d4a-ba28-45f3-b7e6-e08b4d5883d4, .uuid-9b1bdd3e-753c-4bc9-a17b-030ed49111c2 {        fill: #121212;      }      .uuid-500886a7-a5a8-48af-83f2-f25e5d556e2b {        fill: #cc2027;      }    </style></defs><path class="uuid-9b1bdd3e-753c-4bc9-a17b-030ed49111c2" d="M32.56,7.64v2.92h.04c.45-1.01,1.21-1.82,2.27-2.43,1.09-.63,2.4-.95,3.94-.95,1.21,0,2.3.2,3.26.61.96.38,1.74,1.05,2.35,2.01.61.96.91,2.24.91,3.83v12.97h-4.25v-12.25c0-1.26-.37-2.19-1.1-2.77-.71-.61-1.68-.91-2.92-.91h-.11c-.81,0-1.55.16-2.24.49-.68.33-1.23.81-1.63,1.44-.4.61-.61,1.34-.61,2.2v11.79h-4.25V7.64h4.32Z"></path><path class="uuid-9b1bdd3e-753c-4bc9-a17b-030ed49111c2" d="M12.72,0c2.62,0,4.89.56,6.81,1.69,1.92,1.12,3.39,2.71,4.42,4.75s1.54,4.39,1.54,7.06-.51,5.07-1.54,7.14c-1.03,2.04-2.5,3.62-4.42,4.75-1.89,1.12-4.16,1.69-6.81,1.69s-4.89-.56-6.81-1.69c-1.92-1.12-3.39-2.71-4.42-4.75-1-2.07-1.5-4.43-1.5-7.1s.51-5.06,1.54-7.1c1.03-2.04,2.49-3.62,4.38-4.75,1.92-1.12,4.19-1.69,6.81-1.69ZM12.93,23.37c1.65,0,3.05-.41,4.21-1.22,1.16-.81,2.04-1.95,2.63-3.41.62-1.49.93-3.23.93-5.22s-.31-3.71-.93-5.18c-.59-1.49-1.47-2.64-2.63-3.45-1.16-.81-2.55-1.22-4.17-1.22h-.36c-1.62,0-3.03.41-4.21,1.22-1.19.81-2.09,1.96-2.72,3.45-.59,1.46-.89,3.19-.89,5.18s.3,3.73.89,5.22c.62,1.46,1.51,2.6,2.67,3.41,1.19.81,2.59,1.22,4.21,1.22h.36Z"></path><path class="uuid-9b1bdd3e-753c-4bc9-a17b-030ed49111c2" d="M82.04,7.25c2.63,0,4.6.51,5.91,1.52,1.34.99,2.01,2.63,2.01,4.93v8.19c0,.56.05.92.15,1.1.13.18.43.27.91.27h.87v3.4h-2.54c-1.06,0-1.83-.21-2.31-.64-.46-.45-.7-.91-.64-1.62v-.38c.03-.13.05-.27.08-.42l-.18-.02c-.63,1.16-1.79,1.96-3.01,2.6-1.21.63-2.53.95-3.94.95-.81,0-1.57-.11-2.27-.34-.71-.2-1.34-.51-1.9-.91-.68-.51-1.21-1.12-1.59-1.86-.35-.73-.53-1.55-.53-2.46,0-1.92.73-3.4,2.2-4.44.53-.35,1.15-.64,1.86-.87.73-.23,1.62-.43,2.65-.61l1.74-.27c.99-.15,1.77-.32,2.35-.49.61-.2,1.06-.45,1.36-.76.33-.33.49-.76.49-1.29,0-.76-.33-1.35-.99-1.78-.66-.43-1.55-.64-2.69-.64s-2.15.32-2.88.95c-.73.61-1.14,1.47-1.21,2.58h-4.28c.05-2.07.82-3.7,2.31-4.89,1.52-1.19,3.54-1.78,6.07-1.78ZM85.83,16.32c-.33.45-.81.85-1.44,1.18-.63.3-1.33.53-2.09.68l-1.59.34c-1.09.2-1.91.53-2.46.99-.53.43-.8,1.07-.8,1.93,0,.78.29,1.39.87,1.82.61.43,1.36.64,2.27.64.86,0,1.69-.19,2.5-.57.81-.38,1.47-.96,1.97-1.74.51-.78.76-1.73.76-2.84v-2.43Z"></path><path class="uuid-9b1bdd3e-753c-4bc9-a17b-030ed49111c2" d="M110.65,19.54c-.28,2.27-1.2,4.11-2.77,5.5s-3.61,2.09-6.14,2.09c-1.9,0-3.54-.4-4.93-1.21-1.39-.83-2.46-2-3.22-3.49-.76-1.52-1.14-3.29-1.14-5.31s.38-3.73,1.14-5.19c.76-1.49,1.83-2.64,3.22-3.45,1.42-.81,3.06-1.21,4.93-1.21,1.52,0,2.89.27,4.13.8,1.24.51,2.26,1.3,3.07,2.39.83,1.06,1.39,2.39,1.67,3.98h-4.44c-.23-1.14-.68-2.06-1.36-2.77-.68-.71-1.62-1.06-2.81-1.06h-.3c-1.06,0-1.96.29-2.69.87-.73.56-1.28,1.33-1.63,2.31-.35.99-.53,2.1-.53,3.34,0,1.92.4,3.51,1.21,4.78.83,1.26,2.05,1.9,3.64,1.9h.3c1.26,0,2.24-.39,2.92-1.18.71-.81,1.15-1.83,1.33-3.07h4.4Z"></path><path class="uuid-500886a7-a5a8-48af-83f2-f25e5d556e2b" d="M54.77,0h9.8v4.18h-9.8V0Z"></path><path class="uuid-e2043d4a-ba28-45f3-b7e6-e08b4d5883d4" d="M48.49,0h-7.19v4.13h7.19c.25,0,.5.04.74.14.23.09.45.23.63.41.18.18.32.39.42.62.1.23.15.48.15.73v20.65h4.34V6.27c0-3.58-2.69-6.27-6.28-6.27Z"></path><path class="uuid-9b1bdd3e-753c-4bc9-a17b-030ed49111c2" d="M71.71,12.18h-.08s-.01-.01-.04-.04c-.3-.05-.61-.09-.91-.11-.28-.03-.59-.04-.95-.04-1.39,0-2.57.38-3.53,1.14-.96.76-1.44,1.92-1.44,3.49v10.05h-4.25V7.71h4.17v3.72h.04c.56-1.42,1.33-2.39,2.31-2.92,1.01-.56,2.31-.83,3.91-.83h.8l-.04,4.51Z"></path><path class="uuid-9b1bdd3e-753c-4bc9-a17b-030ed49111c2" d="M112.42,22.63c-.53.51-.78,1.12-.78,1.85s.26,1.34.78,1.84c.51.51,1.14.75,1.9.75s1.39-.25,1.9-.75c.52-.51.78-1.12.78-1.84s-.26-1.34-.78-1.85c-.52-.49-1.15-.75-1.9-.75s-1.4.26-1.9.75ZM114.32,26.53c-.61,0-1.12-.19-1.5-.59-.41-.4-.61-.88-.61-1.46s.2-1.08.61-1.48c.39-.39.89-.59,1.5-.59s1.1.2,1.51.59c.4.41.6.9.6,1.48s-.21,1.06-.6,1.46c-.41.4-.9.59-1.51.59ZM115.38,25.03c-.02-.27-.13-.45-.32-.54.26-.11.4-.32.4-.63,0-.25-.1-.44-.27-.58-.17-.13-.41-.2-.71-.2h-1.19v2.74h.54v-1.06h.67c.13,0,.21.03.27.09.04.05.08.15.1.3l.02.28c0,.18.04.31.11.4h.56c-.09-.11-.13-.24-.13-.4l-.03-.39ZM113.82,23.55h.63c.29,0,.44.13.44.37s-.14.37-.41.37h-.67v-.73Z"></path></svg>