<svg xmlns="http://www.w3.org/2000/svg" xmlns:xlink="http://www.w3.org/1999/xlink" id="uuid-74ae3931-9682-43aa-aeda-ffdcb7847ccd" data-name="Layer 1" viewBox="0 0 101.99 32"><defs><style>      .uuid-0272b146-4c48-4b20-a045-c6d204f47f1e {        fill: none;      }      .uuid-74a902a4-fca2-4a45-bef9-561835ee6548 {        fill: #fff;      }      .uuid-74a902a4-fca2-4a45-bef9-561835ee6548, .uuid-0d70aaf2-41df-44c6-96e1-51ea671ade92, .uuid-d5b91b29-ff18-4b80-bbf0-a132e0d390a5 {        fill-rule: evenodd;      }      .uuid-4fae7bab-e5f8-49ba-8de4-7e154357a203 {        mask: url(#uuid-dfa4e61b-ea91-4787-9a72-366b680b5232);      }      .uuid-7ef0db2e-2ae5-41d0-888a-35556836f337 {        mask: url(#uuid-58907e48-7993-4dbe-bbb3-757d549ed06f);      }      .uuid-0d70aaf2-41df-44c6-96e1-51ea671ade92 {        fill: #fa4338;      }      .uuid-d5b91b29-ff18-4b80-bbf0-a132e0d390a5 {        fill: #3f4450;      }      .uuid-5e34bf2d-fe7e-4f10-9601-b1e5e6572f87 {        clip-path: url(#uuid-bf835031-e737-4f42-892d-5edb7d23e1d6);      }    </style><mask id="uuid-58907e48-7993-4dbe-bbb3-757d549ed06f" data-name="mask" x="0" y="0" width="26.99" height="32" maskUnits="userSpaceOnUse"><g id="uuid-7e7fb5c4-fefa-4431-a666-0efc9c8ba2cd" data-name="mask0 4213 7265"><path class="uuid-74a902a4-fca2-4a45-bef9-561835ee6548" d="M0,0h26.99v32H0V0Z"></path></g></mask><clipPath id="uuid-bf835031-e737-4f42-892d-5edb7d23e1d6"><rect class="uuid-0272b146-4c48-4b20-a045-c6d204f47f1e" x="36.99" y="0" width="65" height="32"></rect></clipPath><mask id="uuid-dfa4e61b-ea91-4787-9a72-366b680b5232" data-name="mask-1" x="90.11" y="12.68" width="11.89" height="18.31" maskUnits="userSpaceOnUse"><g id="uuid-7496c7da-c4af-4675-b5a8-ff3a6835234f" data-name="mask1 4213 7265"><path class="uuid-74a902a4-fca2-4a45-bef9-561835ee6548" d="M90.11,12.68h11.89v18.31h-11.89V12.68Z"></path></g></mask></defs><path class="uuid-0d70aaf2-41df-44c6-96e1-51ea671ade92" d="M9.75,9.31h7.25c.62,0,1.13-.51,1.13-1.13s-.51-1.13-1.13-1.13h-7.25c-.62,0-1.13.51-1.13,1.13s.51,1.13,1.13,1.13Z"></path><g class="uuid-7ef0db2e-2ae5-41d0-888a-35556836f337"><path class="uuid-0d70aaf2-41df-44c6-96e1-51ea671ade92" d="M24.73,28.47c0,.7-.57,1.27-1.27,1.27H3.53c-.7,0-1.27-.57-1.27-1.27V3.53c0-.7.57-1.27,1.27-1.27h19.94c.7,0,1.27.57,1.27,1.27v24.95ZM24.13,0H2.87C1.28,0,0,1.28,0,2.87v26.27c0,1.58,1.28,2.87,2.87,2.87h21.26c1.58,0,2.87-1.28,2.87-2.87V2.87c0-1.58-1.28-2.87-2.87-2.87Z"></path></g><path class="uuid-0d70aaf2-41df-44c6-96e1-51ea671ade92" d="M17.21,22.69h-6.33v-2.91h3.59c.62,0,1.13-.51,1.13-1.13s-.51-1.13-1.13-1.13h-3.59v-2.71h6.06c.62,0,1.13-.51,1.13-1.13s-.51-1.13-1.13-1.13h-7.19c-.62,0-1.13.51-1.13,1.13v10.13c0,.62.51,1.13,1.13,1.13h7.46c.62,0,1.13-.51,1.13-1.13s-.51-1.13-1.13-1.13Z"></path><g class="uuid-5e34bf2d-fe7e-4f10-9601-b1e5e6572f87"><g><path class="uuid-d5b91b29-ff18-4b80-bbf0-a132e0d390a5" d="M46.81,22.68h-7.34c-.08,0-.14-.06-.14-.14v-5.13c0-.08.06-.14.14-.14h5.16c.62,0,1.14-.49,1.14-1.12s-.52-1.14-1.14-1.14h-5.16c-.08,0-.14-.06-.14-.14v-5.43c0-.08.06-.14.14-.14h7.03c.62,0,1.14-.49,1.14-1.14s-.52-1.12-1.14-1.12h-8.36c-.65,0-1.22.57-1.22,1.25v15.4c0,.67.57,1.25,1.22,1.25h8.67c.62,0,1.14-.49,1.14-1.12s-.52-1.14-1.14-1.14Z"></path><path class="uuid-d5b91b29-ff18-4b80-bbf0-a132e0d390a5" d="M56.77,12.56c-1.32,0-3.06.62-3.79,2.08v-.75c0-.65-.52-1.19-1.19-1.19s-1.17.55-1.17,1.19v10c0,.65.52,1.19,1.17,1.19s1.19-.55,1.19-1.19v-5.48c0-2.57,1.71-3.53,3.43-3.53s2.67,1.19,2.67,3.22v5.79c0,.65.52,1.19,1.17,1.19s1.19-.55,1.19-1.19v-5.95c0-3.4-1.66-5.37-4.67-5.37Z"></path><path class="uuid-d5b91b29-ff18-4b80-bbf0-a132e0d390a5" d="M74.29,12.74c-.62-.18-1.19.13-1.45.78l-3.25,8.32c-.05.12-.21.12-.25,0l-3.27-8.32c-.26-.65-.83-.96-1.45-.78-.65.16-.96.91-.75,1.48l4.05,9.74c.31.7.81,1.12,1.51,1.12h.13c.7,0,1.17-.42,1.45-1.12l4.02-9.74c.21-.57-.08-1.32-.73-1.48Z"></path><path class="uuid-d5b91b29-ff18-4b80-bbf0-a132e0d390a5" d="M82.96,22.92c-2.18,0-4-1.61-4-4.08s1.82-3.97,4-3.97,4,1.53,4,3.97-1.82,4.08-4,4.08ZM82.96,12.56c-3.45,0-6.34,2.44-6.34,6.28s2.88,6.36,6.34,6.36,6.36-2.52,6.36-6.36-2.91-6.28-6.36-6.28Z"></path><g class="uuid-4fae7bab-e5f8-49ba-8de4-7e154357a203"><path class="uuid-d5b91b29-ff18-4b80-bbf0-a132e0d390a5" d="M101.27,12.76c-.6-.23-1.3.05-1.53.65l-3.25,7.87c-.05.11-.21.11-.25,0l-3.22-7.8c-.26-.65-.86-.93-1.51-.75-.62.18-.91.93-.7,1.53l4.24,10.26s.01.07,0,.11l-.65,1.56c-.73,1.71-1.25,2.67-2.8,2.67h-.36c-.57-.03-1.09.42-1.12,1.01-.03.57.44,1.04,1.01,1.09.29.03.47.03.52.03,2.54,0,3.69-1.14,4.91-3.89l5.35-12.8c.26-.6,0-1.3-.62-1.53Z"></path></g></g></g></svg>