<svg xmlns="http://www.w3.org/2000/svg" id="uuid-6be866fd-cd2c-42e0-9e2c-4485f3ab83a7" data-name="Layer 1" viewBox="0 0 178.7 53.11"><defs><style>      .uuid-05c53c9a-f808-4ca4-afe2-011a2985ec7d {        fill-rule: evenodd;      }      .uuid-f278b585-239c-49e8-99a8-f0053ab9277f {        fill: #fcdc49;      }    </style></defs><path class="uuid-f278b585-239c-49e8-99a8-f0053ab9277f" d="M2.39,0l4.77,11.47H1.08l1.95,5.08h12.36L2.39,0Z"></path><path class="uuid-f278b585-239c-49e8-99a8-f0053ab9277f" d="M18.54,41.75l-2.06-5.08h-2.82l-5.86-14.17h-2.49l5.86,14.17h-7.16l13.23,16.44-4.77-11.36h6.07Z"></path><path d="M20.17,21.52c.11,0,.54-.22.54-1.95s-.33-1.95-.54-1.95h-8.46l1.63,3.89h6.83Z"></path><path class="uuid-05c53c9a-f808-4ca4-afe2-011a2985ec7d" d="M27.87,17.74h7.05c3.8,0,6.4,1.73,6.51,5.84,0,4.11-2.28,5.84-6.29,5.84h-2.49v6.06h-4.77v-17.74ZM32.75,25.96h.54c1.63,0,3.36,0,3.25-2.16,0-2.16-1.52-2.16-3.25-2.16h-.54v4.33Z"></path><path class="uuid-05c53c9a-f808-4ca4-afe2-011a2985ec7d" d="M48.25,17.74h4.77l6.72,17.63h-4.88l-1.19-3.03h-6.29l-1.19,3.03h-4.88l6.94-17.63ZM50.53,23.36l-1.84,5.62h3.69l-1.84-5.62Z"></path><path d="M124.48,28.56h4.77v-3.89h-4.77v-3.03h6.51v-3.89h-11.28v17.74h11.28v-4.33h-6.51v-2.6Z"></path><path d="M87.29,22.5h-4.34v-4.76h13.34v4.76h-4.34v12.98h-4.66v-12.98Z"></path><path d="M111.04,24.66h-6.51v-6.92h-4.77v17.74h4.77v-6.92h6.51v6.92h4.77v-17.74h-4.77v6.92Z"></path><path class="uuid-05c53c9a-f808-4ca4-afe2-011a2985ec7d" d="M133.48,26.61c0-4.87,4.01-8.87,8.89-8.87s8.89,4,8.89,8.87-4.01,8.87-8.89,8.87-8.89-4-8.89-8.87ZM146.49,26.61c0-2.27-1.84-4.11-4.12-4.11s-4.12,1.84-4.12,4.11,1.84,4.11,4.12,4.11,4.12-1.84,4.12-4.11Z"></path><path d="M166.88,27.69l-7.7-9.95h-4.44v17.74h4.77v-9.95l7.26,9.95h4.88v-17.74h-4.77v9.95Z"></path><path d="M67.01,17.74l7.7,9.95v-9.95h4.77v17.74h-4.88l-7.27-9.95v9.95h-4.77v-17.74h4.45Z"></path><path d="M20.82,26.18h-5.64l-1.63-3.89h7.27c.22,0,.54.22.54,1.95s-.43,1.95-.54,1.95Z"></path><path d="M12.47,31.58l1.63,3.89h6.07c.11,0,.54-.22.54-1.95-.08-1.3-.28-1.74-.43-1.89-.05-.05-.09-.06-.12-.06h-7.7Z"></path><path d="M12.25,30.83l-1.63-3.89h10.3c.11,0,.43.22.54,1.95,0,1.73-.43,1.95-.54,1.95h-8.67Z"></path><path d="M5.86,26.28l-1.84-4.65h4.23l1.95,4.65h4.01l-3.58-8.54H1.84c-.65,0-1.08,0-1.41.97-.33,1.19-.43,3.46-.43,7.9s0,6.71.43,7.9c.33.97.65.97,1.41.97h7.7l-3.69-9.19Z"></path><path d="M174.47,18.06h.54v1.73h.54v-1.73h.54v-.32h-1.63v.32Z"></path><path d="M176.75,18.17l.54,1.62h.43l.54-1.62v1.62h.43v-2.06h-.65l-.54,1.62-.54-1.62h-.65v2.06h.43v-1.62Z"></path></svg>