<svg xmlns="http://www.w3.org/2000/svg" xmlns:xlink="http://www.w3.org/1999/xlink" id="Layer_1" x="0px" y="0px" viewBox="0 0 400 267" style="enable-background:new 0 0 400 267;" xml:space="preserve"><style type="text/css">	.st0{fill:#F4F4F4;}	.st1{fill-rule:evenodd;clip-rule:evenodd;fill:#08594E;}</style><g>	<rect class="st0" width="400" height="267"></rect></g><g id="Clip-18"></g><g>	<rect x="132" y="147.5" class="st1" width="50.7" height="45.4"></rect>	<polygon class="st1" points="218,151.4 218,192.8 257.9,192.8 223.1,151.4  "></polygon>	<path class="st1" d="M132,74.2v67.7h50.7v-39.6h5.9v90.5H212v-90.5h16c7.5,0,15,0.1,21.3,4.7c6.7,4.7,9.4,12.1,9.4,20   c0,16.1-11.2,24.5-26.5,24.4c-0.1,0-2.3,0-2.4,0l34.9,41.4h3.3V74.2H132z"></path>	<path class="st1" d="M246.2,141.5c4.5-3.6,6.6-9.1,6.6-14.7c0-6.9-3.2-13.9-9.9-16.8c-4.9-2.3-11.3-2.1-16.7-2.1h-8.3v38h12   C235.7,145.9,241.5,145.6,246.2,141.5z"></path></g><g></g><g></g><g></g><g></g><g></g><g></g><g></g><g></g><g></g><g></g><g></g><g></g><g></g><g></g><g></g></svg>