<svg xmlns="http://www.w3.org/2000/svg" id="uuid-a6a8bdf1-1802-4041-aa9a-80a75bf1b80d" data-name="Layer 1" viewBox="0 0 506.87 99.88"><defs><style>      .uuid-0bd50a9d-78c1-472b-a084-c74282bfaed5 {        fill: #15a0d9;      }      .uuid-800d868a-624e-446a-aee1-c1eab3b19439 {        fill-rule: evenodd;      }    </style></defs><path class="uuid-800d868a-624e-446a-aee1-c1eab3b19439" d="M405.8,97.93v-1.66c0-12.61.03-25.22-.01-37.84-.02-4.86-1.32-9.35-4.26-13.3-3.25-4.37-7.86-6.39-13.02-7.2-12.54-1.96-23.73,1.18-33.57,9.18-.95.77-1.4,1.55-1.4,2.86.06,15.42.04,30.85.04,46.27v1.66h-21.73V23.81c.44-.02.83-.07,1.21-.07,6.37,0,12.75.02,19.12-.02,1.07,0,1.46.25,1.43,1.38-.08,2.54-.03,5.08-.03,7.78.44-.23.75-.37,1.02-.55,9.11-5.99,19.14-9.17,29.97-10.01,9.12-.71,17.96.39,26.4,4.02,9.35,4.01,14.43,11.27,15.68,21.24.4,3.21.51,6.48.53,9.72.06,13.05.02,26.1.02,39.16v1.48h-21.4Z"></path><path class="uuid-800d868a-624e-446a-aee1-c1eab3b19439" d="M210.89,23.74c-2.25,3.36-4.33,6.45-6.4,9.54-11.96,17.77-23.93,35.54-35.89,53.31-2.4,3.57-4.81,7.13-7.19,10.72-.45.67-.91,1.03-1.8.99-1.93-.08-3.87-.06-5.8,0-.8.02-1.25-.27-1.7-.92-16.65-24.19-33.33-48.37-49.99-72.56-.19-.28-.34-.58-.59-1,.51-.03.89-.07,1.26-.07,7.34,0,14.68.01,22.02-.02.88,0,1.4.26,1.9,1.02,9.71,14.79,19.46,29.55,29.2,44.31.26.4.54.8.89,1.31.28-.4.53-.73.76-1.08,9.37-14.74,18.75-29.47,28.09-44.23.61-.96,1.21-1.36,2.38-1.35,7.03.06,14.06.03,21.09.03h1.77Z"></path><path class="uuid-800d868a-624e-446a-aee1-c1eab3b19439" d="M454.59,38.41h-18.52c-.39-1.74,0-2.98,1.32-4.23,10.63-10.05,21.18-20.18,31.76-30.28,1.05-1,2.06-2.04,3.16-2.98.45-.38,1.09-.54,1.9-.91v21.54h28.88v16.83h-28.85v1.53c0,9.45-.03,18.9.03,28.35,0,1.61.18,3.26.58,4.81,1.36,5.3,5.47,8.57,11.08,9.19,7,.77,13.4-.85,19.33-4.56.37-.23.74-.47,1.12-.69.07-.04.17-.04.37-.09.04.28.11.55.11.83,0,5.1-.01,10.2.02,15.3,0,.76-.24,1.13-.93,1.49-7.9,4.01-16.3,5.07-25.05,4.69-6.62-.29-12.44-2.54-17.55-6.59-5.22-4.15-8.2-9.65-8.35-16.35-.27-11.99-.28-23.99-.39-35.98,0-.56,0-1.13,0-1.87Z"></path><path class="uuid-800d868a-624e-446a-aee1-c1eab3b19439" d="M314.85,58.72c-.35-8.24-2.85-15.66-8.47-21.86-5.98-6.59-13.41-10.81-21.92-13.19-7.95-2.22-16.07-2.6-24.27-2.23-7.21.33-14.32,1.14-21.26,3.27-15.67,4.81-30.12,21.09-26.6,41.24,1.43,8.19,5.2,15.23,11.17,21.03,3.88,3.77,8.66,6.12,13.59,8.13,8,3.26,16.46,4.1,24.99,4.5,1.08.05,2.16.17,3.23.26h7.65c.33-.07.66-.18,1-.19,6.9-.19,13.74-.96,20.48-2.47,6.23-1.4,12.27-3.31,17.75-6.7.47-.29.99-.96,1-1.46.08-4.66.04-9.32.03-13.97,0-.15-.07-.31-.13-.55-.44.2-.78.37-1.14.51-4.66,1.78-9.24,3.82-14,5.28-9.67,2.98-19.66,3.42-29.71,3.22-6.22-.12-12.33-.8-18.23-2.89-4.89-1.73-9.54-3.82-12.99-7.9-2.34-2.77-3.95-5.85-4.02-9.79h81.86c0-1.55.05-2.9,0-4.25ZM234.91,49.16c.94-2.5,2.44-4.53,4.24-6.33,4.06-4.07,9.07-6.44,14.6-7.66,8.87-1.95,17.68-1.99,26.26,1.42,4.3,1.71,8.17,4.12,10.86,8.02.91,1.31,1.53,2.81,2.46,4.55h-58.42Z"></path><path class="uuid-0bd50a9d-78c1-472b-a084-c74282bfaed5" d="M91.25,22.61v17.41S27.43,18.39,22.15,55.83c0,0-3.16,34.28,70.68,18.46v16.88S2.11,112.8,0,53.72c0,0,3.69-51.69,91.25-31.12Z"></path></svg>